<svg width="62" height="40" viewBox="0 0 62 40" fill="none" xmlns="http://www.w3.org/2000/svg">
<path d="M57.35 6.15385H55.8V4.61538C55.8 2.06732 53.7172 0 51.15 0H4.65C2.08283 0 0 2.06732 0 4.61538V29.2308C0 31.7788 2.08283 33.8462 4.65 33.8462H6.2V35.3846C6.2 37.9327 8.28283 40 10.85 40H57.35C59.9172 40 62 37.9327 62 35.3846V10.7692C62 8.22117 59.9172 6.15385 57.35 6.15385ZM3.1 29.2308V4.61538C3.1 3.76683 3.79508 3.07692 4.65 3.07692H51.15C51.5617 3.07692 51.9565 3.23798 52.2471 3.52644C52.5377 3.81491 52.7 4.20675 52.7 4.61537V29.2308C52.7 29.6394 52.5377 30.0312 52.2471 30.3197C51.9565 30.6081 51.5617 30.7692 51.15 30.7692H4.65C3.79508 30.7692 3.1 30.0793 3.1 29.2307V29.2308ZM58.9 35.3846C58.9 35.7933 58.7377 36.1851 58.4471 36.4735C58.1565 36.762 57.7617 36.9231 57.35 36.9231H10.85C9.9951 36.9231 9.30002 36.2332 9.30002 35.3846V33.8461H51.15C53.7172 33.8461 55.8 31.7788 55.8 29.2308V9.23075H57.35C57.7617 9.23075 58.1565 9.39181 58.4471 9.68027C58.7377 9.96873 58.9 10.3606 58.9 10.7692V35.3846Z" fill="black"/>
<path d="M27.8983 24.6153C31.0322 24.6153 33.8586 22.7403 35.0575 19.8678C36.2587 16.9927 35.5951 13.6825 33.3791 11.4831C31.1631 9.28364 27.8282 8.62499 24.9316 9.8173C22.0375 11.0072 20.1484 13.8125 20.1484 16.9231C20.1484 18.964 20.9646 20.9207 22.4178 22.363C23.8709 23.8053 25.8423 24.6155 27.8984 24.6155L27.8983 24.6153ZM27.8983 12.3076C29.7801 12.3076 31.4754 13.4326 32.1947 15.1562C32.9141 16.8822 32.5168 18.8677 31.1872 20.1875C29.8576 21.5071 27.8571 21.9014 26.1182 21.1875C24.3817 20.4735 23.2483 18.7908 23.2483 16.923C23.2483 14.375 25.3311 12.3076 27.8983 12.3076Z" fill="black"/>
</svg>
