<svg width="130" height="26" viewBox="0 0 130 26" fill="none" xmlns="http://www.w3.org/2000/svg">
<path d="M20.3262 16.7892C20.7075 16.7892 20.9255 17.2795 20.9255 18.3147C20.9255 18.8595 20.7075 19.5133 20.2172 20.2761C19.7813 21.0388 19.182 21.7471 18.4193 22.4009C17.711 23.0547 16.8938 23.5995 15.9675 23.9809C15.0958 24.4168 14.2241 24.5802 13.3524 24.5802C12.2082 24.5802 11.4455 23.5451 11.0096 21.5292C10.4648 22.4554 9.70203 23.2182 8.77582 23.8175C7.84962 24.4168 6.65099 24.7437 5.07099 24.7437C3.54548 24.7437 2.29238 24.2533 1.36617 23.3271C0.439962 22.3464 -0.0503828 21.2023 0.00409993 19.8402C0.00409993 16.1354 1.2572 13.1933 3.70892 11.0685C4.7441 10.1968 5.72479 9.59747 6.65099 9.32505C7.5772 9.05264 8.50341 8.8892 9.4841 8.8892C10.4648 8.8892 11.282 9.05265 11.9358 9.43403C12.2627 8.78023 12.5896 8.50781 12.971 8.50781C13.7338 8.50781 14.442 8.83471 15.1503 9.4885C15.8586 10.1423 16.1855 10.7961 16.1855 11.3409C15.8586 12.0492 15.4227 12.9209 14.8234 13.9016C14.66 14.8823 14.551 16.2988 14.551 18.0968C14.551 19.8947 14.7689 20.8209 15.2593 20.8209C15.8041 20.8209 17.2207 19.6768 19.4 17.443C19.8358 17.0071 20.1627 16.7892 20.3262 16.7892ZM4.90755 18.7506C4.90755 20.4395 5.50686 21.2568 6.75996 21.2568C8.06754 21.2568 9.21169 20.5485 10.0834 19.1319C10.4103 18.6416 10.6282 18.0423 10.8462 17.3885C10.8462 14.9368 11.0641 12.8664 11.5 11.123C9.75651 11.4499 8.17651 12.3216 6.86893 13.6837C5.56134 15.0457 4.90755 16.7347 4.90755 18.7506Z" fill="#C6C7C9"/>
<path d="M34.7093 14.6094C34.7093 13.9012 34.2734 13.5198 33.4562 13.5198C32.9113 13.5198 32.2575 14.0646 31.5493 15.1543C30.841 16.2439 30.3506 17.4425 30.0237 18.6956V18.7501C30.0237 19.5129 30.1327 20.2756 30.3506 21.0384C30.5686 21.8011 30.6775 22.346 30.6775 22.6729C30.6775 23.4356 29.7513 24.1439 27.8989 24.8522C27.6265 24.9611 27.3541 25.0156 27.1362 25.0156C26.5913 25.0156 26.2099 24.7432 25.992 24.1439C25.7741 23.5991 25.6651 22.8363 25.6651 21.8556C25.6651 20.8749 25.7196 19.9487 25.7741 19.1315C25.8286 18.2598 25.8831 17.497 25.9375 16.7343C25.992 16.026 26.0465 15.3722 26.101 14.8274C26.1555 14.2825 26.21 13.8467 26.21 13.4653C26.21 12.7025 25.8831 12.3756 25.1748 12.3756C24.521 12.3756 23.7037 13.1929 22.832 14.7184C21.9603 16.2984 21.4699 17.5515 21.4699 18.4777C21.4699 19.4039 21.5789 20.2756 21.7968 21.0384C22.0148 21.8011 22.1237 22.346 22.1237 22.6729C22.1237 23.4356 21.1975 24.1439 19.3451 24.8522C19.0727 24.9611 18.8003 25.0156 18.5824 25.0156C18.0375 25.0156 17.6562 24.7432 17.4382 24.1439C17.2203 23.5991 17.1113 22.7274 17.1113 21.5287C17.1113 18.4232 17.2203 16.1894 17.4927 14.8274C17.8196 12.8115 18.5824 10.9046 19.7265 9.05218C20.1079 8.45287 20.5437 8.12598 20.9796 8.12598C21.6879 8.12598 22.3417 8.72529 22.9955 9.86942C23.1589 10.1963 23.3224 10.4687 23.3768 10.7412C24.412 9.43356 25.6651 8.77977 27.0817 8.77977C28.0079 8.77977 28.8796 9.10667 29.5879 9.70598C30.3506 10.3053 30.6775 11.1225 30.6775 12.0487V12.4301C31.9851 10.7956 33.6196 9.92391 35.5265 9.92391C36.7251 9.92391 37.5968 10.2508 38.1962 10.8501C38.7955 11.4494 39.1224 12.2122 39.1224 13.0839C39.1224 13.9556 39.0679 14.7729 38.9044 15.4811C38.7955 16.1894 38.632 16.8977 38.4686 17.497C38.3051 18.1508 38.1417 18.6956 38.0327 19.186C37.9237 19.6763 37.8148 20.0577 37.8148 20.3301C37.8148 20.6025 37.9237 20.766 38.0872 20.766C38.4141 20.766 38.7955 20.548 39.2858 20.1667C39.7762 19.7308 40.2665 19.2949 40.7024 18.8046C41.1927 18.3143 41.6286 17.8784 42.0099 17.4425C42.3913 17.0067 42.6637 16.8432 42.8272 16.8432C43.1541 16.8432 43.2631 17.2246 43.2631 17.9329C43.2631 19.4584 42.5003 20.9294 40.9748 22.4005C39.4493 23.817 37.8148 24.5798 36.0713 24.5798C34.4913 24.5798 33.7286 23.1632 33.7286 20.2756C33.7286 19.5674 33.8375 18.5867 34.1099 17.2791C34.6003 16.0805 34.7093 15.1543 34.7093 14.6094Z" fill="#C6C7C9"/>
<path d="M52.6896 21.7464C50.9461 23.7623 48.8758 24.7974 46.4785 24.7974C44.0813 24.7974 42.2834 24.1981 41.0847 22.945C39.8861 21.6919 39.2868 20.1664 39.3413 18.3685C39.3413 15.7533 40.1585 13.5195 41.793 11.6671C43.4275 9.81467 45.6068 8.83398 48.2765 8.83398C49.4751 8.83398 50.4558 8.99743 51.2185 9.26985C52.5261 9.81468 53.1254 10.305 53.1254 10.7409C53.1254 11.0678 52.1992 11.2857 50.4558 11.2857C48.6578 11.2857 47.1323 11.9395 45.9337 13.1381C44.7351 14.3912 44.1358 15.9167 44.1358 17.8236C44.1358 18.8043 44.4082 19.6216 45.0075 20.2754C45.6068 20.9292 46.4241 21.2561 47.4592 21.2561C48.4944 21.2561 49.3661 21.0381 50.0744 20.6023C48.5489 19.5671 47.7316 18.0416 47.7316 16.0802C47.7316 15.045 48.113 14.0643 48.8758 13.2471C49.6385 12.3754 50.6192 11.9395 51.8723 11.9395C53.071 11.9395 53.9427 12.2664 54.4875 12.9202C55.0323 13.574 55.2503 14.4457 55.2503 15.5354C55.2503 16.5705 54.9779 17.7147 54.4875 18.9133H54.7054C55.6861 18.9133 56.5034 18.5319 57.2116 17.8781C57.4841 17.6057 57.702 17.3878 57.8654 17.1698C58.0289 16.9519 58.2468 16.8974 58.4103 16.8974C58.7372 16.8974 58.8461 17.2788 58.8461 17.9871C58.8461 19.2947 58.4647 20.3298 57.6475 20.9836C56.8847 21.6374 56.013 21.9643 55.0323 21.9643C54.1606 21.9643 53.3434 21.8554 52.6896 21.7464ZM52.4172 17.9326C52.7985 17.1698 52.962 16.4071 52.962 15.6443C52.962 14.8816 52.7441 14.5547 52.2537 14.5547C52.0358 14.5547 51.8723 14.7181 51.7634 14.9905C51.6544 15.263 51.5454 15.5354 51.5454 15.8078C51.5454 16.6795 51.8723 17.3878 52.4172 17.9326Z" fill="#C6C7C9"/>
<path d="M129.999 21.5287C129.999 23.3267 128.528 24.7977 126.73 24.7977C124.932 24.7977 123.461 23.3267 123.461 21.5287C123.461 19.7308 124.932 18.2598 126.73 18.2598C128.582 18.2598 129.999 19.7308 129.999 21.5287Z" fill="#A1D5F6"/>
<path d="M93.0088 17.3887C93.3901 17.3887 93.5536 17.879 93.5536 18.9142C93.5536 19.459 93.3357 20.1128 92.8453 20.8756C92.4095 21.6383 91.8101 22.3466 91.0474 23.0004C90.3391 23.6542 89.5219 24.199 88.5957 24.5804C87.7239 25.0163 86.8522 25.1797 86.035 25.1797C85.2177 25.1797 84.6184 25.0163 84.1281 24.7438C83.6922 24.417 83.3108 24.0356 83.0384 23.4907C82.657 22.728 82.3846 21.3114 82.1122 19.2411C81.8943 17.1707 81.6219 15.6997 81.4039 14.8825C80.8591 14.7735 80.3688 14.5556 79.9329 14.2287C79.497 13.9018 79.2791 13.4659 79.2791 12.9756C79.2791 12.4852 79.497 12.1039 79.9329 11.8859C80.3688 11.668 80.9136 11.559 81.4584 11.559C82.0577 11.559 82.5481 11.7225 82.9839 11.9949C83.5833 11.5045 84.0736 10.9052 84.455 10.197C84.8364 9.48868 84.9998 8.56247 84.9998 7.41833C84.9998 6.27419 84.6184 5.34799 83.8012 4.63972C83.0384 3.93144 81.8943 3.60454 80.3688 3.60454C78.8433 3.60454 77.6991 3.71351 76.8819 3.98592C76.0646 4.20386 75.3564 4.47627 74.8115 4.74868C74.2122 5.02109 73.7219 5.2935 73.286 5.51144C72.8502 5.72937 72.4143 5.89282 72.0329 5.89282C71.6515 5.89282 71.4336 5.78385 71.4336 5.51144C71.4336 5.23902 71.6515 4.85764 72.0329 4.31282C72.4688 3.76799 73.0681 3.16868 73.8853 2.62386C75.9012 1.2073 78.1895 0.499023 80.7501 0.499023C83.3108 0.499023 85.3812 0.989367 87.0701 1.97006C89.0315 3.11419 89.9577 4.80316 89.9577 7.09144C89.9577 8.94385 89.4674 10.5238 88.4867 11.777C87.506 13.0301 86.2529 13.9018 84.7819 14.4466C85.1088 15.1549 85.3812 15.9176 85.5991 16.7894C85.817 17.6066 86.035 18.3694 86.1984 19.0776C86.4164 19.7859 86.6343 20.3307 86.8522 20.8211C87.1246 21.257 87.397 21.5294 87.7784 21.5294C88.1598 21.5294 88.5957 21.3114 89.086 20.8756C89.5764 20.4397 90.1212 20.0039 90.6115 19.5135C91.1019 19.0232 91.5922 18.5328 91.9736 18.097C92.5729 17.6066 92.8453 17.3887 93.0088 17.3887ZM78.7888 5.62041C79.0612 5.62041 79.2246 6.00179 79.2246 6.71006C79.2246 7.47282 79.1701 8.12661 79.1157 8.7804C78.8977 10.0335 78.6798 11.2321 78.3529 12.3218C77.5902 15.2638 77.1543 17.0073 77.1543 17.4976V22.2921C77.1543 23.4907 76.7184 24.2535 75.7922 24.6894C75.3564 24.9073 74.975 25.0707 74.5936 25.2342C74.2122 25.3976 73.7764 25.5066 73.286 25.5066C72.3598 25.5066 71.9239 24.4714 71.9239 22.3466C71.9239 20.2218 72.4143 17.6066 73.395 14.3921C74.3757 11.1776 75.4108 8.72592 76.446 7.09144C76.6639 6.76454 76.9908 6.43764 77.3722 6.05626C77.8626 5.78385 78.3529 5.62041 78.7888 5.62041Z" fill="#A1D5F6"/>
<path d="M121.176 17.3885C121.557 17.3885 121.721 17.8788 121.721 18.914C121.721 19.4588 121.503 20.1126 121.012 20.8754C120.576 21.6381 119.977 22.3464 119.214 23.0002C118.506 23.654 117.689 24.1988 116.763 24.5802C115.891 25.0161 114.91 25.1795 113.929 25.1795C112.949 25.1795 112.186 24.8526 111.587 24.1988C111.042 23.545 110.769 22.8367 110.769 22.0195C110.769 21.2023 110.878 20.3305 111.151 19.3498C111.423 18.3692 111.696 17.2795 112.023 16.1898C112.84 13.3023 113.276 11.2319 113.276 10.0878C113.276 9.59744 113.221 9.21605 113.058 8.94364C112.949 8.67123 112.676 8.50778 112.295 8.50778C111.641 8.50778 110.933 8.88916 110.225 9.7064C109.462 10.4692 108.808 11.5043 108.154 12.703C106.629 15.4816 105.866 18.2057 105.757 20.8754C105.812 21.2023 105.866 21.4747 105.866 21.8016C105.921 22.1285 105.921 22.4554 105.921 22.7823C105.921 23.4905 105.594 24.1443 104.885 24.6892C104.177 25.2885 103.414 25.5609 102.597 25.5609C102.107 25.5609 101.725 25.2885 101.507 24.7981C101.289 24.3078 101.126 23.7085 101.126 23.0002C101.126 22.2919 101.289 21.3112 101.616 20.0581C101.943 18.805 102.325 17.4974 102.706 16.0809C103.741 12.3761 104.286 9.65192 104.286 7.85399C104.286 6.92778 104.177 6.2195 103.959 5.67467C103.741 5.12985 103.305 4.91192 102.652 4.91192C101.453 4.91192 100.309 5.72916 99.1646 7.41812C98.0205 9.10709 96.9853 11.7223 96.0591 15.2092C95.8412 16.1354 95.6233 16.8981 95.5143 17.6064L95.4598 18.2057C95.8957 20.2216 96.0591 21.5292 96.0591 22.1285C96.0591 23.3816 95.6233 24.2533 94.6971 24.6892C94.2612 24.9071 93.8798 25.0705 93.4984 25.234C93.1171 25.3974 92.7357 25.5064 92.2998 25.5064C91.2102 25.5064 90.6653 24.4712 90.6653 22.4009C90.6653 20.3305 91.2646 16.2443 92.4088 10.1967C92.8446 8.01744 93.0081 6.81882 93.0081 6.5464C93.0081 4.80295 92.5722 3.87674 91.646 3.87674C91.3191 3.87674 91.0467 3.98571 90.8288 4.14916C90.5564 4.3126 90.3384 4.53054 90.066 4.69398C89.7936 4.91191 89.5757 5.07536 89.3033 5.23881C89.0309 5.40226 88.7584 5.51123 88.3771 5.51123C88.0502 5.51123 87.8867 5.23882 87.8867 4.63951C87.8867 3.44089 88.4315 2.46019 89.5757 1.69743C90.6653 0.934674 91.9184 0.498814 93.444 0.498814C95.4053 0.498814 96.5495 1.42502 96.9309 3.22295C97.0398 3.76778 97.0943 4.36709 97.1488 4.9664C98.7833 1.91536 100.799 0.444336 103.251 0.444336C105.92 0.444336 107.446 1.75192 107.882 4.31261C107.991 5.07537 108.045 5.83813 108.045 6.70985V6.98227C109.462 5.02089 111.151 4.04019 113.058 4.04019C115.782 4.04019 117.198 5.67468 117.198 8.99813C117.198 10.4147 116.981 12.1036 116.545 14.065C116.109 15.9719 115.782 17.3885 115.564 18.2057C115.346 19.0229 115.237 19.6767 115.237 20.1671C115.237 20.9843 115.509 21.4202 116.109 21.4202C116.708 21.4202 118.07 20.2761 120.249 18.0423C120.74 17.6064 121.012 17.3885 121.176 17.3885Z" fill="#A1D5F6"/>
<path d="M74.6466 13.0291C75.1914 13.0291 75.4638 13.5739 75.4638 14.6091C75.4638 15.6443 75.2459 16.7884 74.7555 17.987C74.2652 19.1856 73.5569 20.3298 72.5762 21.4739C71.5955 22.618 70.3969 23.5443 68.8714 24.3615C67.3459 25.1787 65.6024 25.5601 63.5866 25.5601C61.5707 25.5601 59.7728 24.9063 58.2473 23.5443C56.7217 22.1822 55.959 20.2208 55.959 17.6601C55.959 15.0994 56.3404 12.7567 57.0486 10.6863C57.7569 8.61598 58.7376 6.81805 59.8817 5.29253C61.0804 3.76701 62.388 2.62288 63.9135 1.75115C65.439 0.933911 66.8555 0.498047 68.1631 0.498047C70.5059 0.498047 71.7045 1.53322 71.7045 3.65805C71.7045 4.85667 71.4866 5.83736 71.0507 6.54564C70.6148 7.25391 70.179 7.63529 69.6886 7.63529C69.0893 7.63529 68.5445 7.41736 68.1086 6.92701C67.6728 6.43667 67.1279 6.21874 66.5831 6.16426C66.0383 6.16426 64.5128 6.10977 63.2597 8.12563C62.3879 9.54218 62.4969 9.43322 62.17 10.3594C61.5162 12.2663 61.0804 13.7918 61.0804 16.3525C61.1348 17.6056 62.2245 19.5125 63.2052 20.1118C63.859 20.5477 64.6762 20.8746 65.6024 20.7656C67.5638 20.4932 68.6535 19.567 69.4707 18.7498C70.2335 17.9325 70.8873 17.2243 71.5955 16.407C72.3038 15.5898 72.9031 14.827 73.4479 14.1732C73.9383 13.4105 74.3197 13.0291 74.6466 13.0291Z" fill="#A1D5F6"/>
</svg>
