<svg width="173" height="34" viewBox="0 0 173 34" fill="none" xmlns="http://www.w3.org/2000/svg">
<path d="M103.297 12.7277L105.594 18.8511H101.143L103.297 12.7277ZM102.436 10.6865L97.4102 24.0995H99.2769L100.569 20.4547H106.169L107.461 24.0995H109.328L104.303 10.6865H102.436H102.436ZM129.571 24.0995H131.294V10.6865H129.571V24.0995ZM111.905 16.2263C112.48 15.3513 113.628 14.6226 114.777 14.6226C117.074 14.6226 118.223 16.2263 118.223 18.5592V24.2452H116.5V18.8505C116.5 16.955 115.496 16.2268 114.203 16.2268C112.768 16.2268 111.762 17.6849 111.762 18.9967V24.0995H110.04V14.7688H111.762L111.906 16.2268L111.905 16.2263ZM119.66 21.3297C119.66 19.2885 121.526 18.1223 123.68 18.1223C124.972 18.1223 125.834 18.4142 126.121 18.706V18.4142C126.121 16.9561 124.972 16.2268 123.824 16.2268C122.819 16.2268 121.957 16.6643 121.67 17.5392L120.095 16.8094C120.382 15.9344 121.531 14.622 123.834 14.622C125.988 14.622 127.854 15.9344 127.854 18.5587V24.099H126.275V22.7803H126.132C125.701 23.5091 124.696 24.384 123.116 24.384C121.25 24.384 119.67 23.2178 119.67 21.3223L119.66 21.3297ZM126.132 20.1561C126.132 20.1561 125.414 19.5724 123.977 19.5724C122.255 19.5724 121.536 20.5924 121.536 21.3217C121.536 22.3417 122.541 22.7798 123.403 22.7798C124.696 22.7798 126.131 21.6136 126.131 20.1561" fill="#757575"/>
<path fill-rule="evenodd" clip-rule="evenodd" d="M133.73 28.18L135.74 23.3633L132.15 14.9075H133.873L136.601 21.3222L139.329 14.9075H141.052L135.453 28.18H133.73H133.73ZM158.999 17.9754C158.567 16.8081 157.563 16.0799 156.558 16.0799C155.123 16.0799 153.831 17.3923 153.831 19.2873C153.831 21.1822 155.123 22.4946 156.558 22.4946C157.563 22.4946 158.569 21.7659 158.999 20.7453L160.435 21.6202C159.718 23.2239 158.281 24.2439 156.558 24.2439C154.117 24.2439 152.107 22.0566 152.107 19.2873C152.107 16.3712 154.117 14.3301 156.558 14.3301C158.281 14.3301 159.717 15.3501 160.435 16.9537L158.999 17.9737L158.999 17.9754Z" fill="#757575"/>
<path d="M165.173 24.3902C167.47 24.3902 168.619 23.0778 168.619 21.4742C168.619 17.975 163.593 19.2868 163.593 17.2468C163.593 16.5181 164.168 16.0806 165.173 16.0806C166.177 16.0806 167.183 16.5181 167.614 17.2468L168.618 16.2268C168.043 15.4981 166.464 14.4775 165.029 14.4775C162.875 14.4775 161.727 15.7899 161.727 17.3936C161.727 20.7466 166.895 19.5809 166.895 21.3302C166.895 22.2052 166.321 22.7883 165.173 22.7883C164.025 22.7883 163.45 22.0595 162.876 21.3302L161.583 22.3502C162.445 23.2252 163.737 24.3914 165.173 24.3914V24.3902ZM148.805 24.0984H150.527V14.7682H148.805V24.099V24.0984Z" fill="#757575"/>
<path fill-rule="evenodd" clip-rule="evenodd" d="M149.522 10.248C150.24 10.248 150.671 10.8317 150.671 11.4142C150.671 12.143 150.096 12.5804 149.522 12.5804C148.949 12.5804 148.374 11.9968 148.374 11.4142C148.374 10.8317 148.949 10.248 149.522 10.248ZM147.082 22.641L147.369 23.9534H145.647C144.067 23.9534 143.35 22.7872 143.35 21.0374V16.5176H141.627V14.7683H143.35V11.9985H145.072V14.7683H147.083V16.5176H145.072V21.3343C145.072 22.6467 146.077 22.6467 147.083 22.6467L147.082 22.641Z" fill="#757575"/>
<path d="M41.2646 16.0801V18.2674H46.29C46.1466 19.4336 45.7152 20.3085 45.1415 20.8911C44.4238 21.6198 43.2748 22.4947 41.2646 22.4947C38.2494 22.4947 35.8084 20.0161 35.8084 16.8088C35.8084 13.7471 38.2494 11.1229 41.2646 11.1229C42.9874 11.1229 44.1364 11.8516 45.0037 12.5809L46.4396 11.1229C45.1471 9.95668 43.5678 8.93555 41.2708 8.93555C37.1076 8.93555 33.5176 12.4347 33.5176 16.6626C33.5176 20.8905 37.1015 24.3891 41.2652 24.3891C43.5622 24.3891 45.2855 23.6604 46.578 22.2018C48.0139 20.7437 48.4447 18.8488 48.4447 17.2446C48.4447 16.8071 48.4447 16.2246 48.3013 15.9322H41.2697L41.2646 16.0801ZM54.0432 14.3364C51.3154 14.3364 49.1612 16.3776 49.1612 19.2936C49.1612 22.2097 51.3154 24.2503 54.0432 24.2503C56.771 24.2503 58.9251 22.0629 58.9251 19.2936C58.9251 16.3776 56.771 14.3364 54.0432 14.3364ZM54.0432 22.3548C52.6073 22.3548 51.3154 21.0424 51.3154 19.2931C51.3154 17.5438 52.6079 16.2314 54.0432 16.2314C55.4785 16.2314 56.771 17.3976 56.771 19.2931C56.771 21.1886 55.4785 22.3548 54.0432 22.3548ZM77.5902 15.3564C77.0154 14.7728 76.1543 14.1902 74.8623 14.1902C72.4214 14.1902 70.2678 16.3776 70.2678 19.1474C70.2678 21.9173 72.4219 24.1041 74.8623 24.1041C76.0108 24.1041 77.0165 23.5204 77.4462 22.9379H77.5896V23.6666C77.5896 25.5621 76.5851 26.5827 75.0058 26.5827C73.7133 26.5827 72.8516 25.5627 72.5648 24.8334L70.6981 25.5621C71.2729 26.8745 72.7082 28.4782 75.0052 28.4782C77.5891 28.4782 79.7488 27.0201 79.7488 23.2297V14.1914H77.7386V15.3576L77.5902 15.3564ZM75.1492 22.3548C73.7133 22.3548 72.5654 21.0424 72.5654 19.2931C72.5654 17.5438 73.7139 16.2314 75.1492 16.2314C76.5845 16.2314 77.733 17.5438 77.733 19.2931C77.733 21.0424 76.5845 22.3548 75.1492 22.3548ZM64.6676 14.3364C61.9398 14.3364 59.7857 16.3776 59.7857 19.2936C59.7857 22.2097 61.9398 24.2503 64.6676 24.2503C67.3954 24.2503 69.5496 22.0629 69.5496 19.2936C69.693 16.3776 67.3954 14.3364 64.6676 14.3364ZM64.6676 22.3548C63.2317 22.3548 61.9398 21.0424 61.9398 19.2931C61.9398 17.5438 63.2323 16.2314 64.6676 16.2314C66.103 16.2314 67.3954 17.3976 67.3954 19.2931C67.3954 21.1886 66.103 22.3548 64.6676 22.3548ZM81.3231 9.08231H83.4772V24.2446H81.3231V9.08231ZM89.3637 22.3491C88.2152 22.3491 87.4969 21.7654 86.9227 20.8911L93.5274 18.1212L93.24 17.5375C92.8091 16.3713 91.5172 14.3302 89.0768 14.3302C86.493 14.3302 84.4823 16.3713 84.4823 19.2874C84.4823 22.0573 86.6364 24.244 89.3642 24.244C91.6612 24.244 92.9537 22.786 93.5274 22.0567L91.8046 20.8905C91.2298 21.7654 90.5121 22.3485 89.3637 22.3485V22.3491ZM89.2202 16.2257C90.0819 16.2257 90.7995 16.6632 91.087 17.3919L86.6358 19.2874C86.6358 17.1001 88.0717 16.2257 89.2197 16.2257H89.2202Z" fill="#757575"/>
<path fill-rule="evenodd" clip-rule="evenodd" d="M14.4288 28.0175H6.16611C5.67916 28.0175 5.21216 27.8211 4.86784 27.4714C4.52352 27.1218 4.33008 26.6476 4.33008 26.1531V22.1298C4.33008 21.6354 4.52352 21.1612 4.86784 20.8115C5.21216 20.4619 5.67916 20.2655 6.16611 20.2655H11.384V14.3721C11.384 13.8777 11.5775 13.4035 11.9218 13.0539C12.2661 12.7042 12.7331 12.5078 13.22 12.5078H19.0239V27.9625H14.4338L14.4288 28.0175Z" fill="#FFC517"/>
<path fill-rule="evenodd" clip-rule="evenodd" d="M24.8175 28.0174H19.0137V7.22078C19.0137 6.72633 19.2071 6.25213 19.5514 5.9025C19.8958 5.55287 20.3628 5.35645 20.8497 5.35645H24.812C25.0531 5.35645 25.2918 5.40467 25.5146 5.49836C25.7373 5.59205 25.9397 5.72938 26.1102 5.9025C26.2807 6.07562 26.416 6.28114 26.5082 6.50733C26.6005 6.73352 26.648 6.97595 26.648 7.22078V26.1588C26.5994 27.189 25.7785 28.0288 24.8064 28.0288L24.8175 28.0174Z" fill="#F57E02"/>
<path fill-rule="evenodd" clip-rule="evenodd" d="M26.6048 20.2655V26.1529C26.6048 27.1832 25.7834 28.0172 24.7687 28.0172H18.9707V12.5137L26.6048 20.2655Z" fill="url(#paint0_linear)"/>
<defs>
<linearGradient id="paint0_linear" x1="18.9961" y1="20.2656" x2="26.6121" y2="20.2656" gradientUnits="userSpaceOnUse">
<stop stop-color="#E96F0B"/>
<stop offset="1" stop-color="#F37901"/>
</linearGradient>
</defs>
</svg>
