<svg width="219" height="50" viewBox="0 0 219 50" xmlns="http://www.w3.org/2000/svg" xmlns:xlink="http://www.w3.org/1999/xlink"><title>logo-icon</title><defs><path d="M15.262 13.233l9.205 13.158c.294.42-.035.99-.553.99h-4.567a1.44 1.44 0 0 1-1.198-.606L.113.989C-.181.582.133 0 .666 0h4.567c.484 0 .923.22 1.21.629l8.819 12.604" id="a"/><path d="M.112 26.506c-.297.422.034.994.557.994h4.599c.487 0 .932-.218 1.205-.608L24.636.994c.296-.41-.02-.994-.556-.994h-4.6c-.487 0-.93.222-1.219.631l-8.88 12.66-9.27 13.215z" id="d"/><filter x="-50%" y="-50%" width="200%" height="200%" filterUnits="objectBoundingBox" id="c"><feOffset in="SourceAlpha" result="shadowOffsetOuter1"/><feGaussianBlur stdDeviation="15" in="shadowOffsetOuter1" result="shadowBlurOuter1"/><feColorMatrix values="0 0 0 0 0.666556617 0 0 0 0 0.742098681 0 0 0 0 0.774473852 0 0 0 1 0" in="shadowBlurOuter1"/></filter></defs><g fill="none" fill-rule="evenodd"><g fill="#463659"><path d="M137.198 19.637h-14.411a.492.492 0 0 0-.482.482v2.958a.47.47 0 0 0 .482.481h5.09v11.178c0 .241.206.448.481.448h3.268c.24 0 .482-.207.482-.448V23.558h5.09c.24 0 .447-.206.447-.481v-2.958c0-.241-.206-.482-.447-.482M100.98 19.637h-3.267a.492.492 0 0 0-.481.482v.584a6.825 6.825 0 0 0-4.437-1.582c-4.403 0-7.67 3.44-7.67 8.29 0 4.883 3.302 8.323 7.532 8.323 2.167 0 3.612-.757 4.575-1.548v.55c0 .241.206.448.481.448h3.268c.24 0 .481-.207.481-.448V20.12c0-.241-.24-.482-.481-.482zm-3.748 10.594s-1.032 1.582-3.715 1.582c-2.51 0-4.058-1.789-4.058-4.403 0-2.648 1.547-4.367 4.058-4.367 2.58 0 3.715 1.582 3.715 1.582v5.606zM119.794 19.637h-3.267c-.241 0-.482.241-.482.482v5.365h-6.81V20.12c0-.241-.24-.482-.481-.482h-3.268a.492.492 0 0 0-.481.482v14.617c0 .241.206.448.481.448h3.268c.24 0 .481-.207.481-.448v-5.365h6.81v5.365c0 .241.241.448.482.448h3.267c.276 0 .482-.207.482-.448V20.12a.492.492 0 0 0-.482-.482M77.592 23.97l7.154-10.248c.207-.276.035-.62-.275-.62h-3.68c-.447 0-.722.138-.963.516l-4.712 6.776-4.643-6.776c-.24-.378-.516-.516-.963-.516h-3.852c-.31 0-.447.344-.275.62l7.154 10.387-7.292 10.49c-.172.24-.034.585.31.585H69.2c.482 0 .757-.207.963-.517l4.85-6.947 4.815 6.947c.24.344.482.517.963.517h3.818c.344 0 .482-.345.31-.585l-7.327-10.628M191.69 19.121c-4.884 0-8.53 3.405-8.53 8.29 0 4.883 3.646 8.323 8.53 8.323 4.884 0 8.53-3.44 8.53-8.324s-3.646-8.289-8.53-8.289zm0 12.692c-2.373 0-4.162-1.72-4.162-4.403 0-2.682 1.789-4.402 4.162-4.402s4.161 1.72 4.161 4.402c0 2.683-1.788 4.403-4.161 4.403zM218.31 19.637h-3.198c-.378 0-.584.207-.722.55l-4.506 10.422-4.505-10.421c-.138-.344-.344-.55-.757-.55h-3.37c-.379 0-.551.24-.448.584 6.776 15.306 6.81 15.375 6.81 15.375-.688.997-1.65 1.444-2.82 1.444-.24 0-.654-.069-.791-.069-.413-.034-.688.275-.688.688v2.442c0 .482.275.688.62.757.343.068.928.137 1.272.137 3.37 0 5.503-2.167 6.638-4.815l6.913-15.96c.103-.343-.069-.584-.447-.584M157.078 19.121c-1.445 0-2.545.345-3.405.792v-4.059c0-.24-.206-.447-.482-.447h-3.267c-.24 0-.482.206-.482.447v4.059a7.388 7.388 0 0 0-3.37-.792c-4.23 0-7.567 3.543-7.567 8.29 0 4.574 3.13 8.323 7.567 8.323 1.41 0 2.476-.31 3.37-.757v5.538c0 .275.241.481.482.481h3.267a.47.47 0 0 0 .482-.481v-5.572c.86.447 1.995.79 3.405.79 4.23 0 7.532-3.542 7.532-8.323 0-4.54-3.095-8.289-7.532-8.289zm-7.636 12.073c-.619.344-1.444.619-2.51.619-2.477 0-4.059-1.754-4.059-4.403 0-2.545 1.582-4.367 4.058-4.367 1.101 0 1.927.274 2.511.584v7.567zm6.776.619c-1.135 0-1.96-.275-2.545-.585v-7.532c.584-.344 1.444-.653 2.545-.653 2.442 0 4.058 1.753 4.058 4.367 0 2.58-1.582 4.403-4.058 4.403zM176.556 20.119c-.137-.344-.275-.482-.688-.482h-3.92c-.38 0-.517.138-.654.482l-6.054 14.514c-.103.275.07.55.447.55h3.096c.413 0 .619-.171.757-.516l4.265-10.283 4.3 10.283c.17.379.377.517.756.517h3.302c.378 0 .55-.241.447-.55l-6.054-14.515"/></g><g><rect fill="#22BBD2" width="50" height="50" rx="25"/><g transform="translate(12.6 10.75)"><mask id="b" fill="#463659"><use xlink:href="#a"/></mask><use fill="#F2F2F2" xlink:href="#a"/><g mask="url(#b)"><use fill="#463659" filter="url(#c)" xlink:href="#d"/><use fill="#F2F2F2" xlink:href="#d"/></g></g><path d="M12.712 37.256c-.297.422.034.994.557.994h4.599c.487 0 .932-.218 1.205-.608l18.163-25.898c.296-.41-.02-.994-.556-.994h-4.6c-.487 0-.93.222-1.219.631l-8.88 12.66-9.27 13.215z" fill="#F2F2F2"/></g></g></svg>