<svg width="87" height="33" viewBox="0 0 87 33" fill="none" xmlns="http://www.w3.org/2000/svg">
<path d="M78.9099 8.20039C78.8715 8.08191 78.7954 7.97841 78.6925 7.90496C78.5896 7.8315 78.4652 7.79193 78.3376 7.79199H72.7384C72.6108 7.79197 72.4865 7.83157 72.3837 7.90502C72.2808 7.97847 72.2046 8.08195 72.1664 8.20039L65.1022 30.0071C65.0737 30.0946 65.0669 30.1874 65.0821 30.2779C65.0974 30.3685 65.1345 30.4542 65.1902 30.5283C65.2459 30.6022 65.3188 30.6624 65.4029 30.7039C65.487 30.7453 65.58 30.7669 65.6742 30.7668H69.5291C69.6586 30.7669 69.7846 30.7261 69.8884 30.6507C69.9921 30.5753 70.068 30.4691 70.1046 30.3482L74.9692 14.3102C74.9692 14.3102 75.0965 13.9095 75.5371 13.9095C75.9848 13.9095 76.0941 14.3257 76.0941 14.3263L78.3509 21.9318H75.2502C75.1194 21.9318 74.9922 21.9733 74.888 22.0502C74.7837 22.127 74.7081 22.2349 74.6727 22.3573L73.8024 25.3682C73.7773 25.455 73.7733 25.5462 73.7905 25.6349C73.8078 25.7234 73.8459 25.8069 73.9019 25.8787C73.9579 25.9506 74.0302 26.009 74.1131 26.0492C74.1961 26.0893 74.2875 26.1103 74.3802 26.1103H79.613L80.9724 30.3563C81.0105 30.4753 81.0865 30.5793 81.1896 30.6531C81.2927 30.727 81.4173 30.7668 81.5453 30.7668H85.4019C85.4961 30.7668 85.5891 30.7452 85.6731 30.7037C85.7572 30.6622 85.83 30.602 85.8857 30.5281C85.9415 30.4541 85.9785 30.3684 85.9938 30.2779C86.0091 30.1873 86.0024 30.0946 85.9739 30.0071L78.9097 8.20023" fill="#264970"/>
<path d="M52.5784 12.0378H57.2444C59.6575 12.0378 60.1419 12.9619 60.1419 14.4533V16.6804C60.1419 18.5366 59.4109 19.1629 57.2444 19.1629H52.5784V12.0378ZM66.8253 29.8029L61.6981 22.6043C63.9057 21.7131 65.0245 19.845 65.0245 17.0516V14.1159C65.0245 9.74217 62.6784 7.79199 57.4175 7.79199H48.2959C48.1368 7.79199 47.9843 7.85347 47.8717 7.96292C47.7593 8.07238 47.696 8.22082 47.6959 8.37565V30.1825C47.6959 30.2592 47.7114 30.3352 47.7415 30.4061C47.7716 30.477 47.8158 30.5414 47.8716 30.5956C47.9273 30.6499 47.9935 30.693 48.0663 30.7223C48.1391 30.7517 48.2171 30.7668 48.2959 30.7668H51.9784C52.1376 30.7668 52.2901 30.7052 52.4026 30.5957C52.5152 30.4862 52.5784 30.3376 52.5784 30.1827V23.3436H56.347L61.4726 30.5162C61.5279 30.5935 61.6015 30.6566 61.6872 30.7003C61.7731 30.744 61.8684 30.7668 61.9652 30.7668H66.3696C66.4844 30.7669 66.5967 30.7349 66.6934 30.6746C66.79 30.6144 66.8669 30.5284 66.9149 30.4269C66.9629 30.3254 66.9799 30.2127 66.964 30.1021C66.9482 29.9915 66.8999 29.8876 66.8253 29.8028V29.8029ZM43.2218 7.79199H39.5392C39.3802 7.79199 39.2275 7.85347 39.115 7.96292C39.0025 8.07238 38.9393 8.22082 38.9392 8.37565V30.1825C38.9392 30.2592 38.9547 30.3352 38.9848 30.4061C39.015 30.477 39.0592 30.5414 39.1148 30.5956C39.1706 30.6499 39.2367 30.693 39.3095 30.7223C39.3823 30.7517 39.4604 30.7668 39.5392 30.7668H43.2218C43.381 30.7668 43.5336 30.7053 43.6462 30.5957C43.7588 30.4862 43.822 30.3377 43.822 30.1827V8.37582C43.822 8.29913 43.8064 8.2232 43.7763 8.15234C43.7461 8.0815 43.7019 8.01714 43.6462 7.96292C43.5904 7.90871 43.5243 7.86571 43.4514 7.83638C43.3786 7.80705 43.3007 7.79197 43.2218 7.79199ZM34.5978 7.79199H30.8703C30.7186 7.79199 30.5732 7.85052 30.4658 7.95475C30.3584 8.05898 30.2978 8.2004 30.2974 8.34801V25.412C30.2974 27.5564 28.6184 28.2613 27.4822 28.3176C27.329 28.3249 27.1508 28.4188 27.0529 28.5582C27.0044 28.627 26.9726 28.7057 26.9596 28.7882C26.9467 28.8708 26.953 28.955 26.9783 29.0349L27.8844 31.9041C27.9585 32.1389 28.2186 32.2899 28.6415 32.2899C32.2079 32.2899 35.169 29.5646 35.169 25.9115V8.34834C35.169 8.27529 35.1543 8.20295 35.1256 8.13546C35.0969 8.06796 35.0548 8.00663 35.0018 7.95496C34.9488 7.9033 34.8858 7.86231 34.8164 7.83435C34.7471 7.80639 34.6727 7.79199 34.5978 7.79199Z" fill="#264970"/>
<path d="M5.73441 1.84204C4.58917 1.84204 3.66192 2.74338 3.66192 3.8608C3.66192 4.97544 4.58917 5.88004 5.73441 5.88004C6.88033 5.88004 7.80675 4.97544 7.80675 3.8608C7.80675 2.74338 6.88049 1.84204 5.73441 1.84204ZM19.3499 1.84204C18.2042 1.84204 17.278 2.74338 17.278 3.8608C17.278 4.97544 18.2042 5.88004 19.3499 5.88004C20.4925 5.88004 21.4219 4.97544 21.4219 3.8608C21.4219 2.74338 20.4925 1.8435 19.3499 1.84204ZM12.5421 0C11.397 0 10.4698 0.901184 10.4698 2.01892C10.4698 3.13357 11.3968 4.03817 12.5421 4.03817C13.688 4.03817 14.6142 3.13357 14.6142 2.01892C14.6142 0.901184 13.6878 0 12.5419 0H12.5421ZM24.2492 7.46747C24.1358 7.38343 23.9973 7.33792 23.8547 7.3379C23.7767 7.3379 23.6977 7.35172 23.6232 7.37968C22.2201 7.90205 20.7948 8.29858 19.4942 8.5935C19.229 8.65366 19.0148 8.84552 18.926 9.07568C17.9783 11.602 15.5586 14.0077 13.0198 16.5274C12.918 16.6216 12.7753 16.7458 12.5429 16.7458C12.3111 16.7458 12.1697 16.6254 12.066 16.5274C9.52761 14.0077 7.10784 11.6103 6.15988 9.08382C6.07101 8.85384 5.8567 8.66209 5.59192 8.60163C4.2905 8.30671 2.86195 7.89782 1.46029 7.37577C1.38615 7.34823 1.30747 7.33407 1.2281 7.334C1.08762 7.334 0.951482 7.37691 0.836557 7.46243C0.749571 7.52716 0.680848 7.61229 0.6368 7.70986C0.592751 7.80742 0.574812 7.91427 0.584657 8.0204C0.799641 10.1213 1.65256 12.1751 3.19186 14.3273C4.63879 16.3507 6.52603 18.2236 8.35064 20.0348C11.7126 23.3725 14.8885 26.5246 15.1671 30.1799C15.1793 30.3391 15.2529 30.4878 15.373 30.5964C15.4931 30.7049 15.651 30.7652 15.8149 30.7652H19.7648C19.8528 30.7652 19.9398 30.7477 20.0207 30.7139C20.1015 30.6801 20.1744 30.6308 20.2351 30.5687C20.2958 30.5067 20.3429 30.4334 20.3735 30.3532C20.4043 30.2729 20.4179 30.1874 20.4136 30.1019C20.2894 27.658 19.3444 25.2105 17.5248 22.6206C17.1434 22.0776 16.735 21.5492 16.3079 21.0321C16.1343 20.8217 16.207 20.56 16.3396 20.428C16.4709 20.2973 16.6027 20.1669 16.7355 20.0348C18.5601 18.2236 20.4472 16.3507 21.8943 14.3273C23.4334 12.1748 24.286 10.1331 24.5012 8.0326C24.5225 7.82157 24.4242 7.59753 24.2492 7.46747ZM8.30436 22.8781C8.21082 22.783 8.07368 22.686 7.84316 22.686C7.54833 22.686 7.37344 22.8843 7.30729 22.9825C5.64588 25.4432 4.78779 27.7656 4.66919 30.0995C4.66515 30.1852 4.67889 30.271 4.7096 30.3515C4.74031 30.432 4.78735 30.5057 4.84792 30.5682C4.90908 30.6302 4.98246 30.6797 5.06368 30.7135C5.1449 30.7474 5.2323 30.765 5.32065 30.7652H9.26369C9.42802 30.7646 9.58607 30.7037 9.70649 30.5949C9.82691 30.486 9.90086 30.3371 9.91363 30.1776C9.99948 29.0527 10.3593 27.9253 11.0145 26.7404C11.2416 26.3305 11.065 25.9454 10.9345 25.7809C10.2847 24.9582 9.48849 24.0808 8.30436 22.8781Z" fill="#264970"/>
<path d="M12.5476 9.35158C13.7854 9.35158 14.5033 9.2793 14.7555 9.2793C15.0612 9.2793 15.3531 9.52302 15.3531 9.86406C15.3531 9.96356 15.3288 10.0348 15.3049 10.0977C15.1408 10.5248 14.3925 12.0617 12.9996 13.3801C12.8433 13.528 12.6661 13.5556 12.5442 13.5556H12.5429C12.4211 13.5556 12.2442 13.528 12.088 13.3801C10.6949 12.0617 9.94651 10.5248 9.78286 10.0975C9.75862 10.0348 9.73438 9.96356 9.73438 9.86406C9.73438 9.52302 10.0268 9.2793 10.3324 9.2793C10.5847 9.2793 11.3021 9.35158 12.5395 9.35158H12.5477" fill="#264970"/>
</svg>
