<svg width="136" height="30" viewBox="0 0 136 30" fill="none" xmlns="http://www.w3.org/2000/svg">
<path d="M25.4226 22.3691C24.4614 22.3753 23.5083 22.1893 22.6187 21.8218C21.7293 21.4543 20.9207 20.9126 20.2401 20.228L21.6577 18.7873C22.6607 19.7854 24.0131 20.3449 25.4221 20.3449C26.8312 20.3449 28.1836 19.7854 29.1866 18.7873C29.6801 18.2959 30.0722 17.7103 30.3397 17.0649C30.6072 16.4194 30.745 15.7268 30.745 15.0271C30.745 14.3276 30.6072 13.635 30.3397 12.9895C30.0722 12.344 29.6801 11.7585 29.1866 11.267C28.1816 10.2727 26.8299 9.71565 25.4221 9.71565C24.0142 9.71565 22.6626 10.2727 21.6577 11.267L12.5652 20.1548C11.175 21.5296 9.30553 22.2998 7.35842 22.2998C5.41132 22.2998 3.54189 21.5296 2.15168 20.1548C1.46989 19.4728 0.928729 18.6615 0.55943 17.7675C0.190132 16.8736 0 15.9147 0 14.9463C0 13.9778 0.190132 13.019 0.55943 12.125C0.928729 11.2311 1.46989 10.4197 2.15168 9.7377C3.53913 8.3576 5.4096 7.58386 7.35842 7.58386C9.30724 7.58386 11.1777 8.3576 12.5652 9.7377L11.1475 11.1784C10.1435 10.1729 8.78599 9.60867 7.37106 9.60867C5.95612 9.60867 4.59858 10.1729 3.59459 11.1784C3.09898 11.6713 2.70545 12.2586 2.43683 12.9062C2.16823 13.5538 2.02992 14.2488 2.02992 14.9508C2.02992 15.6526 2.16823 16.3477 2.43683 16.9953C2.70545 17.6428 3.09898 18.2302 3.59459 18.7231C4.59858 19.7285 5.95612 20.2928 7.37106 20.2928C8.78599 20.2928 10.1435 19.7285 11.1475 18.7231L20.2422 9.83966C21.6239 8.46746 23.4852 7.6983 25.4242 7.6983C27.3635 7.6983 29.2248 8.46746 30.6063 9.83966C31.286 10.5202 31.8255 11.3297 32.1936 12.2214C32.5618 13.1132 32.7512 14.0696 32.7512 15.0354C32.7512 16.0014 32.5618 16.9578 32.1936 17.8496C31.8255 18.7413 31.286 19.5507 30.6063 20.2313C29.2219 21.5997 27.3612 22.367 25.4226 22.3691ZM16.1345 21.785L14.7168 20.3731L22.5654 12.5127C23.2408 11.8346 24.1548 11.454 25.1078 11.454C26.0607 11.454 26.9749 11.8346 27.6502 12.5127C27.9815 12.8466 28.2442 13.2431 28.4236 13.6794C28.6028 14.1159 28.6952 14.5837 28.6952 15.056C28.6952 15.5284 28.6028 15.9961 28.4236 16.4325C28.2442 16.8688 27.9815 17.2654 27.6502 17.5993C26.9749 18.2773 26.0607 18.6581 25.1078 18.6581C24.1548 18.6581 23.2408 18.2773 22.5654 17.5993L23.9831 16.1874C24.2854 16.4802 24.6882 16.6437 25.1072 16.6437C25.5264 16.6437 25.9292 16.4802 26.2314 16.1874C26.5249 15.8902 26.6896 15.4876 26.6896 15.0682C26.6896 14.6487 26.5249 14.2463 26.2314 13.9489C25.9292 13.6561 25.5264 13.4927 25.1072 13.4927C24.6882 13.4927 24.2854 13.6561 23.9831 13.9489L16.1345 21.785ZM25.3996 26.0195C22.462 26.0321 19.6396 24.8678 17.5532 22.7824L18.9708 21.3706C20.683 23.0668 22.9873 24.0173 25.3875 24.0173C27.7877 24.0173 30.0919 23.0668 31.8041 21.3706C32.6467 20.5351 33.3157 19.539 33.7725 18.44C34.2292 17.3412 34.4644 16.1617 34.4644 14.9701C34.4644 13.7786 34.2292 12.599 33.7725 11.5001C33.3157 10.4012 32.6467 9.40505 31.8041 8.56965C30.0919 6.87339 27.7877 5.92298 25.3875 5.92298C22.9873 5.92298 20.683 6.87339 18.9708 8.56965L11.8574 15.5779L10.0244 17.4031C9.34431 18.0814 8.42642 18.4617 7.46996 18.4617C6.5135 18.4617 5.59561 18.0814 4.9155 17.4031C4.58229 17.0678 4.31795 16.6695 4.13758 16.2309C3.95722 15.7925 3.86437 15.3223 3.86437 14.8477C3.86437 14.3728 3.95722 13.9028 4.13758 13.4643C4.31795 13.0258 4.58229 12.6275 4.9155 12.2921C5.59561 11.6139 6.5135 11.2336 7.46996 11.2336C8.42642 11.2336 9.34431 11.6139 10.0244 12.2921L8.609 13.7051C8.45972 13.5545 8.28248 13.4351 8.08742 13.3536C7.89235 13.2721 7.68329 13.2302 7.47217 13.2302C7.26103 13.2302 7.05197 13.2721 6.8569 13.3536C6.66185 13.4351 6.4846 13.5545 6.33531 13.7051C6.04015 14.0018 5.87309 14.4041 5.87047 14.8243C5.86939 15.0328 5.91002 15.2394 5.98987 15.4317C6.06975 15.6241 6.18722 15.7981 6.33531 15.9436C6.4846 16.0942 6.66185 16.2136 6.8569 16.2952C7.05197 16.3766 7.26103 16.4186 7.47217 16.4186C7.68329 16.4186 7.89235 16.3766 8.08742 16.2952C8.28248 16.2136 8.45972 16.0942 8.609 15.9436L10.4651 14.0952L17.5785 7.08575C19.6738 5.01461 22.4909 3.85449 25.4248 3.85449C28.3589 3.85449 31.176 5.01461 33.2712 7.08575C34.3008 8.10478 35.1187 9.32057 35.677 10.6621C36.2354 12.0035 36.5229 13.4438 36.5229 14.8987C36.5229 16.3535 36.2354 17.7937 35.677 19.1352C35.1187 20.4766 34.3008 21.6924 33.2712 22.7115C32.244 23.7639 31.0183 24.5988 29.6665 25.1668C28.3148 25.7349 26.8641 26.0248 25.3996 26.0195Z" fill="#26BDFC"/>
<path fill-rule="evenodd" clip-rule="evenodd" d="M135.999 22.5278H132.903L127.331 14.8392L124.82 17.4305V22.54H122.308V0H124.82V14.228L132.074 6.74733H135.17L129.099 13.0057L135.999 22.5278ZM110.86 22.76C106.349 22.76 102.691 19.5941 102.691 14.607C102.691 9.83986 106.349 6.45397 110.86 6.45397C115.371 6.45397 119.028 9.64429 119.028 14.607C119.028 19.6553 115.371 22.76 110.86 22.76ZM110.86 8.9231C107.8 8.9231 105.325 11.3067 105.325 14.6437C105.325 18.1396 107.8 20.3643 110.86 20.3643C113.92 20.3643 116.395 18.1885 116.395 14.6437C116.395 11.16 113.92 8.9231 110.86 8.9231ZM96.3151 22.76C93.6695 22.76 90.9873 21.7576 90.9873 17.4795V1.76017H93.4988V6.68621H99.9971V9.20425H93.4988V17.4795C93.4988 19.2886 94.7302 20.352 96.364 20.352C98.8632 20.352 100.168 19.1786 100.168 19.1786V21.6477C100.18 21.6477 98.9607 22.76 96.3151 22.76ZM79.1979 22.76C74.6869 22.76 71.0293 19.5941 71.0293 14.607C71.0293 9.83986 74.6869 6.45397 79.1979 6.45397C83.7089 6.45397 87.3663 9.64429 87.3663 14.607C87.3663 19.6553 83.7089 22.76 79.1979 22.76ZM79.1979 8.9231C76.1378 8.9231 73.6628 11.3067 73.6628 14.6437C73.6628 18.1396 76.1378 20.3643 79.1979 20.3643C82.258 20.3643 84.733 18.1885 84.733 14.6437C84.733 11.16 82.258 8.9231 79.1979 8.9231ZM60.386 22.8211C57.9842 22.8211 55.8384 21.6599 54.4119 19.8265V28.8595H51.9004V6.73511H54.4119V9.43649C55.8262 7.6152 57.972 6.44175 60.386 6.44175C64.6531 6.44175 68.1155 9.97432 68.1155 14.6314C68.1155 19.3864 64.6531 22.8211 60.386 22.8211ZM59.9226 8.9231C56.8868 8.9231 54.4241 11.49 54.4241 14.6437C54.4241 17.7974 56.8868 20.3643 59.9226 20.3643C62.9584 20.3643 65.4211 17.9562 65.4211 14.6437C65.4211 11.38 62.9584 8.9231 59.9226 8.9231Z" fill="black"/>
</svg>
