<svg width="147" height="46" viewBox="0 0 147 46" fill="none" xmlns="http://www.w3.org/2000/svg">
<path d="M38.9738 4.3125V5.4625H40.1343V4.3125H38.9738ZM38.9738 6.6125V7.7625H40.1343V6.6125H38.9738ZM35.4922 7.7625V8.9125H36.6527V7.7625H35.4922Z" fill="#FDB511"/>
<path d="M20.3095 8.625C11.0945 8.625 3.62695 16.0249 3.62695 25.1562C3.62695 34.2876 11.0945 41.6875 20.3095 41.6875C29.5245 41.6875 36.9921 34.2876 36.9921 25.1562C36.9921 16.0249 29.5245 8.625 20.3095 8.625ZM20.3095 13.8958C26.5795 13.8958 31.673 18.9431 31.673 25.1562C31.673 31.3694 26.5795 36.4167 20.3095 36.4167C14.0395 36.4167 8.99439 31.3694 8.99439 25.1562C8.99439 18.9431 14.0395 13.8958 20.3095 13.8958Z" fill="#FDB511"/>
<path d="M46.6715 33.9035C44.273 33.9035 42.2615 33.3132 40.6367 32.1325L42.1918 29.6025C43.4916 30.5072 44.9616 30.9595 46.6018 30.9595C47.4064 30.9595 48.0409 30.8062 48.5051 30.4995C48.9693 30.1775 49.2014 29.7329 49.2014 29.1655C49.2014 29.0122 49.1859 28.8742 49.155 28.7515C49.124 28.6288 49.0699 28.5139 48.9925 28.4065C48.9151 28.2839 48.8378 28.1842 48.7604 28.1075C48.683 28.0155 48.5592 27.9235 48.389 27.8315C48.2343 27.7395 48.095 27.6629 47.9712 27.6015C47.8629 27.5402 47.685 27.4635 47.4374 27.3715C47.1898 27.2795 46.9809 27.2105 46.8107 27.1645C46.656 27.1032 46.4161 27.0189 46.0912 26.9115C45.7662 26.8042 45.4955 26.7122 45.2788 26.6355C44.7063 26.4362 44.2189 26.2292 43.8166 26.0145C43.4142 25.7845 43.0042 25.4932 42.5864 25.1405C42.1686 24.7725 41.8514 24.3125 41.6348 23.7605C41.4181 23.1932 41.3098 22.5492 41.3098 21.8285C41.3098 20.3719 41.8205 19.2449 42.8417 18.4475C43.863 17.6349 45.2092 17.2285 46.8803 17.2285C48.8919 17.2285 50.5244 17.5965 51.7778 18.3325L50.594 20.9775C49.418 20.4255 48.2188 20.1495 46.9964 20.1495C45.3871 20.1495 44.5825 20.6709 44.5825 21.7135C44.5825 21.9589 44.6289 22.1735 44.7218 22.3575C44.8146 22.5415 44.9152 22.6949 45.0235 22.8175C45.1318 22.9402 45.3252 23.0629 45.6038 23.1855C45.8978 23.3082 46.1376 23.4002 46.3233 23.4615C46.5244 23.5229 46.8494 23.6225 47.2981 23.7605C47.4993 23.8219 47.654 23.8679 47.7624 23.8985C48.3039 24.0672 48.7681 24.2282 49.155 24.3815C49.5418 24.5349 49.9673 24.7572 50.4316 25.0485C50.8958 25.3245 51.2749 25.6389 51.5689 25.9915C51.8629 26.3442 52.1104 26.7889 52.3116 27.3255C52.5128 27.8622 52.6133 28.4602 52.6133 29.1195C52.6133 30.5609 52.095 31.7185 51.0582 32.5925C50.037 33.4665 48.5747 33.9035 46.6715 33.9035Z" fill="black"/>
<path d="M58.3419 34.2252L53.9551 21.7822H57.5991L59.8506 30.4762L61.7538 21.7822H65.1658L61.5681 33.8342C60.7326 36.6249 58.9918 38.0202 56.3458 38.0202C55.7268 38.0202 55.0692 37.9512 54.3729 37.8132L54.7442 35.3752C55.3632 35.4366 55.7578 35.4672 55.928 35.4672C56.5624 35.4672 57.0576 35.3676 57.4134 35.1682C57.7693 34.9842 58.0788 34.6699 58.3419 34.2252Z" fill="black"/>
<path d="M76.6747 23.3468C77.8352 22.1202 79.0731 21.5068 80.3883 21.5068C81.6107 21.5068 82.4695 21.9208 82.9647 22.7488C83.4753 23.5768 83.7306 24.6118 83.7307 25.8538V33.6738H80.2027V25.8078C80.2026 24.8572 79.8313 24.3818 79.0885 24.3818C78.5005 24.3818 77.8429 24.7038 77.1157 25.3478V33.6738H73.5877V25.8078C73.5877 24.8572 73.2163 24.3818 72.4736 24.3818C71.7927 24.3818 71.1351 24.7192 70.5007 25.3938V33.6738H66.9727V21.7828H69.1544L69.8508 23.5998C71.0732 22.2045 72.3807 21.5068 73.7733 21.5068C75.166 21.5068 76.1331 22.1202 76.6747 23.3468Z" fill="black"/>
<path d="M92.5432 26.0608V25.7618C92.5432 25.2252 92.4194 24.8342 92.1718 24.5888C91.9397 24.3435 91.5297 24.2208 90.9417 24.2208C90.0287 24.2208 88.9069 24.5275 87.5761 25.1408L86.3692 22.8408C87.9165 21.9515 89.5413 21.5068 91.2434 21.5068C92.8372 21.5068 94.0364 21.8978 94.841 22.6798C95.6611 23.4465 96.0712 24.5428 96.0712 25.9688V33.6738H93.8894C93.4871 32.8305 93.2782 32.4088 93.2627 32.4088C92.1641 33.4055 90.9881 33.9038 89.7347 33.9038C88.667 33.9038 87.7696 33.5972 87.0423 32.9838C86.3305 32.3552 85.9746 31.5042 85.9746 30.4308C85.9746 29.1735 86.3847 28.2535 87.2048 27.6708C88.1641 26.9655 89.9436 26.4288 92.5432 26.0608ZM92.5432 30.7298V28.2228C91.0113 28.5295 90.0829 28.8668 89.7579 29.2348C89.5413 29.4648 89.433 29.7792 89.433 30.1778C89.433 31.0212 89.843 31.4428 90.6631 31.4428C91.344 31.4428 91.9707 31.2052 92.5432 30.7298Z" fill="black"/>
<path d="M98.8867 33.6738V21.7828H101.069L101.765 23.5998C102.987 22.2045 104.326 21.5068 105.78 21.5068C108.07 21.5068 109.215 22.9558 109.215 25.8538V33.6738H105.687V25.8078C105.687 24.8572 105.285 24.3818 104.48 24.3818C103.738 24.3818 103.049 24.7192 102.415 25.3938V33.6738H98.8867Z" fill="black"/>
<path d="M112.868 24.1744H111.104V21.7824H112.914L113.517 18.4014H116.396V21.7824H118.949V24.1744H116.396V29.9014C116.396 30.4227 116.481 30.783 116.651 30.9824C116.821 31.1817 117.169 31.2814 117.695 31.2814C117.989 31.2814 118.399 31.2047 118.925 31.0514L119.343 33.4664C118.461 33.7577 117.564 33.9034 116.651 33.9034C114.129 33.9034 112.868 32.6307 112.868 30.0854V24.1744Z" fill="black"/>
<path d="M124.433 28.7518C124.51 29.5645 124.735 30.1625 125.106 30.5458C125.493 30.9292 126.066 31.1208 126.824 31.1208C127.242 31.1208 127.659 31.0595 128.077 30.9368C128.51 30.8142 128.828 30.6992 129.029 30.5918C129.245 30.4845 129.563 30.3158 129.98 30.0858L131.373 32.2938C130.893 32.6465 130.483 32.9225 130.143 33.1218C129.802 33.3058 129.315 33.4822 128.681 33.6508C128.046 33.8195 127.342 33.9038 126.568 33.9038C124.804 33.9038 123.396 33.3672 122.344 32.2938C121.307 31.2052 120.789 29.7255 120.789 27.8548C120.789 25.9842 121.284 24.4585 122.275 23.2778C123.265 22.0972 124.627 21.5068 126.36 21.5068C128.139 21.5068 129.47 22.0972 130.352 23.2778C131.234 24.4585 131.675 25.9765 131.675 27.8318V28.7518H124.433ZM124.433 26.7048H128.077C128.077 24.9108 127.497 24.0138 126.336 24.0138C125.779 24.0138 125.346 24.2285 125.037 24.6578C124.727 25.0718 124.526 25.7542 124.433 26.7048Z" fill="black"/>
<path d="M139.217 33.9038C137.298 33.9038 135.851 33.3442 134.877 32.2248C133.917 31.0902 133.437 29.6105 133.438 27.7858C133.437 25.9612 133.94 24.4585 134.946 23.2778C135.952 22.0972 137.376 21.5068 139.217 21.5068C140.842 21.5068 142.165 21.9515 143.186 22.8408L141.538 25.1638C141.12 24.8572 140.757 24.6502 140.447 24.5428C140.138 24.4202 139.735 24.3588 139.24 24.3588C137.801 24.3588 137.082 25.4858 137.082 27.7398C137.082 29.9478 137.817 31.0518 139.287 31.0518C140.076 31.0518 140.873 30.7375 141.677 30.1088L143.372 32.2708C142.273 33.3595 140.888 33.9038 139.217 33.9038Z" fill="black"/>
<path d="M25.0488 16.9629C22.0196 20.7145 21.2563 22.3618 20.0495 25.395C18.6803 22.6508 17.0462 20.7569 14.2172 19.5025C13.6813 19.3669 13.4178 19.2883 13.0567 19.79C12.6956 20.2917 12.9146 20.743 13.3468 21.2754C14.4796 22.6705 15.7526 23.9594 16.635 25.54C17.6695 27.3929 18.9574 30.4469 19.3912 31.2421C19.7362 31.8745 20.5706 32.1525 20.8903 32.1525C22.6023 31.9517 22.6029 31.0892 22.9292 29.5942C23.4584 27.1425 24.1438 24.6079 27.3699 21.5629V16.9629H25.0488Z" fill="black"/>
<path d="M37.8142 5.46289V6.61289H38.9748V5.46289H37.8142ZM37.8142 6.61289H35.4932V7.76289H37.8142V6.61289ZM35.4932 7.76289H34.3327V10.0629H35.4932V7.76289ZM35.4932 10.0629V11.2129H36.6537V10.0629H35.4932ZM36.6537 10.0629H37.8142V8.91289H36.6537V10.0629ZM35.4932 11.2129H34.3327V12.3629H33.1721V11.2129H30.8511V12.3629H29.6906V13.5129H30.8511V14.6629H29.6906V13.5129H28.53V14.6629H27.3695V15.8129H26.209V20.4129H28.53V19.2629H29.6906V18.1129H30.8511V16.9629H29.6906V15.8129H30.8511V16.9629H32.0116V15.8129H33.1721V14.6629H34.3327V13.5129H35.4932V11.2129ZM33.1721 11.2129H34.3327V10.0629H33.1721V11.2129ZM33.1721 10.0629V8.91289H32.0116V10.0629H33.1721Z" fill="black"/>
</svg>
