<svg width="117" height="22" viewBox="0 0 117 22" fill="none" xmlns="http://www.w3.org/2000/svg">
<path d="M77.3101 18.7531C78.8051 18.7873 80.2528 18.2158 81.3374 17.1632L83.334 19.3668C82.0154 20.7532 80.1868 21.7835 77.3443 21.7835C72.471 21.7835 69.3237 18.4796 69.3237 14.0056C69.304 12.9809 69.4863 11.9627 69.8598 11.0116C70.2332 10.0605 70.7903 9.19611 71.4976 8.46993C72.2049 7.74375 73.048 7.17068 73.9767 6.78491C74.9053 6.39913 75.9004 6.20856 76.9027 6.22456C81.7417 6.22456 84.4847 9.98948 84.2452 15.2108H72.8069C73.2111 17.3794 74.7008 18.7626 77.3069 18.7626L77.3101 18.7531ZM80.7932 12.721C80.4822 10.6954 79.3035 9.20406 76.9338 9.20406C74.735 9.20406 73.2018 10.476 72.8069 12.721H80.7932Z" fill="#03363D"/>
<path d="M0.857422 18.8564L9.70744 9.71401H1.06687V6.84668H13.8089V9.77441L4.95888 18.9136H13.9277V21.7841H0.857422V18.8564Z" fill="#03363D"/>
<path d="M24.1155 18.7531C25.6729 18.7873 27.1809 18.2158 28.3107 17.1632L30.3905 19.3668C29.0169 20.7532 27.1121 21.7835 24.1512 21.7835C19.0748 21.7835 15.7964 18.4796 15.7964 14.0056C15.7759 12.9809 15.9658 11.9627 16.3548 11.0116C16.7439 10.0605 17.3241 9.19611 18.0609 8.46993C18.7977 7.74375 19.6759 7.17068 20.6433 6.78491C21.6106 6.39913 22.6472 6.20856 23.6912 6.22456C28.7319 6.22456 31.5891 9.98948 31.3397 15.2108H19.4247C19.8458 17.3794 21.3976 18.7626 24.1123 18.7626L24.1155 18.7531ZM27.7438 12.721C27.4199 10.6954 26.1921 9.20406 23.7236 9.20406C21.4332 9.20406 19.8361 10.476 19.4247 12.721H27.7438Z" fill="#03363D"/>
<path d="M50.6484 14.1308C50.6484 9.43203 54.1957 6.47493 58.0999 6.47493C59.0374 6.46255 59.9663 6.65384 60.8214 7.03536C61.6765 7.41687 62.437 7.97936 63.0496 8.68335V0H66.2083V21.4923H63.0496V19.4592C62.4487 20.1922 61.6893 20.7816 60.8276 21.184C59.9658 21.5864 59.0239 21.7913 58.0714 21.7836C54.281 21.7836 50.6484 18.8108 50.6484 14.1308ZM63.2265 14.1026C63.2016 13.1839 62.9042 12.2927 62.3713 11.5408C61.8384 10.7888 61.0938 10.2093 60.2306 9.87474C59.3674 9.54023 58.4239 9.46555 57.5181 9.66004C56.6123 9.85453 55.7844 10.3096 55.138 10.9682C54.4916 11.6269 54.0554 12.4599 53.8839 13.3632C53.7124 14.2664 53.8133 15.1997 54.1739 16.0464C54.5345 16.8931 55.1388 17.6155 55.9113 18.1234C56.6837 18.6312 57.59 18.9019 58.5168 18.9017C61.2301 18.9017 63.2265 16.7527 63.2265 14.1026Z" fill="#03363D"/>
<path d="M86.748 18.3193L89.5852 16.8256C89.9603 17.5042 90.5109 18.0659 91.1776 18.4501C91.8443 18.8344 92.6017 19.0265 93.3681 19.0057C95.1406 19.0057 96.0581 18.0809 96.0581 17.0354C96.0581 15.8405 94.3452 15.5704 92.4819 15.1826C89.9767 14.6456 87.3681 13.8066 87.3681 10.7335C87.3681 8.37228 89.5821 6.1922 93.0706 6.22398C95.817 6.22398 97.8588 7.3299 99.0206 9.11909L96.3901 10.5841C96.0267 10.0379 95.532 9.59482 94.9528 9.29675C94.3735 8.99868 93.729 8.85549 93.08 8.88074C91.3953 8.88074 90.5372 9.71655 90.5372 10.6731C90.5372 11.7473 91.8963 12.046 94.0257 12.5259C96.4496 13.0629 99.1959 13.8701 99.1959 16.975C99.1959 19.0343 97.4235 21.8119 93.2272 21.7833C90.1552 21.7833 87.9975 20.528 86.7543 18.3193" fill="#03363D"/>
<path d="M107.904 15.1607L105.429 17.9071V21.7838H102.309V0H105.429V14.2653L112.054 6.86438H115.855L110.11 13.2493L116.001 21.7838H112.469L107.904 15.1607Z" fill="#03363D"/>
<path d="M41.0078 6.84668C37.1094 6.84668 33.8438 9.24902 33.8438 13.2311V21.7841H37.1848V13.6268C37.1848 11.2245 38.6373 9.78806 41.1193 9.78806C43.6013 9.78806 44.8341 11.2245 44.8341 13.6268V21.7841H48.1588V13.2311C48.1588 9.24902 44.88 6.84668 40.9947 6.84668" fill="#03363D"/>
</svg>
