<svg width="19" height="22" viewBox="0 0 19 22" fill="none" xmlns="http://www.w3.org/2000/svg">
<path fill-rule="evenodd" clip-rule="evenodd" d="M14.2606 21.9984C13.9272 21.9097 13.7992 21.606 13.7992 21.3363C13.7992 21.1855 13.8001 20.9212 13.803 20.5678C13.8068 19.856 13.8145 18.7829 13.8145 17.549C13.8145 16.2614 13.3922 15.4214 12.9175 14.9932C15.8597 14.6515 18.951 13.4843 18.951 8.18364C18.951 6.67678 18.438 5.4457 17.5916 4.47918C17.7282 4.13132 18.181 2.72788 17.4617 0.826874C17.4617 0.826874 16.3536 0.455973 13.8317 2.24154C12.7761 1.93574 11.645 1.78238 10.5216 1.77713C9.39892 1.78238 8.26864 1.93574 7.21469 2.24154C4.68981 0.455973 3.58026 0.826874 3.58026 0.826874C2.86285 2.72788 3.31508 4.13132 3.45225 4.47918C2.60703 5.4457 2.0909 6.67678 2.0909 8.18364C2.0909 13.4718 5.17595 14.6552 8.11064 15.0041C7.73283 15.3485 7.39036 15.9578 7.27181 16.8496C6.51782 17.2022 4.60536 17.8122 3.42694 15.7024C3.42694 15.7024 2.72825 14.3773 1.40148 14.2801C1.40148 14.2801 0.112337 14.2625 1.31111 15.1192C2.50988 15.9757 2.17716 15.5432 2.77821 17.1384C2.77821 17.1384 3.5538 19.6017 7.22959 18.7668C7.23265 19.3937 7.23771 20.0009 7.24163 20.4776C7.24497 20.8779 7.24755 21.1861 7.24755 21.3363C7.24755 21.608 7.11286 21.9144 6.77096 22C8.19537 21.9994 11.0948 21.9985 14.2606 21.9984ZM2.08724 14.9581C2.18134 15.0052 2.2846 14.9849 2.31374 14.916C2.34698 14.8473 2.29234 14.7529 2.19624 14.7076C2.10062 14.6608 1.99716 14.6802 1.96869 14.7509C1.93765 14.8196 1.99143 14.9131 2.08724 14.9581ZM2.57823 15.4777C2.66182 15.5742 2.78505 15.6025 2.848 15.5415C2.91391 15.4797 2.89701 15.352 2.81065 15.2546C2.72401 15.1585 2.6045 15.1299 2.53954 15.1909C2.47564 15.2528 2.49178 15.3815 2.57823 15.4777ZM3.0753 16.2188C3.15717 16.3416 3.28948 16.3967 3.37048 16.3379C3.45311 16.2778 3.45311 16.1304 3.37239 16.0059C3.28948 15.884 3.15908 15.8311 3.07702 15.89C2.9943 15.9489 2.9943 16.0961 3.0753 16.2188ZM3.74547 17.0538C3.85838 17.1677 4.01256 17.1901 4.08497 17.1066C4.16225 17.0241 4.12729 16.8651 4.01256 16.754C3.89879 16.6411 3.74365 16.6175 3.67038 16.7012C3.59778 16.7846 3.62988 16.9425 3.74547 17.0538ZM4.73734 17.6623C4.88703 17.7083 5.03557 17.6592 5.06748 17.5511C5.09862 17.4412 5.00061 17.3155 4.8514 17.2684C4.70056 17.2193 4.55135 17.2704 4.5203 17.3792C4.49011 17.4885 4.58793 17.615 4.73734 17.6623ZM5.86887 17.8416C6.02602 17.8397 6.15288 17.7454 6.14915 17.6316C6.14915 17.5185 6.02057 17.427 5.86343 17.4302C5.70543 17.4329 5.58143 17.5265 5.58143 17.6414C5.58315 17.7534 5.71097 17.8455 5.86887 17.8416ZM6.91032 17.7106C7.06632 17.6804 7.17551 17.5663 7.15669 17.4552C7.13682 17.3424 6.99697 17.2756 6.84078 17.304C6.68765 17.3334 6.57646 17.4474 6.59547 17.5613C6.61495 17.6715 6.757 17.74 6.91032 17.7106Z" fill="#1E1E1E"/>
</svg>
