<svg width="24" height="23" viewBox="0 0 24 23" fill="none" xmlns="http://www.w3.org/2000/svg">
<path fill-rule="evenodd" clip-rule="evenodd" d="M11.9277 0C8.90286 0 8.52327 0.0135809 7.33527 0.0692029C6.1495 0.125025 5.34021 0.317954 4.63203 0.601157C3.89947 0.893646 3.27803 1.2849 2.65902 1.9216C2.03942 2.55801 1.65896 3.19692 1.3735 3.94976C1.09735 4.67814 0.909407 5.51037 0.856083 6.72896C0.802952 7.95035 0.789062 8.3409 0.789062 11.4507C0.789062 14.5606 0.802467 14.9496 0.856277 16.171C0.910864 17.3901 1.09852 18.2221 1.37379 18.9502C1.65848 19.7034 2.03903 20.3422 2.65834 20.9787C3.27716 21.6156 3.8985 22.0078 4.63057 22.3003C5.33924 22.5834 6.14882 22.7764 7.3343 22.8323C8.5223 22.8878 8.90169 22.9015 11.9263 22.9015C14.9514 22.9015 15.3298 22.8878 16.5179 22.8323C17.7036 22.7764 18.5138 22.5834 19.2225 22.3003C19.9548 22.0078 20.5752 21.6156 21.194 20.9787C21.8136 20.3422 22.1942 19.7034 22.4796 18.9504C22.7534 18.2221 22.9413 17.3898 22.997 16.1713C23.0504 14.9498 23.0643 14.5606 23.0643 11.4507C23.0643 8.3409 23.0504 7.95065 22.997 6.72916C22.9413 5.51017 22.7534 4.67814 22.4796 3.95006C22.1942 3.19692 21.8136 2.55801 21.194 1.9216C20.5745 1.2846 19.955 0.893347 19.2218 0.601157C18.5117 0.317954 17.7019 0.125025 16.5162 0.0692029C15.3282 0.0135809 14.95 0 11.9242 0H11.9277ZM10.9303 2.06236C11.2268 2.06186 11.5578 2.06236 11.9295 2.06236C14.9032 2.06236 15.2557 2.07334 16.43 2.12816C17.5159 2.17929 18.1053 2.36583 18.4979 2.52251C19.0178 2.73012 19.3883 2.97817 19.7779 3.37891C20.1677 3.77975 20.409 4.16141 20.6114 4.69576C20.7638 5.099 20.9455 5.70485 20.9949 6.82128C21.0483 8.02839 21.0598 8.39108 21.0598 11.447C21.0598 14.5028 21.0483 14.8655 20.9949 16.0726C20.9452 17.189 20.7638 17.7949 20.6114 18.1981C20.4095 18.7325 20.1677 19.1129 19.7779 19.5135C19.388 19.9143 19.018 20.1624 18.4979 20.3699C18.1058 20.5274 17.5159 20.7134 16.43 20.7645C15.2559 20.8193 14.9032 20.8313 11.9295 20.8313C8.95545 20.8313 8.60306 20.8193 7.42894 20.7645C6.34293 20.713 5.75364 20.5265 5.36074 20.3697C4.841 20.1622 4.46976 19.914 4.07988 19.5133C3.6901 19.1124 3.44883 18.7318 3.24641 18.1971C3.09401 17.794 2.91228 17.188 2.86293 16.0716C2.80951 14.8645 2.79883 14.5019 2.79883 11.4441C2.79883 8.38628 2.80951 8.02559 2.86293 6.81848C2.91257 5.70205 3.09401 5.0961 3.24641 4.69247C3.44834 4.15812 3.6901 3.77635 4.07988 3.37561C4.46976 2.97488 4.841 2.72672 5.36074 2.51872C5.75334 2.36124 6.34293 2.1752 7.42894 2.12387C8.45639 2.07624 8.85453 2.06186 10.9303 2.05946V2.06236ZM17.8726 3.96369C17.1347 3.96369 16.5361 4.57843 16.5361 5.33727C16.5361 6.0959 17.1347 6.71134 17.8726 6.71134C18.6105 6.71134 19.2092 6.0959 19.2092 5.33727C19.2092 4.57863 18.6105 3.96319 17.8726 3.96319V3.96369ZM11.9287 5.57105C8.77002 5.57105 6.20898 8.20396 6.20898 11.4515C6.20898 14.6989 8.77002 17.3308 11.9287 17.3308C15.0874 17.3308 17.6475 14.6989 17.6475 11.4515C17.6475 8.20396 15.0872 5.57105 11.9285 5.57105H11.9287ZM11.9275 7.6344C13.9777 7.6344 15.6401 9.34321 15.6401 11.4514C15.6401 13.5592 13.9777 15.2682 11.9275 15.2682C9.87694 15.2682 8.21484 13.5592 8.21484 11.4514C8.21484 9.34321 9.87694 7.6344 11.9275 7.6344Z" fill="#1E1E1E"/>
</svg>
