<svg width="28" height="21" viewBox="0 0 28 21" fill="none" xmlns="http://www.w3.org/2000/svg">
<path d="M26.7354 5.29742C26.7354 5.29742 26.4754 3.34318 25.6763 2.48275C24.6621 1.35488 23.5263 1.34824 23.0054 1.28429C19.2746 0.996094 13.6788 0.996094 13.6788 0.996094H13.6663C13.6663 0.996094 8.07042 0.996094 4.34042 1.28429C3.81958 1.34824 2.68458 1.35488 1.66958 2.48275C0.87125 3.34318 0.610417 5.29742 0.610417 5.29742C0.610417 5.29742 0.34375 7.59052 0.34375 9.88362V12.033C0.34375 14.3278 0.610417 16.6201 0.610417 16.6201C0.610417 16.6201 0.870417 18.5735 1.66958 19.4322C2.68458 20.5601 4.01542 20.526 4.60875 20.644C6.74125 20.8616 13.6729 20.9289 13.6729 20.9289C13.6729 20.9289 19.2746 20.9189 23.0054 20.634C23.5263 20.5676 24.6621 20.5609 25.6763 19.4331C26.4746 18.5743 26.7354 16.6209 26.7354 16.6209C26.7354 16.6209 27.0021 14.3278 27.0021 12.0339V9.88445C27.0021 7.59052 26.7354 5.29742 26.7354 5.29742Z" fill="#1E1E1E"/>
<path d="M10.3438 5.98047V15.9469L18.6771 10.9637L10.3438 5.98047Z" fill="white"/>
</svg>
