<svg width="208" height="53" viewBox="0 0 208 53" fill="none" xmlns="http://www.w3.org/2000/svg">
<path d="M54.0447 24.2033C54.9025 25.1475 55.9319 25.8341 57.2186 26.3491C58.5053 26.8641 59.9635 27.1216 61.7649 27.1216C62.6227 27.1216 63.4805 27.0358 64.1667 26.9499C64.9387 26.8641 65.5392 26.6924 66.1396 26.4349C66.7401 26.2633 67.2548 26.0058 67.7695 25.8341C68.1983 25.5766 68.6272 25.405 68.9704 25.2333L68.3699 23.9458C68.0268 24.1175 67.6837 24.2891 67.3406 24.4608C66.9974 24.6325 66.6543 24.7183 66.2254 24.89C65.7965 24.9758 65.3676 25.1475 64.8529 25.1475C64.3383 25.2333 63.7378 25.2333 63.0516 25.2333C61.7649 25.2333 60.6497 24.9758 59.8777 24.4608C59.0199 23.9458 58.4195 23.2591 57.9048 22.4866C57.4759 21.6283 57.1328 20.5983 56.9612 19.4825C56.7897 18.2808 56.7039 17.0791 56.7039 15.7058C56.7039 14.6758 56.7897 13.56 56.8754 12.4441C56.9612 11.3283 57.2186 10.3842 57.6475 9.52582C58.0764 8.66749 58.591 7.98083 59.3631 7.37999C60.1351 6.865 61.1644 6.52166 62.4511 6.52166C63.652 6.52166 64.6814 6.865 65.5392 7.46583C66.397 8.06666 66.9117 9.09666 67.169 10.3842H68.5415V6.17833C68.1126 6.00666 67.6837 5.835 67.169 5.66333C66.6543 5.49167 66.1396 5.40583 65.5392 5.32C64.9387 5.23417 64.424 5.23417 63.8236 5.14833C63.3089 5.14833 62.7942 5.0625 62.3653 5.0625C60.4782 5.0625 58.9342 5.32 57.5617 5.835C56.275 6.35 55.1599 7.12249 54.3021 8.06666C53.4443 9.01082 52.8438 10.2125 52.4149 11.5858C51.986 12.9591 51.8145 14.59 51.8145 16.3066C51.8145 17.9375 51.986 19.4825 52.4149 20.77C52.6722 22.2291 53.2727 23.345 54.0447 24.2033Z" fill="white"/>
<path d="M137.934 26.4363C138.963 26.3505 139.993 26.0072 140.765 25.578C141.622 25.063 142.309 24.3764 142.738 23.4322C143.252 22.488 143.51 21.2005 143.51 19.5697C143.51 18.368 143.338 17.4239 142.995 16.5655C142.652 15.7072 142.137 15.1064 141.365 14.5055C140.593 13.9905 139.65 13.6472 138.449 13.3897C137.248 13.1322 135.789 13.0464 134.074 13.0464H132.272V7.98222C132.272 7.46722 132.358 7.12389 132.616 6.95222C132.873 6.78056 133.302 6.78056 133.988 6.78056H136.561C137.333 6.78056 138.02 6.78056 138.534 6.86639C139.049 6.95222 139.478 7.03806 139.735 7.29556C140.078 7.55306 140.336 7.89639 140.507 8.32555C140.679 8.75472 140.936 9.35555 141.108 10.128H142.223V5.40723H127.64H126.439V6.09389C126.525 6.09389 126.611 6.17972 126.868 6.17972C127.126 6.26556 127.297 6.35139 127.383 6.43722C127.469 6.52306 127.555 6.69472 127.64 6.95222C127.64 7.20972 127.726 7.46722 127.726 7.81055V12.1022V19.913V24.2047C127.726 24.548 127.726 24.8914 127.64 25.063C127.64 25.3205 127.555 25.4922 127.383 25.578C127.297 25.6639 127.126 25.8355 126.868 25.8355C126.611 25.9213 126.525 25.9214 126.439 25.9214V26.608H134.417C135.704 26.608 136.819 26.608 137.934 26.4363ZM132.701 24.8914C132.53 24.7197 132.444 24.548 132.444 24.2905C132.444 24.033 132.358 23.6897 132.358 23.2605V14.3339H134.16C135.789 14.3339 136.99 14.763 137.677 15.6214C138.363 16.4797 138.706 17.853 138.706 19.7414C138.706 21.0289 138.62 21.973 138.363 22.7455C138.105 23.518 137.848 24.033 137.419 24.4622C136.99 24.8055 136.561 25.063 136.133 25.2347C135.618 25.3205 135.103 25.4063 134.589 25.4063C134.074 25.3205 133.645 25.3205 133.388 25.2347C133.13 25.1488 132.873 25.063 132.701 24.8914Z" fill="white"/>
<path d="M115.374 25.9214C115.288 25.9214 115.202 25.8355 114.945 25.8355C114.688 25.7497 114.516 25.6639 114.43 25.578C114.345 25.4922 114.259 25.3205 114.173 25.063C114.173 24.8055 114.087 24.548 114.087 24.2047V18.2822H116.232C117.347 18.2822 118.376 18.1964 119.406 18.0247C120.435 17.853 121.293 17.5097 122.065 17.0805C122.837 16.5655 123.437 15.9647 123.866 15.0205C124.295 14.1622 124.552 12.9605 124.552 11.5014C124.552 10.128 124.295 9.01222 123.952 8.23972C123.523 7.46722 122.923 6.78056 122.236 6.35139C121.55 5.92223 120.692 5.66473 119.749 5.57889C118.805 5.49306 117.862 5.40723 116.832 5.40723H109.627H108.426V6.09389C108.512 6.09389 108.597 6.17972 108.855 6.17972C109.112 6.26556 109.284 6.35139 109.369 6.43722C109.455 6.52306 109.541 6.69472 109.627 6.95222C109.627 7.20972 109.712 7.46722 109.712 7.81056V24.1189C109.712 24.4622 109.712 24.8055 109.627 24.9772C109.627 25.2347 109.541 25.4064 109.369 25.4922C109.284 25.578 109.112 25.7497 108.855 25.7497C108.597 25.8355 108.512 25.8355 108.426 25.8355V26.5222H115.374V25.9214ZM114.173 7.81056C114.173 7.63889 114.173 7.46722 114.259 7.29556C114.259 7.12389 114.345 7.03806 114.43 6.95222C114.516 6.86639 114.688 6.78056 114.945 6.78056C115.202 6.78056 115.46 6.69472 115.889 6.69472C116.403 6.69472 116.918 6.78056 117.433 6.86639C117.947 7.03806 118.29 7.29556 118.719 7.63889C119.062 7.98222 119.32 8.49722 119.577 9.09805C119.749 9.69888 119.834 10.4714 119.834 11.3297C119.834 13.1322 119.577 14.5055 119.062 15.4497C118.548 16.3939 117.604 16.9089 116.317 16.9089H114.173V7.81056Z" fill="white"/>
<path d="M105.591 21.7155H104.219C104.047 22.5739 103.875 23.1747 103.704 23.6897C103.532 24.2047 103.361 24.548 103.018 24.8055C102.76 25.063 102.331 25.2347 101.817 25.2347C101.302 25.3205 100.616 25.3205 99.6722 25.3205C98.8144 25.3205 98.1282 25.3205 97.6993 25.2347C97.1846 25.1489 96.8415 25.063 96.5842 24.8914C96.3268 24.7197 96.1553 24.4622 96.1553 24.2047C96.0695 23.8614 96.0695 23.518 96.0695 23.003V16.308H98.9002C99.1576 16.308 99.4149 16.308 99.758 16.308C100.101 16.308 100.444 16.3939 100.787 16.3939C101.13 16.3939 101.474 16.4797 101.817 16.5655C102.16 16.6514 102.417 16.7372 102.675 16.9089V14.1622C102.417 14.3339 102.16 14.4197 101.817 14.5055C101.474 14.5914 101.13 14.6772 100.787 14.6772C100.444 14.763 100.101 14.763 99.758 14.763C99.4149 14.763 99.1576 14.763 98.9002 14.763H96.0695V7.72472C96.0695 7.29556 96.1553 6.95222 96.2411 6.78056C96.4126 6.60889 96.67 6.60889 97.0989 6.60889H99.4149C100.187 6.60889 100.873 6.60889 101.388 6.69472C101.903 6.78056 102.331 6.86639 102.589 7.12389C102.932 7.38139 103.189 7.72472 103.361 8.15389C103.532 8.58305 103.79 9.18389 103.961 9.95638H105.076V5.40723H91.5232H90.3223V6.09389C90.408 6.09389 90.4938 6.17972 90.7512 6.17972C91.0085 6.26556 91.1801 6.35139 91.2658 6.43722C91.3516 6.52306 91.4374 6.69472 91.5232 6.95222C91.5232 7.20972 91.609 7.46722 91.609 7.81056V24.1189C91.609 24.4622 91.609 24.8055 91.5232 24.9772C91.5232 25.2347 91.4374 25.4064 91.2658 25.4922C91.1801 25.578 91.0085 25.7497 90.7512 25.7497C90.4938 25.8355 90.408 25.8355 90.3223 25.8355V26.5222H105.591V21.7155Z" fill="white"/>
<path d="M82.2602 26.4363C83.2896 26.3505 84.319 26.0072 85.091 25.578C85.9488 25.063 86.635 24.3764 87.1497 23.4322C87.6644 22.488 87.9217 21.2005 87.9217 19.5697C87.9217 18.368 87.7501 17.4239 87.407 16.5655C87.0639 15.7072 86.5492 15.1064 85.7772 14.5055C85.0052 13.9905 84.0616 13.6472 82.8607 13.3897C81.6598 13.1322 80.2015 13.0464 78.4859 13.0464H76.6846V7.98222C76.6846 7.46722 76.7703 7.12389 77.0277 6.95222C77.285 6.78056 77.7139 6.78056 78.4002 6.78056H80.9735C81.7456 6.78056 82.4318 6.78056 82.9465 6.86639C83.4612 6.95222 83.8901 7.03806 84.1474 7.29556C84.4905 7.55306 84.7479 7.89639 84.9194 8.32555C85.091 8.75472 85.3483 9.35555 85.5199 10.128H86.635V5.40723H72.0525H70.8516V6.09389C70.9373 6.09389 71.0231 6.17972 71.2805 6.17972C71.5378 6.26556 71.7094 6.35139 71.7951 6.43722C71.8809 6.52306 71.9667 6.69472 72.0525 6.95222C72.0525 7.20972 72.1383 7.46722 72.1383 7.81055V8.23972V12.0164V19.7414V22.9172C72.1383 22.9172 72.1383 22.9172 72.1383 23.003V24.1189C72.1383 24.4622 72.1383 24.7197 72.0525 24.9772C72.0525 25.2347 71.9667 25.4064 71.7951 25.4922C71.7094 25.578 71.5378 25.7497 71.2805 25.7497C71.0231 25.8355 70.9373 25.8355 70.8516 25.8355V26.608H78.8291C80.1158 26.608 81.1451 26.608 82.2602 26.4363ZM77.0277 24.8914C76.8561 24.7197 76.7704 24.548 76.7704 24.2905C76.7704 24.033 76.6846 23.6897 76.6846 23.2605V14.3339H78.4859C80.1158 14.3339 81.3167 14.763 82.0029 15.6214C82.6891 16.4797 83.0323 17.853 83.0323 19.7414C83.0323 21.0289 82.9465 21.973 82.6891 22.7455C82.4318 23.518 82.1745 24.033 81.7456 24.4622C81.3167 24.8055 80.8878 25.063 80.4589 25.2347C79.9442 25.3205 79.4295 25.4063 78.9148 25.4063C78.4002 25.3205 78.057 25.3205 77.7139 25.2347C77.4566 25.1488 77.1992 25.063 77.0277 24.8914Z" fill="white"/>
<path d="M207.157 32.6172H51.6387V34.6772H207.157V32.6172Z" fill="white"/>
<path d="M194.718 18.6248C195.147 19.2256 195.49 19.7406 195.919 20.2556C196.262 20.7706 196.691 21.2856 197.034 21.8006C197.377 22.3156 197.721 22.8306 198.15 23.3456C198.578 23.9464 198.922 24.4614 199.265 25.0623C199.608 25.5772 199.865 26.1781 200.122 26.6931L207.328 26.7789C206.556 26.0064 205.87 25.2339 205.098 24.4614C204.411 23.6889 203.811 23.0023 203.382 22.5731C202.696 21.8006 202.095 21.1139 201.581 20.5131C200.98 19.8264 200.466 19.2256 199.951 18.6248C199.436 18.0239 198.922 17.3373 198.493 16.7364C198.064 16.1356 197.549 15.3631 197.12 14.6764L197.463 14.2473C197.978 13.5606 198.578 12.8739 199.265 12.0156C199.951 11.1573 200.637 10.2989 201.409 9.52645C202.181 8.66812 202.867 7.89562 203.639 7.20895C204.411 6.52229 205.012 6.00729 205.612 5.57812H200.637C200.466 6.00729 200.208 6.52229 199.865 7.12312C199.522 7.72395 199.179 8.41062 198.664 9.09728C198.235 9.78395 197.721 10.5564 197.292 11.3289C196.777 12.1014 196.348 12.7881 195.833 13.4748C195.319 14.1614 194.89 14.8481 194.461 15.3631C194.032 15.9639 193.689 16.3931 193.432 16.8223C193.861 17.4231 194.289 18.0239 194.718 18.6248Z" fill="white"/>
<path d="M194.12 25.9214C194.034 25.9214 193.948 25.8355 193.691 25.8355C193.434 25.7497 193.262 25.6639 193.176 25.578C193.091 25.4922 193.005 25.3205 192.919 25.063C192.919 24.8055 192.833 24.548 192.833 24.2047V7.89639C192.833 7.55306 192.833 7.20972 192.919 7.03806C192.919 6.78056 193.005 6.60889 193.176 6.52306C193.262 6.43722 193.434 6.35139 193.691 6.26556C193.948 6.17972 194.034 6.17972 194.12 6.17972V5.40723H188.373H187.172V6.09389C187.258 6.09389 187.343 6.17972 187.601 6.17972C187.858 6.26556 188.03 6.35139 188.115 6.43722C188.201 6.52306 188.287 6.69472 188.373 6.95222C188.373 7.20972 188.459 7.46722 188.459 7.81056V24.1189C188.459 24.4622 188.459 24.8055 188.373 24.9772C188.373 25.2347 188.287 25.4064 188.115 25.4922C188.03 25.578 187.858 25.7497 187.601 25.7497C187.343 25.8355 187.258 25.8355 187.172 25.8355V26.5222H194.12V25.9214Z" fill="white"/>
<path d="M147.967 24.0341C148.224 22.8324 148.739 21.1158 149.425 18.9699H156.201L157.145 21.7166C157.574 22.9183 157.917 23.9483 158.089 24.8066C158.346 25.6649 158.517 26.2658 158.517 26.6949H163.922C163.664 26.2658 163.407 25.6649 163.064 24.9783C162.721 24.2916 162.292 23.2616 161.863 21.9741L156.973 8.06913C156.716 7.4683 156.63 6.9533 156.545 6.52414C156.459 6.09497 156.459 5.75164 156.373 5.49414H150.283V6.18081C150.368 6.18081 150.454 6.26664 150.712 6.26664C150.969 6.35247 151.14 6.43831 151.226 6.52414C151.312 6.60997 151.398 6.78164 151.484 7.03914C151.484 7.2108 151.484 7.29664 151.484 7.4683C151.484 7.9833 151.398 8.4983 151.226 8.84163L147.795 17.2533C147.195 18.7983 146.594 20.1716 146.165 21.2016C145.736 22.2316 145.307 23.1758 145.05 23.8624C144.707 24.5491 144.45 25.1499 144.192 25.5791C143.935 26.0083 143.763 26.3516 143.592 26.6949H147.452C147.538 26.0941 147.709 25.2358 147.967 24.0341ZM152.856 8.92747L155.687 17.5108H149.854L152.856 8.92747Z" fill="white"/>
<path d="M172.075 25.9214H171.904C171.818 25.9214 171.732 25.8355 171.475 25.8355C171.217 25.7497 171.046 25.6639 170.96 25.578C170.874 25.4922 170.788 25.3205 170.703 25.063C170.703 24.8055 170.617 24.548 170.617 24.2047V16.0505H178.852V24.1189C178.852 24.4622 178.852 24.8055 178.766 24.9772C178.766 25.2347 178.68 25.4064 178.509 25.4922C178.423 25.578 178.251 25.7497 177.994 25.7497C177.737 25.8355 177.651 25.8355 177.565 25.8355V26.5222H184.513V25.8355C184.427 25.8355 184.342 25.7497 184.084 25.7497C183.827 25.6639 183.655 25.578 183.57 25.4922C183.484 25.4064 183.398 25.2347 183.312 24.9772C183.312 24.7197 183.226 24.4622 183.226 24.1189V19.913V19.7414V12.0164V11.9305V7.72472C183.226 7.38139 183.226 7.03806 183.312 6.86639C183.312 6.60889 183.398 6.43722 183.57 6.35139C183.655 6.26556 183.827 6.17972 184.084 6.09389C184.342 6.00806 184.427 6.00806 184.513 6.00806V5.40723H178.766H177.737V6.09389C177.822 6.09389 177.908 6.17972 178.165 6.17972C178.423 6.26556 178.594 6.35139 178.68 6.43722C178.766 6.52306 178.852 6.69472 178.937 6.95222C178.937 7.20972 179.023 7.46722 179.023 7.81055V14.5914H170.788V7.81055C170.788 7.46722 170.788 7.12389 170.874 6.95222C170.874 6.69472 170.96 6.52306 171.132 6.43722C171.217 6.35139 171.389 6.26556 171.646 6.17972C171.904 6.09389 171.989 6.09389 172.075 6.09389V5.40723H166.328H165.127V6.09389C165.213 6.09389 165.299 6.17972 165.556 6.17972C165.813 6.26556 165.985 6.35139 166.071 6.43722C166.156 6.52306 166.242 6.69472 166.328 6.95222C166.328 7.20972 166.414 7.46722 166.414 7.81055V8.32555V23.003V23.0889V24.2047C166.414 24.548 166.414 24.8055 166.328 25.063C166.328 25.3205 166.242 25.4922 166.071 25.578C165.985 25.6639 165.813 25.8355 165.556 25.8355C165.299 25.9213 165.213 25.9214 165.127 25.9214V26.608H172.075V25.9214Z" fill="white"/>
<path d="M37.4864 7.64039C37.0575 7.03955 36.6286 6.43872 36.1997 5.83789L12.4388 19.4854L0.944365 12.8762C0.687026 13.6487 0.515467 14.3354 0.429688 15.1079L12.5246 22.0604L37.4864 7.64039Z" fill="white"/>
<path d="M12.438 24.6341L0.0857795 17.5099C-6.39107e-09 17.9391 0 18.4541 0 18.8833C0 30.1274 9.09263 39.3116 20.4155 39.3116C31.6526 39.3116 40.8311 30.2132 40.8311 18.8833C40.8311 15.5358 40.059 12.3599 38.6008 9.61328L12.438 24.6341Z" fill="white"/>
<path d="M34.5761 4.12019C33.9756 3.51936 33.3751 3.09019 32.7747 2.5752L12.4449 14.3343L2.66607 8.75518C2.32296 9.35601 1.97984 10.0427 1.63672 10.7293L12.3592 16.9093L34.5761 4.12019Z" fill="white"/>
<path d="M30.7123 1.20166C29.9403 0.772499 29.1682 0.343333 28.3104 0L12.4412 9.18415L5.32153 5.14999C4.80686 5.66499 4.37796 6.26582 3.86328 6.86665L12.3555 11.7591L30.7123 1.20166Z" fill="white"/>
<path d="M138.707 50.2115L140.337 41.7998H142.996C144.54 41.7998 145.226 42.5723 145.226 43.774C145.226 44.8898 144.54 45.4906 143.253 45.9198C144.111 46.2631 144.626 46.864 144.626 47.7223C144.626 49.2673 143.596 50.1256 141.538 50.1256H138.707V50.2115ZM139.736 49.439H141.709C142.996 49.439 143.768 48.7523 143.768 47.7223C143.768 46.9498 143.082 46.1773 141.795 46.1773H140.251L139.736 49.439ZM140.508 45.4906H142.224C143.682 45.4906 144.454 44.804 144.454 43.774C144.454 42.9156 143.94 42.4865 142.91 42.4865H141.195L140.508 45.4906Z" fill="white"/>
<path d="M150.456 48.6683C149.942 49.6125 149.341 50.2991 148.14 50.2991C146.768 50.2991 145.824 49.1833 145.824 47.6383C145.824 45.75 147.025 44.1191 148.655 44.1191C149.856 44.1191 150.456 44.8058 150.799 45.8358L150.027 46.0075C149.77 45.235 149.341 44.8058 148.655 44.8058C147.54 44.8058 146.596 46.0075 146.596 47.7241C146.596 48.9258 147.197 49.5266 148.226 49.5266C149.17 49.5266 149.513 49.0116 149.856 48.4108L150.456 48.6683Z" fill="white"/>
<path d="M152.26 47.295C152.26 47.4666 152.26 47.6383 152.26 47.7241C152.26 48.9258 152.861 49.6125 153.804 49.6125C154.662 49.6125 155.177 49.0116 155.691 48.2391L156.378 48.5825C155.691 49.6125 155.005 50.2991 153.719 50.2991C152.346 50.2991 151.488 49.2691 151.488 47.7241C151.488 45.6641 152.689 44.1191 154.405 44.1191C155.777 44.1191 156.549 44.9775 156.549 46.5225C156.549 46.78 156.463 47.0375 156.463 47.295H152.26ZM155.777 46.6083C155.863 46.4366 155.777 46.3508 155.777 46.265C155.777 45.5783 155.348 44.8916 154.405 44.8916C153.29 44.8916 152.775 45.5783 152.432 46.6941H155.777V46.6083Z" fill="white"/>
<path d="M158.521 44.29H161.867L161.781 44.9767H159.208L158.178 50.2125H157.406L158.521 44.29Z" fill="white"/>
<path d="M161.174 49.5259L163.662 44.29H164.863L165.549 49.5259H166.149L165.806 51.3284H165.206L165.292 50.2125H161.26L160.917 51.3284H160.316L160.66 49.5259H161.174ZM164.691 49.5259L164.262 45.0625H164.091L162.032 49.5259H164.691Z" fill="white"/>
<path d="M171.043 46.6933C171.043 46.4358 171.129 46.1783 171.129 46.0066C171.129 45.3199 170.614 44.8908 169.842 44.8908C169.328 44.8908 168.899 45.1483 168.556 45.5774L168.041 45.0624C168.556 44.6333 169.156 44.2041 170.014 44.2041C171.215 44.2041 171.987 44.9766 171.987 45.9208C171.987 46.0924 171.901 46.4358 171.901 46.8649L171.472 48.8391C171.301 49.5258 171.301 49.9549 171.301 50.2983H170.529C170.443 50.1266 170.443 49.8691 170.443 49.6116C169.928 50.0408 169.414 50.3841 168.727 50.3841C167.784 50.3841 167.012 49.6116 167.012 48.6674C167.012 47.4658 168.127 46.6933 170.186 46.6933H171.043ZM170.872 47.2941H170.271C168.642 47.2941 167.784 47.7233 167.784 48.5816C167.784 49.1824 168.213 49.6116 168.813 49.6116C169.414 49.6116 169.928 49.2683 170.529 48.8391L170.872 47.2941Z" fill="white"/>
<path d="M178.166 44.9775C178.68 44.4625 179.195 44.1191 179.881 44.1191C181.168 44.1191 181.854 44.9775 181.854 46.6083C181.854 48.7541 180.568 50.2991 179.024 50.2991C178.252 50.2991 177.737 49.9558 177.308 49.5266L176.708 52.5308H175.936L177.565 44.205H178.252L178.166 44.9775ZM177.48 48.7541C177.823 49.2691 178.252 49.6125 179.024 49.6125C180.139 49.6125 181.168 48.325 181.168 46.5225C181.168 45.4066 180.653 44.8058 179.796 44.8058C179.195 44.8058 178.595 45.0633 178.166 45.8358L177.48 48.7541Z" fill="white"/>
<path d="M185.198 47.4659L183.311 50.2125H182.453L184.426 47.4659C183.654 47.2084 183.225 46.6075 183.225 45.9209C183.225 45.1484 183.911 44.29 185.284 44.29H188.115L186.914 50.2125H186.142L186.656 47.4659H185.198ZM187.085 44.8909H185.198C184.34 44.8909 183.911 45.4059 183.911 45.835C183.911 46.4359 184.254 46.6934 184.941 46.6934H186.656L187.085 44.8909Z" fill="white"/>
<path d="M188.887 49.5259L191.375 44.29H192.576L193.262 49.5259H193.862L193.519 51.3284H192.919L193.005 50.2125H188.973L188.63 51.3284H188.029L188.372 49.5259H188.887ZM192.318 49.5259L191.889 45.0625H191.718L189.659 49.5259H192.318Z" fill="white"/>
<path d="M194.547 47.7241C194.547 45.6641 195.834 44.1191 197.378 44.1191C198.664 44.1191 199.436 45.1491 199.436 46.6941C199.436 48.6683 198.15 50.2991 196.606 50.2991C195.405 50.2991 194.547 49.355 194.547 47.7241ZM195.319 47.8958C195.319 49.0116 195.919 49.6125 196.691 49.6125C197.721 49.6125 198.75 48.325 198.75 46.6083C198.75 45.4925 198.15 44.8058 197.378 44.8058C196.348 44.8058 195.319 46.0933 195.319 47.8958Z" fill="white"/>
<path d="M206.3 44.9767L203.726 50.2125H202.954L202.182 44.9767L201.153 50.2125H200.381L201.582 44.29H202.868L203.555 49.44L206.042 44.29H207.329L206.128 50.2125H205.356L206.3 44.9767Z" fill="white"/>
</svg>
