<svg width="20" height="18" viewBox="0 0 20 18" fill="none" xmlns="http://www.w3.org/2000/svg">
<path fill-rule="evenodd" clip-rule="evenodd" d="M9.61415 5.30177L9.65705 6.03547L8.94175 5.94562C6.33789 5.60121 4.06309 4.43325 2.13172 2.47163L1.18744 1.49827L0.944282 2.21707C0.429236 3.81929 0.758298 5.51136 1.83129 6.64943C2.40351 7.27838 2.2748 7.36823 1.28761 6.99384C0.944282 6.87411 0.643759 6.78426 0.615219 6.82913C0.515045 6.93397 0.858377 8.29662 1.13026 8.83573C1.50223 9.58441 2.26043 10.3182 3.09027 10.7525L3.7913 11.0969L2.96146 11.1118C2.16036 11.1118 2.13172 11.1268 2.21753 11.4413C2.50369 12.4146 3.63395 13.4478 4.89293 13.897L5.77994 14.2115L5.00737 14.6907C3.86284 15.3795 2.51796 15.7688 1.17317 15.7988C0.529315 15.8138 0 15.8736 0 15.9186C0 16.0683 1.74539 16.9069 2.76121 17.2363C5.80858 18.2097 9.42817 17.7904 12.1464 16.1282C14.0778 14.9453 16.0092 12.5943 16.9106 10.3182C17.397 9.10528 17.8834 6.889 17.8834 5.82588C17.8834 5.13706 17.9263 5.04721 18.7275 4.22357C19.1997 3.74443 19.6432 3.22032 19.729 3.0706C19.8721 2.78606 19.8578 2.78606 19.1281 3.04062C17.912 3.48987 17.7403 3.43 18.3412 2.75607C18.7848 2.27694 19.3141 1.40842 19.3141 1.15386C19.3141 1.10888 19.0995 1.18384 18.8562 1.31857C18.5987 1.46828 18.0265 1.69296 17.5973 1.82769L16.8247 2.08225L16.1237 1.58812C15.7374 1.31857 15.1937 1.01913 14.9076 0.929279C14.178 0.719595 13.062 0.749578 12.4039 0.989147C10.6156 1.66298 9.48534 3.40002 9.61415 5.30177Z" fill="#1E1E1E"/>
</svg>
