<svg xmlns="http://www.w3.org/2000/svg" xmlns:xlink="http://www.w3.org/1999/xlink" viewBox="0 0 100 100" xml:space="preserve">
<g>
	<path fill="#fff" d="M73.17,28.5c-11.88-11.88-31.13-11.88-43.01,0c-11.88,11.88-11.88,31.13,0,43.01
		c5.94,5.94,13.72,8.91,21.5,8.91v12.6l21.5-21.5C85.04,59.63,85.04,40.37,73.17,28.5z"/>
	<path d="M83.28,18.39c-17.46-17.46-45.77-17.46-63.23,0c-17.46,17.46-17.46,45.77,0,63.23c17.46,17.46,45.77,17.46,63.23,0
		C100.74,64.15,100.74,35.85,83.28,18.39z M30.16,71.5c-11.88-11.87-11.88-31.13,0-43.01c11.88-11.88,31.13-11.88,43.01,0
		c11.88,11.88,11.88,31.13,0,43.01l-21.5,21.5v-12.6C43.88,80.41,36.1,77.44,30.16,71.5z"/>
</g>
</svg>
