<svg width="98" height="37" viewBox="0 0 98 37" fill="none" xmlns="http://www.w3.org/2000/svg">
<path d="M89.5032 9.47253C89.4594 9.33714 89.3724 9.21888 89.2548 9.13495C89.1372 9.05101 88.9951 9.00579 88.8493 9.00586H82.4511C82.3053 9.00584 82.1633 9.05109 82.0458 9.13502C81.9282 9.21895 81.8412 9.33719 81.7975 9.47253L73.7253 34.3908C73.6928 34.4908 73.685 34.5968 73.7024 34.7002C73.7199 34.8037 73.7622 34.9017 73.8259 34.9863C73.8896 35.0708 73.9729 35.1396 74.069 35.187C74.1651 35.2343 74.2713 35.259 74.379 35.2589H78.7839C78.9319 35.259 79.0759 35.2124 79.1945 35.1262C79.313 35.04 79.3997 34.9187 79.4415 34.7806L85.0002 16.4541C85.0002 16.4541 85.1457 15.9963 85.6492 15.9963C86.1608 15.9963 86.2856 16.4719 86.2856 16.4725L88.8645 25.1632H85.3213C85.1719 25.1632 85.0265 25.2107 84.9074 25.2985C84.7883 25.3863 84.7019 25.5096 84.6614 25.6495L83.667 29.09C83.6383 29.1892 83.6337 29.2934 83.6534 29.3947C83.6731 29.4959 83.7167 29.5913 83.7807 29.6733C83.8446 29.7555 83.9272 29.8222 84.022 29.8681C84.1168 29.914 84.2213 29.9379 84.3272 29.9379H90.3066L91.86 34.7898C91.9035 34.9258 91.9904 35.0446 92.1082 35.129C92.226 35.2134 92.3684 35.2589 92.5147 35.2589H96.9215C97.0292 35.2589 97.1354 35.2342 97.2314 35.1868C97.3275 35.1394 97.4107 35.0706 97.4744 34.9861C97.5381 34.9016 97.5804 34.8036 97.5979 34.7002C97.6154 34.5967 97.6077 34.4908 97.5752 34.3908L89.503 9.47235" fill="#264970"/>
<path d="M59.4154 13.8575H64.7472C67.5046 13.8575 68.0582 14.9134 68.0582 16.6176V19.1625C68.0582 21.2836 67.2229 21.9992 64.7472 21.9992H59.4154V13.8575ZM75.6952 34.1574L69.8364 25.9317C72.359 24.9133 73.6375 22.7787 73.6375 19.5867V16.2321C73.6375 11.2343 70.9566 9.00586 64.945 9.00586H54.5219C54.3401 9.00586 54.1658 9.07611 54.0372 9.20118C53.9087 9.32625 53.8364 9.49588 53.8363 9.6728V34.5912C53.8363 34.6789 53.854 34.7657 53.8884 34.8467C53.9228 34.9277 53.9733 35.0013 54.037 35.0633C54.1007 35.1253 54.1763 35.1745 54.2595 35.208C54.3427 35.2416 54.4318 35.2589 54.5219 35.2589H58.7298C58.9117 35.2589 59.086 35.1885 59.2146 35.0634C59.3432 34.9382 59.4154 34.7684 59.4154 34.5914V26.7765H63.7218L69.5787 34.9725C69.6419 35.0608 69.726 35.133 69.824 35.1829C69.9221 35.2328 70.031 35.2589 70.1416 35.2589H75.1745C75.3056 35.259 75.434 35.2224 75.5445 35.1535C75.6549 35.0847 75.7427 34.9865 75.7976 34.8705C75.8524 34.7545 75.8719 34.6257 75.8537 34.4993C75.8356 34.3729 75.7805 34.2542 75.6952 34.1573V34.1574ZM48.7238 9.00586H44.5157C44.334 9.00586 44.1596 9.07611 44.031 9.20118C43.9025 9.32625 43.8302 9.49588 43.8301 9.6728V34.5912C43.8301 34.6789 43.8478 34.7657 43.8822 34.8467C43.9167 34.9277 43.9672 35.0013 44.0308 35.0633C44.0945 35.1253 44.1701 35.1745 44.2533 35.208C44.3365 35.2416 44.4257 35.2589 44.5157 35.2589H48.7238C48.9057 35.2589 49.0801 35.1886 49.2088 35.0634C49.3374 34.9382 49.4096 34.7685 49.4096 34.5914V9.67299C49.4096 9.58536 49.3918 9.49859 49.3574 9.41763C49.3229 9.33668 49.2724 9.26313 49.2087 9.20118C49.145 9.13923 49.0694 9.0901 48.9862 9.05658C48.903 9.02307 48.8139 9.00584 48.7238 9.00586ZM38.8692 9.00586H34.6099C34.4366 9.00586 34.2704 9.07274 34.1477 9.19184C34.0249 9.31094 33.9557 9.47254 33.9552 9.64122V29.14C33.9552 31.5904 32.0367 32.3959 30.7384 32.4602C30.5633 32.4685 30.3597 32.5759 30.2478 32.7351C30.1924 32.8138 30.156 32.9037 30.1412 32.998C30.1265 33.0923 30.1337 33.1886 30.1625 33.2798L31.198 36.5585C31.2826 36.8267 31.5798 36.9993 32.0631 36.9993C36.1383 36.9993 39.522 33.8851 39.522 29.7108V9.64159C39.522 9.55812 39.5052 9.47546 39.4724 9.39834C39.4396 9.32121 39.3915 9.25112 39.3309 9.19208C39.2703 9.13305 39.1983 9.08621 39.1191 9.05426C39.0399 9.02231 38.9549 9.00586 38.8692 9.00586Z" fill="#264970"/>
<path d="M5.88756 2.20741C4.57891 2.20741 3.51935 3.23736 3.51935 4.51422C3.51935 5.78791 4.57891 6.82158 5.88756 6.82158C7.19698 6.82158 8.25559 5.78791 8.25559 4.51422C8.25559 3.23736 7.19717 2.20741 5.88756 2.20741ZM21.4458 2.20741C20.1366 2.20741 19.0783 3.23736 19.0783 4.51422C19.0783 5.78791 20.1366 6.82158 21.4458 6.82158C22.7514 6.82158 23.8134 5.78791 23.8134 4.51422C23.8134 3.23736 22.7514 2.20908 21.4458 2.20741ZM13.6666 0.102539C12.3581 0.102539 11.2986 1.13231 11.2986 2.40953C11.2986 3.68323 12.3579 4.7169 13.6666 4.7169C14.976 4.7169 16.0344 3.68323 16.0344 2.40953C16.0344 1.13231 14.9758 0.102539 13.6664 0.102539H13.6666ZM27.0442 8.63552C26.9146 8.53949 26.7563 8.48748 26.5934 8.48746C26.5042 8.48746 26.414 8.50325 26.3288 8.5352C24.7255 9.13211 23.0969 9.58522 21.6107 9.92222C21.3076 9.99096 21.0629 10.2102 20.9614 10.4732C19.8785 13.36 17.1135 16.109 14.2125 18.9882C14.0961 19.0958 13.9331 19.2377 13.6675 19.2377C13.4026 19.2377 13.2411 19.1002 13.1226 18.9882C10.222 16.109 7.45696 13.3695 6.37373 10.4825C6.27218 10.2197 6.02729 10.0006 5.72474 9.93151C4.23762 9.59451 2.60523 9.12728 1.00358 8.53074C0.918855 8.49927 0.828946 8.48309 0.73826 8.483C0.577732 8.483 0.422167 8.53204 0.290843 8.62976C0.191445 8.70373 0.112917 8.801 0.062583 8.91249C0.0122494 9.02398 -0.00824899 9.14607 0.00300017 9.26735C0.24866 11.668 1.22328 14.0149 2.98222 16.4741C4.6356 18.7863 6.79213 20.9264 8.87709 22.996C12.7187 26.81 16.3478 30.4119 16.6662 34.5887C16.6801 34.7706 16.7642 34.9405 16.9015 35.0646C17.0387 35.1886 17.2191 35.2575 17.4064 35.2575H21.9199C22.0205 35.2575 22.1199 35.2375 22.2123 35.1989C22.3047 35.1603 22.388 35.1039 22.4573 35.033C22.5267 34.9622 22.5805 34.8784 22.6155 34.7867C22.6506 34.695 22.6662 34.5973 22.6613 34.4996C22.5193 31.707 21.4395 28.9102 19.3603 25.9508C18.9245 25.3303 18.4578 24.7265 17.9697 24.1357C17.7714 23.8952 17.8544 23.5962 18.006 23.4454C18.156 23.296 18.3066 23.147 18.4584 22.996C20.5433 20.9264 22.6997 18.7863 24.3532 16.4741C26.112 14.0145 27.0862 11.6815 27.3321 9.28129C27.3565 9.04015 27.2441 8.78414 27.0442 8.63552ZM8.82421 26.2451C8.71732 26.1364 8.56061 26.0255 8.2972 26.0255C7.9603 26.0255 7.76045 26.2521 7.68487 26.3643C5.7864 29.1761 4.80586 31.8299 4.67034 34.4968C4.66573 34.5948 4.68143 34.6928 4.71652 34.7848C4.75161 34.8768 4.80536 34.961 4.87458 35.0324C4.94446 35.1033 5.02831 35.1598 5.12112 35.1985C5.21393 35.2372 5.3138 35.2573 5.41476 35.2575H9.92042C10.1082 35.2568 10.2888 35.1873 10.4264 35.0629C10.564 34.9385 10.6485 34.7683 10.6631 34.5861C10.7612 33.3007 11.1724 32.0124 11.921 30.6584C12.1806 30.1901 11.9788 29.75 11.8296 29.562C11.0871 28.6219 10.1773 27.6193 8.82421 26.2451Z" fill="#264970"/>
<path d="M13.6716 10.7877C15.086 10.7877 15.9064 10.7051 16.1946 10.7051C16.5439 10.7051 16.8774 10.9836 16.8774 11.3733C16.8774 11.487 16.8497 11.5684 16.8224 11.6403C16.6348 12.1283 15.7798 13.8845 14.1881 15.391C14.0095 15.56 13.8071 15.5916 13.6678 15.5916H13.6663C13.5271 15.5916 13.325 15.56 13.1465 15.391C11.5546 13.8845 10.6994 12.1283 10.5124 11.6401C10.4847 11.5684 10.457 11.487 10.457 11.3733C10.457 10.9836 10.7911 10.7051 11.1404 10.7051C11.4286 10.7051 12.2484 10.7877 13.6624 10.7877H13.6718" fill="#264970"/>
</svg>
