<svg width="111" height="36" viewBox="0 0 111 36" fill="none" xmlns="http://www.w3.org/2000/svg">
  <path d="M60.0001 21.184L62.6691 25.825H66.0861L63.0431 20.708C64.4541 20.164 65.4571 19.127 65.4571 17.308C65.4571 14.248 63.0601 13.5 59.8641 13.5H55.1211V25.825H58.0281V21.184H60.0001ZM58.0281 15.948H59.9491C61.3261 15.948 62.3801 16.203 62.3801 17.342C62.3801 18.498 61.3261 18.736 59.9491 18.736H58.0281V15.948Z"
    fill="#1E1E1E" />
  <path d="M76.2984 22.952H73.7144C73.3914 23.496 72.7114 23.87 71.6574 23.87C70.6374 23.87 69.6344 23.258 69.5494 21.966H76.3324C76.5194 18.719 74.6494 16.407 71.6234 16.407C68.9544 16.407 66.7274 18.277 66.7274 21.201C66.7274 24.227 68.7674 26.046 71.7424 26.046C73.5784 26.046 75.4824 25.111 76.2984 22.952ZM69.5834 20.266C69.7364 19.059 70.6374 18.549 71.6234 18.549C72.6774 18.549 73.5104 19.127 73.5444 20.266H69.5834Z"
    fill="#1E1E1E" />
  <path d="M87.1898 22.952H84.6058C84.2828 23.496 83.6028 23.87 82.5488 23.87C81.5288 23.87 80.5258 23.258 80.4408 21.966H87.2238C87.4108 18.719 85.5408 16.407 82.5148 16.407C79.8458 16.407 77.6188 18.277 77.6188 21.201C77.6188 24.227 79.6588 26.046 82.6338 26.046C84.4698 26.046 86.3738 25.111 87.1898 22.952ZM80.4748 20.266C80.6278 19.059 81.5288 18.549 82.5148 18.549C83.5688 18.549 84.4018 19.127 84.4358 20.266H80.4748Z"
    fill="#1E1E1E" />
  <path d="M89.3468 14.18V16.679H87.9018V18.668H89.3468V23.258C89.3468 25.4 90.1288 25.825 92.3728 25.825H94.1578V23.802H93.3588C92.4238 23.802 92.1518 23.632 92.1518 22.765V18.668H94.1578V16.679H92.1518V14.18H89.3468Z" fill="#1E1E1E" />
  <path d="M98.6501 25.825V21.065C98.6501 19.45 99.1431 18.651 100.282 18.651C101.625 18.651 101.693 19.722 101.693 21.031V25.825H104.498V21.065C104.498 19.45 104.991 18.651 106.13 18.651C107.473 18.651 107.541 19.722 107.541 21.031V25.825H110.346V20.334C110.346 17.852 109.615 16.475 107.269 16.475C105.977 16.475 104.838 17.002 104.141 18.022C103.716 17.019 102.883 16.475 101.421 16.475C100.044 16.475 99.0581 17.206 98.6501 17.886V16.679H95.8451V25.825H98.6501Z"
    fill="#1E1E1E" />
  <path d="M23 0V36H0V0Z" fill="#000" />
  <path d="M23 36H36V0H23Z" fill="#d2fde5" />
  <path d="M17.75 36H36V21H17.75L17.75 36Z" fill="#b0b3f9" />
  <path fill-rule="evenodd" clip-rule="evenodd" d="M14.928 7.44151C13.4409 7.44151 12.1767 8.37932 11.7036 9.68925L10.0792 9.10263C10.7943 7.12234 12.6984 5.71436 14.928 5.71436C17.1592 5.71436 19.0821 7.14005 19.7801 9.14212L18.1492 9.71069C17.6895 8.39208 16.4136 7.44151 14.928 7.44151Z"
    fill="#D2FFFB" />
</svg>
