<?xml version="1.0" encoding="UTF-8" standalone="no"?>
<svg
   xmlns:dc="http://purl.org/dc/elements/1.1/"
   xmlns:cc="http://creativecommons.org/ns#"
   xmlns:rdf="http://www.w3.org/1999/02/22-rdf-syntax-ns#"
   xmlns:svg="http://www.w3.org/2000/svg"
   xmlns="http://www.w3.org/2000/svg"
   viewBox="0 0 327.14267 78.72454"
   height="78.724541"
   width="327.14267"
   xml:space="preserve"
   id="svg2"
   version="1.1"><metadata
     id="metadata8"><rdf:RDF><cc:Work
         rdf:about=""><dc:format>image/svg+xml</dc:format><dc:type
           rdf:resource="http://purl.org/dc/dcmitype/StillImage" /></cc:Work></rdf:RDF></metadata><defs
     id="defs6" /><g
     transform="matrix(1.3333333,0,0,-1.3333333,0,78.725065)"
     id="g10"><g
       transform="scale(0.1)"
       id="g12"><path
         id="path14"
         style="fill:#040606;fill-opacity:1;fill-rule:nonzero;stroke:none"
         d="m 1121.6,136.586 h -77.01 v 332.832 h 77.01 z m 0,376.195 h -77.01 v 77.657 h 77.01 v -77.657" /><path
         id="path16"
         style="fill:#040606;fill-opacity:1;fill-rule:nonzero;stroke:none"
         d="m 1576.45,136.586 v 452.996 h 77.02 V 136.586 h -77.02" /><path
         id="path18"
         style="fill:#040606;fill-opacity:1;fill-rule:nonzero;stroke:none"
         d="m 785.793,194.945 c 29.117,0 53.711,9.707 73.133,29.121 19.414,20.067 29.113,44.649 29.113,74.418 0,29.774 -9.699,54.36 -29.113,73.774 -19.422,20.066 -44.016,29.765 -73.133,29.765 -29.121,0 -53.715,-9.699 -73.125,-29.765 -19.414,-19.414 -29.125,-44 -29.125,-73.774 0,-29.769 9.711,-54.351 29.125,-74.418 19.41,-19.414 44.004,-29.121 73.125,-29.121 z m 102.246,394.754 h 69.895 V 136.703 h -69.895 v 46.602 c -26.531,-36.895 -64.062,-55.008 -113.242,-55.008 -44.656,0 -82.188,16.168 -113.899,49.176 -31.707,33.007 -47.242,73.781 -47.242,121.011 0,47.891 15.535,88.012 47.242,121.016 31.711,33.008 69.243,49.184 113.899,49.184 49.18,0 86.711,-18.125 113.242,-54.36 v 175.375" /><path
         id="path20"
         style="fill:#040606;fill-opacity:1;fill-rule:nonzero;stroke:none"
         d="m 1888.36,196.156 c 28.47,0 52.42,9.696 71.83,29.121 19.42,19.414 29.12,43.993 29.12,73.121 0,29.125 -9.7,53.711 -29.12,73.125 -19.41,19.418 -43.36,29.122 -71.83,29.122 -28.47,0 -52.42,-9.704 -71.83,-29.122 -19.41,-19.414 -29.12,-44 -29.12,-73.125 0,-29.128 9.71,-53.707 29.12,-73.121 19.41,-19.425 43.36,-29.121 71.83,-29.121 z m -121.01,-18.769 c -33.01,33.008 -49.83,73.125 -49.83,121.011 0,47.883 16.82,88.008 49.83,121.016 33,33.004 73.77,49.18 121.01,49.18 47.89,0 88.02,-16.176 121.01,-49.18 33.01,-33.008 49.84,-73.133 49.84,-121.016 0,-47.886 -16.83,-88.003 -49.84,-121.011 -32.99,-33.008 -73.12,-49.18 -121.01,-49.18 -47.24,0 -88.01,16.172 -121.01,49.18" /><path
         id="path22"
         style="fill:#040606;fill-opacity:1;fill-rule:nonzero;stroke:none"
         d="m 2346.86,230.375 c -19.41,-19.406 -43.99,-29.121 -73.12,-29.121 -29.12,0 -53.7,9.715 -73.77,29.121 -19.42,19.414 -29.12,43.367 -29.12,72.484 0,29.121 9.7,53.067 29.12,72.477 20.07,19.414 44.65,29.125 73.77,29.125 29.13,0 53.71,-9.711 73.12,-29.125 19.71,-19.063 29.37,-42.535 29.71,-70.957 v -3.039 c -0.34,-28.426 -10,-51.895 -29.71,-70.965 z m 29.71,239.363 v -56.136 c -26.53,37.472 -64.03,56.214 -112.54,56.214 -45.95,0 -84.12,-16.175 -115.83,-49.179 -31.71,-32.356 -47.24,-71.828 -47.24,-117.778 0,-45.953 15.53,-85.414 47.24,-118.421 31.71,-32.364 69.88,-48.536 115.83,-48.536 48.51,0 86.01,18.739 112.54,56.219 l 0.07,-39.402 c 0,-56.2971 -35.6,-89.2971 -95.78,-89.2971 -45.86,0 -77.53,16.7773 -94.38,49.6561 -0.27,1.047 -0.65,1.992 -0.89,3.059 H 2112 c 2.5,-16.3987 7.47,-30.4807 14.33,-42.6487 l -0.13,-0.086 c 0.42,-0.8007 0.98,-1.4453 1.41,-2.2343 0.9,-1.5157 1.85,-3 2.82,-4.4453 28.59,-47.2774 78.13,-66.71879375 149.14,-66.71879375 45.95,0 86.67,7.68359375 119.02,34.21879375 32.37,26.5312 54.98,69.3163 54.98,118.4963 v 16.375 292.312 8.332 h -77" /><path
         id="path24"
         style="fill:#040606;fill-opacity:1;fill-rule:nonzero;stroke:none"
         d="m 1414.1,273.898 c 0,-58.894 -33.65,-88.015 -90.61,-88.015 -38.81,0 -64.06,18.125 -64.06,48.535 0,40.129 44.66,42.363 154.67,52.723 z m 75.07,46.032 c 1.94,111.304 -63.42,149.488 -146.91,149.488 -84.12,0 -141.5,-43.617 -146.67,-114.801 h 75.72 c 1.94,42.063 29.54,57.856 68.37,57.856 38.18,0 72.48,-18.118 72.48,-77.66 v 6.039 c -127.48,-12.942 -234.27,-21.661 -234.27,-108.368 0,-63.418 53.07,-104.187 128.79,-104.187 45.8,0 97.21,17.605 114.41,39.625 v -31.699 h 67.61 l 0.47,183.707" /><path
         id="path26"
         style="fill:#8c79c4;fill-opacity:1;fill-rule:nonzero;stroke:none"
         d="M 360.164,223.324 254.992,118.156 v 61.602 c -38.054,0 -76.121,14.535 -105.168,43.566 -58.0779,58.074 -58.0779,152.25 0,210.336 58.082,58.09 152.258,58.09 210.34,0 58.086,-58.086 58.086,-152.25 0,-210.336 z M 254.992,583.488 C 114.395,583.488 0,469.094 0,328.496 0,187.883 114.395,73.5 254.992,73.5 c 140.606,0 254.996,114.383 254.996,254.996 0,140.598 -114.39,254.992 -254.996,254.992" /></g></g></svg>