<svg viewBox="0 0 126 32" version="1.1" xmlns="http://www.w3.org/2000/svg" class="header__logo__image header__logo__image--full">
  <path d="M3.75334642,7.67232 C-1.21732025,12.64384 -1.21732025,20.7035733 3.75334642,25.67424 C8.72486642,30.6449067 16.7845997,30.6449067 21.7552664,25.67424 C26.7267864,20.7035733 26.7267864,12.64384 21.7552664,7.67232 C16.7845997,2.70165333 8.72486642,2.70165333 3.75334642,7.67232 Z M6.63249308,10.5506133 C10.0133997,7.16970667 15.4960664,7.16970667 18.8769731,10.5506133 C22.2578797,13.9323733 22.2578797,19.4141867 18.8769731,22.7950933 L12.7543064,28.91776 L12.7543064,25.3312 C10.5390531,25.3312 8.32294642,24.4855467 6.63249308,22.7950933 C3.25158642,19.4141867 3.25158642,13.9323733 6.63249308,10.5506133 L6.63249308,10.5506133 Z" />
  <path d="M40.3306264,26.26816 C43.7192131,26.26816 45.8952131,24.3780267 47.3936664,22.1661867 L47.3936664,25.87648 L50.1405464,25.87648 L50.1405464,0.372053333 L47.3936664,0.372053333 L47.3936664,10.9653333 C45.9660397,8.89770667 43.7550531,7.04256 40.3306264,7.04256 C35.9069464,7.04256 31.5199597,10.6094933 31.5199597,16.63744 C31.5199597,22.7729067 35.9069464,26.26816 40.3306264,26.26816 Z M40.8298264,23.8071467 C37.3345731,23.8071467 34.3376664,21.0244267 34.3376664,16.67328 C34.3376664,12.1429333 37.2628931,9.50357333 40.8298264,9.50357333 C44.2542531,9.50357333 47.5003331,12.35712 47.5003331,16.6024533 C47.5003331,20.91776 44.2542531,23.8071467 40.8298264,23.8071467 Z M54.2408131,3.40394667 L57.3793731,3.40394667 L57.3793731,0.372053333 L54.2408131,0.372053333 L54.2408131,3.40394667 Z M54.4183064,25.87648 L57.1651864,25.87648 L57.1651864,7.43509333 L54.4183064,7.43509333 L54.4183064,25.87648 Z M66.9375597,26.26816 C70.1836397,26.26816 72.2879597,24.77056 73.5722264,23.1296 L73.5722264,25.87648 L76.2832664,25.87648 L76.2832664,14.6039467 C76.2832664,12.2496 75.6407064,10.4661333 74.3564397,9.18272 C73.0371864,7.86261333 71.0036931,7.14922667 68.3993197,7.14922667 C65.6891331,7.14922667 63.7273197,7.79178667 61.6938264,8.71850667 L62.5138797,10.9653333 C64.2265197,10.18112 65.9383064,9.64608 68.1143064,9.64608 C71.5745731,9.64608 73.5722264,11.35872 73.5722264,14.6397867 L73.5722264,15.2106667 C71.9312664,14.7473067 70.2903064,14.4256 67.9359597,14.4256 C63.2631064,14.4256 60.0528664,16.4949333 60.0528664,20.4544 C60.0528664,24.3063467 63.4772931,26.26816 66.9375597,26.26816 Z M67.4725997,24.0571733 C64.9748931,24.0571733 62.8347331,22.7012267 62.8347331,20.38272 C62.8347331,18.1000533 64.7973997,16.6024533 68.2218264,16.6024533 C70.4686531,16.6024533 72.2521197,16.9941333 73.6080664,17.3866667 L73.6080664,19.0984533 C73.6080664,22.02368 70.8611864,24.0571733 67.4725997,24.0571733 Z M80.2410264,25.87648 L82.9870531,25.87648 L82.9870531,0.372053333 L80.2410264,0.372053333 L80.2410264,25.87648 Z M95.6837997,26.304 C101.24924,26.304 105.351213,21.8811733 105.351213,16.67328 C105.351213,11.3937067 101.284226,7.04256 95.7554797,7.04256 C90.1908931,7.04256 86.1247597,11.4653867 86.1247597,16.67328 C86.1247597,21.952 90.1550531,26.304 95.6837997,26.304 Z M95.7554797,23.8429867 C91.8668397,23.8429867 88.9424664,20.6327467 88.9424664,16.67328 C88.9424664,12.7138133 91.6893464,9.46773333 95.6837997,9.46773333 C99.5724397,9.46773333 102.532653,12.7138133 102.532653,16.67328 C102.532653,20.6327467 99.7507864,23.8429867 95.7554797,23.8429867 Z M116.37116,31.6544 C119.296386,31.6544 121.7574,30.8343467 123.39836,29.1933867 C124.896813,27.6949333 125.752706,25.5189333 125.752706,22.6653867 L125.752706,7.43424 L123.005826,7.43424 L123.005826,10.752 C121.508226,8.75434667 119.260546,7.04256 115.80028,7.04256 C111.413293,7.04256 107.132973,10.3594667 107.132973,15.7457067 C107.132973,21.1319467 111.377453,24.4488533 115.80028,24.4488533 C119.18972,24.4488533 121.436546,22.7012267 123.041666,20.5610667 L123.041666,22.7370667 C123.041666,27.0532267 120.402306,29.3000533 116.33532,29.3000533 C113.69596,29.3000533 111.341613,28.48 109.237293,26.94656 L107.988866,29.0858667 C110.44988,30.7985067 113.303426,31.6544 116.37116,31.6544 Z M116.33532,22.02368 C112.910893,22.02368 109.95068,19.4551467 109.95068,15.7457067 C109.95068,11.89376 112.840066,9.46773333 116.33532,9.46773333 C119.831426,9.46773333 123.112493,11.9287467 123.112493,15.7098667 C123.112493,19.4909867 119.831426,22.02368 116.33532,22.02368 L116.33532,22.02368 Z" />
</svg>
