<svg width="110" height="81" viewBox="0 0 110 81" fill="none" xmlns="http://www.w3.org/2000/svg">
<path d="M110 0.0480104H0V80.048H110V0.0480104Z" fill="#BFDF14"/>
<path d="M32.7711 30.2374L23.8257 28.06C22.3031 27.7067 19.9271 27.0974 19.9271 24.2187C19.9271 20.932 23.4164 19.8187 26.3497 19.8187C33.0231 19.8187 33.6324 23.7134 33.8311 25.38H38.0884V32.224C36.5271 31.312 34.6831 30.7187 32.7711 30.2374ZM27.9137 52.1294C29.8337 52.1294 34.5577 51.7934 38.0884 49.2147V51.1707H45.2137L45.2217 42.5707L48.1951 39.4894L54.6724 51.1707H63.2217L53.4097 34.4827L62.9671 23.964H54.2151L45.2217 34.284V14.4587H38.0884V17.596C35.9177 15.264 32.3977 13.5 26.9097 13.5C15.0257 13.5 12.7951 20.7294 12.7951 24.7747C12.7951 30.3347 15.7844 33.4254 20.9911 34.688L28.3724 36.5054C32.2657 37.4667 35.0497 38.1747 35.0497 41.0547C35.0497 44.9 31.0004 45.8094 27.3591 45.8094C20.6857 45.8094 19.5737 41.9174 19.5737 39.844H12.2404C12.2404 44.3947 14.5657 52.1294 27.9137 52.1294" fill="#5D6163"/>
<path d="M18.3856 68.1696C17.6563 68.1696 17.0923 68.1069 16.6923 67.9816V65.7976C16.9923 65.9336 17.283 66.0016 17.5643 66.0016C18.0976 66.0016 18.4856 65.7683 18.727 65.3016L18.7776 65.1976L13.6523 55.7189H16.7083L20.007 62.5696L22.5003 55.7189H25.4363L21.0123 65.9296C20.8056 66.4149 20.5376 66.8243 20.2056 67.1603C19.8723 67.4963 19.539 67.7496 19.2043 67.9176C18.8696 68.0856 18.5963 68.1696 18.3856 68.1696Z" fill="#5D6163"/>
<path d="M33.146 67.9821H30.758V64.2395C30.518 64.3781 30.1407 64.5528 29.6233 64.7621C29.1073 64.9715 28.586 65.0755 28.062 65.0755C27.106 65.0755 26.3513 64.8235 25.7993 64.3181C25.246 63.8115 24.97 63.0075 24.97 61.9008V58.8968H27.3593V61.8328C27.3593 62.6515 27.878 63.0621 28.914 63.0621C29.234 63.0621 29.5767 62.9915 29.9447 62.8515C30.3113 62.7115 30.582 62.5941 30.758 62.4995V58.8968H33.146V67.9821Z" fill="#5D6163"/>
<path d="M40.8687 63.5576C40.6087 63.7603 40.0647 63.9256 39.242 64.0536C38.9007 64.1123 38.6153 64.1856 38.3847 64.2736C38.154 64.363 37.9687 64.4976 37.83 64.679C37.69 64.859 37.6207 65.1056 37.6207 65.419C37.6207 65.795 37.7353 66.0696 37.9673 66.247C38.198 66.4216 38.4527 66.511 38.734 66.511C39.0927 66.511 39.4367 66.4363 39.7647 66.2896C40.0927 66.1416 40.358 65.9323 40.5633 65.6603C40.7673 65.3883 40.8687 65.075 40.8687 64.7203V63.5576ZM43.2087 66.2043C43.2087 66.699 43.254 67.043 43.3433 67.2363C43.434 67.4296 43.5647 67.5576 43.738 67.623V67.9816H41.1567C41.046 67.6403 40.9713 67.279 40.9367 66.903C40.55 67.3016 40.142 67.6203 39.714 67.8603C39.286 68.099 38.714 68.2203 37.9967 68.2203C37.5153 68.2203 37.0633 68.1256 36.6433 67.9363C36.222 67.7483 35.882 67.455 35.6207 67.0563C35.362 66.659 35.2313 66.1643 35.2313 65.5736C35.2313 65.003 35.3433 64.5123 35.5687 64.1003C35.794 63.6896 36.1033 63.367 36.4953 63.1363C36.8873 62.9043 37.3487 62.7496 37.8793 62.671L40.0313 62.347C40.59 62.271 40.8687 62.0323 40.8687 61.631C40.8687 61.1896 40.7193 60.903 40.4193 60.7696C40.118 60.639 39.7447 60.5736 39.2967 60.5736C38.7687 60.5736 38.4033 60.6923 38.2033 60.931C38.002 61.171 37.8753 61.4723 37.826 61.8363H35.5233C35.61 60.963 35.8473 60.2936 36.238 59.8283C36.6287 59.363 37.102 59.0523 37.6567 58.895C38.2113 58.7376 38.854 58.659 39.5847 58.659C40.1233 58.659 40.6647 58.7296 41.2073 58.871C41.7487 59.0136 42.218 59.2803 42.6153 59.6723C43.01 60.0643 43.2087 60.6016 43.2087 61.2856V66.2043Z" fill="#5D6163"/>
<path d="M53.1057 64.6671C53.0777 64.9711 52.9991 65.3124 52.8657 65.6951C52.7351 66.0778 52.5151 66.4631 52.2071 66.8524C51.9004 67.2418 51.4764 67.5671 50.9364 67.8284C50.3951 68.0884 49.7364 68.2204 48.9577 68.2204C48.1484 68.2204 47.4671 68.0831 46.9137 67.8071C46.3604 67.5311 45.9284 67.1724 45.6151 66.7271C45.3017 66.2831 45.0804 65.7991 44.9511 65.2764C44.8191 64.7524 44.7537 64.2271 44.7537 63.6951C44.7537 62.6898 44.9071 61.8084 45.2111 61.0538C45.5164 60.3004 45.9924 59.7111 46.6431 59.2911C47.2937 58.8684 48.1164 58.6591 49.1124 58.6591C49.6817 58.6591 50.2577 58.7604 50.8404 58.9658C51.4217 59.1698 51.9311 59.5311 52.3657 60.0511C52.8004 60.5711 53.0537 61.2671 53.1231 62.1404H50.7004C50.5244 61.1618 49.9951 60.6724 49.1124 60.6724C48.6471 60.6724 48.2724 60.8058 47.9871 61.0698C47.7031 61.3324 47.5031 61.6631 47.3871 62.0591C47.2724 62.4551 47.2137 62.8698 47.2137 63.3044C47.2137 63.7964 47.2471 64.2484 47.3137 64.6604C47.3817 65.0738 47.5511 65.4431 47.8257 65.7684C48.0991 66.0924 48.5097 66.2551 49.0577 66.2551C49.4217 66.2551 49.7271 66.1618 49.9724 65.9724C50.2191 65.7831 50.3991 65.5631 50.5124 65.3084C50.6271 65.0564 50.6844 64.8431 50.6844 64.6671H53.1057Z" fill="#5D6163"/>
<path d="M56.7307 67.9821V60.8101H54.016V58.8968H61.84V60.8101H59.12V67.9821H56.7307Z" fill="#5D6163"/>
<path d="M71.3068 67.9821H68.9188V64.3968H65.5201V67.9821H63.1308V58.8968H65.5201V62.4821H68.9188V58.8968H71.3068V67.9821Z" fill="#5D6163"/>
<path d="M81.6266 67.9821H79.2386V62.5155L76.0106 67.9821H73.4506V58.8968H75.8399V64.3621L79.0666 58.8968H81.6266V67.9821Z" fill="#5D6163"/>
<path d="M86.1597 67.9821H83.7704V58.8968H86.1597V62.3448L89.1664 58.8968H92.1504L88.8904 62.4155L92.2891 67.9821H89.3864L87.1477 64.0875L86.1597 65.1141V67.9821Z" fill="#5D6163"/>
</svg>
