<svg width="110" height="81" viewBox="0 0 110 81" fill="none" xmlns="http://www.w3.org/2000/svg">
<path d="M110 0.0493303H0V80.0493H110V0.0493303Z" fill="#BFDF14"/>
<path d="M32.7712 30.2373L23.8258 28.06C22.3032 27.7067 19.9272 27.0973 19.9272 24.2187C19.9272 20.932 23.4165 19.8187 26.3498 19.8187C33.0232 19.8187 33.6325 23.7134 33.8312 25.38H38.0885V32.224C36.5272 31.312 34.6832 30.7187 32.7712 30.2373ZM27.9138 52.1293C29.8338 52.1293 34.5578 51.7933 38.0885 49.2147V51.1707H45.2138L45.2218 42.5707L48.1952 39.4893L54.6725 51.1707H63.2218L53.4098 34.4827L62.9658 23.964H54.2152L45.2218 34.284V14.4587H38.0885V17.596C35.9178 15.264 32.3978 13.5 26.9098 13.5C15.0258 13.5 12.7952 20.7293 12.7952 24.7747C12.7952 30.3347 15.7845 33.4253 20.9912 34.688L28.3725 36.5053C32.2658 37.4667 35.0498 38.1747 35.0498 41.0547C35.0498 44.9 31.0005 45.8093 27.3592 45.8093C20.6858 45.8093 19.5738 41.9173 19.5738 39.844H12.2405C12.2405 44.3947 14.5659 52.1293 27.9138 52.1293" fill="#5D6163"/>
<path d="M20.0864 57.9483C19.7637 57.6776 19.3104 57.5416 18.7264 57.5416H16.4237V61.1429H18.7264C19.3104 61.1429 19.7637 60.9963 20.0864 60.7029C20.4104 60.4096 20.5717 59.9456 20.5717 59.3096C20.5717 58.6723 20.4104 58.2189 20.0864 57.9483ZM22.0384 62.3549C21.3224 62.9523 20.2984 63.2509 18.9704 63.2509H16.4237V67.6483H13.885V55.4176H19.1357C20.3464 55.4176 21.3117 55.7323 22.0317 56.3643C22.7517 56.9936 23.1117 57.9709 23.1117 59.2923C23.1117 60.7376 22.753 61.7563 22.0384 62.3549" fill="#5D6163"/>
<path d="M29.9979 63.2504C29.8472 63.3437 29.6939 63.4211 29.5392 63.4797C29.3859 63.5371 29.1739 63.5917 28.9059 63.6411L28.3659 63.7397C27.8619 63.8291 27.4992 63.9371 27.2792 64.0637C26.9072 64.2784 26.7205 64.6144 26.7205 65.0677C26.7205 65.4717 26.8352 65.7637 27.0619 65.9437C27.2899 66.1224 27.5672 66.2144 27.8925 66.2144C28.4099 66.2144 28.8845 66.0637 29.3205 65.7664C29.7552 65.4664 29.9819 64.9224 29.9979 64.1304V63.2504ZM28.5525 62.1477C28.9925 62.0917 29.3072 62.0224 29.4965 61.9411C29.8365 61.7957 30.0072 61.5717 30.0072 61.2677C30.0072 60.8957 29.8765 60.6411 29.6165 60.4997C29.3552 60.3597 28.9712 60.2877 28.4685 60.2877C27.9019 60.2877 27.5005 60.4277 27.2645 60.7037C27.0965 60.9077 26.9845 61.1851 26.9285 61.5331H24.6459C24.6952 60.7424 24.9179 60.0917 25.3125 59.5837C25.9405 58.7864 27.0192 58.3891 28.5472 58.3891C29.5405 58.3891 30.4245 58.5837 31.1965 58.9771C31.9699 59.3704 32.3552 60.1117 32.3552 61.2011V65.3491C32.3552 65.6384 32.3605 65.9877 32.3712 66.3957C32.3885 66.7064 32.4352 66.9157 32.5139 67.0264C32.5899 67.1371 32.7059 67.2277 32.8605 67.2997V67.6491H30.2899C30.2165 67.4664 30.1672 67.2944 30.1392 67.1344C30.1125 66.9744 30.0899 66.7917 30.0739 66.5864C29.7459 66.9411 29.3659 67.2424 28.9379 67.4917C28.4259 67.7837 27.8485 67.9304 27.2019 67.9304C26.3779 67.9304 25.6979 67.6971 25.1619 67.2291C24.6245 66.7624 24.3565 66.0997 24.3565 65.2424C24.3565 64.1304 24.7885 63.3264 25.6512 62.8291C26.1259 62.5557 26.8219 62.3624 27.7419 62.2464L28.5525 62.1477Z" fill="#5D6163"/>
<path d="M39.4457 58.3922C39.4764 58.3949 39.5444 58.3989 39.6497 58.4042V60.8282C39.5004 60.8096 39.3671 60.8002 39.2511 60.7949C39.1351 60.7896 39.0404 60.7869 38.9697 60.7869C38.0177 60.7869 37.3777 61.0962 37.0524 61.7162C36.8697 62.0642 36.7791 62.6002 36.7791 63.3256V67.6482H34.3964V58.6042H36.6537V60.1802C37.0191 59.5789 37.3377 59.1656 37.6084 58.9442C38.0511 58.5736 38.6257 58.3882 39.3337 58.3882C39.3777 58.3882 39.4164 58.3896 39.4457 58.3922Z" fill="#5D6163"/>
<path d="M40.1058 60.3714V58.6874H41.3672V56.1648H43.7072V58.6874H45.1765V60.3714H43.7072V65.1514C43.7072 65.5208 43.7538 65.7528 43.8485 65.8434C43.9418 65.9354 44.2298 65.9808 44.7112 65.9808C44.7832 65.9808 44.8578 65.9794 44.9392 65.9768C45.0205 65.9741 45.0978 65.9688 45.1765 65.9634V67.7328L44.0552 67.7741C42.9378 67.8128 42.1752 67.6181 41.7645 67.1928C41.4992 66.9221 41.3672 66.5034 41.3672 65.9394V60.3714H40.1058Z" fill="#5D6163"/>
<path d="M46.728 58.604H49.1266V67.648H46.728V58.604ZM49.1266 57.5253H46.728V55.3426H49.1266V57.5253Z" fill="#5D6163"/>
<path d="M56.8272 61.8493C56.7832 61.5107 56.6685 61.2067 56.4859 60.9347C56.2192 60.5707 55.8059 60.388 55.2459 60.388C54.4485 60.388 53.9019 60.784 53.6072 61.5747C53.4525 61.9933 53.3752 62.5507 53.3752 63.2467C53.3752 63.9093 53.4525 64.44 53.6072 64.844C53.8912 65.5973 54.4219 65.972 55.2045 65.972C55.7592 65.972 56.1525 65.8227 56.3859 65.524C56.6192 65.2253 56.7605 64.8387 56.8099 64.3627H59.2259C59.1699 65.0813 58.9099 65.764 58.4445 66.404C57.7019 67.4373 56.6032 67.956 55.1459 67.956C53.6899 67.956 52.6192 67.524 51.9325 66.6613C51.2445 65.7987 50.9019 64.68 50.9019 63.3053C50.9019 61.7533 51.2819 60.5453 52.0392 59.6827C52.7992 58.82 53.8459 58.388 55.1805 58.388C56.3152 58.388 57.2445 58.644 57.9659 59.152C58.6885 59.66 59.1165 60.56 59.2499 61.8493H56.8272Z" fill="#5D6163"/>
<path d="M60.9013 58.604H63.3V67.648H60.9013V58.604ZM63.3 57.5253H60.9013V55.3426H63.3V57.5253Z" fill="#5D6163"/>
<path d="M71.3806 61.2764C71.0593 60.7404 70.538 60.4711 69.818 60.4711C68.9513 60.4711 68.3553 60.8777 68.0313 61.6911C67.8633 62.1231 67.7806 62.6697 67.7806 63.3337C67.7806 64.3857 68.0633 65.1231 68.6273 65.5497C68.962 65.7991 69.358 65.9217 69.8166 65.9217C70.482 65.9217 70.99 65.6684 71.3393 65.1591C71.6873 64.6511 71.8633 63.9724 71.8633 63.1271C71.8633 62.4297 71.702 61.8124 71.3806 61.2764ZM73.1953 59.5751C73.934 60.3551 74.302 61.5004 74.302 63.0111C74.302 64.6031 73.942 65.8177 73.2206 66.6537C72.5006 67.4884 71.5726 67.9071 70.4353 67.9071C69.7113 67.9071 69.1113 67.7271 68.6313 67.3671C68.37 67.1671 68.114 66.8777 67.8633 66.4951V71.2084H65.5233V58.6044H67.7886V59.9404C68.0446 59.5471 68.318 59.2377 68.6073 59.0111C69.1353 58.6071 69.7646 58.4044 70.494 58.4044C71.558 58.4044 72.4593 58.7951 73.1953 59.5751" fill="#5D6163"/>
<path d="M80.9979 63.2504C80.8472 63.3437 80.6939 63.4211 80.5392 63.4797C80.3859 63.5371 80.1739 63.5917 79.9059 63.6411L79.3659 63.7397C78.8619 63.8291 78.4992 63.9371 78.2792 64.0637C77.9072 64.2784 77.7205 64.6144 77.7205 65.0677C77.7205 65.4717 77.8352 65.7637 78.0619 65.9437C78.2899 66.1224 78.5672 66.2144 78.8925 66.2144C79.4099 66.2144 79.8845 66.0637 80.3205 65.7664C80.7552 65.4664 80.9819 64.9224 80.9979 64.1304V63.2504ZM79.5525 62.1477C79.9925 62.0917 80.3072 62.0224 80.4965 61.9411C80.8365 61.7957 81.0072 61.5717 81.0072 61.2677C81.0072 60.8957 80.8765 60.6411 80.6165 60.4997C80.3552 60.3597 79.9712 60.2877 79.4685 60.2877C78.9019 60.2877 78.5005 60.4277 78.2645 60.7037C78.0965 60.9077 77.9845 61.1851 77.9285 61.5331H75.6459C75.6952 60.7424 75.9179 60.0917 76.3125 59.5837C76.9405 58.7864 78.0192 58.3891 79.5472 58.3891C80.5405 58.3891 81.4245 58.5837 82.1965 58.9771C82.9699 59.3704 83.3552 60.1117 83.3552 61.2011V65.3491C83.3552 65.6384 83.3605 65.9877 83.3712 66.3957C83.3885 66.7064 83.4352 66.9157 83.5139 67.0264C83.5899 67.1371 83.7059 67.2277 83.8605 67.2997V67.6491H81.2899C81.2165 67.4664 81.1672 67.2944 81.1392 67.1344C81.1125 66.9744 81.0899 66.7917 81.0739 66.5864C80.7459 66.9411 80.3659 67.2424 79.9379 67.4917C79.4259 67.7837 78.8485 67.9304 78.2019 67.9304C77.3779 67.9304 76.6979 67.6971 76.1619 67.2291C75.6245 66.7624 75.3565 66.0997 75.3565 65.2424C75.3565 64.1304 75.7885 63.3264 76.6512 62.8291C77.1259 62.5557 77.8219 62.3624 78.7419 62.2464L79.5525 62.1477Z" fill="#5D6163"/>
<path d="M92.7153 59.1228C93.3073 59.6121 93.6033 60.4255 93.6033 61.5575V67.6495H91.1807V62.1481C91.1807 61.6721 91.118 61.3068 90.9913 61.0521C90.7607 60.5868 90.3207 60.3548 89.674 60.3548C88.8767 60.3548 88.33 60.6961 88.034 61.3748C87.8807 61.7348 87.8033 62.1948 87.8033 62.7535V67.6495H85.438V58.6201H87.7287V59.9401C88.0313 59.4748 88.318 59.1415 88.5873 58.9348C89.0727 58.5708 89.6873 58.3881 90.43 58.3881C91.3607 58.3881 92.1233 58.6335 92.7153 59.1228Z" fill="#5D6163"/>
<path d="M94.8728 60.3714V58.6874H96.1341V56.1648H98.4741V58.6874H99.9434V60.3714H98.4741V65.1514C98.4741 65.5208 98.5208 65.7528 98.6154 65.8434C98.7088 65.9354 98.9968 65.9808 99.4781 65.9808C99.5501 65.9808 99.6248 65.9794 99.7061 65.9768C99.7874 65.9741 99.8648 65.9688 99.9434 65.9634V67.7328L98.8221 67.7741C97.7048 67.8128 96.9421 67.6181 96.5314 67.1928C96.2661 66.9221 96.1341 66.5034 96.1341 65.9394V60.3714H94.8728Z" fill="#5D6163"/>
</svg>
