<svg width="181" height="35" viewBox="0 0 181 35" fill="none" xmlns="http://www.w3.org/2000/svg">
<g clip-path="url(#clip0)">
<path d="M119.411 30.2296C121.798 30.2882 124.098 29.381 125.823 27.6838L128.986 31.1661C126.887 33.3608 123.983 34.9995 119.469 34.9995C111.705 34.9995 106.702 29.7614 106.702 22.6798C106.702 15.6567 111.964 10.3601 118.75 10.3601C126.456 10.3601 130.797 16.3297 130.424 24.5819H112.252C112.884 28.0349 115.271 30.2296 119.411 30.2296ZM124.932 20.6606C124.443 17.471 122.574 15.1007 118.807 15.1007C115.299 15.1007 112.884 17.1198 112.252 20.6606H124.932ZM0 29.9663L14.0027 15.4811H0.316283V10.9453H20.4721V15.5982L6.49817 30.0541H20.6734V34.5898H0V29.9663ZM36.3725 30.2296C38.759 30.2882 41.0592 29.381 42.7844 27.6838L45.9473 31.1661C43.8483 33.3608 40.9442 34.9995 36.43 34.9995C28.6955 34.9995 23.6637 29.7614 23.6637 22.6798C23.6637 15.6567 28.9255 10.3601 35.7112 10.3601C43.417 10.3601 47.7587 16.3297 47.3849 24.5819H29.213C29.8743 28.0349 32.2321 30.2296 36.3725 30.2296ZM41.9218 20.6606C41.433 17.471 39.5641 15.1007 35.7975 15.1007C32.2896 15.1007 29.8743 17.1198 29.2418 20.6606H41.9218ZM77.633 22.7091C77.633 15.1299 83.1824 10.4186 89.3067 10.4186C92.3833 10.4186 95.3161 11.794 97.0413 13.9594V0.000976562H101.987V34.5313H97.0413V31.2539C95.2586 33.5656 92.3258 34.9995 89.2492 34.9995C83.3261 34.9995 77.633 30.2296 77.633 22.7091ZM97.3288 22.6505C97.3288 18.4367 94.1947 14.9836 89.9681 14.9836C85.8276 14.9836 82.6073 18.3489 82.6073 22.6505C82.6073 26.9522 85.8276 30.3467 89.9681 30.3467C94.1947 30.376 97.3288 26.9229 97.3288 22.6505ZM133.644 29.4981L138.129 27.1278C139.337 29.3225 141.637 30.6393 144.11 30.5808C146.899 30.5808 148.365 29.1177 148.365 27.4497C148.365 25.5476 145.663 25.1379 142.73 24.5234C138.762 23.6747 134.65 22.3579 134.65 17.471C134.65 13.7253 138.158 10.2723 143.65 10.3308C147.992 10.3308 151.212 12.0866 153.023 14.9251L148.854 17.2661C147.79 15.5982 145.95 14.5739 143.621 14.5739C140.947 14.5739 139.596 15.8908 139.596 17.4125C139.596 19.1097 141.752 19.5779 145.116 20.3388C148.94 21.1874 153.282 22.475 153.282 27.3911C153.282 30.6686 150.493 35.058 143.851 34.9995C139.021 34.9995 135.599 33.0096 133.644 29.4981ZM166.71 24.0259L162.799 28.3861V34.5313H157.854V0.000976562H162.799V22.592L173.294 10.8868H179.304L170.218 21.0118L179.562 34.5313H173.956L166.71 24.0259ZM62.6815 10.3893C56.7871 10.3893 51.8704 14.2813 51.8704 20.6899V34.5313H56.9309V21.363C56.9309 17.471 59.1161 15.1592 62.854 15.1592C66.5919 15.1592 68.4608 17.471 68.4608 21.363V34.5313H73.4926V20.7192C73.4926 14.2813 68.5759 10.3893 62.6815 10.3893Z" fill="black"/>
</g>
<defs>
<clipPath id="clip0">
<rect width="181" height="35" fill="white"/>
</clipPath>
</defs>
</svg>
