<svg width="50" height="50" viewBox="0 0 50 50" fill="none" xmlns="http://www.w3.org/2000/svg">
<path opacity="0.2" d="M45.9868 0H36.9409C34.7369 0 32.9277 1.8092 32.9277 4.01312V4.34207C32.9277 2.13814 34.7369 0.328945 36.9409 0.328945H45.9868C48.1908 0.328945 50 2.13814 50 4.34207V4.01312C50 1.8092 48.1908 0 45.9868 0Z" fill="white"/>
<path d="M45.9865 0H36.9405C34.7365 0 32.9274 1.8092 32.9274 4.01312V15.7893H19.7696C17.5985 15.7893 15.8222 17.5656 15.8222 19.7367V32.8945H3.94734C1.7763 32.8945 0 34.6708 0 36.8418V46.0522C0 48.2233 1.7763 49.9996 3.94734 49.9996H45.9865C48.1904 49.9996 49.9996 48.1904 49.9996 45.9865V4.01312C49.9996 1.8092 48.1904 0 45.9865 0Z" fill="#F6C651"/>
<path d="M45.9868 0H36.9409C34.7369 0 32.9277 1.8092 32.9277 4.01312V49.9996H45.9868C48.1908 49.9996 50 48.1904 50 45.9865V4.01312C50 1.8092 48.1908 0 45.9868 0Z" fill="#E88C41"/>
<path d="M32.8945 15.79V50.0003H45.9536C48.1576 50.0003 49.9668 48.1911 49.9668 45.9872V32.8952L32.8945 15.79Z" fill="url(#paint0_linear)"/>
<defs>
<linearGradient id="paint0_linear" x1="24.4242" y1="24.4248" x2="48.8023" y2="48.8029" gradientUnits="userSpaceOnUse">
<stop stop-color="#BF360C" stop-opacity="0.2"/>
<stop offset="1" stop-color="#BF360C" stop-opacity="0.02"/>
</linearGradient>
</defs>
</svg>
