<svg xmlns="http://www.w3.org/2000/svg" width="60" height="60" viewBox="0 0 60 60" fill="none">
<path xmlns="http://www.w3.org/2000/svg" d="M59 40 V2 H20 V42 H60 Z" stroke="#1E1E1E" stroke-width="2"/>
<path d="M50.9297 17.7617C50.9297 15.5801 49.1966 13.8418 47.0958 13.8418C44.995 13.8418 43.2619 15.5801 43.2619 17.7617" stroke="#1E1E1E" stroke-width="2"/>
<path d="M35.8789 24.9354C35.8789 27.6133 38.0072 29.7539 40.5957 29.7539C43.1842 29.7539 45.3125 27.6133 45.3125 24.9354H" stroke="#1E1E1E" stroke-width="2"/>
<path d="M36.6055 17.7617C36.6055 15.5801 34.8724 13.8418 32.7716 13.8418C30.6707 13.8418 28.9377 15.5801 28.9377 17.7617" stroke="#1E1E1E" stroke-width="2"/>
<path d="M32.4375 60.5938L21.1434 60.5938L12.2022 60.5938L0.437506 60.5938L0.437504 37.4004L16.4375 27.5937L32.4375 37.4004L32.4375 60.5938Z" fill="#eae8e9"/>
</svg>
