<svg width="60" height="60" viewBox="0 0 60 60" fill="none" xmlns="http://www.w3.org/2000/svg">
<rect x="1" y="1" width="49" height="37.3277" stroke="#1E1E1E" stroke-width="2"/>
<path d="M32.667 19.6638C32.667 23.6681 29.4501 26.8999 25.4995 26.8999C21.5489 26.8999 18.332 23.6681 18.332 19.6638C18.332 15.6595 21.5489 12.4277 25.4995 12.4277C29.4501 12.4277 32.667 15.6595 32.667 19.6638Z" stroke="#1E1E1E" stroke-width="2"/>
<path d="M27.9219 19.6635C27.9219 21.0249 26.8297 22.1142 25.5 22.1142C24.1703 22.1142 23.0781 21.0249 23.0781 19.6635C23.0781 18.3022 24.1703 17.2129 25.5 17.2129C26.8297 17.2129 27.9219 18.3022 27.9219 19.6635Z" stroke="#1E1E1E" stroke-width="2"/>
<path d="M42 27.7311L24 60H60L42 27.7311Z" fill="#825bf9"/>
</svg>
