<svg width="100" height="101" viewBox="0 0 100 101" fill="none" xmlns="http://www.w3.org/2000/svg">
<path d="M4.7619 0.476562H0V5.23847H4.7619V0.476562Z" fill="#1E1E1E"/>
<path d="M9.52363 0.476562H4.76172V5.23847H9.52363V0.476562Z" fill="#1E1E1E"/>
<path d="M14.2853 0.476562H9.52344V5.23847H14.2853V0.476562Z" fill="#1E1E1E"/>
<path d="M19.0471 0.476562H14.2852V5.23847H19.0471V0.476562Z" fill="#1E1E1E"/>
<path d="M23.8088 0.476562H19.0469V5.23847H23.8088V0.476562Z" fill="#1E1E1E"/>
<path d="M28.5705 0.476562H23.8086V5.23847H28.5705V0.476562Z" fill="#1E1E1E"/>
<path d="M33.3322 0.476562H28.5703V5.23847H33.3322V0.476562Z" fill="#1E1E1E"/>
<path d="M42.8596 0.476562H38.0977V5.23847H42.8596V0.476562Z" fill="#1E1E1E"/>
<path d="M47.6213 0.476562H42.8594V5.23847H47.6213V0.476562Z" fill="#1E1E1E"/>
<path d="M57.1447 0.476562H52.3828V5.23847H57.1447V0.476562Z" fill="#1E1E1E"/>
<path d="M71.4299 0.476562H66.668V5.23847H71.4299V0.476562Z" fill="#1E1E1E"/>
<path d="M76.1916 0.476562H71.4297V5.23847H76.1916V0.476562Z" fill="#1E1E1E"/>
<path d="M80.9533 0.476562H76.1914V5.23847H80.9533V0.476562Z" fill="#1E1E1E"/>
<path d="M85.715 0.476562H80.9531V5.23847H85.715V0.476562Z" fill="#1E1E1E"/>
<path d="M90.4767 0.476562H85.7148V5.23847H90.4767V0.476562Z" fill="#1E1E1E"/>
<path d="M95.2385 0.476562H90.4766V5.23847H95.2385V0.476562Z" fill="#1E1E1E"/>
<path d="M100 0.476562H95.2383V5.23847H100V0.476562Z" fill="#1E1E1E"/>
<path d="M4.7619 5.23828H0V10.0002H4.7619V5.23828Z" fill="#1E1E1E"/>
<path d="M33.3322 5.23828H28.5703V10.0002H33.3322V5.23828Z" fill="#1E1E1E"/>
<path d="M52.3791 5.23828H47.6172V10.0002H52.3791V5.23828Z" fill="#1E1E1E"/>
<path d="M71.4299 5.23828H66.668V10.0002H71.4299V5.23828Z" fill="#1E1E1E"/>
<path d="M100 5.23828H95.2383V10.0002H100V5.23828Z" fill="#1E1E1E"/>
<path d="M4.7619 10.0005H0V14.7624H4.7619V10.0005Z" fill="#1E1E1E"/>
<path d="M14.2853 10.0005H9.52344V14.7624H14.2853V10.0005Z" fill="#1E1E1E"/>
<path d="M19.0471 10.0005H14.2852V14.7624H19.0471V10.0005Z" fill="#1E1E1E"/>
<path d="M23.8088 10H19.0469V14.7619H23.8088V10Z" fill="#1E1E1E"/>
<path d="M33.3322 10H28.5703V14.7619H33.3322V10Z" fill="#1E1E1E"/>
<path d="M42.8596 10H38.0977V14.7619H42.8596V10Z" fill="#1E1E1E"/>
<path d="M47.6213 10H42.8594V14.7619H47.6213V10Z" fill="#1E1E1E"/>
<path d="M52.3791 10H47.6172V14.7619H52.3791V10Z" fill="#1E1E1E"/>
<path d="M57.1447 10.0005H52.3828V14.7624H57.1447V10.0005Z" fill="#1E1E1E"/>
<path d="M61.9025 10H57.1406V14.7619H61.9025V10Z" fill="#1E1E1E"/>
<path d="M71.4299 10.0005H66.668V14.7624H71.4299V10.0005Z" fill="#1E1E1E"/>
<path d="M80.9533 10.0005H76.1914V14.7624H80.9533V10.0005Z" fill="#1E1E1E"/>
<path d="M85.715 10H80.9531V14.7619H85.715V10Z" fill="#1E1E1E"/>
<path d="M90.4767 10.0005H85.7148V14.7624H90.4767V10.0005Z" fill="#1E1E1E"/>
<path d="M100 10.0005H95.2383V14.7624H100V10.0005Z" fill="#1E1E1E"/>
<path d="M4.7619 14.7622H0V19.5241H4.7619V14.7622Z" fill="#1E1E1E"/>
<path d="M14.2853 14.7622H9.52344V19.5241H14.2853V14.7622Z" fill="#1E1E1E"/>
<path d="M19.0471 14.7622H14.2852V19.5241H19.0471V14.7622Z" fill="#1E1E1E"/>
<path d="M23.8088 14.7617H19.0469V19.5236H23.8088V14.7617Z" fill="#1E1E1E"/>
<path d="M33.3322 14.7617H28.5703V19.5236H33.3322V14.7617Z" fill="#1E1E1E"/>
<path d="M42.8596 14.7617H38.0977V19.5236H42.8596V14.7617Z" fill="#1E1E1E"/>
<path d="M52.3791 14.7617H47.6172V19.5236H52.3791V14.7617Z" fill="#1E1E1E"/>
<path d="M57.1447 14.7622H52.3828V19.5241H57.1447V14.7622Z" fill="#1E1E1E"/>
<path d="M71.4299 14.7622H66.668V19.5241H71.4299V14.7622Z" fill="#1E1E1E"/>
<path d="M80.9533 14.7622H76.1914V19.5241H80.9533V14.7622Z" fill="#1E1E1E"/>
<path d="M85.715 14.7617H80.9531V19.5236H85.715V14.7617Z" fill="#1E1E1E"/>
<path d="M90.4767 14.7622H85.7148V19.5241H90.4767V14.7622Z" fill="#1E1E1E"/>
<path d="M100 14.7622H95.2383V19.5241H100V14.7622Z" fill="#1E1E1E"/>
<path d="M4.7619 19.5244H0V24.2863H4.7619V19.5244Z" fill="#1E1E1E"/>
<path d="M14.2853 19.5244H9.52344V24.2863H14.2853V19.5244Z" fill="#1E1E1E"/>
<path d="M19.0471 19.5244H14.2852V24.2863H19.0471V19.5244Z" fill="#1E1E1E"/>
<path d="M23.8088 19.5254H19.0469V24.2873H23.8088V19.5254Z" fill="#1E1E1E"/>
<path d="M33.3322 19.5254H28.5703V24.2873H33.3322V19.5254Z" fill="#1E1E1E"/>
<path d="M42.8596 19.5254H38.0977V24.2873H42.8596V19.5254Z" fill="#1E1E1E"/>
<path d="M47.6213 19.5254H42.8594V24.2873H47.6213V19.5254Z" fill="#1E1E1E"/>
<path d="M57.1447 19.5244H52.3828V24.2863H57.1447V19.5244Z" fill="#1E1E1E"/>
<path d="M61.9025 19.5254H57.1406V24.2873H61.9025V19.5254Z" fill="#1E1E1E"/>
<path d="M71.4299 19.5244H66.668V24.2863H71.4299V19.5244Z" fill="#1E1E1E"/>
<path d="M80.9533 19.5244H76.1914V24.2863H80.9533V19.5244Z" fill="#1E1E1E"/>
<path d="M85.715 19.5254H80.9531V24.2873H85.715V19.5254Z" fill="#1E1E1E"/>
<path d="M90.4767 19.5244H85.7148V24.2863H90.4767V19.5244Z" fill="#1E1E1E"/>
<path d="M100 19.5244H95.2383V24.2863H100V19.5244Z" fill="#1E1E1E"/>
<path d="M4.7619 24.2861H0V29.048H4.7619V24.2861Z" fill="#1E1E1E"/>
<path d="M33.3322 24.2871H28.5703V29.049H33.3322V24.2871Z" fill="#1E1E1E"/>
<path d="M47.6213 24.2871H42.8594V29.049H47.6213V24.2871Z" fill="#1E1E1E"/>
<path d="M52.3791 24.2871H47.6172V29.049H52.3791V24.2871Z" fill="#1E1E1E"/>
<path d="M71.4299 24.2861H66.668V29.048H71.4299V24.2861Z" fill="#1E1E1E"/>
<path d="M100 24.2861H95.2383V29.048H100V24.2861Z" fill="#1E1E1E"/>
<path d="M4.7619 29.0479H0V33.8098H4.7619V29.0479Z" fill="#1E1E1E"/>
<path d="M9.52363 29.0479H4.76172V33.8098H9.52363V29.0479Z" fill="#1E1E1E"/>
<path d="M14.2853 29.0479H9.52344V33.8098H14.2853V29.0479Z" fill="#1E1E1E"/>
<path d="M19.0471 29.0479H14.2852V33.8098H19.0471V29.0479Z" fill="#1E1E1E"/>
<path d="M23.8088 29.0488H19.0469V33.8107H23.8088V29.0488Z" fill="#1E1E1E"/>
<path d="M28.5705 29.0488H23.8086V33.8107H28.5705V29.0488Z" fill="#1E1E1E"/>
<path d="M33.3322 29.0488H28.5703V33.8107H33.3322V29.0488Z" fill="#1E1E1E"/>
<path d="M42.8596 29.0488H38.0977V33.8107H42.8596V29.0488Z" fill="#1E1E1E"/>
<path d="M52.3791 29.0488H47.6172V33.8107H52.3791V29.0488Z" fill="#1E1E1E"/>
<path d="M61.9025 29.0488H57.1406V33.8107H61.9025V29.0488Z" fill="#1E1E1E"/>
<path d="M71.4299 29.0479H66.668V33.8098H71.4299V29.0479Z" fill="#1E1E1E"/>
<path d="M76.1916 29.0488H71.4297V33.8107H76.1916V29.0488Z" fill="#1E1E1E"/>
<path d="M80.9533 29.0479H76.1914V33.8098H80.9533V29.0479Z" fill="#1E1E1E"/>
<path d="M85.715 29.0488H80.9531V33.8107H85.715V29.0488Z" fill="#1E1E1E"/>
<path d="M90.4767 29.0479H85.7148V33.8098H90.4767V29.0479Z" fill="#1E1E1E"/>
<path d="M95.2385 29.0479H90.4766V33.8098H95.2385V29.0479Z" fill="#1E1E1E"/>
<path d="M100 29.0479H95.2383V33.8098H100V29.0479Z" fill="#1E1E1E"/>
<path d="M4.7619 38.5718H0V43.3337H4.7619V38.5718Z" fill="#1E1E1E"/>
<path d="M9.52363 38.5718H4.76172V43.3337H9.52363V38.5718Z" fill="#1E1E1E"/>
<path d="M14.2853 38.5718H9.52344V43.3337H14.2853V38.5718Z" fill="#1E1E1E"/>
<path d="M19.0471 38.5718H14.2852V43.3337H19.0471V38.5718Z" fill="#1E1E1E"/>
<path d="M33.3322 38.5723H28.5703V43.3342H33.3322V38.5723Z" fill="#1E1E1E"/>
<path d="M42.8596 38.5723H38.0977V43.3342H42.8596V38.5723Z" fill="#1E1E1E"/>
<path d="M52.3791 38.5723H47.6172V43.3342H52.3791V38.5723Z" fill="#1E1E1E"/>
<path d="M57.1447 38.5718H52.3828V43.3337H57.1447V38.5718Z" fill="#1E1E1E"/>
<path d="M61.9025 38.5723H57.1406V43.3342H61.9025V38.5723Z" fill="#1E1E1E"/>
<path d="M66.6682 38.5723H61.9062V43.3342H66.6682V38.5723Z" fill="#1E1E1E"/>
<path d="M80.9533 38.5718H76.1914V43.3337H80.9533V38.5718Z" fill="#1E1E1E"/>
<path d="M85.715 38.5723H80.9531V43.3342H85.715V38.5723Z" fill="#1E1E1E"/>
<path d="M90.4767 38.5718H85.7148V43.3337H90.4767V38.5718Z" fill="#1E1E1E"/>
<path d="M100 38.5718H95.2383V43.3337H100V38.5718Z" fill="#1E1E1E"/>
<path d="M23.8088 43.334H19.0469V48.0959H23.8088V43.334Z" fill="#1E1E1E"/>
<path d="M28.5705 43.334H23.8086V48.0959H28.5705V43.334Z" fill="#1E1E1E"/>
<path d="M38.0939 43.3335H33.332V48.0954H38.0939V43.3335Z" fill="#1E1E1E"/>
<path d="M47.6213 43.334H42.8594V48.0959H47.6213V43.334Z" fill="#1E1E1E"/>
<path d="M52.3791 43.334H47.6172V48.0959H52.3791V43.334Z" fill="#1E1E1E"/>
<path d="M66.6682 43.334H61.9062V48.0959H66.6682V43.334Z" fill="#1E1E1E"/>
<path d="M71.4299 43.3335H66.668V48.0954H71.4299V43.3335Z" fill="#1E1E1E"/>
<path d="M76.1916 43.334H71.4297V48.0959H76.1916V43.334Z" fill="#1E1E1E"/>
<path d="M80.9533 43.3335H76.1914V48.0954H80.9533V43.3335Z" fill="#1E1E1E"/>
<path d="M85.715 43.334H80.9531V48.0959H85.715V43.334Z" fill="#1E1E1E"/>
<path d="M90.4767 43.3335H85.7148V48.0954H90.4767V43.3335Z" fill="#1E1E1E"/>
<path d="M95.2385 43.3335H90.4766V48.0954H95.2385V43.3335Z" fill="#1E1E1E"/>
<path d="M100 43.3335H95.2383V48.0954H100V43.3335Z" fill="#1E1E1E"/>
<path d="M4.7619 48.0957H0V52.8576H4.7619V48.0957Z" fill="#1E1E1E"/>
<path d="M14.2853 48.0957H9.52344V52.8576H14.2853V48.0957Z" fill="#1E1E1E"/>
<path d="M19.0471 48.0957H14.2852V52.8576H19.0471V48.0957Z" fill="#1E1E1E"/>
<path d="M28.5705 48.0957H23.8086V52.8576H28.5705V48.0957Z" fill="#1E1E1E"/>
<path d="M33.3322 48.0957H28.5703V52.8576H33.3322V48.0957Z" fill="#1E1E1E"/>
<path d="M38.0939 48.0957H33.332V52.8576H38.0939V48.0957Z" fill="#1E1E1E"/>
<path d="M47.6213 48.0957H42.8594V52.8576H47.6213V48.0957Z" fill="#1E1E1E"/>
<path d="M66.6682 48.0957H61.9062V52.8576H66.6682V48.0957Z" fill="#1E1E1E"/>
<path d="M85.715 48.0957H80.9531V52.8576H85.715V48.0957Z" fill="#1E1E1E"/>
<path d="M95.2385 48.0957H90.4766V52.8576H95.2385V48.0957Z" fill="#1E1E1E"/>
<path d="M100 48.0957H95.2383V52.8576H100V48.0957Z" fill="#1E1E1E"/>
<path d="M9.52363 52.8574H4.76172V57.6193H9.52363V52.8574Z" fill="#1E1E1E"/>
<path d="M14.2853 52.8574H9.52344V57.6193H14.2853V52.8574Z" fill="#1E1E1E"/>
<path d="M19.0471 52.8574H14.2852V57.6193H19.0471V52.8574Z" fill="#1E1E1E"/>
<path d="M23.8088 52.8574H19.0469V57.6193H23.8088V52.8574Z" fill="#1E1E1E"/>
<path d="M28.5705 52.8574H23.8086V57.6193H28.5705V52.8574Z" fill="#1E1E1E"/>
<path d="M38.0939 52.8574H33.332V57.6193H38.0939V52.8574Z" fill="#1E1E1E"/>
<path d="M57.1447 52.8574H52.3828V57.6193H57.1447V52.8574Z" fill="#1E1E1E"/>
<path d="M76.1916 52.8574H71.4297V57.6193H76.1916V52.8574Z" fill="#1E1E1E"/>
<path d="M85.715 52.8574H80.9531V57.6193H85.715V52.8574Z" fill="#1E1E1E"/>
<path d="M95.2385 52.8574H90.4766V57.6193H95.2385V52.8574Z" fill="#1E1E1E"/>
<path d="M14.2853 57.6191H9.52344V62.381H14.2853V57.6191Z" fill="#1E1E1E"/>
<path d="M19.0471 57.6191H14.2852V62.381H19.0471V57.6191Z" fill="#1E1E1E"/>
<path d="M33.3322 57.6191H28.5703V62.381H33.3322V57.6191Z" fill="#1E1E1E"/>
<path d="M38.0939 57.6191H33.332V62.381H38.0939V57.6191Z" fill="#1E1E1E"/>
<path d="M47.6213 57.6191H42.8594V62.381H47.6213V57.6191Z" fill="#1E1E1E"/>
<path d="M71.4299 57.6191H66.668V62.381H71.4299V57.6191Z" fill="#1E1E1E"/>
<path d="M80.9533 57.6191H76.1914V62.381H80.9533V57.6191Z" fill="#1E1E1E"/>
<path d="M85.715 57.6191H80.9531V62.381H85.715V57.6191Z" fill="#1E1E1E"/>
<path d="M100 57.6191H95.2383V62.381H100V57.6191Z" fill="#1E1E1E"/>
<path d="M42.8596 62.3809H38.0977V67.1428H42.8596V62.3809Z" fill="#1E1E1E"/>
<path d="M47.6213 62.3809H42.8594V67.1428H47.6213V62.3809Z" fill="#1E1E1E"/>
<path d="M52.3791 62.3809H47.6172V67.1428H52.3791V62.3809Z" fill="#1E1E1E"/>
<path d="M57.1447 62.3813H52.3828V67.1432H57.1447V62.3813Z" fill="#1E1E1E"/>
<path d="M61.9025 62.3809H57.1406V67.1428H61.9025V62.3809Z" fill="#1E1E1E"/>
<path d="M66.6682 62.3809H61.9062V67.1428H66.6682V62.3809Z" fill="#1E1E1E"/>
<path d="M71.4299 62.3813H66.668V67.1432H71.4299V62.3813Z" fill="#1E1E1E"/>
<path d="M80.9533 62.3813H76.1914V67.1432H80.9533V62.3813Z" fill="#1E1E1E"/>
<path d="M4.7619 67.1431H0V71.905H4.7619V67.1431Z" fill="#1E1E1E"/>
<path d="M9.52363 67.1431H4.76172V71.905H9.52363V67.1431Z" fill="#1E1E1E"/>
<path d="M14.2853 67.1431H9.52344V71.905H14.2853V67.1431Z" fill="#1E1E1E"/>
<path d="M19.0471 67.1431H14.2852V71.905H19.0471V67.1431Z" fill="#1E1E1E"/>
<path d="M23.8088 67.1426H19.0469V71.9045H23.8088V67.1426Z" fill="#1E1E1E"/>
<path d="M28.5705 67.1426H23.8086V71.9045H28.5705V67.1426Z" fill="#1E1E1E"/>
<path d="M33.3322 67.1426H28.5703V71.9045H33.3322V67.1426Z" fill="#1E1E1E"/>
<path d="M47.6213 67.1426H42.8594V71.9045H47.6213V67.1426Z" fill="#1E1E1E"/>
<path d="M52.3791 67.1426H47.6172V71.9045H52.3791V67.1426Z" fill="#1E1E1E"/>
<path d="M57.1447 67.1431H52.3828V71.905H57.1447V67.1431Z" fill="#1E1E1E"/>
<path d="M66.6682 67.1426H61.9062V71.9045H66.6682V67.1426Z" fill="#1E1E1E"/>
<path d="M80.9533 67.1431H76.1914V71.905H80.9533V67.1431Z" fill="#1E1E1E"/>
<path d="M4.7619 71.9053H0V76.6672H4.7619V71.9053Z" fill="#1E1E1E"/>
<path d="M33.3322 71.9062H28.5703V76.6682H33.3322V71.9062Z" fill="#1E1E1E"/>
<path d="M66.6682 71.9062H61.9062V76.6682H66.6682V71.9062Z" fill="#1E1E1E"/>
<path d="M76.1916 71.9062H71.4297V76.6682H76.1916V71.9062Z" fill="#1E1E1E"/>
<path d="M80.9533 71.9053H76.1914V76.6672H80.9533V71.9053Z" fill="#1E1E1E"/>
<path d="M85.715 71.9062H80.9531V76.6682H85.715V71.9062Z" fill="#1E1E1E"/>
<path d="M90.4767 71.9053H85.7148V76.6672H90.4767V71.9053Z" fill="#1E1E1E"/>
<path d="M95.2385 71.9053H90.4766V76.6672H95.2385V71.9053Z" fill="#1E1E1E"/>
<path d="M4.7619 76.667H0V81.4289H4.7619V76.667Z" fill="#1E1E1E"/>
<path d="M14.2853 76.667H9.52344V81.4289H14.2853V76.667Z" fill="#1E1E1E"/>
<path d="M19.0471 76.667H14.2852V81.4289H19.0471V76.667Z" fill="#1E1E1E"/>
<path d="M23.8088 76.668H19.0469V81.4299H23.8088V76.668Z" fill="#1E1E1E"/>
<path d="M33.3322 76.668H28.5703V81.4299H33.3322V76.668Z" fill="#1E1E1E"/>
<path d="M47.6213 76.668H42.8594V81.4299H47.6213V76.668Z" fill="#1E1E1E"/>
<path d="M52.3791 76.668H47.6172V81.4299H52.3791V76.668Z" fill="#1E1E1E"/>
<path d="M61.9025 76.668H57.1406V81.4299H61.9025V76.668Z" fill="#1E1E1E"/>
<path d="M80.9533 76.667H76.1914V81.4289H80.9533V76.667Z" fill="#1E1E1E"/>
<path d="M90.4767 76.667H85.7148V81.4289H90.4767V76.667Z" fill="#1E1E1E"/>
<path d="M100 76.667H95.2383V81.4289H100V76.667Z" fill="#1E1E1E"/>
<path d="M4.7619 81.4287H0V86.1906H4.7619V81.4287Z" fill="#1E1E1E"/>
<path d="M14.2853 81.4287H9.52344V86.1906H14.2853V81.4287Z" fill="#1E1E1E"/>
<path d="M19.0471 81.4287H14.2852V86.1906H19.0471V81.4287Z" fill="#1E1E1E"/>
<path d="M23.8088 81.4297H19.0469V86.1916H23.8088V81.4297Z" fill="#1E1E1E"/>
<path d="M33.3322 81.4297H28.5703V86.1916H33.3322V81.4297Z" fill="#1E1E1E"/>
<path d="M42.8596 81.4297H38.0977V86.1916H42.8596V81.4297Z" fill="#1E1E1E"/>
<path d="M47.6213 81.4297H42.8594V86.1916H47.6213V81.4297Z" fill="#1E1E1E"/>
<path d="M52.3791 81.4297H47.6172V86.1916H52.3791V81.4297Z" fill="#1E1E1E"/>
<path d="M61.9025 81.4297H57.1406V86.1916H61.9025V81.4297Z" fill="#1E1E1E"/>
<path d="M71.4299 81.4287H66.668V86.1906H71.4299V81.4287Z" fill="#1E1E1E"/>
<path d="M76.1916 81.4297H71.4297V86.1916H76.1916V81.4297Z" fill="#1E1E1E"/>
<path d="M4.7619 86.1909H0V90.9528H4.7619V86.1909Z" fill="#1E1E1E"/>
<path d="M14.2853 86.1909H9.52344V90.9528H14.2853V86.1909Z" fill="#1E1E1E"/>
<path d="M19.0471 86.1909H14.2852V90.9528H19.0471V86.1909Z" fill="#1E1E1E"/>
<path d="M23.8088 86.1914H19.0469V90.9533H23.8088V86.1914Z" fill="#1E1E1E"/>
<path d="M33.3322 86.1914H28.5703V90.9533H33.3322V86.1914Z" fill="#1E1E1E"/>
<path d="M42.8596 86.1914H38.0977V90.9533H42.8596V86.1914Z" fill="#1E1E1E"/>
<path d="M52.3791 86.1914H47.6172V90.9533H52.3791V86.1914Z" fill="#1E1E1E"/>
<path d="M61.9025 86.1914H57.1406V90.9533H61.9025V86.1914Z" fill="#1E1E1E"/>
<path d="M76.1916 86.1914H71.4297V90.9533H76.1916V86.1914Z" fill="#1E1E1E"/>
<path d="M90.4767 86.1909H85.7148V90.9528H90.4767V86.1909Z" fill="#1E1E1E"/>
<path d="M4.7619 90.9526H0V95.7145H4.7619V90.9526Z" fill="#1E1E1E"/>
<path d="M33.3322 90.9531H28.5703V95.715H33.3322V90.9531Z" fill="#1E1E1E"/>
<path d="M42.8596 90.9531H38.0977V95.715H42.8596V90.9531Z" fill="#1E1E1E"/>
<path d="M61.9025 90.9531H57.1406V95.715H61.9025V90.9531Z" fill="#1E1E1E"/>
<path d="M66.6682 90.9531H61.9062V95.715H66.6682V90.9531Z" fill="#1E1E1E"/>
<path d="M71.4299 90.9526H66.668V95.7145H71.4299V90.9526Z" fill="#1E1E1E"/>
<path d="M76.1916 90.9531H71.4297V95.715H76.1916V90.9531Z" fill="#1E1E1E"/>
<path d="M80.9533 90.9526H76.1914V95.7145H80.9533V90.9526Z" fill="#1E1E1E"/>
<path d="M100 90.9526H95.2383V95.7145H100V90.9526Z" fill="#1E1E1E"/>
<path d="M4.7619 95.7144H0V100.476H4.7619V95.7144Z" fill="#1E1E1E"/>
<path d="M9.52363 95.7144H4.76172V100.476H9.52363V95.7144Z" fill="#1E1E1E"/>
<path d="M14.2853 95.7144H9.52344V100.476H14.2853V95.7144Z" fill="#1E1E1E"/>
<path d="M19.0471 95.7144H14.2852V100.476H19.0471V95.7144Z" fill="#1E1E1E"/>
<path d="M23.8088 95.7148H19.0469V100.477H23.8088V95.7148Z" fill="#1E1E1E"/>
<path d="M28.5705 95.7148H23.8086V100.477H28.5705V95.7148Z" fill="#1E1E1E"/>
<path d="M33.3322 95.7148H28.5703V100.477H33.3322V95.7148Z" fill="#1E1E1E"/>
<path d="M42.8596 95.7148H38.0977V100.477H42.8596V95.7148Z" fill="#1E1E1E"/>
<path d="M47.6213 95.7148H42.8594V100.477H47.6213V95.7148Z" fill="#1E1E1E"/>
<path d="M57.1447 95.7144H52.3828V100.476H57.1447V95.7144Z" fill="#1E1E1E"/>
<path d="M66.6682 95.7148H61.9062V100.477H66.6682V95.7148Z" fill="#1E1E1E"/>
<path d="M71.4299 95.7144H66.668V100.476H71.4299V95.7144Z" fill="#1E1E1E"/>
<path d="M80.9533 95.7144H76.1914V100.476H80.9533V95.7144Z" fill="#1E1E1E"/>
<path d="M85.715 95.7148H80.9531V100.477H85.715V95.7148Z" fill="#1E1E1E"/>
<path d="M90.4767 95.7144H85.7148V100.476H90.4767V95.7144Z" fill="#1E1E1E"/>
</svg>
