<svg width="48" height="48" viewBox="0 0 48 48" fill="none" xmlns="http://www.w3.org/2000/svg">
<path d="M15.888 9.59961L12 20.0396H13.872L14.6784 17.7212H18.912L19.7328 20.0396H21.7344L17.8176 9.59961H15.888ZM15.2112 16.1948L16.7808 11.7164L18.3648 16.1948H15.2112Z" fill="#1E1E1E"/>
<path d="M22.3089 17.9084C22.3089 19.3196 23.4897 20.2268 25.1745 20.2268C26.3121 20.2268 27.2337 19.8236 27.7233 18.9884C27.7521 19.5212 27.8097 19.7084 27.8673 20.0396H29.4369C29.2929 19.3916 29.2065 18.3692 29.2065 17.39C29.2065 16.6844 29.2353 15.7772 29.2353 15.3884C29.2785 12.9116 27.8241 12.062 25.9665 12.062C24.0945 12.062 22.7841 13.142 22.6689 14.726H24.3537C24.3969 13.79 25.0449 13.3292 25.9089 13.3292C26.7585 13.3292 27.5217 13.7324 27.5217 15.0572V15.2012C24.6849 15.4892 22.3089 15.9788 22.3089 17.9084ZM27.5649 16.3964V16.9868C27.5649 18.2972 26.8161 18.9452 25.5489 18.9452C24.6849 18.9452 24.1233 18.542 24.1233 17.8652C24.1233 16.9724 25.1169 16.6268 27.5649 16.3964Z" fill="#1E1E1E"/>
<rect x="1" y="1" width="39.7774" height="28.2219" stroke="#1E1E1E" stroke-width="2"/>
<rect x="24.8008" y="24.8008" width="23.2" height="23.2" fill="#B9BBFA"/>
<rect x="31.6016" y="36.4004" width="6.78782" height="6.78782" transform="rotate(-45 31.6016 36.4004)" fill="white"/>
</svg>
