<svg width="50" height="50" viewBox="0 0 50 50" fill="none" xmlns="http://www.w3.org/2000/svg">
<path d="M15.0793 27.7128H14.6918L14.4055 27.974L6.42515 35.2526V28.7128V27.7128H5.42515H1V1H44.2985V27.7128H15.0793Z" stroke="#1E1E1E" stroke-width="2"/>
<path d="M22.5328 16.4858C21.153 16.4858 20.0344 15.3665 20.0344 13.9858C20.0344 12.6051 21.153 11.4858 22.5328 11.4858C23.9127 11.4858 25.0312 12.6051 25.0312 13.9858C25.0312 15.3665 23.9127 16.4858 22.5328 16.4858Z" stroke="#1E1E1E" stroke-width="2"/>
<path d="M12.4957 16.4858C11.1159 16.4858 9.99731 15.3665 9.99731 13.9858C9.99731 12.6051 11.1159 11.4858 12.4957 11.4858C13.8756 11.4858 14.9941 12.6051 14.9941 13.9858C14.9941 15.3665 13.8756 16.4858 12.4957 16.4858Z" stroke="#1E1E1E" stroke-width="2"/>
<path d="M32.5778 16.4858C31.1979 16.4858 30.0793 15.3665 30.0793 13.9858C30.0793 12.6051 31.1979 11.4858 32.5778 11.4858C33.9576 11.4858 35.0762 12.6051 35.0762 13.9858C35.0762 15.3665 33.9576 16.4858 32.5778 16.4858Z" stroke="#1E1E1E" stroke-width="2"/>
<path d="M38.7909 42.4522L45.8702 50.0001V42.4522H49.9668V23.3335H23.3168V42.4522H38.7909Z" fill="#B9BBFA"/>
</svg>
