<svg width="63" height="64" viewBox="0 0 63 64" fill="none" xmlns="http://www.w3.org/2000/svg">
<path d="M44.1019 0H0V44.0993H44.1019V0Z" fill="#D2FDE5"/>
<path d="M29.9258 31.5H14.8917" stroke="#1E1E1E" stroke-width="2"/>
<mask id="path-3-inside-1" fill="white">
<path d="M9.45703 17.7675C9.45703 14.9144 11.7294 12.6016 14.5326 12.6016C17.3358 12.6016 19.6082 14.9144 19.6082 17.7675"/>
</mask>
<path d="M11.457 17.7675C11.457 15.9856 12.8671 14.6016 14.5326 14.6016V10.6016C10.5918 10.6016 7.45703 13.8433 7.45703 17.7675H11.457ZM14.5326 14.6016C16.1981 14.6016 17.6082 15.9856 17.6082 17.7675H21.6082C21.6082 13.8433 18.4735 10.6016 14.5326 10.6016V14.6016Z" fill="#1E1E1E" mask="url(#path-3-inside-1)"/>
<mask id="path-5-inside-2" fill="white">
<path d="M24.498 17.7675C24.498 14.9144 26.7705 12.6016 29.5736 12.6016C32.3768 12.6016 34.6492 14.9144 34.6492 17.7675"/>
</mask>
<path d="M26.498 17.7675C26.498 15.9856 27.9081 14.6016 29.5736 14.6016V10.6016C25.6328 10.6016 22.498 13.8433 22.498 17.7675H26.498ZM29.5736 14.6016C31.2391 14.6016 32.6492 15.9856 32.6492 17.7675H36.6492C36.6492 13.8433 33.5145 10.6016 29.5736 10.6016V14.6016Z" fill="#1E1E1E" mask="url(#path-5-inside-2)"/>
<path d="M43.4909 38.1576L34.5654 28.35V38.1576H29.4004V63H63.0004V38.1576H43.4909Z" fill="#B9BBFA"/>
</svg>
