<svg width="40" height="40" viewBox="0 0 40 40" fill="none" xmlns="http://www.w3.org/2000/svg">
<mask id="mask0" mask-type="alpha" maskUnits="userSpaceOnUse" x="0" y="0" width="40" height="40">
<rect width="40" height="40" fill="#C4C4C4"/>
</mask>
<g mask="url(#mask0)">
<path d="M41.0021 12.7773H-1V40.9979H41.0021V12.7773ZM38.3778 38.3739H1.6242V17.3713H38.3761L38.3778 38.3739Z" fill="#3476F7"/>
<path d="M36.408 4.24683C36.408 5.69009 35.227 6.8728 33.782 6.8728C32.3388 6.8728 31.156 5.69178 31.156 4.24683L31.1577 2.27734H27.2205V4.24683C27.2205 5.69009 26.0395 6.8728 24.5945 6.8728C23.1513 6.8728 21.9685 5.69178 21.9685 4.24683L21.9702 2.27734H18.033V4.24683C18.033 5.69009 16.852 6.8728 15.407 6.8728C13.9638 6.8728 12.7811 5.69178 12.7811 4.24683V2.27734H8.84381V4.24683C8.84381 5.69009 7.66278 6.8728 6.21783 6.8728C4.77458 6.8728 3.59186 5.69178 3.59186 4.24683L3.59355 2.27734H-1V10.1537H41.0021V2.27734H36.4086L36.408 4.24683Z" fill="#3476F7"/>
<path d="M6.22117 -1C5.49867 -1 4.9082 -0.409487 4.9082 0.312964V4.25194C4.9082 5.03872 5.6307 5.6952 6.41747 5.56491C7.07395 5.43293 7.53249 4.84241 7.53249 4.18593V0.312964C7.53249 -0.40953 6.94197 -1 6.22121 -1H6.22117Z" fill="#3476F7"/>
<path d="M15.4087 -1C14.6862 -1 14.0957 -0.409487 14.0957 0.312964V4.25194C14.0957 5.03872 14.8182 5.6952 15.605 5.56491C16.2615 5.43293 16.72 4.84241 16.72 4.18593L16.7217 2.28076V0.312964C16.7217 -0.40953 16.1312 -1 15.4087 -1H15.4087Z" fill="#3476F7"/>
<path d="M24.5942 -1C23.8717 -1 23.2812 -0.409487 23.2812 0.312964V4.25194C23.2812 5.03872 24.0037 5.6952 24.7905 5.56491C25.447 5.43293 25.9055 4.84241 25.9055 4.18593L25.9072 2.28076V0.312964C25.9072 -0.40953 25.3167 -1 24.5943 -1H24.5942Z" fill="#3476F7"/>
<path d="M32.4707 0.312964V4.25194C32.4707 5.03872 33.1932 5.6952 33.98 5.56491C34.6365 5.43293 35.095 4.84241 35.095 4.18593V0.312964C35.095 -0.40953 34.5045 -1 33.782 -1C33.0612 -1 32.4707 -0.409487 32.4707 0.312964H32.4707Z" fill="#3476F7"/>
<path d="M29.779 23.3471L27.1547 20.3945L16.5881 29.6479L13.4376 25.5127L10.2871 27.8764L15.9978 35.3569L29.779 23.3471Z" fill="#3476F7"/>
</g>
</svg>
