<svg width="65" height="60" viewBox="0 0 65 60" fill="none" xmlns="http://www.w3.org/2000/svg">
<path d="M30.1163 25.088C27.4432 29.5838 24.8823 33.9374 22.2679 38.2583C21.5965 39.3677 21.2642 40.2713 21.8006 41.6814C23.2815 45.5768 21.1924 49.3676 17.2662 50.3965C13.5635 51.3672 9.95596 48.9325 9.22131 44.9663C8.5703 41.4558 11.2933 38.0143 15.162 37.4656C15.486 37.4192 15.8171 37.4139 16.3617 37.3731L22.2465 27.5002C18.5453 23.8181 16.3423 19.5141 16.8298 14.1804C17.1745 10.4103 18.6564 7.15209 21.3647 4.48173C26.5521 -0.632152 34.466 -1.46018 40.574 2.46496C46.4401 6.23534 49.1268 13.5795 46.8367 19.8652C45.1099 19.3969 43.371 18.9245 41.4596 18.4058C42.1786 14.9109 41.6468 11.7727 39.2909 9.08417C37.7344 7.30913 35.737 6.37876 33.4661 6.03595C28.9131 5.34782 24.4429 8.27428 23.1165 12.7454C21.6109 17.8195 23.8897 21.9646 30.1163 25.0882V25.088Z" fill="#C73A63"/>
<path d="M37.7506 19.7763C39.6339 23.1002 41.5461 26.4744 43.4412 29.8175C53.0199 26.8525 60.242 32.1577 62.8329 37.8374C65.9625 44.6983 63.823 52.8244 57.677 57.0573C51.3684 61.4024 43.3903 60.66 37.801 55.0783C39.2255 53.8853 40.657 52.687 42.1865 51.4068C47.707 54.9841 52.5354 54.8157 56.12 50.5795C59.1768 46.9657 59.1105 41.5773 55.9651 38.0393C52.3351 33.9566 47.4729 33.8321 41.5957 37.7512C39.1577 33.4238 36.6774 29.1309 34.3164 24.7722C33.5203 23.3032 32.6415 22.4507 30.8472 22.1399C27.8509 21.6201 25.9165 19.0458 25.8004 16.1617C25.6863 13.3093 27.3659 10.731 29.9911 9.72648C32.5917 8.73108 35.6434 9.53441 37.3926 11.7465C38.8221 13.5538 39.2764 15.588 38.5241 17.817C38.315 18.4386 38.0441 19.04 37.7506 19.7765V19.7763Z" fill="#4B4B4B"/>
<path d="M42.2516 46.9408H30.7204C29.6151 51.489 27.2277 55.1611 23.1143 57.4962C19.9165 59.311 16.47 59.9263 12.8017 59.3337C6.04777 58.2441 0.525283 52.161 0.0390414 45.3114C-0.511192 37.5519 4.81957 30.6547 11.925 29.1055C12.4155 30.8878 12.9113 32.6873 13.4019 34.4654C6.8827 37.7931 4.62634 41.9859 6.45087 47.2289C8.05698 51.8426 12.6193 54.3716 17.5732 53.3936C22.6321 52.3949 25.1827 48.1885 24.8714 41.4377C29.6673 41.4377 34.4672 41.388 39.2636 41.4621C41.1365 41.4916 42.5824 41.2973 43.9932 39.6453C46.3161 36.927 50.5917 37.1723 53.0935 39.7395C55.6502 42.3633 55.5277 46.5848 52.8222 49.0979C50.2118 51.5228 46.0878 51.3932 43.6456 48.7803C43.1437 48.2419 42.7481 47.6024 42.2516 46.9408Z" fill="#4A4A4A"/>
</svg>
