<svg width="60" height="60" viewBox="0 0 60 60" fill="none" xmlns="http://www.w3.org/2000/svg">
<path d="M37.5 30.0131C37.4985 32.2424 37.091 34.3766 36.348 36.3467C34.3782 37.0902 32.2431 37.4987 30.0129 37.5002H29.9871C27.7581 37.4987 25.6236 37.0914 23.6538 36.3482C22.9107 34.3787 22.5015 32.2436 22.5 30.0137V29.9877C22.5015 27.7584 22.9098 25.6242 23.6517 23.6543C25.6224 22.9112 27.7572 22.5023 29.9871 22.5008H30.0129C32.2431 22.5023 34.3782 22.9112 36.3479 23.6543C37.0904 25.6244 37.4984 27.7586 37.4999 29.9879V30.0138V30.0135L37.5 30.0131ZM59.583 25.0001H42.0711L54.4536 12.6175C53.4814 11.2522 52.3971 9.97038 51.2118 8.78535L51.2112 8.78415C50.0271 7.60024 48.7465 6.51699 47.3826 5.54565L35.0001 17.9282V0.4173C33.353 0.140539 31.6858 0.000959389 30.0156 0L29.9838 0C28.3138 0.000892072 26.6468 0.140371 24.9999 0.417V17.9291L12.6174 5.54655C11.2528 6.51824 9.97165 7.60199 8.78715 8.78655L8.78265 8.7906C7.59978 9.9742 6.51749 11.2542 5.547 12.6174L17.9295 24.9999H0.417C0.417 24.9999 0.0006 28.2894 0 29.9889V30.0107C0.000624903 31.6826 0.140104 33.3517 0.417 35.0006H17.9289L5.5464 47.383C7.49366 50.117 9.88348 52.5068 12.6174 54.4541L24.9999 42.0719V59.583C26.6452 59.8593 28.3106 59.9988 29.979 60H30.0219C31.6901 59.9987 33.3553 59.8592 35.0004 59.583V42.0709L47.3829 54.4535C48.747 53.4821 50.0278 52.3987 51.2121 51.2147L51.2151 51.2124C52.399 50.0281 53.4822 48.7473 54.4536 47.3834L42.0711 35.0006H59.583C59.8593 33.3554 59.9987 31.6902 60 30.0221V29.979C59.9987 28.3108 59.8592 26.6456 59.583 25.0005V25.0001Z" fill="#FF4A00"/>
</svg>
