<svg width="23" height="14" viewBox="0 0 23 14" fill="none" xmlns="http://www.w3.org/2000/svg">
<path fill-rule="evenodd" clip-rule="evenodd" d="M12.2964 13.6523C12.2964 13.6523 12.6984 13.6075 12.9044 13.3861C13.0929 13.1832 13.0863 12.8004 13.0863 12.8004C13.0863 12.8004 13.0612 11.0126 13.8903 10.7487C14.7075 10.4891 15.7566 12.4776 16.8701 13.2422C17.7111 13.8202 18.3496 13.6937 18.3496 13.6937L21.325 13.6523C21.325 13.6523 22.8807 13.5563 22.1432 12.3313C22.0822 12.231 21.7128 11.425 19.9315 9.76912C18.0653 8.03591 18.3158 8.31628 20.5623 5.31766C21.9307 3.49172 22.4776 2.377 22.3066 1.90028C22.1443 1.44436 21.1376 1.56542 21.1376 1.56542L17.7885 1.58613C17.7885 1.58613 17.5401 1.55235 17.3559 1.66251C17.1762 1.7705 17.0597 2.02243 17.0597 2.02243C17.0597 2.02243 16.5301 3.43505 15.8231 4.63706C14.3316 7.17203 13.7356 7.30617 13.4916 7.14915C12.924 6.7815 13.0656 5.67441 13.0656 4.8879C13.0656 2.4304 13.4382 1.40622 12.3411 1.14111C11.9772 1.05274 11.7092 0.994986 10.7777 0.985178C9.58249 0.973092 8.57146 0.989537 7.99839 1.2698C7.61706 1.45635 7.32295 1.87303 7.50274 1.89701C7.7239 1.92643 8.225 2.03224 8.49084 2.39443C8.83401 2.86234 8.82206 3.91167 8.82206 3.91167C8.82206 3.91167 9.01923 6.80439 8.36117 7.16331C7.9102 7.4098 7.29138 6.90692 5.96108 4.60654C5.2802 3.42851 4.76589 2.12606 4.76589 2.12606C4.76589 2.12606 4.66682 1.88284 4.48917 1.75197C4.27461 1.59376 3.97496 1.54472 3.97496 1.54472L0.79258 1.56542C0.79258 1.56542 0.31431 1.5785 0.138893 1.78684C-0.016914 1.97121 0.126946 2.35401 0.126946 2.35401C0.126946 2.35401 2.61854 8.19076 5.44027 11.1326C8.02782 13.8291 10.965 13.6523 10.965 13.6523H12.2964Z" fill="#1E1E1E"/>
</svg>
