<svg width="60" height="61" viewBox="0 0 60 61" fill="none" xmlns="http://www.w3.org/2000/svg">
<path d="M1 41.4634V1.43018H41.0018V41.4634H1Z" stroke="#1E1E1E" stroke-width="2"/>
<path d="M10.0078 17.3629C10.0078 15.1783 11.7416 13.439 13.8417 13.439C15.9418 13.439 17.6756 15.1783 17.6756 17.3629H10.0078Z" stroke="#1E1E1E" stroke-width="2"/>
<path d="M24.332 17.3629C24.332 15.1783 26.0658 13.439 28.1659 13.439C30.266 13.439 31.9998 15.1783 31.9998 17.3629H24.332Z" stroke="#1E1E1E" stroke-width="2"/>
<path d="M55.1346 46.3728L59.9998 46.0593L60 38.8695L55.1348 38.5553C54.8624 37.6377 54.4988 36.7588 54.051 35.932L57.268 32.2684L52.1888 27.1841L48.527 30.4036C47.7009 29.9548 46.8224 29.5921 45.9051 29.3195L45.5907 24.4497H38.4086L38.0947 29.3195C37.1767 29.5921 36.2985 29.955 35.4723 30.4036L31.8116 27.1841L26.732 32.2684L29.949 35.932C29.5014 36.7581 29.1376 37.6377 28.8652 38.5553L24 38.8695V46.0586L28.8652 46.3728C29.1376 47.291 29.5007 48.17 29.949 48.9968L26.732 52.6604L31.8112 57.7451L35.4725 54.5249C36.2987 54.9731 37.1769 55.3364 38.0937 55.6084L38.4077 60.4781L45.5911 60.4788L45.9056 55.6086C46.8231 55.3367 47.7013 54.9733 48.5275 54.5252L52.1882 57.7454L57.2678 52.6622L54.0508 48.9968C54.4991 48.1704 54.8621 47.2915 55.1346 46.3728Z" fill="#B9BBFA"/>
<ellipse cx="42" cy="42.464" rx="5" ry="5.004" fill="white"/>
<path d="M21 21.4473L16 29.4537H21" stroke="#1E1E1E" stroke-width="2"/>
</svg>
