<svg width="190" height="48" viewBox="0 0 190 48" fill="none" xmlns="http://www.w3.org/2000/svg">
<path d="M49.4123 22.1172C50.1966 22.9799 51.1378 23.6073 52.3142 24.0779C53.4907 24.5485 54.824 24.7838 56.4711 24.7838C57.2554 24.7838 58.0397 24.7054 58.6672 24.627C59.373 24.5485 59.9221 24.3917 60.4711 24.1564C61.0201 23.9995 61.4907 23.7642 61.9613 23.6073C62.3534 23.3721 62.7456 23.2152 63.0593 23.0583L62.5103 21.8819C62.1966 22.0387 61.8829 22.1956 61.5691 22.3524C61.2554 22.5093 60.9417 22.5877 60.5495 22.7446C60.1574 22.823 59.7652 22.9799 59.2946 22.9799C58.824 23.0583 58.275 23.0583 57.6476 23.0583C56.4711 23.0583 55.4515 22.823 54.7456 22.3524C53.9613 21.8819 53.4123 21.2544 52.9417 20.5485C52.5495 19.7642 52.2358 18.823 52.0789 17.8034C51.9221 16.7054 51.8436 15.6073 51.8436 14.3524C51.8436 13.4113 51.9221 12.3917 52.0005 11.3721C52.0789 10.3524 52.3142 9.4897 52.7064 8.70539C53.0985 7.92107 53.5691 7.29362 54.275 6.7446C54.9809 6.27401 55.9221 5.96029 57.0985 5.96029C58.1966 5.96029 59.1378 6.27401 59.9221 6.82303C60.7064 7.37205 61.177 8.31323 61.4123 9.4897H62.6672V5.64656C62.275 5.4897 61.8829 5.33284 61.4123 5.17597C60.9417 5.01911 60.4711 4.94068 59.9221 4.86225C59.373 4.78382 58.9025 4.78382 58.3534 4.70538C57.8829 4.70538 57.4123 4.62695 57.0201 4.62695C55.2946 4.62695 53.8829 4.86225 52.628 5.33284C51.4515 5.80342 50.4319 6.50931 49.6476 7.37205C48.8632 8.2348 48.3142 9.33284 47.9221 10.5877C47.5299 11.8426 47.373 13.3328 47.373 14.9015C47.373 16.3917 47.5299 17.8034 47.9221 18.9799C48.1574 20.3132 48.7064 21.3328 49.4123 22.1172Z" fill="#1A9F29"/>
<path d="M126.117 24.1571C127.058 24.0787 128 23.7649 128.705 23.3728C129.49 22.9022 130.117 22.2747 130.509 21.412C130.98 20.5493 131.215 19.3728 131.215 17.8826C131.215 16.7845 131.058 15.9218 130.745 15.1375C130.431 14.3532 129.96 13.8042 129.254 13.2551C128.549 12.7845 127.686 12.4708 126.588 12.2355C125.49 12.0002 124.156 11.9218 122.588 11.9218H120.941V7.29435C120.941 6.82376 121.019 6.51003 121.254 6.35317C121.49 6.19631 121.882 6.19631 122.509 6.19631H124.862C125.568 6.19631 126.196 6.19631 126.666 6.27474C127.137 6.35317 127.529 6.4316 127.764 6.6669C128.078 6.90219 128.313 7.21592 128.47 7.60807C128.627 8.00023 128.862 8.54925 129.019 9.25513H130.039V4.94141H116.705H115.607V5.56886C115.686 5.56886 115.764 5.64729 116 5.64729C116.235 5.72572 116.392 5.80415 116.47 5.88258C116.549 5.96101 116.627 6.11788 116.705 6.35317C116.705 6.58847 116.784 6.82376 116.784 7.13749V11.0591V18.1963V22.1179C116.784 22.4316 116.784 22.7453 116.705 22.9022C116.705 23.1375 116.627 23.2944 116.47 23.3728C116.392 23.4512 116.235 23.6081 116 23.6081C115.764 23.6865 115.686 23.6865 115.607 23.6865V24.314H122.902C124.078 24.314 125.098 24.314 126.117 24.1571ZM121.333 22.7453C121.176 22.5885 121.098 22.4316 121.098 22.1963C121.098 21.961 121.019 21.6473 121.019 21.2551V13.0983H122.666C124.156 13.0983 125.254 13.4904 125.882 14.2747C126.509 15.0591 126.823 16.314 126.823 18.0395C126.823 19.2159 126.745 20.0787 126.509 20.7846C126.274 21.4904 126.039 21.961 125.647 22.3532C125.254 22.6669 124.862 22.9022 124.47 23.0591C124 23.1375 123.529 23.2159 123.058 23.2159C122.588 23.1375 122.196 23.1375 121.96 23.0591C121.725 22.9806 121.49 22.9022 121.333 22.7453Z" fill="#1A9F29"/>
<path d="M105.49 23.6865C105.411 23.6865 105.333 23.6081 105.098 23.6081C104.862 23.5297 104.705 23.4512 104.627 23.3728C104.548 23.2944 104.47 23.1375 104.392 22.9022C104.392 22.6669 104.313 22.4316 104.313 22.1179V16.7061H106.274C107.294 16.7061 108.235 16.6277 109.176 16.4708C110.117 16.314 110.901 16.0002 111.607 15.6081C112.313 15.1375 112.862 14.5885 113.254 13.7257C113.647 12.9414 113.882 11.8434 113.882 10.51C113.882 9.25513 113.647 8.23553 113.333 7.52964C112.941 6.82376 112.392 6.19631 111.764 5.80415C111.137 5.41199 110.352 5.1767 109.49 5.09827C108.627 5.01984 107.764 4.94141 106.823 4.94141H100.235H99.1367V5.56886C99.2152 5.56886 99.2936 5.64729 99.5289 5.64729C99.7642 5.72572 99.921 5.80415 99.9995 5.88258C100.078 5.96101 100.156 6.11788 100.235 6.35317C100.235 6.58847 100.313 6.82376 100.313 7.13749V22.0395C100.313 22.3532 100.313 22.6669 100.235 22.8238C100.235 23.0591 100.156 23.2159 99.9995 23.2944C99.921 23.3728 99.7642 23.5297 99.5289 23.5297C99.2936 23.6081 99.2152 23.6081 99.1367 23.6081V24.2355H105.49V23.6865ZM104.392 7.13749C104.392 6.98062 104.392 6.82376 104.47 6.6669C104.47 6.51003 104.548 6.4316 104.627 6.35317C104.705 6.27474 104.862 6.19631 105.098 6.19631C105.333 6.19631 105.568 6.11788 105.96 6.11788C106.431 6.11788 106.901 6.19631 107.372 6.27474C107.843 6.4316 108.156 6.6669 108.548 6.98062C108.862 7.29435 109.098 7.76494 109.333 8.31396C109.49 8.86298 109.568 9.56886 109.568 10.3532C109.568 12.0002 109.333 13.2551 108.862 14.1179C108.392 14.9806 107.529 15.4512 106.352 15.4512H104.392V7.13749Z" fill="#1A9F29"/>
<path d="M96.5487 19.8434H95.2938C95.1369 20.6277 94.9801 21.1767 94.8232 21.6473C94.6663 22.1179 94.5095 22.4316 94.1957 22.6669C93.9604 22.9022 93.5683 23.0591 93.0977 23.0591C92.6271 23.1375 91.9997 23.1375 91.1369 23.1375C90.3526 23.1375 89.7251 23.1375 89.333 23.0591C88.8624 22.9806 88.5487 22.9022 88.3134 22.7453C88.0781 22.5885 87.9212 22.3532 87.9212 22.1179C87.8428 21.8042 87.8428 21.4904 87.8428 21.0198V14.9022H90.431C90.6663 14.9022 90.9016 14.9022 91.2153 14.9022C91.5291 14.9022 91.8428 14.9806 92.1565 14.9806C92.4703 14.9806 92.784 15.0591 93.0977 15.1375C93.4114 15.2159 93.6467 15.2944 93.882 15.4512V12.9414C93.6467 13.0983 93.4114 13.1767 93.0977 13.2551C92.784 13.3336 92.4703 13.412 92.1565 13.412C91.8428 13.4904 91.5291 13.4904 91.2153 13.4904C90.9016 13.4904 90.6663 13.4904 90.431 13.4904H87.8428V7.05905C87.8428 6.6669 87.9212 6.35317 87.9997 6.19631C88.1565 6.03945 88.3918 6.03945 88.784 6.03945H90.9016C91.6075 6.03945 92.235 6.03945 92.7055 6.11788C93.1761 6.19631 93.5683 6.27474 93.8036 6.51003C94.1173 6.74533 94.3526 7.05905 94.5095 7.45121C94.6663 7.84337 94.9016 8.39239 95.0585 9.09827H96.0781V4.94141H83.6859H82.5879V5.56886C82.6663 5.56886 82.7448 5.64729 82.98 5.64729C83.2153 5.72572 83.3722 5.80415 83.4506 5.88258C83.5291 5.96101 83.6075 6.11788 83.6859 6.35317C83.6859 6.58847 83.7644 6.82376 83.7644 7.13749V22.0395C83.7644 22.3532 83.7644 22.6669 83.6859 22.8238C83.6859 23.0591 83.6075 23.2159 83.4506 23.2944C83.3722 23.3728 83.2153 23.5297 82.98 23.5297C82.7448 23.6081 82.6663 23.6081 82.5879 23.6081V24.2355H96.5487V19.8434Z" fill="#1A9F29"/>
<path d="M75.2165 24.1571C76.1577 24.0787 77.0989 23.7649 77.8048 23.3728C78.5891 22.9022 79.2165 22.2747 79.6871 21.412C80.1577 20.5493 80.393 19.3728 80.393 17.8826C80.393 16.7845 80.2361 15.9218 79.9224 15.1375C79.6087 14.3532 79.1381 13.8042 78.4322 13.2551C77.7263 12.7845 76.8636 12.4708 75.7656 12.2355C74.6675 12.0002 73.3342 11.9218 71.7656 11.9218H70.1185V7.29435C70.1185 6.82376 70.1969 6.51003 70.4322 6.35317C70.6675 6.19631 71.0597 6.19631 71.6871 6.19631H74.0401C74.7459 6.19631 75.3734 6.19631 75.844 6.27474C76.3146 6.35317 76.7067 6.4316 76.942 6.6669C77.2558 6.90219 77.491 7.21592 77.6479 7.60807C77.8048 8.00023 78.0401 8.54925 78.1969 9.25513H79.2165V4.94141H65.8832H64.7852V5.56886C64.8636 5.56886 64.942 5.64729 65.1773 5.64729C65.4126 5.72572 65.5695 5.80415 65.6479 5.88258C65.7263 5.96101 65.8048 6.11788 65.8832 6.35317C65.8832 6.58847 65.9616 6.82376 65.9616 7.13749V7.52964V10.9806V18.0395V20.9414C65.9616 20.9414 65.9616 20.9414 65.9616 21.0198V22.0395C65.9616 22.3532 65.9616 22.5885 65.8832 22.8238C65.8832 23.0591 65.8048 23.2159 65.6479 23.2944C65.5695 23.3728 65.4126 23.5296 65.1773 23.5296C64.942 23.6081 64.8636 23.6081 64.7852 23.6081V24.314H72.0793C73.2557 24.314 74.1969 24.314 75.2165 24.1571ZM70.4322 22.7453C70.2754 22.5885 70.1969 22.4316 70.1969 22.1963C70.1969 21.961 70.1185 21.6473 70.1185 21.2551V13.0983H71.7656C73.2558 13.0983 74.3538 13.4904 74.9812 14.2747C75.6087 15.0591 75.9224 16.314 75.9224 18.0395C75.9224 19.2159 75.844 20.0787 75.6087 20.7846C75.3734 21.4904 75.1381 21.961 74.7459 22.3532C74.3538 22.6669 73.9616 22.9022 73.5695 23.0591C73.0989 23.1375 72.6283 23.2159 72.1577 23.2159C71.6871 23.1375 71.3734 23.1375 71.0597 23.0591C70.8244 22.9806 70.5891 22.9022 70.4322 22.7453Z" fill="#1A9F29"/>
<path d="M189.413 29.8047H47.2168V31.687H189.413V29.8047Z" fill="#1A9F29"/>
<path d="M178.04 17.0192C178.432 17.5682 178.746 18.0388 179.138 18.5094C179.452 18.98 179.844 19.4506 180.157 19.9212C180.471 20.3918 180.785 20.8624 181.177 21.333C181.569 21.882 181.883 22.3526 182.197 22.9016C182.51 23.3722 182.746 23.9212 182.981 24.3918L189.569 24.4702C188.863 23.7643 188.236 23.0584 187.53 22.3526C186.902 21.6467 186.353 21.0192 185.961 20.6271C185.334 19.9212 184.785 19.2937 184.314 18.7447C183.765 18.1173 183.295 17.5682 182.824 17.0192C182.353 16.4702 181.883 15.8428 181.491 15.2937C181.099 14.7447 180.628 14.0388 180.236 13.4114L180.55 13.0192C181.02 12.3918 181.569 11.7643 182.197 10.98C182.824 10.1957 183.452 9.41138 184.157 8.7055C184.863 7.92119 185.491 7.2153 186.197 6.58785C186.902 5.9604 187.452 5.48981 188.001 5.09766H183.452C183.295 5.48981 183.059 5.9604 182.746 6.50942C182.432 7.05844 182.118 7.68589 181.648 8.31334C181.255 8.9408 180.785 9.64668 180.393 10.3526C179.922 11.0584 179.53 11.6859 179.059 12.3133C178.589 12.9408 178.197 13.5682 177.804 14.0388C177.412 14.5879 177.099 14.98 176.863 15.3722C177.255 15.9212 177.648 16.4702 178.04 17.0192Z" fill="#1A9F29"/>
<path d="M177.49 23.6865C177.411 23.6865 177.333 23.6081 177.098 23.6081C176.862 23.5297 176.705 23.4512 176.627 23.3728C176.548 23.2944 176.47 23.1375 176.392 22.9022C176.392 22.6669 176.313 22.4316 176.313 22.1179V7.21592C176.313 6.90219 176.313 6.58847 176.392 6.4316C176.392 6.19631 176.47 6.03945 176.627 5.96101C176.705 5.88258 176.862 5.80415 177.098 5.72572C177.333 5.64729 177.411 5.64729 177.49 5.64729V4.94141H172.235H171.137V5.56886C171.215 5.56886 171.294 5.64729 171.529 5.64729C171.764 5.72572 171.921 5.80415 171.999 5.88258C172.078 5.96101 172.156 6.11788 172.235 6.35317C172.235 6.58847 172.313 6.82376 172.313 7.13749V22.0395C172.313 22.3532 172.313 22.6669 172.235 22.8238C172.235 23.0591 172.156 23.2159 171.999 23.2944C171.921 23.3728 171.764 23.5297 171.529 23.5297C171.294 23.6081 171.215 23.6081 171.137 23.6081V24.2355H177.49V23.6865Z" fill="#1A9F29"/>
<path d="M135.293 21.9607C135.528 20.8627 135.999 19.294 136.626 17.3333H142.822L143.685 19.8431C144.077 20.9411 144.391 21.8823 144.548 22.6666C144.783 23.4509 144.94 23.9999 144.94 24.3921H149.881C149.646 23.9999 149.411 23.4509 149.097 22.8235C148.783 22.196 148.391 21.2548 147.999 20.0784L143.528 7.37247C143.293 6.82345 143.215 6.35286 143.136 5.96071C143.058 5.56855 143.058 5.25483 142.979 5.01953H137.411V5.64698C137.489 5.64698 137.567 5.72541 137.803 5.72541C138.038 5.80385 138.195 5.88228 138.273 5.96071C138.352 6.03914 138.43 6.196 138.509 6.4313C138.509 6.58816 138.509 6.66659 138.509 6.82345C138.509 7.29404 138.43 7.76463 138.273 8.07836L135.136 15.7646C134.587 17.1764 134.038 18.4313 133.646 19.3725C133.254 20.3137 132.862 21.1764 132.626 21.8039C132.313 22.4313 132.077 22.9803 131.842 23.3725C131.607 23.7646 131.45 24.0784 131.293 24.3921H134.822C134.901 23.8431 135.058 23.0588 135.293 21.9607ZM139.764 8.15679L142.352 15.9999H137.018L139.764 8.15679Z" fill="#1A9F29"/>
<path d="M157.333 23.6865H157.177C157.098 23.6865 157.02 23.6081 156.784 23.6081C156.549 23.5296 156.392 23.4512 156.314 23.3728C156.235 23.2944 156.157 23.1375 156.079 22.9022C156.079 22.6669 156 22.4316 156 22.1179V14.6669H163.529V22.0395C163.529 22.3532 163.529 22.6669 163.451 22.8238C163.451 23.0591 163.373 23.2159 163.216 23.2944C163.137 23.3728 162.98 23.5296 162.745 23.5296C162.51 23.6081 162.431 23.6081 162.353 23.6081V24.2355H168.706V23.6081C168.628 23.6081 168.549 23.5296 168.314 23.5296C168.079 23.4512 167.922 23.3728 167.843 23.2944C167.765 23.2159 167.686 23.0591 167.608 22.8238C167.608 22.5885 167.529 22.3532 167.529 22.0395V18.1963V18.0395V10.9806V10.9022V7.05905C167.529 6.74533 167.529 6.4316 167.608 6.27474C167.608 6.03945 167.686 5.88258 167.843 5.80415C167.922 5.72572 168.079 5.64729 168.314 5.56886C168.549 5.49043 168.628 5.49043 168.706 5.49043V4.94141H163.451H162.51V5.56886C162.588 5.56886 162.667 5.64729 162.902 5.64729C163.137 5.72572 163.294 5.80415 163.373 5.88258C163.451 5.96101 163.529 6.11788 163.608 6.35317C163.608 6.58847 163.686 6.82376 163.686 7.13749V13.3336H156.157V7.13749C156.157 6.82376 156.157 6.51003 156.235 6.35317C156.235 6.11788 156.314 5.96101 156.471 5.88258C156.549 5.80415 156.706 5.72572 156.941 5.64729C157.177 5.56886 157.255 5.56886 157.333 5.56886V4.94141H152.079H150.98V5.56886C151.059 5.56886 151.137 5.64729 151.373 5.64729C151.608 5.72572 151.765 5.80415 151.843 5.88258C151.922 5.96101 152 6.11788 152.079 6.35317C152.079 6.58847 152.157 6.82376 152.157 7.13749V7.60807V21.0198V21.0983V22.1179C152.157 22.4316 152.157 22.6669 152.079 22.9022C152.079 23.1375 152 23.2944 151.843 23.3728C151.765 23.4512 151.608 23.6081 151.373 23.6081C151.137 23.6865 151.059 23.6865 150.98 23.6865V24.314H157.333V23.6865Z" fill="#1A9F29"/>
<path d="M34.2749 6.98104C33.8828 6.43202 33.4906 5.883 33.0985 5.33398L11.373 17.8046L0.863166 11.7654C0.627872 12.4712 0.47101 13.0987 0.392578 13.8046L11.4514 20.1575L34.2749 6.98104Z" fill="#1A9F29"/>
<path d="M11.3726 22.5097L0.0784314 15.9999C-5.84359e-09 16.392 0 16.8626 0 17.2548C0 27.5293 8.31373 35.9214 18.6667 35.9214C28.9412 35.9214 37.3333 27.6077 37.3333 17.2548C37.3333 14.1959 36.6275 11.294 35.2941 8.78418L11.3726 22.5097Z" fill="#1A9F29"/>
<path d="M31.6079 3.76528C31.0589 3.21626 30.5099 2.8241 29.9608 2.35352L11.3726 13.0986L2.43141 8.00058C2.11769 8.5496 1.80396 9.17705 1.49023 9.8045L11.2942 15.4516L31.6079 3.76528Z" fill="#1A9F29"/>
<path d="M28.0783 1.09804C27.3724 0.705883 26.6666 0.313726 25.8822 0L11.3724 8.39216L4.86263 4.70589C4.39204 5.17647 3.99989 5.72549 3.5293 6.27451L11.294 10.7451L28.0783 1.09804Z" fill="#1A9F29"/>
<path d="M126.824 45.8826L128.314 38.1963H130.746C132.158 38.1963 132.785 38.9022 132.785 40.0002C132.785 41.0198 132.158 41.5688 130.981 41.961C131.765 42.2747 132.236 42.8237 132.236 43.6081C132.236 45.0198 131.295 45.8041 129.412 45.8041H126.824V45.8826ZM127.765 45.1767H129.569C130.746 45.1767 131.452 44.5492 131.452 43.6081C131.452 42.9022 130.824 42.1963 129.648 42.1963H128.236L127.765 45.1767ZM128.471 41.5688H130.04C131.373 41.5688 132.079 40.9414 132.079 40.0002C132.079 39.2159 131.609 38.8237 130.667 38.8237H129.099L128.471 41.5688Z" fill="#1A9F29"/>
<path d="M137.569 44.4713C137.099 45.3341 136.55 45.9615 135.452 45.9615C134.197 45.9615 133.334 44.9419 133.334 43.5301C133.334 41.8046 134.432 40.3145 135.922 40.3145C137.02 40.3145 137.569 40.9419 137.883 41.8831L137.177 42.0399C136.942 41.3341 136.55 40.9419 135.922 40.9419C134.903 40.9419 134.04 42.0399 134.04 43.6086C134.04 44.7066 134.589 45.2556 135.53 45.2556C136.393 45.2556 136.707 44.785 137.02 44.236L137.569 44.4713Z" fill="#1A9F29"/>
<path d="M139.216 43.2164C139.216 43.3733 139.216 43.5301 139.216 43.6086C139.216 44.7066 139.765 45.3341 140.627 45.3341C141.412 45.3341 141.882 44.785 142.353 44.0792L142.98 44.3929C142.353 45.3341 141.725 45.9615 140.549 45.9615C139.294 45.9615 138.51 45.0203 138.51 43.6086C138.51 41.7262 139.608 40.3145 141.176 40.3145C142.431 40.3145 143.137 41.0988 143.137 42.5105C143.137 42.7458 143.059 42.9811 143.059 43.2164H139.216ZM142.431 42.589C142.51 42.4321 142.431 42.3537 142.431 42.2752C142.431 41.6478 142.039 41.0203 141.176 41.0203C140.157 41.0203 139.686 41.6478 139.373 42.6674H142.431V42.589Z" fill="#1A9F29"/>
<path d="M144.941 40.4707H148L147.922 41.0982H145.569L144.628 45.8825H143.922L144.941 40.4707Z" fill="#1A9F29"/>
<path d="M147.372 45.255L149.647 40.4707H150.745L151.372 45.255H151.921L151.608 46.9021H151.058L151.137 45.8825H147.451L147.137 46.9021H146.588L146.902 45.255H147.372ZM150.588 45.255L150.196 41.1766H150.039L148.157 45.255H150.588Z" fill="#1A9F29"/>
<path d="M156.393 42.6671C156.393 42.4318 156.472 42.1965 156.472 42.0396C156.472 41.4122 156.001 41.02 155.295 41.02C154.825 41.02 154.433 41.2553 154.119 41.6475L153.648 41.1769C154.119 40.7847 154.668 40.3926 155.452 40.3926C156.55 40.3926 157.256 41.0985 157.256 41.9612C157.256 42.1181 157.178 42.4318 157.178 42.824L156.785 44.6279C156.629 45.2553 156.629 45.6475 156.629 45.9612H155.923C155.844 45.8043 155.844 45.569 155.844 45.3338C155.374 45.7259 154.903 46.0396 154.276 46.0396C153.413 46.0396 152.707 45.3338 152.707 44.471C152.707 43.373 153.727 42.6671 155.609 42.6671H156.393ZM156.236 43.2161H155.687C154.197 43.2161 153.413 43.6083 153.413 44.3926C153.413 44.9416 153.805 45.3338 154.354 45.3338C154.903 45.3338 155.374 45.02 155.923 44.6279L156.236 43.2161Z" fill="#1A9F29"/>
<path d="M162.903 41.0988C163.373 40.6282 163.844 40.3145 164.471 40.3145C165.648 40.3145 166.275 41.0988 166.275 42.589C166.275 44.5497 165.099 45.9615 163.687 45.9615C162.981 45.9615 162.51 45.6478 162.118 45.2556L161.569 48.0007H160.863L162.353 40.3929H162.981L162.903 41.0988ZM162.275 44.5497C162.589 45.0203 162.981 45.3341 163.687 45.3341C164.706 45.3341 165.648 44.1576 165.648 42.5105C165.648 41.4909 165.177 40.9419 164.393 40.9419C163.844 40.9419 163.295 41.1772 162.903 41.8831L162.275 44.5497Z" fill="#1A9F29"/>
<path d="M169.334 43.3727L167.609 45.8825H166.824L168.628 43.3727C167.922 43.1374 167.53 42.5884 167.53 41.9609C167.53 41.255 168.158 40.4707 169.412 40.4707H172.001L170.903 45.8825H170.197L170.667 43.3727H169.334ZM171.06 41.0197H169.334C168.55 41.0197 168.158 41.4903 168.158 41.8825C168.158 42.4315 168.471 42.6668 169.099 42.6668H170.667L171.06 41.0197Z" fill="#1A9F29"/>
<path d="M172.706 45.255L174.981 40.4707H176.079L176.706 45.255H177.255L176.941 46.9021H176.392L176.471 45.8825H172.785L172.471 46.9021H171.922L172.236 45.255H172.706ZM175.843 45.255L175.451 41.1766H175.294L173.412 45.255H175.843Z" fill="#1A9F29"/>
<path d="M177.883 43.6086C177.883 41.7262 179.059 40.3145 180.471 40.3145C181.648 40.3145 182.353 41.2556 182.353 42.6674C182.353 44.4713 181.177 45.9615 179.765 45.9615C178.667 45.9615 177.883 45.0988 177.883 43.6086ZM178.589 43.7654C178.589 44.785 179.138 45.3341 179.844 45.3341C180.785 45.3341 181.726 44.1576 181.726 42.589C181.726 41.5694 181.177 40.9419 180.471 40.9419C179.53 40.9419 178.589 42.1184 178.589 43.7654Z" fill="#1A9F29"/>
<path d="M188.627 41.0982L186.274 45.8825H185.568L184.862 41.0982L183.921 45.8825H183.215L184.313 40.4707H185.489L186.117 45.1766L188.391 40.4707H189.568L188.47 45.8825H187.764L188.627 41.0982Z" fill="#1A9F29"/>
</svg>
