<svg width="191" height="36" viewBox="0 0 191 36" fill="none" xmlns="http://www.w3.org/2000/svg">
<path d="M37.789 17.1435C37.789 27.4137 29.4148 35.7879 19.1445 35.7879C8.87422 35.7879 0.5 27.4137 0.5 17.1435C0.5 16.7484 0.5 16.2744 0.579002 15.8794L11.8763 22.3576L35.7349 8.69023C36.999 11.2183 37.789 14.1414 37.789 17.1435ZM11.8763 17.6965L1.36902 11.6923C1.13202 12.3243 0.974012 13.0353 0.89501 13.7464L11.8763 20.0665L34.7079 6.95218C34.3129 6.39917 33.9179 5.84615 33.5229 5.29314L11.8763 17.6965ZM32.1008 3.7921C31.5478 3.31809 31.0738 2.84407 30.4418 2.37006L11.8763 13.0353L2.94906 7.90021C2.63306 8.45322 2.31705 9.08524 2.00104 9.71725L11.7973 15.3264L32.1008 3.7921ZM11.8763 10.6653L28.5457 1.10603C27.8347 0.711018 27.1237 0.316008 26.3337 0L11.8763 8.37422L5.39813 4.66112C4.92412 5.13513 4.52911 5.68815 4.1341 6.24116L11.8763 10.6653Z" fill="#00A10B"/>
<path d="M52.6414 15.4844C50.5083 14.6944 48.0592 13.5094 48.0592 10.0333C48.0592 6.79418 50.2713 4.42411 55.4854 4.42411C58.4875 4.42411 60.1466 5.13513 60.6996 5.37214C60.6206 6.63617 60.6206 7.8212 60.6996 9.16424H59.5936L59.3565 8.21621C58.8825 6.79418 58.0135 5.76715 55.8015 5.76715C52.8784 5.76715 52.0094 7.11019 52.0094 8.76923C52.0094 10.5073 52.8784 11.1393 54.7744 11.9293L57.4605 12.9563C60.3046 14.0624 61.8056 15.6424 61.8056 18.6445C61.8056 21.4886 59.9096 24.6486 54.0634 24.6486C51.0613 24.6486 49.0073 24.0166 48.4543 23.7796C48.5333 22.5156 48.5333 20.9355 48.4543 19.5925H49.6393L49.9553 20.9355C50.3503 22.3576 51.2983 23.3846 53.9054 23.3846C56.3545 23.3846 57.8555 22.1996 57.8555 19.9875C57.8555 18.3285 57.0655 17.2225 55.4064 16.5904L52.6414 15.4844ZM71.0489 4.81912C74.92 4.81912 78.238 5.29314 78.238 9.24324C78.238 11.9293 76.421 13.1143 74.2879 13.5094C76.816 13.6674 78.8701 15.4054 78.8701 18.3285C78.8701 23.0686 75.631 24.1746 70.8118 24.1746H63.4647V23.5426C64.4127 23.3056 64.5707 23.0686 64.5707 21.9626V6.95218C64.5707 5.92515 64.4127 5.60915 63.4647 5.37214V4.74012H71.0489V4.81912ZM68.8368 12.9563H70.6538C72.8659 12.9563 74.0509 12.1663 74.0509 9.55925C74.0509 6.95218 72.9449 6.00416 70.8118 6.00416H70.0218C68.9948 6.00416 68.8368 6.32016 68.8368 7.11018V12.9563ZM68.8368 14.2204V21.3306C68.8368 22.5946 69.0738 22.9106 70.4958 22.9106H71.2069C73.4189 22.9106 74.683 21.4886 74.683 18.4865C74.683 15.5634 73.5769 14.1414 70.5748 14.1414H68.8368V14.2204ZM87.6393 6.08316C86.8493 6.08316 86.6913 6.32016 86.6913 6.95218V12.9563H89.2983C90.4044 12.9563 92.0634 12.8773 92.6954 12.4033V14.8524C92.0634 14.3784 90.3254 14.2994 89.2983 14.2994H86.6913V21.4886C86.6913 22.6736 87.1653 23.0686 89.6933 23.0686H90.2464C92.7744 23.0686 93.4064 22.9106 93.9595 20.4615L94.1175 19.7505H95.3025C95.2235 21.2516 95.2235 22.7526 95.3025 24.2536H81.3981V23.6216C82.3462 23.3846 82.5042 23.1476 82.5042 22.0416V7.03118C82.5042 6.00416 82.3462 5.68815 81.3981 5.45114V4.81912H94.9075C94.8285 6.24116 94.8285 7.5842 94.9075 9.00623H93.8805L93.6434 8.21621C93.0114 6.24116 92.3794 6.00416 89.8513 6.00416H87.6393V6.08316ZM114.184 24.1746H108.891C108.575 23.1476 107.074 19.2765 106.521 17.8545L105.494 15.2474H103.203V21.9626C103.203 22.9896 103.361 23.3056 104.309 23.5426V24.1746H97.9886V23.5426C98.9366 23.3056 99.0946 23.0686 99.0946 21.9626V6.95218C99.0946 5.92515 98.9366 5.60915 97.9886 5.37214V4.74012H105.731C109.839 4.74012 112.762 5.76715 112.762 9.79626C112.762 12.6403 111.103 13.9044 109.365 14.6154C109.681 15.4054 112.683 21.8836 114.184 24.1746ZM105.02 14.0624C107.706 14.0624 108.496 12.7193 108.496 10.0333C108.496 7.26819 107.232 6.08316 105.415 6.08316H104.467C103.677 6.08316 103.282 6.24116 103.282 7.11018V14.0624H105.02V14.0624ZM123.506 4.81912C127.377 4.81912 130.695 5.29314 130.695 9.24324C130.695 11.9293 128.878 13.1143 126.745 13.5094C129.273 13.6674 131.327 15.4054 131.327 18.3285C131.327 23.0686 128.088 24.1746 123.269 24.1746H115.922V23.5426C116.87 23.3056 117.028 23.0686 117.028 21.9626V6.95218C117.028 5.92515 116.87 5.60915 115.922 5.37214V4.74012H123.506V4.81912ZM121.294 12.9563H123.111C125.323 12.9563 126.508 12.1663 126.508 9.55925C126.508 6.95218 125.402 6.00416 123.269 6.00416H122.479C121.452 6.00416 121.294 6.32016 121.294 7.11018V12.9563V12.9563ZM121.294 14.2204V21.3306C121.294 22.5946 121.531 22.9106 122.953 22.9106H123.664C125.876 22.9106 127.14 21.4886 127.14 18.4865C127.14 15.5634 126.034 14.1414 123.032 14.1414H121.294V14.2204ZM145.548 24.1746C145.39 23.1476 144.758 21.1726 144.284 19.6715L143.494 17.2225H137.332C136.7 19.1185 136.226 20.6985 135.989 21.8046C135.752 22.9106 135.594 23.7006 135.594 24.1746H132.038C132.512 23.4636 133.381 21.7256 134.725 18.4865L138.28 9.71725C139.07 7.7422 139.228 7.11018 139.228 6.55717C139.228 6.16216 139.149 5.60914 138.122 5.45114V4.81912H143.652C143.731 5.37214 143.81 6.08316 144.363 7.6632L148.392 19.2765C149.182 21.5676 150.051 23.4636 150.446 24.1746H145.548ZM143.02 15.8794L140.413 8.05821L137.727 15.8794H143.02ZM155.028 8.29522V21.9626C155.028 22.9896 155.265 23.3056 156.371 23.5426V24.1746H151.71V23.5426C152.816 23.3056 153.053 23.0686 153.053 21.9626V6.95218C153.053 5.92515 152.737 5.53014 151.71 5.37214V4.74012H157.556C157.951 5.45114 158.741 6.63617 160.479 9.16424L166.325 17.2225V6.95218C166.325 5.92515 166.009 5.60915 164.982 5.37214V4.74012H169.643V5.37214C168.537 5.60915 168.3 5.84615 168.3 6.95218V24.2536H166.483L155.028 8.29522ZM173.436 7.03118C173.436 6.00416 173.278 5.68815 172.33 5.45114V4.81912H178.65V5.45114C177.702 5.68815 177.544 5.92515 177.544 7.03118V22.0416C177.544 23.0686 177.702 23.3846 178.65 23.6216V24.2536H172.33V23.6216C173.278 23.3846 173.436 23.1476 173.436 22.0416V7.03118ZM183.706 15.7214C185.049 17.6175 188.209 21.8836 190.5 24.1746H184.022C183.548 23.1476 182.837 21.4886 180.862 18.4075L177.939 13.9834L180.467 10.6653C181.968 8.69023 183.943 6.08316 184.496 4.74012H188.999C187.182 5.76715 184.101 8.84823 183.232 9.87526L181.178 12.0083L183.706 15.7214Z" fill="#00A10B"/>
<path d="M190.5 28.9938H48.2963V30.8898H190.5V28.9938Z" fill="#00A10B"/>
</svg>
