<svg width="61" height="61" viewBox="0 0 61 61" fill="none" xmlns="http://www.w3.org/2000/svg">
<path d="M1 37.3437V1H53.5309V37.3437H1Z" stroke="#1E1E1E" stroke-width="2"/>
<path d="M23.5469 14.125L33.9048 19.6211L23.5469 25.1172V14.125Z" stroke="#1E1E1E" stroke-width="2"/>
<path d="M49.8265 39.12L49.8086 25.3601L59.8906 25.2254C59.9636 26.8643 59.7912 29.4566 59.3734 33.0024C58.9556 36.5483 58.2466 39.3375 57.2466 41.3701L49.8265 39.12Z" fill="#825bf9"/>
<path d="M41.4942 49.4603L27.7236 49.4424L27.5888 59.5165C29.2289 59.5895 31.8233 59.4172 35.3719 58.9997C38.9205 58.5822 41.7119 57.8739 43.7461 56.8746L41.4942 49.4603Z" fill="#825bf9"/>
<path d="M60 25.2256C60 44.4307 45.3295 59.9996 27.2325 59.9996" stroke="#1E1E1E" stroke-width="2"/>
</svg>
