<svg width="61" height="60" viewBox="0 0 61 60" fill="none" xmlns="http://www.w3.org/2000/svg">
<path d="M18.2628 33.4555H17.8755L17.5892 33.7164L7.67053 42.7573V34.4555V33.4555H6.67053H1.15625V1H53.5486V33.4555H18.2628Z" stroke="#1E1E1E" stroke-width="2"/>
<path d="M27.2119 19.7832C25.5551 19.7832 24.2119 18.4401 24.2119 16.7832C24.2119 15.1263 25.5551 13.7832 27.2119 13.7832C28.8688 13.7832 30.2119 15.1263 30.2119 16.7832C30.2119 18.4401 28.8688 19.7832 27.2119 19.7832Z" stroke="#1E1E1E" stroke-width="2"/>
<path d="M15.1602 19.7832C13.5033 19.7832 12.1602 18.4401 12.1602 16.7832C12.1602 15.1263 13.5033 13.7832 15.1602 13.7832C16.817 13.7832 18.1602 15.1263 18.1602 16.7832C18.1602 18.4401 16.817 19.7832 15.1602 19.7832Z" stroke="#1E1E1E" stroke-width="2"/>
<path d="M39.2725 19.7832C37.6156 19.7832 36.2725 18.4401 36.2725 16.7832C36.2725 15.1263 37.6156 13.7832 39.2725 13.7832C40.9293 13.7832 42.2725 15.1263 42.2725 16.7832C42.2725 18.4401 40.9293 19.7832 39.2725 19.7832Z" stroke="#1E1E1E" stroke-width="2"/>
<path d="M46.7367 50.9415L55.2372 59.999V50.9415H60.1562V27.999H28.1563V50.9415H46.7367Z" fill="#825bf9"/>
</svg>
