<svg width="60" height="61" viewBox="0 0 60 61" fill="none" xmlns="http://www.w3.org/2000/svg">
<path d="M19.86 12.5371L15 25.5976H17.34L18.348 22.6973H23.64L24.666 25.5976H27.168L22.272 12.5371H19.86ZM19.014 20.7877L20.976 15.1852L22.956 20.7877H19.014Z" fill="#1E1E1E"/>
<path d="M27.8862 22.9315C27.8862 24.6969 29.3622 25.8318 31.4682 25.8318C32.8902 25.8318 34.0422 25.3274 34.6542 24.2825C34.6902 24.9491 34.7622 25.1833 34.8342 25.5976H36.7962C36.6162 24.7869 36.5082 23.5079 36.5082 22.2829C36.5082 21.4002 36.5442 20.2653 36.5442 19.7789C36.5982 16.6804 34.7802 15.6176 32.4582 15.6176C30.1182 15.6176 28.4802 16.9687 28.3362 18.9503H30.4422C30.4962 17.7793 31.3062 17.2029 32.3862 17.2029C33.4482 17.2029 34.4022 17.7073 34.4022 19.3646V19.5447C30.8562 19.905 27.8862 20.5175 27.8862 22.9315ZM34.4562 21.0399V21.7785C34.4562 23.4178 33.5202 24.2285 31.9362 24.2285C30.8562 24.2285 30.1542 23.7241 30.1542 22.8774C30.1542 21.7605 31.3962 21.3282 34.4562 21.0399Z" fill="#1E1E1E"/>
<rect x="1" y="1.52734" width="50.2217" height="35.8079" stroke="#1E1E1E" stroke-width="2"/>
<rect x="31" y="31.5522" width="29" height="29.0234" fill="#B9BBFA"/>
<rect width="8.4882" height="8.4882" transform="matrix(0.706821 -0.707392 0.706821 0.707392 39.501 46.064)" fill="white"/>
</svg>
