<svg width="61" height="61" viewBox="0 0 61 61" fill="none" xmlns="http://www.w3.org/2000/svg">
<path d="M59.9375 41.8431V1.84375H19.9357V41.8431H59.9375Z" stroke="#1E1E1E" stroke-width="2"/>
<path d="M50.9297 17.7617C50.9297 15.5801 49.1966 13.8418 47.0958 13.8418C44.995 13.8418 43.2619 15.5801 43.2619 17.7617H50.9297Z" stroke="#1E1E1E" stroke-width="2"/>
<path d="M35.8789 24.9354C35.8789 27.6133 38.0072 29.7539 40.5957 29.7539C43.1842 29.7539 45.3125 27.6133 45.3125 24.9354H35.8789Z" stroke="#1E1E1E" stroke-width="2"/>
<path d="M36.6055 17.7617C36.6055 15.5801 34.8724 13.8418 32.7716 13.8418C30.6707 13.8418 28.9377 15.5801 28.9377 17.7617H36.6055Z" stroke="#1E1E1E" stroke-width="2"/>
<path d="M32.4375 60.5938L21.1434 60.5938L12.2022 60.5938L0.437506 60.5938L0.437504 37.4004L16.4375 27.5937L32.4375 37.4004L32.4375 60.5938Z" fill="#D2FDE5"/>
</svg>
