<svg viewBox="0 0 149 26" fill="none" xmlns="http://www.w3.org/2000/svg"><path fill-rule="evenodd" clip-rule="evenodd" d="M8.94 1.91C4.97 1.91 0 4.38 0 10.05v7.57c0 5.67 4.97 8.14 8.97 8.14 2.8 0 5.57-1 7.47-3.54a7.48 7.48 0 0 0 1.44-4.6v-1.1l-.37-.37h-4.5l-.37.37v.33c0 2.3-1.5 3.9-3.67 3.9-2.23 0-3.73-1.6-3.73-3.9v-6.03c0-2.3 1.53-3.9 3.7-3.9s3.7 1.6 3.7 3.9l.37.36h4.5l.37-.36v-.77c0-5.67-4.97-8.14-8.94-8.14M34.43 2.41l-.37.37v8.24h-7.5V2.78l-.37-.37h-4.5l-.37.37V24.9l.37.36h4.5l.37-.36v-8.88h7.5v8.88l.37.36h4.54l.33-.36V2.78l-.33-.37h-4.54zm15.24 13.48l2.34-8.3 2.27 8.3H49.67zm5.58-13.48h-6.48l-.36.37-6.6 22.12.36.36h4.6l.37-.36 1.2-4.3h7.2l1.2 4.3.37.36h4.74l.37-.36-6.6-22.12-.37-.37zm6.36-.15l-.37.37V6.9l.37.36h5.94v17.48l.36.37h4.51l.36-.37V7.26h5.98l.36-.36V2.63l-.36-.37H61.61zm36.82.15l-.46.3-4.79 8.13-4.85-8.13-.47-.3h-5.04l-.37.37V24.9l.37.36h4.43l.37-.36V10.25l5.18 8.29h.58l5.23-8.35V24.9l.33.36h4.47l.37-.36V2.78l-.37-.37h-4.98zm14.69 17.85v-4.47h8.37l.37-.37v-4.07l-.37-.36h-8.37V7.42h11.84l.36-.37V2.78l-.36-.37h-16.71l-.37.37V24.9l.37.36h16.77l.37-.36v-4.27l-.37-.37h-11.9zM132.22 15.79h16.5v-1.06h-16.5v1.06zm6.7-8.01c0 .65-.2 1.3-.65 1.77-.42.43-1 .63-1.6.63-1.1 0-1.53-.65-1.53-1.34 0-.98.92-1.35 1.7-1.4l2.08-.11v.45zm-2.36-1.33c-2.1.12-2.75 1.43-2.75 2.42 0 1.2.89 2.4 2.66 2.4 1.09 0 2.06-.5 2.5-1.28h.03c0 .66.43 1.18 1.12 1.18.32 0 .58-.04.86-.18v-.97s-.2.05-.34.05c-.26 0-.43-.11-.43-.52V5.79c0-.44-.07-.84-.23-1.2-.37-.84-1.22-1.48-2.73-1.48-.95 0-1.87.28-2.39.83-.4.41-.66.92-.67 1.62h1.27c0-.38.14-.69.38-.93.27-.26.7-.46 1.41-.46.63 0 1.02.15 1.28.4.35.32.4.8.4 1.18v.56l-2.37.14zm6.16-4.92h1.52V0h-1.52v1.53zm.1 9.53h1.33V3.31h-1.33v7.75z" fill="#2C3034"/></svg>
