<?xml version="1.0" encoding="UTF-8"?>
<!DOCTYPE svg PUBLIC "-//W3C//DTD SVG 1.1//EN" "http://www.w3.org/Graphics/SVG/1.1/DTD/svg11.dtd">
<!-- Creator: CorelDRAW X8 -->
<svg xmlns="http://www.w3.org/2000/svg" xml:space="preserve" width="100px" height="26px" version="1.1" shape-rendering="geometricPrecision" text-rendering="geometricPrecision" image-rendering="optimizeQuality" fill-rule="evenodd" clip-rule="evenodd"
viewBox="0 0 1000 260"
 xmlns:xlink="http://www.w3.org/1999/xlink">
 <g id="Слой_x0020_1">
  <metadata id="CorelCorpID_0Corel-Layer"/>
  <g id="_845169152">
   <path fill="#00953B" d="M994 243l-86 -119 79 -102c0,0 5,-6 5,-7 6,-7 5,-11 0,-11 -1,0 -60,0 -62,0 -7,0 -8,3 -14,11 -1,1 -7,9 -7,9l-66 86 -1 0 0 -101c0,-3 -2,-5 -5,-5l-53 0c-3,0 -5,2 -5,5l0 242c0,3 2,5 5,5l53 0c3,0 5,-2 5,-5l0 -105 1 0 64 91c0,0 5,7 8,11l0 0 0 0c1,1 2,2 2,2 5,5 8,6 14,6 3,0 53,0 64,0 6,0 7,-3 2,-9 0,0 -3,-4 -3,-4z"/>
   <path fill="#00953B" d="M358 5l-98 0 -5 0c-3,0 -5,2 -5,5l0 240c0,3 2,5 5,5l5 0 41 0 6 0c2,0 5,-2 5,-5l0 -59 42 0c77,0 121,-39 121,-94 0,-54 -42,-92 -117,-92zm-10 136l-36 0 0 -85 40 0c44,0 59,20 59,42 0,26 -18,43 -63,43z"/>
   <path fill="#00953B" d="M625 -1c-68,0 -131,51 -131,131 0,80 63,131 131,131 67,0 130,-51 130,-131 0,-80 -63,-131 -130,-131zm0 201c-40,0 -65,-31 -65,-70 0,-39 25,-70 65,-70 40,0 65,31 65,70 0,39 -25,70 -65,70z"/>
   <path fill="#00953B" d="M216 243l-87 -119 79 -102c0,0 5,-6 5,-7 6,-7 5,-11 0,-11 -1,0 -60,0 -62,0 -6,0 -8,4 -14,11 -1,1 -6,9 -6,9l-67 87 -1 0 0 -102c0,-3 -2,-5 -5,-5l-53 0c-3,0 -5,2 -5,5l0 242c0,3 2,5 5,5l53 0c3,0 5,-2 5,-5l0 -105 1 0 64 91c0,0 5,7 9,11l0 0 0 0c0,1 1,2 1,2 5,5 9,6 14,6 3,0 54,0 64,0 6,0 7,-3 3,-9 -1,0 -3,-4 -3,-4z"/>
  </g>
 </g>
</svg>
