<svg width="60" height="60" viewBox="0 0 60 60" fill="none" xmlns="http://www.w3.org/2000/svg">
<path d="M1 40.9993V1H41.0018V40.9993H1Z" stroke="#1E1E1E" stroke-width="2"/>
<mask id="path-2-inside-1" fill="white">
<path d="M9.00781 16.9189C9.00781 14.2017 11.172 11.999 13.8417 11.999C16.5114 11.999 18.6756 14.2017 18.6756 16.9189"/>
</mask>
<path d="M11.0078 16.9189C11.0078 15.2729 12.3097 13.999 13.8417 13.999V9.99902C10.0343 9.99902 7.00781 13.1306 7.00781 16.9189H11.0078ZM13.8417 13.999C15.3737 13.999 16.6756 15.2729 16.6756 16.9189H20.6756C20.6756 13.1306 17.6491 9.99902 13.8417 9.99902V13.999Z" fill="#1E1E1E" mask="url(#path-2-inside-1)"/>
<mask id="path-4-inside-2" fill="white">
<path d="M23.332 16.9189C23.332 14.2017 25.4962 11.999 28.1659 11.999C30.8356 11.999 32.9998 14.2017 32.9998 16.9189"/>
</mask>
<path d="M25.332 16.9189C25.332 15.2729 26.6339 13.999 28.1659 13.999V9.99902C24.3585 9.99902 21.332 13.1306 21.332 16.9189H25.332ZM28.1659 13.999C29.6979 13.999 30.9998 15.2729 30.9998 16.9189H34.9998C34.9998 13.1306 31.9733 9.99902 28.1659 9.99902V13.999Z" fill="#1E1E1E" mask="url(#path-4-inside-2)"/>
<path d="M55.1346 45.9054L59.9998 45.5921L60 38.4081L55.1348 38.0942C54.8624 37.1773 54.4988 36.2991 54.051 35.473L57.268 31.8124L52.1888 26.7322L48.527 29.9491C47.7009 29.5006 46.8224 29.1382 45.9051 28.8658L45.5907 24H38.4086L38.0947 28.8658C37.1767 29.1382 36.2985 29.5008 35.4723 29.9491L31.8116 26.7322L26.732 31.8124L29.949 35.473C29.5014 36.2984 29.1376 37.1773 28.8652 38.0942L24 38.4081V45.5914L28.8652 45.9054C29.1376 46.8229 29.5007 47.7011 29.949 48.5272L26.732 52.1879L31.8112 57.2685L35.4725 54.0509C36.2987 54.4987 37.1769 54.8618 38.0937 55.1335L38.4077 59.9993L45.5911 60L45.9056 55.1337C46.8231 54.862 47.7013 54.4989 48.5275 54.0511L52.1882 57.2688L57.2678 52.1897L54.0508 48.5272C54.4991 47.7016 54.8621 46.8233 55.1346 45.9054Z" fill="#1E1E1E"/>
<circle cx="42" cy="42" r="5" fill="#B9BBFA"/>
<path d="M21 21L16 29H21" stroke="#1E1E1E" stroke-width="2"/>
</svg>
