<svg height="500" preserveAspectRatio="none" viewBox="0 0 41 41" width="500" xmlns="http://www.w3.org/2000/svg"><path d="m4.35 4h.3.7.3.7.3.7.3.7.3.7.3.7.3q.35 0 .35.35v.3.7.3.7.3.7.3.7.3.7.3.7.3q0 .35-.35.35h-.3-.7-.3-.7-.3-.7-.3-.7-.3-.7-.3-.7-.3q-.35 0-.35-.35v-.3-.7-.3-.7-.3-.7-.3-.7-.3-.7-.3-.7-.3q0-.35.35-.35zm.65 1.35v.3.7.3.7.3.7.3.7.3q0 .35.35.35h.3.7.3.7.3.7.3.7.3q.35 0 .35-.35v-.3-.7-.3-.7-.3-.7-.3-.7-.3q0-.35-.35-.35h-.3-.7-.3-.7-.3-.7-.3-.7-.3q-.35 0-.35.35z"/><path d="m4.35 12h.3q.35 0 .35.35v.3.7.3q0 .35.35.35h.3q.35 0 .35.35v.3q0 .35-.35.35h-.3-.7-.3q-.35 0-.35-.35v-.3-.7-.3-.7-.3q0-.35.35-.35z"/><path d="m4.35 19h.3q.35 0 .35.35v.3.7.3q0 .35.35.35h.3q.35 0 .35.35v.3q0 .35.35.35h.3q.35 0 .35.35v.3q0 .35-.35.35h-.3q-.35 0-.35.35v.3q0 .35-.35.35h-.3q-.35 0-.35-.35v-.3q0-.35-.35-.35h-.3q-.35 0-.35-.35v-.3-.7-.3-.7-.3-.7-.3q0-.35.35-.35z"/><path d="m4.35 24h.3q.35 0 .35.35v.3.7.3.7.3.7.3.7.3q0 .35-.35.35h-.3q-.35 0-.35-.35v-.3-.7-.3-.7-.3-.7-.3-.7-.3q0-.35.35-.35z"/><path d="m4.35 30h.3.7.3.7.3.7.3.7.3.7.3.7.3q.35 0 .35.35v.3.7.3.7.3.7.3.7.3.7.3.7.3q0 .35-.35.35h-.3-.7-.3-.7-.3-.7-.3-.7-.3-.7-.3-.7-.3q-.35 0-.35-.35v-.3-.7-.3-.7-.3-.7-.3-.7-.3-.7-.3-.7-.3q0-.35.35-.35zm.65 1.35v.3.7.3.7.3.7.3.7.3q0 .35.35.35h.3.7.3.7.3.7.3.7.3q.35 0 .35-.35v-.3-.7-.3-.7-.3-.7-.3-.7-.3q0-.35-.35-.35h-.3-.7-.3-.7-.3-.7-.3-.7-.3q-.35 0-.35.35z"/><path d="m5.35 17h.3q.35 0 .35.35v.3q0 .35-.35.35h-.3q-.35 0-.35-.35v-.3q0-.35.35-.35z"/><path d="m6.35 6h.3.7.3.7.3q.35 0 .35.35v.3.7.3.7.3q0 .35-.35.35h-.3-.7-.3-.7-.3q-.35 0-.35-.35v-.3-.7-.3-.7-.3q0-.35.35-.35z"/><path d="m6.35 12h.3.7.3.7.3.7.3.7.3q.35 0 .35.35v.3q0 .35-.35.35h-.3-.7-.3-.7-.3-.7-.3-.7-.3q-.35 0-.35-.35v-.3q0-.35.35-.35z"/><path d="m6.35 16h.3q.35 0 .35-.35v-.3q0-.35.35-.35h.3q.35 0 .35.35v.3.7.3q0 .35-.35.35h-.3-.7-.3q-.35 0-.35-.35v-.3q0-.35.35-.35z"/><path d="m6.35 19h.3.7.3q.35 0 .35.35v.3q0 .35-.35.35h-.3q-.35 0-.35.35v.3q0 .35-.35.35h-.3q-.35 0-.35-.35v-.3-.7-.3q0-.35.35-.35z"/><path d="m6.35 25h.3q.35 0 .35.35v.3q0 .35.35.35h.3q.35 0 .35.35v.3q0 .35.35.35h.3q.35 0 .35.35v.3.7.3q0 .35-.35.35h-.3q-.35 0-.35-.35v-.3q0-.35-.35-.35h-.3-.7-.3q-.35 0-.35-.35v-.3-.7-.3-.7-.3q0-.35.35-.35z"/><path d="m6.35 32h.3.7.3.7.3q.35 0 .35.35v.3.7.3.7.3q0 .35-.35.35h-.3-.7-.3-.7-.3q-.35 0-.35-.35v-.3-.7-.3-.7-.3q0-.35.35-.35z"/><path d="m7.35 21h.3q.35 0 .35.35v.3q0 .35-.35.35h-.3q-.35 0-.35-.35v-.3q0-.35.35-.35z"/><path d="m7.35 24h.3q.35 0 .35.35v.3q0 .35-.35.35h-.3q-.35 0-.35-.35v-.3q0-.35.35-.35z"/><path d="m8.35 20h.3.7.3.7.3q.35 0 .35.35v.3q0 .35-.35.35h-.3q-.35 0-.35.35v.3q0 .35.35.35h.3q.35 0 .35.35v.3q0 .35-.35.35h-.3-.7-.3q-.35 0-.35.35v.3q0 .35-.35.35h-.3q-.35 0-.35-.35v-.3-.7-.3q0-.35.35-.35h.3q.35 0 .35-.35v-.3q0-.35-.35-.35h-.3q-.35 0-.35-.35v-.3q0-.35.35-.35z"/><path d="m9.35 15h.3q.35 0 .35.35v.3q0 .35-.35.35h-.3q-.35 0-.35-.35v-.3q0-.35.35-.35z"/><path d="m9.35 18h.3.7.3q.35 0 .35.35v.3q0 .35-.35.35h-.3-.7-.3q-.35 0-.35-.35v-.3q0-.35.35-.35z"/><path d="m9.35 24h.3.7.3q.35 0 .35-.35v-.3q0-.35.35-.35h.3.7.3q.35 0 .35-.35v-.3-.7-.3q0-.35-.35-.35h-.3q-.35 0-.35-.35v-.3q0-.35-.35-.35h-.3q-.35 0-.35-.35v-.3q0-.35.35-.35h.3q.35 0 .35-.35v-.3-.7-.3-.7-.3q0-.35-.35-.35h-.3q-.35 0-.35-.35v-.3q0-.35-.35-.35h-.3q-.35 0-.35-.35v-.3q0-.35.35-.35h.3.7.3q.35 0 .35.35v.3q0 .35.35.35h.3q.35 0 .35-.35v-.3q0-.35.35-.35h.3.7.3.7.3.7.3q.35 0 .35.35v.3q0 .35-.35.35h-.3q-.35 0-.35.35v.3q0 .35.35.35h.3q.35 0 .35.35v.3.7.3q0 .35-.35.35h-.3q-.35 0-.35-.35v-.3q0-.35-.35-.35h-.3q-.35 0-.35-.35v-.3q0-.35-.35-.35h-.3-.7-.3q-.35 0-.35.35v.3q0 .35.35.35h.3q.35 0 .35.35v.3q0 .35-.35.35h-.3q-.35 0-.35.35v.3.7.3q0 .35.35.35h.3.7.3q.35 0 .35.35v.3.7.3q0 .35.35.35h.3.7.3.7.3.7.3.7.3q.35 0 .35-.35v-.3-.7-.3-.7-.3q0-.35.35-.35h.3q.35 0 .35.35v.3q0 .35.35.35h.3.7.3.7.3q.35 0 .35.35v.3.7.3q0 .35-.35.35h-.3q-.35 0-.35.35v.3.7.3q0 .35-.35.35h-.3q-.35 0-.35-.35v-.3-.7-.3-.7-.3q0-.35-.35-.35h-.3q-.35 0-.35.35v.3.7.3.7.3q0 .35.35.35h.3q.35 0 .35.35v.3.7.3.7.3q0 .35-.35.35h-.3-.7-.3q-.35 0-.35.35v.3.7.3q0 .35-.35.35h-.3q-.35 0-.35.35v.3q0 .35.35.35h.3q.35 0 .35.35v.3q0 .35.35.35h.3q.35 0 .35.35v.3q0 .35-.35.35h-.3q-.35 0-.35.35v.3q0 .35.35.35h.3q.35 0 .35.35v.3q0 .35-.35.35h-.3-.7-.3-.7-.3-.7-.3q-.35 0-.35-.35v-.3q0-.35.35-.35h.3q.35 0 .35-.35v-.3q0-.35-.35-.35h-.3q-.35 0-.35.35v.3q0 .35-.35.35h-.3q-.35 0-.35-.35v-.3-.7-.3-.7-.3q0-.35-.35-.35h-.3-.7-.3q-.35 0-.35.35v.3q0 .35-.35.35h-.3q-.35 0-.35-.35v-.3q0-.35-.35-.35h-.3q-.35 0-.35-.35v-.3q0-.35-.35-.35h-.3-.7-.3q-.35 0-.35-.35v-.3q0-.35.35-.35h.3q.35 0 .35-.35v-.3q0-.35-.35-.35h-.3q-.35 0-.35-.35v-.3q0-.35.35-.35h.3.7.3q.35 0 .35.35v.3q0 .35.35.35h.3q.35 0 .35.35v.3q0 .35.35.35h.3q.35 0 .35-.35v-.3-.7-.3q0-.35.35-.35h.3q.35 0 .35-.35v-.3q0-.35-.35-.35h-.3q-.35 0-.35-.35v-.3q0-.35-.35-.35h-.3q-.35 0-.35.35v.3q0 .35.35.35h.3q.35 0 .35.35v.3q0 .35-.35.35h-.3-.7-.3q-.35 0-.35-.35v-.3q0-.35-.35-.35h-.3-.7-.3-.7-.3q-.35 0-.35-.35v-.3q0-.35.35-.35zm5.65-.65v.3q0 .35.35.35h.3q.35 0 .35.35v.3.7.3q0 .35.35.35h.3.7.3q.35 0 .35.35v.3q0 .35-.35.35h-.3q-.35 0-.35.35v.3q0 .35-.35.35h-.3q-.35 0-.35-.35v-.3q0-.35-.35-.35h-.3q-.35 0-.35.35v.3.7.3q0 .35.35.35h.3.7.3q.35 0 .35.35v.3q0 .35.35.35h.3q.35 0 .35-.35v-.3-.7-.3q0-.35.35-.35h.3q.35 0 .35-.35v-.3-.7-.3-.7-.3q0-.35.35-.35h.3q.35 0 .35.35v.3q0 .35.35.35h.3q.35 0 .35-.35v-.3q0-.35-.35-.35h-.3q-.35 0-.35-.35v-.3-.7-.3q0-.35-.35-.35h-.3-.7-.3-.7-.3-.7-.3-.7-.3q-.35 0-.35.35z"/><path d="m10.35 16h.3q.35 0 .35.35v.3q0 .35-.35.35h-.3q-.35 0-.35-.35v-.3q0-.35.35-.35z"/><path d="m12.35 6h.3q.35 0 .35.35v.3q0 .35.35.35h.3q.35 0 .35.35v.3.7.3.7.3q0 .35-.35.35h-.3q-.35 0-.35.35v.3.7.3q0 .35-.35.35h-.3q-.35 0-.35-.35v-.3-.7-.3-.7-.3-.7-.3-.7-.3-.7-.3q0-.35.35-.35z"/><path d="m12.35 13h.3q.35 0 .35.35v.3q0 .35-.35.35h-.3q-.35 0-.35-.35v-.3q0-.35.35-.35z"/><path d="m12.35 31h.3q.35 0 .35.35v.3q0 .35.35.35h.3q.35 0 .35-.35v-.3q0-.35.35-.35h.3q.35 0 .35.35v.3.7.3q0 .35.35.35h.3q.35 0 .35.35v.3.7.3.7.3q0 .35-.35.35h-.3q-.35 0-.35-.35v-.3q0-.35-.35-.35h-.3q-.35 0-.35.35v.3q0 .35-.35.35h-.3q-.35 0-.35-.35v-.3q0-.35-.35-.35h-.3q-.35 0-.35-.35v-.3-.7-.3-.7-.3-.7-.3q0-.35.35-.35zm.65 2.35v.3q0 .35.35.35h.3q.35 0 .35-.35v-.3q0-.35-.35-.35h-.3q-.35 0-.35.35z"/><path d="m12.35 36h.3q.35 0 .35.35v.3q0 .35-.35.35h-.3q-.35 0-.35-.35v-.3q0-.35.35-.35z"/><path d="m13.35 5h.3.7.3q.35 0 .35-.35v-.3q0-.35.35-.35h.3.7.3.7.3q.35 0 .35.35v.3q0 .35.35.35h.3.7.3.7.3q.35 0 .35-.35v-.3q0-.35.35-.35h.3.7.3.7.3.7.3.7.3q.35 0 .35.35v.3q0 .35.35.35h.3q.35 0 .35.35v.3q0 .35-.35.35h-.3q-.35 0-.35.35v.3q0 .35-.35.35h-.3q-.35 0-.35-.35v-.3q0-.35-.35-.35h-.3q-.35 0-.35-.35v-.3q0-.35-.35-.35h-.3-.7-.3q-.35 0-.35.35v.3q0 .35-.35.35h-.3q-.35 0-.35.35v.3q0 .35.35.35h.3q.35 0 .35.35v.3q0 .35.35.35h.3.7.3q.35 0 .35.35v.3q0 .35-.35.35h-.3-.7-.3q-.35 0-.35.35v.3q0 .35-.35.35h-.3q-.35 0-.35.35v.3q0 .35-.35.35h-.3q-.35 0-.35-.35v-.3q0-.35-.35-.35h-.3q-.35 0-.35.35v.3q0 .35.35.35h.3q.35 0 .35.35v.3.7.3q0 .35-.35.35h-.3-.7-.3-.7-.3q-.35 0-.35-.35v-.3q0-.35.35-.35h.3q.35 0 .35-.35v-.3-.7-.3q0-.35-.35-.35h-.3q-.35 0-.35-.35v-.3-.7-.3q0-.35.35-.35h.3q.35 0 .35.35v.3q0 .35.35.35h.3q.35 0 .35-.35v-.3q0-.35-.35-.35h-.3q-.35 0-.35-.35v-.3q0-.35.35-.35h.3q.35 0 .35-.35v-.3q0-.35-.35-.35h-.3q-.35 0-.35.35v.3q0 .35-.35.35h-.3q-.35 0-.35-.35v-.3q0-.35-.35-.35h-.3-.7-.3-.7-.3-.7-.3q-.35 0-.35-.35v-.3q0-.35.35-.35zm6.65 3.35v.3q0 .35.35.35h.3q.35 0 .35-.35v-.3q0-.35-.35-.35h-.3q-.35 0-.35.35z"/><path d="m14.35 10h.3q.35 0 .35.35v.3q0 .35.35.35h.3q.35 0 .35.35v.3q0 .35-.35.35h-.3q-.35 0-.35.35v.3q0 .35-.35.35h-.3q-.35 0-.35-.35v-.3-.7-.3-.7-.3q0-.35.35-.35z"/><path d="m14.35 18h.3q.35 0 .35.35v.3q0 .35-.35.35h-.3q-.35 0-.35-.35v-.3q0-.35.35-.35z"/><path d="m14.35 36h.3q.35 0 .35.35v.3q0 .35-.35.35h-.3q-.35 0-.35-.35v-.3q0-.35.35-.35z"/><path d="m15.35 8h.3q.35 0 .35.35v.3.7.3q0 .35-.35.35h-.3q-.35 0-.35-.35v-.3-.7-.3q0-.35.35-.35z"/><path d="m15.35 19h.3q.35 0 .35.35v.3q0 .35-.35.35h-.3q-.35 0-.35-.35v-.3q0-.35.35-.35z"/><path d="m16.35 7h.3q.35 0 .35.35v.3q0 .35-.35.35h-.3q-.35 0-.35-.35v-.3q0-.35.35-.35z"/><path d="m16.35 10h.3q.35 0 .35.35v.3q0 .35-.35.35h-.3q-.35 0-.35-.35v-.3q0-.35.35-.35z"/><path d="m16.35 20h.3q.35 0 .35.35v.3q0 .35-.35.35h-.3q-.35 0-.35-.35v-.3q0-.35.35-.35z"/><path d="m16.35 36h.3q.35 0 .35.35v.3q0 .35-.35.35h-.3q-.35 0-.35-.35v-.3q0-.35.35-.35z"/><path d="m17.35 35h.3q.35 0 .35.35v.3q0 .35-.35.35h-.3q-.35 0-.35-.35v-.3q0-.35.35-.35z"/><path d="m18.35 15h.3q.35 0 .35.35v.3q0 .35-.35.35h-.3q-.35 0-.35-.35v-.3q0-.35.35-.35z"/><path d="m18.35 17h.3q.35 0 .35-.35v-.3q0-.35.35-.35h.3q.35 0 .35.35v.3q0 .35.35.35h.3q.35 0 .35-.35v-.3q0-.35.35-.35h.3q.35 0 .35.35v.3.7.3q0 .35-.35.35h-.3-.7-.3-.7-.3q-.35 0-.35.35v.3q0 .35-.35.35h-.3q-.35 0-.35-.35v-.3-.7-.3q0-.35.35-.35z"/><path d="m18.35 20h.3q.35 0 .35.35v.3q0 .35-.35.35h-.3q-.35 0-.35-.35v-.3q0-.35.35-.35z"/><path d="m18.35 36h.3q.35 0 .35.35v.3q0 .35-.35.35h-.3q-.35 0-.35-.35v-.3q0-.35.35-.35z"/><path d="m19.35 14h.3q.35 0 .35.35v.3q0 .35-.35.35h-.3q-.35 0-.35-.35v-.3q0-.35.35-.35z"/><path d="m20.35 13h.3q.35 0 .35.35v.3q0 .35-.35.35h-.3q-.35 0-.35-.35v-.3q0-.35.35-.35z"/><path d="m20.35 29h.3q.35 0 .35.35v.3q0 .35-.35.35h-.3q-.35 0-.35-.35v-.3q0-.35.35-.35z"/><path d="m20.35 35h.3q.35 0 .35.35v.3q0 .35.35.35h.3q.35 0 .35.35v.3q0 .35-.35.35h-.3-.7-.3q-.35 0-.35-.35v-.3-.7-.3q0-.35.35-.35z"/><path d="m21.35 12h.3q.35 0 .35.35v.3q0 .35-.35.35h-.3q-.35 0-.35-.35v-.3q0-.35.35-.35z"/><path d="m21.35 28h.3q.35 0 .35.35v.3q0 .35-.35.35h-.3q-.35 0-.35-.35v-.3q0-.35.35-.35z"/><path d="m21.35 34h.3q.35 0 .35-.35v-.3-.7-.3-.7-.3-.7-.3q0-.35.35-.35h.3q.35 0 .35.35v.3.7.3q0 .35.35.35h.3q.35 0 .35.35v.3q0 .35.35.35h.3.7.3q.35 0 .35.35v.3q0 .35-.35.35h-.3-.7-.3-.7-.3q-.35 0-.35.35v.3q0 .35-.35.35h-.3-.7-.3q-.35 0-.35-.35v-.3q0-.35.35-.35z"/><path d="m22.35 6h.3.7.3q.35 0 .35.35v.3q0 .35-.35.35h-.3-.7-.3q-.35 0-.35-.35v-.3q0-.35.35-.35z"/><path d="m22.35 10h.3q.35 0 .35.35v.3q0 .35-.35.35h-.3q-.35 0-.35-.35v-.3q0-.35.35-.35z"/><path d="m22.35 13h.3.7.3.7.3q.35 0 .35.35v.3q0 .35-.35.35h-.3-.7-.3q-.35 0-.35.35v.3q0 .35-.35.35h-.3q-.35 0-.35-.35v-.3-.7-.3q0-.35.35-.35z"/><path d="m23.35 11h.3q.35 0 .35-.35v-.3-.7-.3q0-.35.35-.35h.3q.35 0 .35.35v.3.7.3q0 .35.35.35h.3q.35 0 .35-.35v-.3-.7-.3q0-.35-.35-.35h-.3q-.35 0-.35-.35v-.3q0-.35.35-.35h.3.7.3q.35 0 .35-.35v-.3-.7-.3q0-.35.35-.35h.3q.35 0 .35.35v.3q0 .35.35.35h.3q.35 0 .35.35v.3q0 .35-.35.35h-.3q-.35 0-.35.35v.3q0 .35-.35.35h-.3q-.35 0-.35.35v.3.7.3.7.3q0 .35.35.35h.3q.35 0 .35-.35v-.3-.7-.3q0-.35.35-.35h.3q.35 0 .35.35v.3.7.3.7.3.7.3q0 .35-.35.35h-.3-.7-.3q-.35 0-.35-.35v-.3q0-.35-.35-.35h-.3q-.35 0-.35-.35v-.3q0-.35-.35-.35h-.3-.7-.3-.7-.3q-.35 0-.35-.35v-.3q0-.35.35-.35z"/><path d="m23.35 15h.3.7.3q.35 0 .35-.35v-.3q0-.35.35-.35h.3.7.3q.35 0 .35.35v.3.7.3q0 .35.35.35h.3q.35 0 .35-.35v-.3q0-.35.35-.35h.3.7.3q.35 0 .35.35v.3.7.3q0 .35-.35.35h-.3-.7-.3q-.35 0-.35.35v.3q0 .35-.35.35h-.3q-.35 0-.35-.35v-.3q0-.35-.35-.35h-.3q-.35 0-.35-.35v-.3q0-.35-.35-.35h-.3-.7-.3q-.35 0-.35.35v.3q0 .35.35.35h.3q.35 0 .35.35v.3q0 .35-.35.35h-.3-.7-.3q-.35 0-.35-.35v-.3-.7-.3-.7-.3q0-.35.35-.35z"/><path d="m23.35 25h.3.7.3q.35 0 .35.35v.3q0 .35-.35.35h-.3-.7-.3q-.35 0-.35-.35v-.3q0-.35.35-.35z"/><path d="m23.35 29h.3.7.3q.35 0 .35.35v.3q0 .35-.35.35h-.3-.7-.3q-.35 0-.35-.35v-.3q0-.35.35-.35z"/><path d="m23.35 35h.3.7.3.7.3q.35 0 .35-.35v-.3q0-.35.35-.35h.3.7.3q.35 0 .35.35v.3.7.3q0 .35.35.35h.3q.35 0 .35.35v.3q0 .35-.35.35h-.3-.7-.3-.7-.3q-.35 0-.35-.35v-.3q0-.35-.35-.35h-.3-.7-.3q-.35 0-.35.35v.3q0 .35-.35.35h-.3q-.35 0-.35-.35v-.3-.7-.3q0-.35.35-.35z"/><path d="m24.35 19h.3.7.3q.35 0 .35-.35v-.3q0-.35.35-.35h.3q.35 0 .35.35v.3q0 .35.35.35h.3q.35 0 .35.35v.3.7.3.7.3q0 .35-.35.35h-.3q-.35 0-.35-.35v-.3q0-.35-.35-.35h-.3q-.35 0-.35-.35v-.3q0-.35-.35-.35h-.3-.7-.3q-.35 0-.35-.35v-.3q0-.35.35-.35z"/><path d="m24.35 22h.3.7.3q.35 0 .35.35v.3q0 .35.35.35h.3q.35 0 .35.35v.3.7.3q0 .35-.35.35h-.3q-.35 0-.35-.35v-.3q0-.35-.35-.35h-.3-.7-.3q-.35 0-.35-.35v-.3-.7-.3q0-.35.35-.35z"/><path d="m24.35 27h.3.7.3q.35 0 .35-.35v-.3q0-.35.35-.35h.3q.35 0 .35.35v.3q0 .35.35.35h.3.7.3q.35 0 .35.35v.3q0 .35.35.35h.3.7.3.7.3.7.3q.35 0 .35.35v.3.7.3.7.3q0 .35.35.35h.3q.35 0 .35-.35v-.3-.7-.3q0-.35.35-.35h.3.7.3q.35 0 .35-.35v-.3q0-.35.35-.35h.3q.35 0 .35.35v.3.7.3q0 .35-.35.35h-.3q-.35 0-.35.35v.3.7.3q0 .35-.35.35h-.3-.7-.3q-.35 0-.35.35v.3q0 .35.35.35h.3.7.3.7.3q.35 0 .35.35v.3q0 .35-.35.35h-.3-.7-.3q-.35 0-.35.35v.3.7.3q0 .35-.35.35h-.3-.7-.3-.7-.3q-.35 0-.35-.35v-.3q0-.35.35-.35h.3.7.3q.35 0 .35-.35v-.3q0-.35-.35-.35h-.3-.7-.3q-.35 0-.35-.35v-.3q0-.35-.35-.35h-.3-.7-.3q-.35 0-.35.35v.3q0 .35-.35.35h-.3-.7-.3q-.35 0-.35-.35v-.3-.7-.3q0-.35-.35-.35h-.3-.7-.3-.7-.3-.7-.3q-.35 0-.35-.35v-.3q0-.35.35-.35h.3q.35 0 .35-.35v-.3q0-.35.35-.35h.3.7.3.7.3q.35 0 .35-.35v-.3-.7-.3q0-.35-.35-.35h-.3q-.35 0-.35.35v.3q0 .35-.35.35h-.3q-.35 0-.35-.35v-.3q0-.35-.35-.35h-.3-.7-.3q-.35 0-.35-.35v-.3q0-.35.35-.35zm4.65 2.35v.3.7.3.7.3q0 .35.35.35h.3.7.3.7.3q.35 0 .35-.35v-.3-.7-.3-.7-.3q0-.35-.35-.35h-.3-.7-.3-.7-.3q-.35 0-.35.35z"/><path d="m27.35 4h.3q.35 0 .35.35v.3q0 .35-.35.35h-.3q-.35 0-.35-.35v-.3q0-.35.35-.35z"/><path d="m27.35 25h.3.7.3q.35 0 .35.35v.3q0 .35-.35.35h-.3-.7-.3q-.35 0-.35-.35v-.3q0-.35.35-.35z"/><path d="m28.35 5h.3q.35 0 .35.35v.3q0 .35-.35.35h-.3q-.35 0-.35-.35v-.3q0-.35.35-.35z"/><path d="m28.35 23h.3.7.3q.35 0 .35.35v.3.7.3q0 .35-.35.35h-.3q-.35 0-.35-.35v-.3q0-.35-.35-.35h-.3q-.35 0-.35-.35v-.3q0-.35.35-.35z"/><path d="m29.35 18h.3q.35 0 .35-.35v-.3q0-.35.35-.35h.3q.35 0 .35.35v.3q0 .35.35.35h.3q.35 0 .35.35v.3q0 .35-.35.35h-.3q-.35 0-.35.35v.3q0 .35-.35.35h-.3q-.35 0-.35.35v.3q0 .35.35.35h.3q.35 0 .35-.35v-.3q0-.35.35-.35h.3.7.3q.35 0 .35.35v.3q0 .35-.35.35h-.3q-.35 0-.35.35v.3q0 .35.35.35h.3q.35 0 .35.35v.3q0 .35.35.35h.3q.35 0 .35-.35v-.3q0-.35-.35-.35h-.3q-.35 0-.35-.35v-.3q0-.35.35-.35h.3.7.3.7.3q.35 0 .35-.35v-.3q0-.35.35-.35h.3q.35 0 .35.35v.3.7.3q0 .35-.35.35h-.3q-.35 0-.35.35v.3q0 .35-.35.35h-.3q-.35 0-.35.35v.3q0 .35-.35.35h-.3q-.35 0-.35.35v.3.7.3.7.3q0 .35.35.35h.3q.35 0 .35.35v.3q0 .35-.35.35h-.3-.7-.3q-.35 0-.35-.35v-.3-.7-.3-.7-.3q0-.35-.35-.35h-.3q-.35 0-.35-.35v-.3q0-.35-.35-.35h-.3q-.35 0-.35-.35v-.3q0-.35-.35-.35h-.3q-.35 0-.35-.35v-.3q0-.35-.35-.35h-.3q-.35 0-.35-.35v-.3-.7-.3-.7-.3-.7-.3q0-.35.35-.35z"/><path d="m29.35 35h.3q.35 0 .35-.35v-.3q0-.35.35-.35h.3.7.3q.35 0 .35.35v.3q0 .35-.35.35h-.3q-.35 0-.35.35v.3q0 .35-.35.35h-.3-.7-.3q-.35 0-.35-.35v-.3q0-.35.35-.35z"/><path d="m30.35 4h.3.7.3.7.3.7.3.7.3.7.3.7.3q.35 0 .35.35v.3.7.3.7.3.7.3.7.3.7.3.7.3q0 .35-.35.35h-.3-.7-.3-.7-.3-.7-.3-.7-.3-.7-.3-.7-.3q-.35 0-.35-.35v-.3-.7-.3-.7-.3-.7-.3-.7-.3-.7-.3-.7-.3q0-.35.35-.35zm.65 1.35v.3.7.3.7.3.7.3.7.3q0 .35.35.35h.3.7.3.7.3.7.3.7.3q.35 0 .35-.35v-.3-.7-.3-.7-.3-.7-.3-.7-.3q0-.35-.35-.35h-.3-.7-.3-.7-.3-.7-.3-.7-.3q-.35 0-.35.35z"/><path d="m30.35 12h.3.7.3.7.3.7.3.7.3q.35 0 .35.35v.3q0 .35.35.35h.3.7.3q.35 0 .35.35v.3q0 .35-.35.35h-.3q-.35 0-.35.35v.3q0 .35-.35.35h-.3q-.35 0-.35.35v.3q0 .35-.35.35h-.3q-.35 0-.35.35v.3q0 .35-.35.35h-.3-.7-.3-.7-.3q-.35 0-.35-.35v-.3q0-.35.35-.35h.3q.35 0 .35-.35v-.3-.7-.3q0-.35.35-.35h.3q.35 0 .35.35v.3q0 .35.35.35h.3q.35 0 .35-.35v-.3q0-.35-.35-.35h-.3q-.35 0-.35-.35v-.3q0-.35-.35-.35h-.3q-.35 0-.35.35v.3q0 .35-.35.35h-.3-.7-.3q-.35 0-.35-.35v-.3-.7-.3q0-.35.35-.35z"/><path d="m30.35 25h.3q.35 0 .35.35v.3q0 .35-.35.35h-.3q-.35 0-.35-.35v-.3q0-.35.35-.35z"/><path d="m30.35 30h.3q.35 0 .35.35v.3q0 .35-.35.35h-.3q-.35 0-.35-.35v-.3q0-.35.35-.35z"/><path d="m31.35 36h.3q.35 0 .35.35v.3q0 .35-.35.35h-.3q-.35 0-.35-.35v-.3q0-.35.35-.35z"/><path d="m32.35 6h.3.7.3.7.3q.35 0 .35.35v.3.7.3.7.3q0 .35-.35.35h-.3-.7-.3-.7-.3q-.35 0-.35-.35v-.3-.7-.3-.7-.3q0-.35.35-.35z"/><path d="m33.35 18h.3q.35 0 .35.35v.3q0 .35-.35.35h-.3q-.35 0-.35-.35v-.3q0-.35.35-.35z"/><path d="m34.35 17h.3.7.3.7.3q.35 0 .35.35v.3q0 .35-.35.35h-.3q-.35 0-.35.35v.3q0 .35-.35.35h-.3q-.35 0-.35-.35v-.3q0-.35-.35-.35h-.3q-.35 0-.35-.35v-.3q0-.35.35-.35z"/><path d="m34.35 19h.3q.35 0 .35.35v.3q0 .35-.35.35h-.3q-.35 0-.35-.35v-.3q0-.35.35-.35z"/><path d="m35.35 26h.3q.35 0 .35.35v.3q0 .35-.35.35h-.3q-.35 0-.35-.35v-.3q0-.35.35-.35z"/><path d="m35.35 36h.3q.35 0 .35.35v.3q0 .35-.35.35h-.3q-.35 0-.35-.35v-.3q0-.35.35-.35z"/><path d="m36.35 25h.3q.35 0 .35.35v.3q0 .35-.35.35h-.3q-.35 0-.35-.35v-.3q0-.35.35-.35z"/></svg>