<?xml version="1.0" standalone="no"?><!DOCTYPE svg PUBLIC "-//W3C//DTD SVG 1.1//EN" "http://www.w3.org/Graphics/SVG/1.1/DTD/svg11.dtd" [<!ENTITY nbsp "&#160;">]><svg viewBox="0 0 41 41" preserveAspectRatio="none" xmlns="http://www.w3.org/2000/svg" version="1.1" xmlns:xlink="http://www.w3.org/1999/xlink" width="500" height="500"><defs><style type="text/css"><![CDATA[

]]></style></defs>
        
        <path d="M 4.35 4 L 4.65 4 L 5.35 4 L 5.65 4 L 6.35 4 L 6.65 4 L 7.35 4 L 7.65 4 L 8.35 4 L 8.65 4 L 9.35 4 L 9.65 4 L 10.35 4 L 10.65 4 Q 11 4 11 4.35 L 11 4.65 L 11 5.35 L 11 5.65 L 11 6.35 L 11 6.65 L 11 7.35 L 11 7.65 L 11 8.35 L 11 8.65 L 11 9.35 L 11 9.65 L 11 10.35 L 11 10.65 Q 11 11 10.65 11 L 10.35 11 L 9.65 11 L 9.35 11 L 8.65 11 L 8.35 11 L 7.65 11 L 7.35 11 L 6.65 11 L 6.35 11 L 5.65 11 L 5.35 11 L 4.65 11 L 4.35 11 Q 4 11 4 10.65 L 4 10.35 L 4 9.65 L 4 9.35 L 4 8.65 L 4 8.35 L 4 7.65 L 4 7.35 L 4 6.65 L 4 6.35 L 4 5.65 L 4 5.35 L 4 4.65 L 4 4.35 Q 4 4 4.35 4 Z M 5 5.35 L 5 5.65 L 5 6.35 L 5 6.65 L 5 7.35 L 5 7.65 L 5 8.35 L 5 8.65 L 5 9.35 L 5 9.65 Q 5 10 5.35 10 L 5.65 10 L 6.35 10 L 6.65 10 L 7.35 10 L 7.65 10 L 8.35 10 L 8.65 10 L 9.35 10 L 9.65 10 Q 10 10 10 9.65 L 10 9.35 L 10 8.65 L 10 8.35 L 10 7.65 L 10 7.35 L 10 6.65 L 10 6.35 L 10 5.65 L 10 5.35 Q 10 5 9.65 5 L 9.35 5 L 8.65 5 L 8.35 5 L 7.65 5 L 7.35 5 L 6.65 5 L 6.35 5 L 5.65 5 L 5.35 5 Q 5 5 5 5.35 Z" fill="#000000"></path>
<path d="M 4.35 12 L 4.65 12 Q 5 12 5 12.35 L 5 12.65 L 5 13.35 L 5 13.65 Q 5 14 5.35 14 L 5.65 14 Q 6 14 6 14.35 L 6 14.65 Q 6 15 5.65 15 L 5.35 15 L 4.65 15 L 4.35 15 Q 4 15 4 14.65 L 4 14.35 L 4 13.65 L 4 13.35 L 4 12.65 L 4 12.35 Q 4 12 4.35 12 Z" fill="#000000"></path>
<path d="M 4.35 19 L 4.65 19 Q 5 19 5 19.35 L 5 19.65 L 5 20.35 L 5 20.65 Q 5 21 5.35 21 L 5.65 21 Q 6 21 6 21.35 L 6 21.65 Q 6 22 6.35 22 L 6.65 22 Q 7 22 7 22.35 L 7 22.65 Q 7 23 6.65 23 L 6.35 23 Q 6 23 6 23.35 L 6 23.65 Q 6 24 5.65 24 L 5.35 24 Q 5 24 5 23.65 L 5 23.35 Q 5 23 4.65 23 L 4.35 23 Q 4 23 4 22.65 L 4 22.35 L 4 21.65 L 4 21.35 L 4 20.65 L 4 20.35 L 4 19.65 L 4 19.35 Q 4 19 4.35 19 Z" fill="#000000"></path>
<path d="M 4.35 24 L 4.65 24 Q 5 24 5 24.35 L 5 24.65 L 5 25.35 L 5 25.65 L 5 26.35 L 5 26.65 L 5 27.35 L 5 27.65 L 5 28.35 L 5 28.65 Q 5 29 4.65 29 L 4.35 29 Q 4 29 4 28.65 L 4 28.35 L 4 27.65 L 4 27.35 L 4 26.65 L 4 26.35 L 4 25.65 L 4 25.35 L 4 24.65 L 4 24.35 Q 4 24 4.35 24 Z" fill="#000000"></path>
<path d="M 4.35 30 L 4.65 30 L 5.35 30 L 5.65 30 L 6.35 30 L 6.65 30 L 7.35 30 L 7.65 30 L 8.35 30 L 8.65 30 L 9.35 30 L 9.65 30 L 10.35 30 L 10.65 30 Q 11 30 11 30.35 L 11 30.65 L 11 31.35 L 11 31.65 L 11 32.35 L 11 32.65 L 11 33.35 L 11 33.65 L 11 34.35 L 11 34.65 L 11 35.35 L 11 35.65 L 11 36.35 L 11 36.65 Q 11 37 10.65 37 L 10.35 37 L 9.65 37 L 9.35 37 L 8.65 37 L 8.35 37 L 7.65 37 L 7.35 37 L 6.65 37 L 6.35 37 L 5.65 37 L 5.35 37 L 4.65 37 L 4.35 37 Q 4 37 4 36.65 L 4 36.35 L 4 35.65 L 4 35.35 L 4 34.65 L 4 34.35 L 4 33.65 L 4 33.35 L 4 32.65 L 4 32.35 L 4 31.65 L 4 31.35 L 4 30.65 L 4 30.35 Q 4 30 4.35 30 Z M 5 31.35 L 5 31.65 L 5 32.35 L 5 32.65 L 5 33.35 L 5 33.65 L 5 34.35 L 5 34.65 L 5 35.35 L 5 35.65 Q 5 36 5.35 36 L 5.65 36 L 6.35 36 L 6.65 36 L 7.35 36 L 7.65 36 L 8.35 36 L 8.65 36 L 9.35 36 L 9.65 36 Q 10 36 10 35.65 L 10 35.35 L 10 34.65 L 10 34.35 L 10 33.65 L 10 33.35 L 10 32.65 L 10 32.35 L 10 31.65 L 10 31.35 Q 10 31 9.65 31 L 9.35 31 L 8.65 31 L 8.35 31 L 7.65 31 L 7.35 31 L 6.65 31 L 6.35 31 L 5.65 31 L 5.35 31 Q 5 31 5 31.35 Z" fill="#000000"></path>
<path d="M 5.35 17 L 5.65 17 Q 6 17 6 17.35 L 6 17.65 Q 6 18 5.65 18 L 5.35 18 Q 5 18 5 17.65 L 5 17.35 Q 5 17 5.35 17 Z" fill="#000000"></path>
<path d="M 6.35 6 L 6.65 6 L 7.35 6 L 7.65 6 L 8.35 6 L 8.65 6 Q 9 6 9 6.35 L 9 6.65 L 9 7.35 L 9 7.65 L 9 8.35 L 9 8.65 Q 9 9 8.65 9 L 8.35 9 L 7.65 9 L 7.35 9 L 6.65 9 L 6.35 9 Q 6 9 6 8.65 L 6 8.35 L 6 7.65 L 6 7.35 L 6 6.65 L 6 6.35 Q 6 6 6.35 6 Z" fill="#000000"></path>
<path d="M 6.35 12 L 6.65 12 L 7.35 12 L 7.65 12 L 8.35 12 L 8.65 12 L 9.35 12 L 9.65 12 L 10.35 12 L 10.65 12 Q 11 12 11 12.35 L 11 12.65 Q 11 13 10.65 13 L 10.35 13 L 9.65 13 L 9.35 13 L 8.65 13 L 8.35 13 L 7.65 13 L 7.35 13 L 6.65 13 L 6.35 13 Q 6 13 6 12.65 L 6 12.35 Q 6 12 6.35 12 Z" fill="#000000"></path>
<path d="M 6.35 16 L 6.65 16 Q 7 16 7 15.65 L 7 15.35 Q 7 15 7.35 15 L 7.65 15 Q 8 15 8 15.35 L 8 15.65 L 8 16.35 L 8 16.65 Q 8 17 7.65 17 L 7.35 17 L 6.65 17 L 6.35 17 Q 6 17 6 16.65 L 6 16.35 Q 6 16 6.35 16 Z" fill="#000000"></path>
<path d="M 6.35 19 L 6.65 19 L 7.35 19 L 7.65 19 Q 8 19 8 19.35 L 8 19.65 Q 8 20 7.65 20 L 7.35 20 Q 7 20 7 20.35 L 7 20.65 Q 7 21 6.65 21 L 6.35 21 Q 6 21 6 20.65 L 6 20.35 L 6 19.65 L 6 19.35 Q 6 19 6.35 19 Z" fill="#000000"></path>
<path d="M 6.35 25 L 6.65 25 Q 7 25 7 25.35 L 7 25.65 Q 7 26 7.35 26 L 7.65 26 Q 8 26 8 26.35 L 8 26.65 Q 8 27 8.35 27 L 8.65 27 Q 9 27 9 27.35 L 9 27.65 L 9 28.35 L 9 28.65 Q 9 29 8.65 29 L 8.35 29 Q 8 29 8 28.65 L 8 28.35 Q 8 28 7.65 28 L 7.35 28 L 6.65 28 L 6.35 28 Q 6 28 6 27.65 L 6 27.35 L 6 26.65 L 6 26.35 L 6 25.65 L 6 25.35 Q 6 25 6.35 25 Z" fill="#000000"></path>
<path d="M 6.35 32 L 6.65 32 L 7.35 32 L 7.65 32 L 8.35 32 L 8.65 32 Q 9 32 9 32.35 L 9 32.65 L 9 33.35 L 9 33.65 L 9 34.35 L 9 34.65 Q 9 35 8.65 35 L 8.35 35 L 7.65 35 L 7.35 35 L 6.65 35 L 6.35 35 Q 6 35 6 34.65 L 6 34.35 L 6 33.65 L 6 33.35 L 6 32.65 L 6 32.35 Q 6 32 6.35 32 Z" fill="#000000"></path>
<path d="M 7.35 21 L 7.65 21 Q 8 21 8 21.35 L 8 21.65 Q 8 22 7.65 22 L 7.35 22 Q 7 22 7 21.65 L 7 21.35 Q 7 21 7.35 21 Z" fill="#000000"></path>
<path d="M 7.35 24 L 7.65 24 Q 8 24 8 24.35 L 8 24.65 Q 8 25 7.65 25 L 7.35 25 Q 7 25 7 24.65 L 7 24.35 Q 7 24 7.35 24 Z" fill="#000000"></path>
<path d="M 8.35 20 L 8.65 20 L 9.35 20 L 9.65 20 L 10.35 20 L 10.65 20 Q 11 20 11 20.35 L 11 20.65 Q 11 21 10.65 21 L 10.35 21 Q 10 21 10 21.35 L 10 21.65 Q 10 22 10.35 22 L 10.65 22 Q 11 22 11 22.35 L 11 22.65 Q 11 23 10.65 23 L 10.35 23 L 9.65 23 L 9.35 23 Q 9 23 9 23.35 L 9 23.65 Q 9 24 8.65 24 L 8.35 24 Q 8 24 8 23.65 L 8 23.35 L 8 22.65 L 8 22.35 Q 8 22 8.35 22 L 8.65 22 Q 9 22 9 21.65 L 9 21.35 Q 9 21 8.65 21 L 8.35 21 Q 8 21 8 20.65 L 8 20.35 Q 8 20 8.35 20 Z" fill="#000000"></path>
<path d="M 9.35 15 L 9.65 15 Q 10 15 10 15.35 L 10 15.65 Q 10 16 9.65 16 L 9.35 16 Q 9 16 9 15.65 L 9 15.35 Q 9 15 9.35 15 Z" fill="#000000"></path>
<path d="M 9.35 18 L 9.65 18 L 10.35 18 L 10.65 18 Q 11 18 11 18.35 L 11 18.65 Q 11 19 10.65 19 L 10.35 19 L 9.65 19 L 9.35 19 Q 9 19 9 18.65 L 9 18.35 Q 9 18 9.35 18 Z" fill="#000000"></path>
<path d="M 9.35 24 L 9.65 24 L 10.35 24 L 10.65 24 Q 11 24 11 23.65 L 11 23.35 Q 11 23 11.35 23 L 11.65 23 L 12.35 23 L 12.65 23 Q 13 23 13 22.65 L 13 22.35 L 13 21.65 L 13 21.35 Q 13 21 12.65 21 L 12.35 21 Q 12 21 12 20.65 L 12 20.35 Q 12 20 11.65 20 L 11.35 20 Q 11 20 11 19.65 L 11 19.35 Q 11 19 11.35 19 L 11.65 19 Q 12 19 12 18.65 L 12 18.35 L 12 17.65 L 12 17.35 L 12 16.65 L 12 16.35 Q 12 16 11.65 16 L 11.35 16 Q 11 16 11 15.65 L 11 15.35 Q 11 15 10.65 15 L 10.35 15 Q 10 15 10 14.65 L 10 14.35 Q 10 14 10.35 14 L 10.65 14 L 11.35 14 L 11.65 14 Q 12 14 12 14.35 L 12 14.65 Q 12 15 12.35 15 L 12.65 15 Q 13 15 13 14.65 L 13 14.35 Q 13 14 13.35 14 L 13.65 14 L 14.35 14 L 14.65 14 L 15.35 14 L 15.65 14 L 16.35 14 L 16.65 14 Q 17 14 17 14.35 L 17 14.65 Q 17 15 16.65 15 L 16.35 15 Q 16 15 16 15.35 L 16 15.65 Q 16 16 16.35 16 L 16.65 16 Q 17 16 17 16.35 L 17 16.65 L 17 17.35 L 17 17.65 Q 17 18 16.65 18 L 16.35 18 Q 16 18 16 17.65 L 16 17.35 Q 16 17 15.65 17 L 15.35 17 Q 15 17 15 16.65 L 15 16.35 Q 15 16 14.65 16 L 14.35 16 L 13.65 16 L 13.35 16 Q 13 16 13 16.35 L 13 16.65 Q 13 17 13.35 17 L 13.65 17 Q 14 17 14 17.35 L 14 17.65 Q 14 18 13.65 18 L 13.35 18 Q 13 18 13 18.35 L 13 18.65 L 13 19.35 L 13 19.65 Q 13 20 13.35 20 L 13.65 20 L 14.35 20 L 14.65 20 Q 15 20 15 20.35 L 15 20.65 L 15 21.35 L 15 21.65 Q 15 22 15.35 22 L 15.65 22 L 16.35 22 L 16.65 22 L 17.35 22 L 17.65 22 L 18.35 22 L 18.65 22 L 19.35 22 L 19.65 22 Q 20 22 20 21.65 L 20 21.35 L 20 20.65 L 20 20.35 L 20 19.65 L 20 19.35 Q 20 19 20.35 19 L 20.65 19 Q 21 19 21 19.35 L 21 19.65 Q 21 20 21.35 20 L 21.65 20 L 22.35 20 L 22.65 20 L 23.35 20 L 23.65 20 Q 24 20 24 20.35 L 24 20.65 L 24 21.35 L 24 21.65 Q 24 22 23.65 22 L 23.35 22 Q 23 22 23 22.35 L 23 22.65 L 23 23.35 L 23 23.65 Q 23 24 22.65 24 L 22.35 24 Q 22 24 22 23.65 L 22 23.35 L 22 22.65 L 22 22.35 L 22 21.65 L 22 21.35 Q 22 21 21.65 21 L 21.35 21 Q 21 21 21 21.35 L 21 21.65 L 21 22.35 L 21 22.65 L 21 23.35 L 21 23.65 Q 21 24 21.35 24 L 21.65 24 Q 22 24 22 24.35 L 22 24.65 L 22 25.35 L 22 25.65 L 22 26.35 L 22 26.65 Q 22 27 21.65 27 L 21.35 27 L 20.65 27 L 20.35 27 Q 20 27 20 27.35 L 20 27.65 L 20 28.35 L 20 28.65 Q 20 29 19.65 29 L 19.35 29 Q 19 29 19 29.35 L 19 29.65 Q 19 30 19.35 30 L 19.65 30 Q 20 30 20 30.35 L 20 30.65 Q 20 31 20.35 31 L 20.65 31 Q 21 31 21 31.35 L 21 31.65 Q 21 32 20.65 32 L 20.35 32 Q 20 32 20 32.35 L 20 32.65 Q 20 33 20.35 33 L 20.65 33 Q 21 33 21 33.35 L 21 33.65 Q 21 34 20.65 34 L 20.35 34 L 19.65 34 L 19.35 34 L 18.65 34 L 18.35 34 L 17.65 34 L 17.35 34 Q 17 34 17 33.65 L 17 33.35 Q 17 33 17.35 33 L 17.65 33 Q 18 33 18 32.65 L 18 32.35 Q 18 32 17.65 32 L 17.35 32 Q 17 32 17 32.35 L 17 32.65 Q 17 33 16.65 33 L 16.35 33 Q 16 33 16 32.65 L 16 32.35 L 16 31.65 L 16 31.35 L 16 30.65 L 16 30.35 Q 16 30 15.65 30 L 15.35 30 L 14.65 30 L 14.35 30 Q 14 30 14 30.35 L 14 30.65 Q 14 31 13.65 31 L 13.35 31 Q 13 31 13 30.65 L 13 30.35 Q 13 30 12.65 30 L 12.35 30 Q 12 30 12 29.65 L 12 29.35 Q 12 29 11.65 29 L 11.35 29 L 10.65 29 L 10.35 29 Q 10 29 10 28.65 L 10 28.35 Q 10 28 10.35 28 L 10.65 28 Q 11 28 11 27.65 L 11 27.35 Q 11 27 10.65 27 L 10.35 27 Q 10 27 10 26.65 L 10 26.35 Q 10 26 10.35 26 L 10.65 26 L 11.35 26 L 11.65 26 Q 12 26 12 26.35 L 12 26.65 Q 12 27 12.35 27 L 12.65 27 Q 13 27 13 27.35 L 13 27.65 Q 13 28 13.35 28 L 13.65 28 Q 14 28 14 27.65 L 14 27.35 L 14 26.65 L 14 26.35 Q 14 26 14.35 26 L 14.65 26 Q 15 26 15 25.65 L 15 25.35 Q 15 25 14.65 25 L 14.35 25 Q 14 25 14 24.65 L 14 24.35 Q 14 24 13.65 24 L 13.35 24 Q 13 24 13 24.35 L 13 24.65 Q 13 25 13.35 25 L 13.65 25 Q 14 25 14 25.35 L 14 25.65 Q 14 26 13.65 26 L 13.35 26 L 12.65 26 L 12.35 26 Q 12 26 12 25.65 L 12 25.35 Q 12 25 11.65 25 L 11.35 25 L 10.65 25 L 10.35 25 L 9.65 25 L 9.35 25 Q 9 25 9 24.65 L 9 24.35 Q 9 24 9.35 24 Z M 15 23.35 L 15 23.65 Q 15 24 15.35 24 L 15.65 24 Q 16 24 16 24.35 L 16 24.65 L 16 25.35 L 16 25.65 Q 16 26 16.35 26 L 16.65 26 L 17.35 26 L 17.65 26 Q 18 26 18 26.35 L 18 26.65 Q 18 27 17.65 27 L 17.35 27 Q 17 27 17 27.35 L 17 27.65 Q 17 28 16.65 28 L 16.35 28 Q 16 28 16 27.65 L 16 27.35 Q 16 27 15.65 27 L 15.35 27 Q 15 27 15 27.35 L 15 27.65 L 15 28.35 L 15 28.65 Q 15 29 15.35 29 L 15.65 29 L 16.35 29 L 16.65 29 Q 17 29 17 29.35 L 17 29.65 Q 17 30 17.35 30 L 17.65 30 Q 18 30 18 29.65 L 18 29.35 L 18 28.65 L 18 28.35 Q 18 28 18.35 28 L 18.65 28 Q 19 28 19 27.65 L 19 27.35 L 19 26.65 L 19 26.35 L 19 25.65 L 19 25.35 Q 19 25 19.35 25 L 19.65 25 Q 20 25 20 25.35 L 20 25.65 Q 20 26 20.35 26 L 20.65 26 Q 21 26 21 25.65 L 21 25.35 Q 21 25 20.65 25 L 20.35 25 Q 20 25 20 24.65 L 20 24.35 L 20 23.65 L 20 23.35 Q 20 23 19.65 23 L 19.35 23 L 18.65 23 L 18.35 23 L 17.65 23 L 17.35 23 L 16.65 23 L 16.35 23 L 15.65 23 L 15.35 23 Q 15 23 15 23.35 Z" fill="#000000"></path>
<path d="M 10.35 16 L 10.65 16 Q 11 16 11 16.35 L 11 16.65 Q 11 17 10.65 17 L 10.35 17 Q 10 17 10 16.65 L 10 16.35 Q 10 16 10.35 16 Z" fill="#000000"></path>
<path d="M 12.35 6 L 12.65 6 Q 13 6 13 6.35 L 13 6.65 Q 13 7 13.35 7 L 13.65 7 Q 14 7 14 7.35 L 14 7.65 L 14 8.35 L 14 8.65 L 14 9.35 L 14 9.65 Q 14 10 13.65 10 L 13.35 10 Q 13 10 13 10.35 L 13 10.65 L 13 11.35 L 13 11.65 Q 13 12 12.65 12 L 12.35 12 Q 12 12 12 11.65 L 12 11.35 L 12 10.65 L 12 10.35 L 12 9.65 L 12 9.35 L 12 8.65 L 12 8.35 L 12 7.65 L 12 7.35 L 12 6.65 L 12 6.35 Q 12 6 12.35 6 Z" fill="#000000"></path>
<path d="M 12.35 13 L 12.65 13 Q 13 13 13 13.35 L 13 13.65 Q 13 14 12.65 14 L 12.35 14 Q 12 14 12 13.65 L 12 13.35 Q 12 13 12.35 13 Z" fill="#000000"></path>
<path d="M 12.35 31 L 12.65 31 Q 13 31 13 31.35 L 13 31.65 Q 13 32 13.35 32 L 13.65 32 Q 14 32 14 31.65 L 14 31.35 Q 14 31 14.35 31 L 14.65 31 Q 15 31 15 31.35 L 15 31.65 L 15 32.35 L 15 32.65 Q 15 33 15.35 33 L 15.65 33 Q 16 33 16 33.35 L 16 33.65 L 16 34.35 L 16 34.65 L 16 35.35 L 16 35.65 Q 16 36 15.65 36 L 15.35 36 Q 15 36 15 35.65 L 15 35.35 Q 15 35 14.65 35 L 14.35 35 Q 14 35 14 35.35 L 14 35.65 Q 14 36 13.65 36 L 13.35 36 Q 13 36 13 35.65 L 13 35.35 Q 13 35 12.65 35 L 12.35 35 Q 12 35 12 34.65 L 12 34.35 L 12 33.65 L 12 33.35 L 12 32.65 L 12 32.35 L 12 31.65 L 12 31.35 Q 12 31 12.35 31 Z M 13 33.35 L 13 33.65 Q 13 34 13.35 34 L 13.65 34 Q 14 34 14 33.65 L 14 33.35 Q 14 33 13.65 33 L 13.35 33 Q 13 33 13 33.35 Z" fill="#000000"></path>
<path d="M 12.35 36 L 12.65 36 Q 13 36 13 36.35 L 13 36.65 Q 13 37 12.65 37 L 12.35 37 Q 12 37 12 36.65 L 12 36.35 Q 12 36 12.35 36 Z" fill="#000000"></path>
<path d="M 13.35 5 L 13.65 5 L 14.35 5 L 14.65 5 Q 15 5 15 4.65 L 15 4.35 Q 15 4 15.35 4 L 15.65 4 L 16.35 4 L 16.65 4 L 17.35 4 L 17.65 4 Q 18 4 18 4.35 L 18 4.65 Q 18 5 18.35 5 L 18.65 5 L 19.35 5 L 19.65 5 L 20.35 5 L 20.65 5 Q 21 5 21 4.65 L 21 4.35 Q 21 4 21.35 4 L 21.65 4 L 22.35 4 L 22.65 4 L 23.35 4 L 23.65 4 L 24.35 4 L 24.65 4 L 25.35 4 L 25.65 4 Q 26 4 26 4.35 L 26 4.65 Q 26 5 26.35 5 L 26.65 5 Q 27 5 27 5.35 L 27 5.65 Q 27 6 26.65 6 L 26.35 6 Q 26 6 26 6.35 L 26 6.65 Q 26 7 25.65 7 L 25.35 7 Q 25 7 25 6.65 L 25 6.35 Q 25 6 24.65 6 L 24.35 6 Q 24 6 24 5.65 L 24 5.35 Q 24 5 23.65 5 L 23.35 5 L 22.65 5 L 22.35 5 Q 22 5 22 5.35 L 22 5.65 Q 22 6 21.65 6 L 21.35 6 Q 21 6 21 6.35 L 21 6.65 Q 21 7 21.35 7 L 21.65 7 Q 22 7 22 7.35 L 22 7.65 Q 22 8 22.35 8 L 22.65 8 L 23.35 8 L 23.65 8 Q 24 8 24 8.35 L 24 8.65 Q 24 9 23.65 9 L 23.35 9 L 22.65 9 L 22.35 9 Q 22 9 22 9.35 L 22 9.65 Q 22 10 21.65 10 L 21.35 10 Q 21 10 21 10.35 L 21 10.65 Q 21 11 20.65 11 L 20.35 11 Q 20 11 20 10.65 L 20 10.35 Q 20 10 19.65 10 L 19.35 10 Q 19 10 19 10.35 L 19 10.65 Q 19 11 19.35 11 L 19.65 11 Q 20 11 20 11.35 L 20 11.65 L 20 12.35 L 20 12.65 Q 20 13 19.65 13 L 19.35 13 L 18.65 13 L 18.35 13 L 17.65 13 L 17.35 13 Q 17 13 17 12.65 L 17 12.35 Q 17 12 17.35 12 L 17.65 12 Q 18 12 18 11.65 L 18 11.35 L 18 10.65 L 18 10.35 Q 18 10 17.65 10 L 17.35 10 Q 17 10 17 9.65 L 17 9.35 L 17 8.65 L 17 8.35 Q 17 8 17.35 8 L 17.65 8 Q 18 8 18 8.35 L 18 8.65 Q 18 9 18.35 9 L 18.65 9 Q 19 9 19 8.65 L 19 8.35 Q 19 8 18.65 8 L 18.35 8 Q 18 8 18 7.65 L 18 7.35 Q 18 7 18.35 7 L 18.65 7 Q 19 7 19 6.65 L 19 6.35 Q 19 6 18.65 6 L 18.35 6 Q 18 6 18 6.35 L 18 6.65 Q 18 7 17.65 7 L 17.35 7 Q 17 7 17 6.65 L 17 6.35 Q 17 6 16.65 6 L 16.35 6 L 15.65 6 L 15.35 6 L 14.65 6 L 14.35 6 L 13.65 6 L 13.35 6 Q 13 6 13 5.65 L 13 5.35 Q 13 5 13.35 5 Z M 20 8.35 L 20 8.65 Q 20 9 20.35 9 L 20.65 9 Q 21 9 21 8.65 L 21 8.35 Q 21 8 20.65 8 L 20.35 8 Q 20 8 20 8.35 Z" fill="#000000"></path>
<path d="M 14.35 10 L 14.65 10 Q 15 10 15 10.35 L 15 10.65 Q 15 11 15.35 11 L 15.65 11 Q 16 11 16 11.35 L 16 11.65 Q 16 12 15.65 12 L 15.35 12 Q 15 12 15 12.35 L 15 12.65 Q 15 13 14.65 13 L 14.35 13 Q 14 13 14 12.65 L 14 12.35 L 14 11.65 L 14 11.35 L 14 10.65 L 14 10.35 Q 14 10 14.35 10 Z" fill="#000000"></path>
<path d="M 14.35 18 L 14.65 18 Q 15 18 15 18.35 L 15 18.65 Q 15 19 14.65 19 L 14.35 19 Q 14 19 14 18.65 L 14 18.35 Q 14 18 14.35 18 Z" fill="#000000"></path>
<path d="M 14.35 36 L 14.65 36 Q 15 36 15 36.35 L 15 36.65 Q 15 37 14.65 37 L 14.35 37 Q 14 37 14 36.65 L 14 36.35 Q 14 36 14.35 36 Z" fill="#000000"></path>
<path d="M 15.35 8 L 15.65 8 Q 16 8 16 8.35 L 16 8.65 L 16 9.35 L 16 9.65 Q 16 10 15.65 10 L 15.35 10 Q 15 10 15 9.65 L 15 9.35 L 15 8.65 L 15 8.35 Q 15 8 15.35 8 Z" fill="#000000"></path>
<path d="M 15.35 19 L 15.65 19 Q 16 19 16 19.35 L 16 19.65 Q 16 20 15.65 20 L 15.35 20 Q 15 20 15 19.65 L 15 19.35 Q 15 19 15.35 19 Z" fill="#000000"></path>
<path d="M 16.35 7 L 16.65 7 Q 17 7 17 7.35 L 17 7.65 Q 17 8 16.65 8 L 16.35 8 Q 16 8 16 7.65 L 16 7.35 Q 16 7 16.35 7 Z" fill="#000000"></path>
<path d="M 16.35 10 L 16.65 10 Q 17 10 17 10.35 L 17 10.65 Q 17 11 16.65 11 L 16.35 11 Q 16 11 16 10.65 L 16 10.35 Q 16 10 16.35 10 Z" fill="#000000"></path>
<path d="M 16.35 20 L 16.65 20 Q 17 20 17 20.35 L 17 20.65 Q 17 21 16.65 21 L 16.35 21 Q 16 21 16 20.65 L 16 20.35 Q 16 20 16.35 20 Z" fill="#000000"></path>
<path d="M 16.35 36 L 16.65 36 Q 17 36 17 36.35 L 17 36.65 Q 17 37 16.65 37 L 16.35 37 Q 16 37 16 36.65 L 16 36.35 Q 16 36 16.35 36 Z" fill="#000000"></path>
<path d="M 17.35 35 L 17.65 35 Q 18 35 18 35.35 L 18 35.65 Q 18 36 17.65 36 L 17.35 36 Q 17 36 17 35.65 L 17 35.35 Q 17 35 17.35 35 Z" fill="#000000"></path>
<path d="M 18.35 15 L 18.65 15 Q 19 15 19 15.35 L 19 15.65 Q 19 16 18.65 16 L 18.35 16 Q 18 16 18 15.65 L 18 15.35 Q 18 15 18.35 15 Z" fill="#000000"></path>
<path d="M 18.35 17 L 18.65 17 Q 19 17 19 16.65 L 19 16.35 Q 19 16 19.35 16 L 19.65 16 Q 20 16 20 16.35 L 20 16.65 Q 20 17 20.35 17 L 20.65 17 Q 21 17 21 16.65 L 21 16.35 Q 21 16 21.35 16 L 21.65 16 Q 22 16 22 16.35 L 22 16.65 L 22 17.35 L 22 17.65 Q 22 18 21.65 18 L 21.35 18 L 20.65 18 L 20.35 18 L 19.65 18 L 19.35 18 Q 19 18 19 18.35 L 19 18.65 Q 19 19 18.65 19 L 18.35 19 Q 18 19 18 18.65 L 18 18.35 L 18 17.65 L 18 17.35 Q 18 17 18.35 17 Z" fill="#000000"></path>
<path d="M 18.35 20 L 18.65 20 Q 19 20 19 20.35 L 19 20.65 Q 19 21 18.65 21 L 18.35 21 Q 18 21 18 20.65 L 18 20.35 Q 18 20 18.35 20 Z" fill="#000000"></path>
<path d="M 18.35 36 L 18.65 36 Q 19 36 19 36.35 L 19 36.65 Q 19 37 18.65 37 L 18.35 37 Q 18 37 18 36.65 L 18 36.35 Q 18 36 18.35 36 Z" fill="#000000"></path>
<path d="M 19.35 14 L 19.65 14 Q 20 14 20 14.35 L 20 14.65 Q 20 15 19.65 15 L 19.35 15 Q 19 15 19 14.65 L 19 14.35 Q 19 14 19.35 14 Z" fill="#000000"></path>
<path d="M 20.35 13 L 20.65 13 Q 21 13 21 13.35 L 21 13.65 Q 21 14 20.65 14 L 20.35 14 Q 20 14 20 13.65 L 20 13.35 Q 20 13 20.35 13 Z" fill="#000000"></path>
<path d="M 20.35 29 L 20.65 29 Q 21 29 21 29.35 L 21 29.65 Q 21 30 20.65 30 L 20.35 30 Q 20 30 20 29.65 L 20 29.35 Q 20 29 20.35 29 Z" fill="#000000"></path>
<path d="M 20.35 35 L 20.65 35 Q 21 35 21 35.35 L 21 35.65 Q 21 36 21.35 36 L 21.65 36 Q 22 36 22 36.35 L 22 36.65 Q 22 37 21.65 37 L 21.35 37 L 20.65 37 L 20.35 37 Q 20 37 20 36.65 L 20 36.35 L 20 35.65 L 20 35.35 Q 20 35 20.35 35 Z" fill="#000000"></path>
<path d="M 21.35 12 L 21.65 12 Q 22 12 22 12.35 L 22 12.65 Q 22 13 21.65 13 L 21.35 13 Q 21 13 21 12.65 L 21 12.35 Q 21 12 21.35 12 Z" fill="#000000"></path>
<path d="M 21.35 28 L 21.65 28 Q 22 28 22 28.35 L 22 28.65 Q 22 29 21.65 29 L 21.35 29 Q 21 29 21 28.65 L 21 28.35 Q 21 28 21.35 28 Z" fill="#000000"></path>
<path d="M 21.35 34 L 21.65 34 Q 22 34 22 33.65 L 22 33.35 L 22 32.65 L 22 32.35 L 22 31.65 L 22 31.35 L 22 30.65 L 22 30.35 Q 22 30 22.35 30 L 22.65 30 Q 23 30 23 30.35 L 23 30.65 L 23 31.35 L 23 31.65 Q 23 32 23.35 32 L 23.65 32 Q 24 32 24 32.35 L 24 32.65 Q 24 33 24.35 33 L 24.65 33 L 25.35 33 L 25.65 33 Q 26 33 26 33.35 L 26 33.65 Q 26 34 25.65 34 L 25.35 34 L 24.65 34 L 24.35 34 L 23.65 34 L 23.35 34 Q 23 34 23 34.35 L 23 34.65 Q 23 35 22.65 35 L 22.35 35 L 21.65 35 L 21.35 35 Q 21 35 21 34.65 L 21 34.35 Q 21 34 21.35 34 Z" fill="#000000"></path>
<path d="M 22.35 6 L 22.65 6 L 23.35 6 L 23.65 6 Q 24 6 24 6.35 L 24 6.65 Q 24 7 23.65 7 L 23.35 7 L 22.65 7 L 22.35 7 Q 22 7 22 6.65 L 22 6.35 Q 22 6 22.35 6 Z" fill="#000000"></path>
<path d="M 22.35 10 L 22.65 10 Q 23 10 23 10.35 L 23 10.65 Q 23 11 22.65 11 L 22.35 11 Q 22 11 22 10.65 L 22 10.35 Q 22 10 22.35 10 Z" fill="#000000"></path>
<path d="M 22.35 13 L 22.65 13 L 23.35 13 L 23.65 13 L 24.35 13 L 24.65 13 Q 25 13 25 13.35 L 25 13.65 Q 25 14 24.65 14 L 24.35 14 L 23.65 14 L 23.35 14 Q 23 14 23 14.35 L 23 14.65 Q 23 15 22.65 15 L 22.35 15 Q 22 15 22 14.65 L 22 14.35 L 22 13.65 L 22 13.35 Q 22 13 22.35 13 Z" fill="#000000"></path>
<path d="M 23.35 11 L 23.65 11 Q 24 11 24 10.65 L 24 10.35 L 24 9.65 L 24 9.35 Q 24 9 24.35 9 L 24.65 9 Q 25 9 25 9.35 L 25 9.65 L 25 10.35 L 25 10.65 Q 25 11 25.35 11 L 25.65 11 Q 26 11 26 10.65 L 26 10.35 L 26 9.65 L 26 9.35 Q 26 9 25.65 9 L 25.35 9 Q 25 9 25 8.65 L 25 8.35 Q 25 8 25.35 8 L 25.65 8 L 26.35 8 L 26.65 8 Q 27 8 27 7.65 L 27 7.35 L 27 6.65 L 27 6.35 Q 27 6 27.35 6 L 27.65 6 Q 28 6 28 6.35 L 28 6.65 Q 28 7 28.35 7 L 28.65 7 Q 29 7 29 7.35 L 29 7.65 Q 29 8 28.65 8 L 28.35 8 Q 28 8 28 8.35 L 28 8.65 Q 28 9 27.65 9 L 27.35 9 Q 27 9 27 9.35 L 27 9.65 L 27 10.35 L 27 10.65 L 27 11.35 L 27 11.65 Q 27 12 27.35 12 L 27.65 12 Q 28 12 28 11.65 L 28 11.35 L 28 10.65 L 28 10.35 Q 28 10 28.35 10 L 28.65 10 Q 29 10 29 10.35 L 29 10.65 L 29 11.35 L 29 11.65 L 29 12.35 L 29 12.65 L 29 13.35 L 29 13.65 Q 29 14 28.65 14 L 28.35 14 L 27.65 14 L 27.35 14 Q 27 14 27 13.65 L 27 13.35 Q 27 13 26.65 13 L 26.35 13 Q 26 13 26 12.65 L 26 12.35 Q 26 12 25.65 12 L 25.35 12 L 24.65 12 L 24.35 12 L 23.65 12 L 23.35 12 Q 23 12 23 11.65 L 23 11.35 Q 23 11 23.35 11 Z" fill="#000000"></path>
<path d="M 23.35 15 L 23.65 15 L 24.35 15 L 24.65 15 Q 25 15 25 14.65 L 25 14.35 Q 25 14 25.35 14 L 25.65 14 L 26.35 14 L 26.65 14 Q 27 14 27 14.35 L 27 14.65 L 27 15.35 L 27 15.65 Q 27 16 27.35 16 L 27.65 16 Q 28 16 28 15.65 L 28 15.35 Q 28 15 28.35 15 L 28.65 15 L 29.35 15 L 29.65 15 Q 30 15 30 15.35 L 30 15.65 L 30 16.35 L 30 16.65 Q 30 17 29.65 17 L 29.35 17 L 28.65 17 L 28.35 17 Q 28 17 28 17.35 L 28 17.65 Q 28 18 27.65 18 L 27.35 18 Q 27 18 27 17.65 L 27 17.35 Q 27 17 26.65 17 L 26.35 17 Q 26 17 26 16.65 L 26 16.35 Q 26 16 25.65 16 L 25.35 16 L 24.65 16 L 24.35 16 Q 24 16 24 16.35 L 24 16.65 Q 24 17 24.35 17 L 24.65 17 Q 25 17 25 17.35 L 25 17.65 Q 25 18 24.65 18 L 24.35 18 L 23.65 18 L 23.35 18 Q 23 18 23 17.65 L 23 17.35 L 23 16.65 L 23 16.35 L 23 15.65 L 23 15.35 Q 23 15 23.35 15 Z" fill="#000000"></path>
<path d="M 23.35 25 L 23.65 25 L 24.35 25 L 24.65 25 Q 25 25 25 25.35 L 25 25.65 Q 25 26 24.65 26 L 24.35 26 L 23.65 26 L 23.35 26 Q 23 26 23 25.65 L 23 25.35 Q 23 25 23.35 25 Z" fill="#000000"></path>
<path d="M 23.35 29 L 23.65 29 L 24.35 29 L 24.65 29 Q 25 29 25 29.35 L 25 29.65 Q 25 30 24.65 30 L 24.35 30 L 23.65 30 L 23.35 30 Q 23 30 23 29.65 L 23 29.35 Q 23 29 23.35 29 Z" fill="#000000"></path>
<path d="M 23.35 35 L 23.65 35 L 24.35 35 L 24.65 35 L 25.35 35 L 25.65 35 Q 26 35 26 34.65 L 26 34.35 Q 26 34 26.35 34 L 26.65 34 L 27.35 34 L 27.65 34 Q 28 34 28 34.35 L 28 34.65 L 28 35.35 L 28 35.65 Q 28 36 28.35 36 L 28.65 36 Q 29 36 29 36.35 L 29 36.65 Q 29 37 28.65 37 L 28.35 37 L 27.65 37 L 27.35 37 L 26.65 37 L 26.35 37 Q 26 37 26 36.65 L 26 36.35 Q 26 36 25.65 36 L 25.35 36 L 24.65 36 L 24.35 36 Q 24 36 24 36.35 L 24 36.65 Q 24 37 23.65 37 L 23.35 37 Q 23 37 23 36.65 L 23 36.35 L 23 35.65 L 23 35.35 Q 23 35 23.35 35 Z" fill="#000000"></path>
<path d="M 24.35 19 L 24.65 19 L 25.35 19 L 25.65 19 Q 26 19 26 18.65 L 26 18.35 Q 26 18 26.35 18 L 26.65 18 Q 27 18 27 18.35 L 27 18.65 Q 27 19 27.35 19 L 27.65 19 Q 28 19 28 19.35 L 28 19.65 L 28 20.35 L 28 20.65 L 28 21.35 L 28 21.65 Q 28 22 27.65 22 L 27.35 22 Q 27 22 27 21.65 L 27 21.35 Q 27 21 26.65 21 L 26.35 21 Q 26 21 26 20.65 L 26 20.35 Q 26 20 25.65 20 L 25.35 20 L 24.65 20 L 24.35 20 Q 24 20 24 19.65 L 24 19.35 Q 24 19 24.35 19 Z" fill="#000000"></path>
<path d="M 24.35 22 L 24.65 22 L 25.35 22 L 25.65 22 Q 26 22 26 22.35 L 26 22.65 Q 26 23 26.35 23 L 26.65 23 Q 27 23 27 23.35 L 27 23.65 L 27 24.35 L 27 24.65 Q 27 25 26.65 25 L 26.35 25 Q 26 25 26 24.65 L 26 24.35 Q 26 24 25.65 24 L 25.35 24 L 24.65 24 L 24.35 24 Q 24 24 24 23.65 L 24 23.35 L 24 22.65 L 24 22.35 Q 24 22 24.35 22 Z" fill="#000000"></path>
<path d="M 24.35 27 L 24.65 27 L 25.35 27 L 25.65 27 Q 26 27 26 26.65 L 26 26.35 Q 26 26 26.35 26 L 26.65 26 Q 27 26 27 26.35 L 27 26.65 Q 27 27 27.35 27 L 27.65 27 L 28.35 27 L 28.65 27 Q 29 27 29 27.35 L 29 27.65 Q 29 28 29.35 28 L 29.65 28 L 30.35 28 L 30.65 28 L 31.35 28 L 31.65 28 L 32.35 28 L 32.65 28 Q 33 28 33 28.35 L 33 28.65 L 33 29.35 L 33 29.65 L 33 30.35 L 33 30.65 Q 33 31 33.35 31 L 33.65 31 Q 34 31 34 30.65 L 34 30.35 L 34 29.65 L 34 29.35 Q 34 29 34.35 29 L 34.65 29 L 35.35 29 L 35.65 29 Q 36 29 36 28.65 L 36 28.35 Q 36 28 36.35 28 L 36.65 28 Q 37 28 37 28.35 L 37 28.65 L 37 29.35 L 37 29.65 Q 37 30 36.65 30 L 36.35 30 Q 36 30 36 30.35 L 36 30.65 L 36 31.35 L 36 31.65 Q 36 32 35.65 32 L 35.35 32 L 34.65 32 L 34.35 32 Q 34 32 34 32.35 L 34 32.65 Q 34 33 34.35 33 L 34.65 33 L 35.35 33 L 35.65 33 L 36.35 33 L 36.65 33 Q 37 33 37 33.35 L 37 33.65 Q 37 34 36.65 34 L 36.35 34 L 35.65 34 L 35.35 34 Q 35 34 35 34.35 L 35 34.65 L 35 35.35 L 35 35.65 Q 35 36 34.65 36 L 34.35 36 L 33.65 36 L 33.35 36 L 32.65 36 L 32.35 36 Q 32 36 32 35.65 L 32 35.35 Q 32 35 32.35 35 L 32.65 35 L 33.35 35 L 33.65 35 Q 34 35 34 34.65 L 34 34.35 Q 34 34 33.65 34 L 33.35 34 L 32.65 34 L 32.35 34 Q 32 34 32 33.65 L 32 33.35 Q 32 33 31.65 33 L 31.35 33 L 30.65 33 L 30.35 33 Q 30 33 30 33.35 L 30 33.65 Q 30 34 29.65 34 L 29.35 34 L 28.65 34 L 28.35 34 Q 28 34 28 33.65 L 28 33.35 L 28 32.65 L 28 32.35 Q 28 32 27.65 32 L 27.35 32 L 26.65 32 L 26.35 32 L 25.65 32 L 25.35 32 L 24.65 32 L 24.35 32 Q 24 32 24 31.65 L 24 31.35 Q 24 31 24.35 31 L 24.65 31 Q 25 31 25 30.65 L 25 30.35 Q 25 30 25.35 30 L 25.65 30 L 26.35 30 L 26.65 30 L 27.35 30 L 27.65 30 Q 28 30 28 29.65 L 28 29.35 L 28 28.65 L 28 28.35 Q 28 28 27.65 28 L 27.35 28 Q 27 28 27 28.35 L 27 28.65 Q 27 29 26.65 29 L 26.35 29 Q 26 29 26 28.65 L 26 28.35 Q 26 28 25.65 28 L 25.35 28 L 24.65 28 L 24.35 28 Q 24 28 24 27.65 L 24 27.35 Q 24 27 24.35 27 Z M 29 29.35 L 29 29.65 L 29 30.35 L 29 30.65 L 29 31.35 L 29 31.65 Q 29 32 29.35 32 L 29.65 32 L 30.35 32 L 30.65 32 L 31.35 32 L 31.65 32 Q 32 32 32 31.65 L 32 31.35 L 32 30.65 L 32 30.35 L 32 29.65 L 32 29.35 Q 32 29 31.65 29 L 31.35 29 L 30.65 29 L 30.35 29 L 29.65 29 L 29.35 29 Q 29 29 29 29.35 Z" fill="#000000"></path>
<path d="M 27.35 4 L 27.65 4 Q 28 4 28 4.35 L 28 4.65 Q 28 5 27.65 5 L 27.35 5 Q 27 5 27 4.65 L 27 4.35 Q 27 4 27.35 4 Z" fill="#000000"></path>
<path d="M 27.35 25 L 27.65 25 L 28.35 25 L 28.65 25 Q 29 25 29 25.35 L 29 25.65 Q 29 26 28.65 26 L 28.35 26 L 27.65 26 L 27.35 26 Q 27 26 27 25.65 L 27 25.35 Q 27 25 27.35 25 Z" fill="#000000"></path>
<path d="M 28.35 5 L 28.65 5 Q 29 5 29 5.35 L 29 5.65 Q 29 6 28.65 6 L 28.35 6 Q 28 6 28 5.65 L 28 5.35 Q 28 5 28.35 5 Z" fill="#000000"></path>
<path d="M 28.35 23 L 28.65 23 L 29.35 23 L 29.65 23 Q 30 23 30 23.35 L 30 23.65 L 30 24.35 L 30 24.65 Q 30 25 29.65 25 L 29.35 25 Q 29 25 29 24.65 L 29 24.35 Q 29 24 28.65 24 L 28.35 24 Q 28 24 28 23.65 L 28 23.35 Q 28 23 28.35 23 Z" fill="#000000"></path>
<path d="M 29.35 18 L 29.65 18 Q 30 18 30 17.65 L 30 17.35 Q 30 17 30.35 17 L 30.65 17 Q 31 17 31 17.35 L 31 17.65 Q 31 18 31.35 18 L 31.65 18 Q 32 18 32 18.35 L 32 18.65 Q 32 19 31.65 19 L 31.35 19 Q 31 19 31 19.35 L 31 19.65 Q 31 20 30.65 20 L 30.35 20 Q 30 20 30 20.35 L 30 20.65 Q 30 21 30.35 21 L 30.65 21 Q 31 21 31 20.65 L 31 20.35 Q 31 20 31.35 20 L 31.65 20 L 32.35 20 L 32.65 20 Q 33 20 33 20.35 L 33 20.65 Q 33 21 32.65 21 L 32.35 21 Q 32 21 32 21.35 L 32 21.65 Q 32 22 32.35 22 L 32.65 22 Q 33 22 33 22.35 L 33 22.65 Q 33 23 33.35 23 L 33.65 23 Q 34 23 34 22.65 L 34 22.35 Q 34 22 33.65 22 L 33.35 22 Q 33 22 33 21.65 L 33 21.35 Q 33 21 33.35 21 L 33.65 21 L 34.35 21 L 34.65 21 L 35.35 21 L 35.65 21 Q 36 21 36 20.65 L 36 20.35 Q 36 20 36.35 20 L 36.65 20 Q 37 20 37 20.35 L 37 20.65 L 37 21.35 L 37 21.65 Q 37 22 36.65 22 L 36.35 22 Q 36 22 36 22.35 L 36 22.65 Q 36 23 35.65 23 L 35.35 23 Q 35 23 35 23.35 L 35 23.65 Q 35 24 34.65 24 L 34.35 24 Q 34 24 34 24.35 L 34 24.65 L 34 25.35 L 34 25.65 L 34 26.35 L 34 26.65 Q 34 27 34.35 27 L 34.65 27 Q 35 27 35 27.35 L 35 27.65 Q 35 28 34.65 28 L 34.35 28 L 33.65 28 L 33.35 28 Q 33 28 33 27.65 L 33 27.35 L 33 26.65 L 33 26.35 L 33 25.65 L 33 25.35 Q 33 25 32.65 25 L 32.35 25 Q 32 25 32 24.65 L 32 24.35 Q 32 24 31.65 24 L 31.35 24 Q 31 24 31 23.65 L 31 23.35 Q 31 23 30.65 23 L 30.35 23 Q 30 23 30 22.65 L 30 22.35 Q 30 22 29.65 22 L 29.35 22 Q 29 22 29 21.65 L 29 21.35 L 29 20.65 L 29 20.35 L 29 19.65 L 29 19.35 L 29 18.65 L 29 18.35 Q 29 18 29.35 18 Z" fill="#000000"></path>
<path d="M 29.35 35 L 29.65 35 Q 30 35 30 34.65 L 30 34.35 Q 30 34 30.35 34 L 30.65 34 L 31.35 34 L 31.65 34 Q 32 34 32 34.35 L 32 34.65 Q 32 35 31.65 35 L 31.35 35 Q 31 35 31 35.35 L 31 35.65 Q 31 36 30.65 36 L 30.35 36 L 29.65 36 L 29.35 36 Q 29 36 29 35.65 L 29 35.35 Q 29 35 29.35 35 Z" fill="#000000"></path>
<path d="M 30.35 4 L 30.65 4 L 31.35 4 L 31.65 4 L 32.35 4 L 32.65 4 L 33.35 4 L 33.65 4 L 34.35 4 L 34.65 4 L 35.35 4 L 35.65 4 L 36.35 4 L 36.65 4 Q 37 4 37 4.35 L 37 4.65 L 37 5.35 L 37 5.65 L 37 6.35 L 37 6.65 L 37 7.35 L 37 7.65 L 37 8.35 L 37 8.65 L 37 9.35 L 37 9.65 L 37 10.35 L 37 10.65 Q 37 11 36.65 11 L 36.35 11 L 35.65 11 L 35.35 11 L 34.65 11 L 34.35 11 L 33.65 11 L 33.35 11 L 32.65 11 L 32.35 11 L 31.65 11 L 31.35 11 L 30.65 11 L 30.35 11 Q 30 11 30 10.65 L 30 10.35 L 30 9.65 L 30 9.35 L 30 8.65 L 30 8.35 L 30 7.65 L 30 7.35 L 30 6.65 L 30 6.35 L 30 5.65 L 30 5.35 L 30 4.65 L 30 4.35 Q 30 4 30.35 4 Z M 31 5.35 L 31 5.65 L 31 6.35 L 31 6.65 L 31 7.35 L 31 7.65 L 31 8.35 L 31 8.65 L 31 9.35 L 31 9.65 Q 31 10 31.35 10 L 31.65 10 L 32.35 10 L 32.65 10 L 33.35 10 L 33.65 10 L 34.35 10 L 34.65 10 L 35.35 10 L 35.65 10 Q 36 10 36 9.65 L 36 9.35 L 36 8.65 L 36 8.35 L 36 7.65 L 36 7.35 L 36 6.65 L 36 6.35 L 36 5.65 L 36 5.35 Q 36 5 35.65 5 L 35.35 5 L 34.65 5 L 34.35 5 L 33.65 5 L 33.35 5 L 32.65 5 L 32.35 5 L 31.65 5 L 31.35 5 Q 31 5 31 5.35 Z" fill="#000000"></path>
<path d="M 30.35 12 L 30.65 12 L 31.35 12 L 31.65 12 L 32.35 12 L 32.65 12 L 33.35 12 L 33.65 12 L 34.35 12 L 34.65 12 Q 35 12 35 12.35 L 35 12.65 Q 35 13 35.35 13 L 35.65 13 L 36.35 13 L 36.65 13 Q 37 13 37 13.35 L 37 13.65 Q 37 14 36.65 14 L 36.35 14 Q 36 14 36 14.35 L 36 14.65 Q 36 15 35.65 15 L 35.35 15 Q 35 15 35 15.35 L 35 15.65 Q 35 16 34.65 16 L 34.35 16 Q 34 16 34 16.35 L 34 16.65 Q 34 17 33.65 17 L 33.35 17 L 32.65 17 L 32.35 17 L 31.65 17 L 31.35 17 Q 31 17 31 16.65 L 31 16.35 Q 31 16 31.35 16 L 31.65 16 Q 32 16 32 15.65 L 32 15.35 L 32 14.65 L 32 14.35 Q 32 14 32.35 14 L 32.65 14 Q 33 14 33 14.35 L 33 14.65 Q 33 15 33.35 15 L 33.65 15 Q 34 15 34 14.65 L 34 14.35 Q 34 14 33.65 14 L 33.35 14 Q 33 14 33 13.65 L 33 13.35 Q 33 13 32.65 13 L 32.35 13 Q 32 13 32 13.35 L 32 13.65 Q 32 14 31.65 14 L 31.35 14 L 30.65 14 L 30.35 14 Q 30 14 30 13.65 L 30 13.35 L 30 12.65 L 30 12.35 Q 30 12 30.35 12 Z" fill="#000000"></path>
<path d="M 30.35 25 L 30.65 25 Q 31 25 31 25.35 L 31 25.65 Q 31 26 30.65 26 L 30.35 26 Q 30 26 30 25.65 L 30 25.35 Q 30 25 30.35 25 Z" fill="#000000"></path>
<path d="M 30.35 30 L 30.65 30 Q 31 30 31 30.35 L 31 30.65 Q 31 31 30.65 31 L 30.35 31 Q 30 31 30 30.65 L 30 30.35 Q 30 30 30.35 30 Z" fill="#000000"></path>
<path d="M 31.35 36 L 31.65 36 Q 32 36 32 36.35 L 32 36.65 Q 32 37 31.65 37 L 31.35 37 Q 31 37 31 36.65 L 31 36.35 Q 31 36 31.35 36 Z" fill="#000000"></path>
<path d="M 32.35 6 L 32.65 6 L 33.35 6 L 33.65 6 L 34.35 6 L 34.65 6 Q 35 6 35 6.35 L 35 6.65 L 35 7.35 L 35 7.65 L 35 8.35 L 35 8.65 Q 35 9 34.65 9 L 34.35 9 L 33.65 9 L 33.35 9 L 32.65 9 L 32.35 9 Q 32 9 32 8.65 L 32 8.35 L 32 7.65 L 32 7.35 L 32 6.65 L 32 6.35 Q 32 6 32.35 6 Z" fill="#000000"></path>
<path d="M 33.35 18 L 33.65 18 Q 34 18 34 18.35 L 34 18.65 Q 34 19 33.65 19 L 33.35 19 Q 33 19 33 18.65 L 33 18.35 Q 33 18 33.35 18 Z" fill="#000000"></path>
<path d="M 34.35 17 L 34.65 17 L 35.35 17 L 35.65 17 L 36.35 17 L 36.65 17 Q 37 17 37 17.35 L 37 17.65 Q 37 18 36.65 18 L 36.35 18 Q 36 18 36 18.35 L 36 18.65 Q 36 19 35.65 19 L 35.35 19 Q 35 19 35 18.65 L 35 18.35 Q 35 18 34.65 18 L 34.35 18 Q 34 18 34 17.65 L 34 17.35 Q 34 17 34.35 17 Z" fill="#000000"></path>
<path d="M 34.35 19 L 34.65 19 Q 35 19 35 19.35 L 35 19.65 Q 35 20 34.65 20 L 34.35 20 Q 34 20 34 19.65 L 34 19.35 Q 34 19 34.35 19 Z" fill="#000000"></path>
<path d="M 35.35 26 L 35.65 26 Q 36 26 36 26.35 L 36 26.65 Q 36 27 35.65 27 L 35.35 27 Q 35 27 35 26.65 L 35 26.35 Q 35 26 35.35 26 Z" fill="#000000"></path>
<path d="M 35.35 36 L 35.65 36 Q 36 36 36 36.35 L 36 36.65 Q 36 37 35.65 37 L 35.35 37 Q 35 37 35 36.65 L 35 36.35 Q 35 36 35.35 36 Z" fill="#000000"></path>
<path d="M 36.35 25 L 36.65 25 Q 37 25 37 25.35 L 37 25.65 Q 37 26 36.65 26 L 36.35 26 Q 36 26 36 25.65 L 36 25.35 Q 36 25 36.35 25 Z" fill="#000000"></path>

    </svg>