<svg height="500" preserveAspectRatio="none" viewBox="0 0 41 41" width="500" xmlns="http://www.w3.org/2000/svg"><path d="m4.35 4h.3.7.3.7.3.7.3.7.3.7.3.7.3q.35 0 .35.35v.3.7.3.7.3.7.3.7.3.7.3.7.3q0 .35-.35.35h-.3-.7-.3-.7-.3-.7-.3-.7-.3-.7-.3-.7-.3q-.35 0-.35-.35v-.3-.7-.3-.7-.3-.7-.3-.7-.3-.7-.3-.7-.3q0-.35.35-.35zm.65 1.35v.3.7.3.7.3.7.3.7.3q0 .35.35.35h.3.7.3.7.3.7.3.7.3q.35 0 .35-.35v-.3-.7-.3-.7-.3-.7-.3-.7-.3q0-.35-.35-.35h-.3-.7-.3-.7-.3-.7-.3-.7-.3q-.35 0-.35.35z"/><path d="m4.35 12h.3q.35 0 .35.35v.3q0 .35-.35.35h-.3q-.35 0-.35-.35v-.3q0-.35.35-.35z"/><path d="m4.35 16h.3q.35 0 .35.35v.3q0 .35-.35.35h-.3q-.35 0-.35-.35v-.3q0-.35.35-.35z"/><path d="m4.35 22h.3q.35 0 .35.35v.3q0 .35-.35.35h-.3q-.35 0-.35-.35v-.3q0-.35.35-.35z"/><path d="m4.35 24h.3q.35 0 .35.35v.3.7.3q0 .35-.35.35h-.3q-.35 0-.35-.35v-.3-.7-.3q0-.35.35-.35z"/><path d="m4.35 28h.3q.35 0 .35.35v.3q0 .35-.35.35h-.3q-.35 0-.35-.35v-.3q0-.35.35-.35z"/><path d="m4.35 30h.3.7.3.7.3.7.3.7.3.7.3.7.3q.35 0 .35.35v.3.7.3.7.3.7.3.7.3.7.3.7.3q0 .35-.35.35h-.3-.7-.3-.7-.3-.7-.3-.7-.3-.7-.3-.7-.3q-.35 0-.35-.35v-.3-.7-.3-.7-.3-.7-.3-.7-.3-.7-.3-.7-.3q0-.35.35-.35zm.65 1.35v.3.7.3.7.3.7.3.7.3q0 .35.35.35h.3.7.3.7.3.7.3.7.3q.35 0 .35-.35v-.3-.7-.3-.7-.3-.7-.3-.7-.3q0-.35-.35-.35h-.3-.7-.3-.7-.3-.7-.3-.7-.3q-.35 0-.35.35z"/><path d="m5.35 13h.3q.35 0 .35.35v.3q0 .35-.35.35h-.3q-.35 0-.35-.35v-.3q0-.35.35-.35z"/><path d="m5.35 17h.3q.35 0 .35-.35v-.3-.7-.3-.7-.3q0-.35.35-.35h.3q.35 0 .35.35v.3.7.3q0 .35.35.35h.3q.35 0 .35.35v.3q0 .35.35.35h.3q.35 0 .35-.35v-.3q0-.35-.35-.35h-.3q-.35 0-.35-.35v-.3q0-.35.35-.35h.3.7.3q.35 0 .35.35v.3q0 .35.35.35h.3q.35 0 .35.35v.3q0 .35-.35.35h-.3q-.35 0-.35.35v.3q0 .35-.35.35h-.3q-.35 0-.35.35v.3q0 .35-.35.35h-.3q-.35 0-.35-.35v-.3q0-.35-.35-.35h-.3q-.35 0-.35.35v.3q0 .35-.35.35h-.3q-.35 0-.35-.35v-.3q0-.35-.35-.35h-.3q-.35 0-.35-.35v-.3q0-.35.35-.35z"/><path d="m5.35 19h.3q.35 0 .35.35v.3q0 .35-.35.35h-.3q-.35 0-.35-.35v-.3q0-.35.35-.35z"/><path d="m5.35 23h.3q.35 0 .35-.35v-.3-.7-.3q0-.35.35-.35h.3q.35 0 .35.35v.3q0 .35.35.35h.3q.35 0 .35-.35v-.3q0-.35.35-.35h.3q.35 0 .35-.35v-.3q0-.35.35-.35h.3.7.3q.35 0 .35.35v.3q0 .35-.35.35h-.3q-.35 0-.35.35v.3q0 .35-.35.35h-.3q-.35 0-.35.35v.3q0 .35.35.35h.3q.35 0 .35.35v.3q0 .35.35.35h.3.7.3q.35 0 .35-.35v-.3-.7-.3q0-.35-.35-.35h-.3q-.35 0-.35-.35v-.3q0-.35.35-.35h.3q.35 0 .35-.35v-.3q0-.35-.35-.35h-.3q-.35 0-.35-.35v-.3q0-.35.35-.35h.3.7.3.7.3q.35 0 .35.35v.3.7.3q0 .35.35.35h.3q.35 0 .35.35v.3q0 .35-.35.35h-.3-.7-.3q-.35 0-.35.35v.3q0 .35.35.35h.3q.35 0 .35.35v.3q0 .35-.35.35h-.3q-.35 0-.35.35v.3q0 .35.35.35h.3.7.3.7.3q.35 0 .35-.35v-.3q0-.35.35-.35h.3.7.3q.35 0 .35-.35v-.3q0-.35-.35-.35h-.3-.7-.3q-.35 0-.35-.35v-.3-.7-.3q0-.35.35-.35h.3q.35 0 .35.35v.3q0 .35.35.35h.3q.35 0 .35-.35v-.3q0-.35.35-.35h.3.7.3q.35 0 .35.35v.3q0 .35.35.35h.3q.35 0 .35.35v.3q0 .35.35.35h.3.7.3q.35 0 .35.35v.3q0 .35-.35.35h-.3q-.35 0-.35.35v.3q0 .35.35.35h.3q.35 0 .35-.35v-.3q0-.35.35-.35h.3q.35 0 .35.35v.3q0 .35.35.35h.3q.35 0 .35.35v.3q0 .35.35.35h.3.7.3q.35 0 .35-.35v-.3q0-.35.35-.35h.3q.35 0 .35-.35v-.3q0-.35.35-.35h.3q.35 0 .35.35v.3.7.3.7.3q0 .35-.35.35h-.3q-.35 0-.35.35v.3q0 .35-.35.35h-.3q-.35 0-.35-.35v-.3q0-.35-.35-.35h-.3-.7-.3q-.35 0-.35.35v.3q0 .35-.35.35h-.3-.7-.3-.7-.3q-.35 0-.35-.35v-.3-.7-.3q0-.35-.35-.35h-.3-.7-.3q-.35 0-.35-.35v-.3q0-.35.35-.35h.3q.35 0 .35-.35v-.3q0-.35-.35-.35h-.3q-.35 0-.35.35v.3q0 .35-.35.35h-.3-.7-.3-.7-.3q-.35 0-.35.35v.3q0 .35-.35.35h-.3q-.35 0-.35.35v.3q0 .35.35.35h.3.7.3q.35 0 .35.35v.3q0 .35-.35.35h-.3-.7-.3-.7-.3q-.35 0-.35.35v.3q0 .35-.35.35h-.3-.7-.3q-.35 0-.35-.35v-.3q0-.35-.35-.35h-.3-.7-.3q-.35 0-.35-.35v-.3q0-.35-.35-.35h-.3-.7-.3q-.35 0-.35-.35v-.3-.7-.3q0-.35-.35-.35h-.3-.7-.3-.7-.3q-.35 0-.35-.35v-.3q0-.35-.35-.35h-.3q-.35 0-.35-.35v-.3q0-.35.35-.35zm1.65.35v.3q0 .35.35.35h.3q.35 0 .35-.35v-.3q0-.35-.35-.35h-.3q-.35 0-.35.35zm3 2v.3q0 .35.35.35h.3.7.3q.35 0 .35.35v.3q0 .35.35.35h.3q.35 0 .35-.35v-.3q0-.35-.35-.35h-.3q-.35 0-.35-.35v-.3q0-.35-.35-.35h-.3-.7-.3q-.35 0-.35.35zm13 1v.3q0 .35.35.35h.3q.35 0 .35-.35v-.3q0-.35-.35-.35h-.3q-.35 0-.35.35z"/><path d="m5.35 27h.3q.35 0 .35.35v.3q0 .35-.35.35h-.3q-.35 0-.35-.35v-.3q0-.35.35-.35z"/><path d="m6.35 6h.3.7.3.7.3q.35 0 .35.35v.3.7.3.7.3q0 .35-.35.35h-.3-.7-.3-.7-.3q-.35 0-.35-.35v-.3-.7-.3-.7-.3q0-.35.35-.35z"/><path d="m6.35 12h.3.7.3q.35 0 .35.35v.3.7.3q0 .35-.35.35h-.3q-.35 0-.35-.35v-.3q0-.35-.35-.35h-.3q-.35 0-.35-.35v-.3q0-.35.35-.35z"/><path d="m6.35 26h.3q.35 0 .35.35v.3q0 .35-.35.35h-.3q-.35 0-.35-.35v-.3q0-.35.35-.35z"/><path d="m6.35 28h.3.7.3q.35 0 .35.35v.3q0 .35-.35.35h-.3-.7-.3q-.35 0-.35-.35v-.3q0-.35.35-.35z"/><path d="m6.35 32h.3.7.3.7.3q.35 0 .35.35v.3.7.3.7.3q0 .35-.35.35h-.3-.7-.3-.7-.3q-.35 0-.35-.35v-.3-.7-.3-.7-.3q0-.35.35-.35z"/><path d="m7.35 19h.3q.35 0 .35.35v.3q0 .35-.35.35h-.3q-.35 0-.35-.35v-.3q0-.35.35-.35z"/><path d="m8.35 27h.3q.35 0 .35.35v.3q0 .35-.35.35h-.3q-.35 0-.35-.35v-.3q0-.35.35-.35z"/><path d="m9.35 12h.3.7.3.7.3q.35 0 .35.35v.3q0 .35.35.35h.3q.35 0 .35.35v.3q0 .35-.35.35h-.3q-.35 0-.35.35v.3q0 .35-.35.35h-.3-.7-.3q-.35 0-.35-.35v-.3q0-.35.35-.35h.3q.35 0 .35-.35v-.3q0-.35-.35-.35h-.3q-.35 0-.35.35v.3q0 .35-.35.35h-.3q-.35 0-.35-.35v-.3-.7-.3q0-.35.35-.35z"/><path d="m10.35 18h.3q.35 0 .35.35v.3q0 .35-.35.35h-.3q-.35 0-.35-.35v-.3q0-.35.35-.35z"/><path d="m10.35 22h.3q.35 0 .35.35v.3q0 .35-.35.35h-.3q-.35 0-.35-.35v-.3q0-.35.35-.35z"/><path d="m10.35 28h.3q.35 0 .35.35v.3q0 .35-.35.35h-.3q-.35 0-.35-.35v-.3q0-.35.35-.35z"/><path d="m11.35 17h.3q.35 0 .35.35v.3q0 .35-.35.35h-.3q-.35 0-.35-.35v-.3q0-.35.35-.35z"/><path d="m12.35 4h.3q.35 0 .35.35v.3q0 .35.35.35h.3.7.3q.35 0 .35-.35v-.3q0-.35.35-.35h.3q.35 0 .35.35v.3.7.3q0 .35-.35.35h-.3q-.35 0-.35.35v.3.7.3q0 .35-.35.35h-.3q-.35 0-.35-.35v-.3-.7-.3q0-.35-.35-.35h-.3-.7-.3q-.35 0-.35-.35v-.3-.7-.3q0-.35.35-.35z"/><path d="m12.35 7h.3q.35 0 .35.35v.3q0 .35-.35.35h-.3q-.35 0-.35-.35v-.3q0-.35.35-.35z"/><path d="m12.35 10h.3q.35 0 .35.35v.3.7.3q0 .35-.35.35h-.3q-.35 0-.35-.35v-.3-.7-.3q0-.35.35-.35z"/><path d="m12.35 16h.3.7.3q.35 0 .35.35v.3q0 .35-.35.35h-.3-.7-.3q-.35 0-.35-.35v-.3q0-.35.35-.35z"/><path d="m12.35 29h.3q.35 0 .35.35v.3q0 .35.35.35h.3.7.3q.35 0 .35-.35v-.3q0-.35.35-.35h.3.7.3q.35 0 .35.35v.3q0 .35-.35.35h-.3q-.35 0-.35.35v.3q0 .35-.35.35h-.3q-.35 0-.35.35v.3q0 .35-.35.35h-.3q-.35 0-.35.35v.3q0 .35-.35.35h-.3q-.35 0-.35-.35v-.3q0-.35-.35-.35h-.3q-.35 0-.35-.35v-.3-.7-.3-.7-.3q0-.35.35-.35z"/><path d="m12.35 33h.3q.35 0 .35.35v.3q0 .35.35.35h.3q.35 0 .35.35v.3q0 .35-.35.35h-.3-.7-.3q-.35 0-.35-.35v-.3-.7-.3q0-.35.35-.35z"/><path d="m12.35 36h.3q.35 0 .35.35v.3q0 .35-.35.35h-.3q-.35 0-.35-.35v-.3q0-.35.35-.35z"/><path d="m13.35 8h.3q.35 0 .35.35v.3q0 .35.35.35h.3q.35 0 .35-.35v-.3q0-.35.35-.35h.3q.35 0 .35-.35v-.3-.7-.3q0-.35.35-.35h.3q.35 0 .35.35v.3.7.3q0 .35.35.35h.3q.35 0 .35-.35v-.3q0-.35.35-.35h.3.7.3q.35 0 .35.35v.3q0 .35-.35.35h-.3q-.35 0-.35.35v.3.7.3.7.3q0 .35-.35.35h-.3q-.35 0-.35-.35v-.3-.7-.3q0-.35-.35-.35h-.3-.7-.3q-.35 0-.35.35v.3q0 .35-.35.35h-.3q-.35 0-.35.35v.3q0 .35-.35.35h-.3q-.35 0-.35-.35v-.3q0-.35-.35-.35h-.3q-.35 0-.35-.35v-.3-.7-.3q0-.35.35-.35z"/><path d="m14.35 12h.3q.35 0 .35.35v.3.7.3q0 .35-.35.35h-.3q-.35 0-.35-.35v-.3-.7-.3q0-.35.35-.35z"/><path d="m14.35 17h.3q.35 0 .35.35v.3q0 .35-.35.35h-.3q-.35 0-.35-.35v-.3q0-.35.35-.35z"/><path d="m15.35 16h.3q.35 0 .35-.35v-.3-.7-.3-.7-.3q0-.35.35-.35h.3q.35 0 .35.35v.3.7.3q0 .35.35.35h.3q.35 0 .35-.35v-.3q0-.35.35-.35h.3q.35 0 .35.35v.3q0 .35.35.35h.3.7.3q.35 0 .35.35v.3q0 .35-.35.35h-.3q-.35 0-.35.35v.3q0 .35.35.35h.3q.35 0 .35.35v.3.7.3q0 .35-.35.35h-.3q-.35 0-.35-.35v-.3q0-.35-.35-.35h-.3q-.35 0-.35-.35v-.3-.7-.3q0-.35-.35-.35h-.3-.7-.3q-.35 0-.35.35v.3q0 .35.35.35h.3q.35 0 .35.35v.3q0 .35-.35.35h-.3q-.35 0-.35.35v.3q0 .35-.35.35h-.3q-.35 0-.35-.35v-.3-.7-.3q0-.35-.35-.35h-.3q-.35 0-.35-.35v-.3q0-.35.35-.35z"/><path d="m15.35 19h.3q.35 0 .35.35v.3q0 .35-.35.35h-.3q-.35 0-.35-.35v-.3q0-.35.35-.35z"/><path d="m15.35 32h.3.7.3q.35 0 .35.35v.3.7.3q0 .35-.35.35h-.3q-.35 0-.35.35v.3.7.3q0 .35.35.35h.3q.35 0 .35.35v.3q0 .35-.35.35h-.3-.7-.3q-.35 0-.35-.35v-.3-.7-.3-.7-.3-.7-.3-.7-.3q0-.35.35-.35z"/><path d="m16.35 10h.3q.35 0 .35.35v.3.7.3q0 .35-.35.35h-.3q-.35 0-.35-.35v-.3-.7-.3q0-.35.35-.35z"/><path d="m17.35 4h.3q.35 0 .35.35v.3.7.3q0 .35-.35.35h-.3q-.35 0-.35-.35v-.3-.7-.3q0-.35.35-.35z"/><path d="m17.35 20h.3q.35 0 .35.35v.3q0 .35-.35.35h-.3q-.35 0-.35-.35v-.3q0-.35.35-.35z"/><path d="m17.35 34h.3.7.3q.35 0 .35-.35v-.3q0-.35.35-.35h.3q.35 0 .35.35v.3q0 .35.35.35h.3.7.3.7.3q.35 0 .35.35v.3q0 .35.35.35h.3q.35 0 .35.35v.3q0 .35-.35.35h-.3q-.35 0-.35.35v.3q0 .35-.35.35h-.3-.7-.3q-.35 0-.35-.35v-.3q0-.35-.35-.35h-.3-.7-.3q-.35 0-.35-.35v-.3q0-.35-.35-.35h-.3-.7-.3q-.35 0-.35-.35v-.3q0-.35.35-.35z"/><path d="m18.35 12h.3q.35 0 .35.35v.3q0 .35-.35.35h-.3q-.35 0-.35-.35v-.3q0-.35.35-.35z"/><path d="m18.35 18h.3q.35 0 .35.35v.3q0 .35.35.35h.3q.35 0 .35.35v.3q0 .35-.35.35h-.3-.7-.3q-.35 0-.35-.35v-.3-.7-.3q0-.35.35-.35z"/><path d="m18.35 26h.3q.35 0 .35.35v.3q0 .35-.35.35h-.3q-.35 0-.35-.35v-.3q0-.35.35-.35z"/><path d="m18.35 30h.3q.35 0 .35.35v.3q0 .35-.35.35h-.3q-.35 0-.35-.35v-.3q0-.35.35-.35z"/><path d="m19.35 11h.3q.35 0 .35.35v.3q0 .35-.35.35h-.3q-.35 0-.35-.35v-.3q0-.35.35-.35z"/><path d="m19.35 27h.3.7.3q.35 0 .35.35v.3q0 .35-.35.35h-.3q-.35 0-.35.35v.3q0 .35.35.35h.3q.35 0 .35.35v.3q0 .35.35.35h.3q.35 0 .35-.35v-.3q0-.35.35-.35h.3.7.3q.35 0 .35.35v.3.7.3q0 .35-.35.35h-.3q-.35 0-.35.35v.3q0 .35.35.35h.3q.35 0 .35-.35v-.3q0-.35.35-.35h.3.7.3.7.3q.35 0 .35-.35v-.3-.7-.3q0-.35.35-.35h.3q.35 0 .35-.35v-.3q0-.35.35-.35h.3q.35 0 .35-.35v-.3q0-.35.35-.35h.3q.35 0 .35.35v.3q0 .35.35.35h.3q.35 0 .35-.35v-.3q0-.35-.35-.35h-.3q-.35 0-.35-.35v-.3-.7-.3q0-.35.35-.35h.3q.35 0 .35.35v.3q0 .35.35.35h.3q.35 0 .35.35v.3q0 .35.35.35h.3.7.3q.35 0 .35.35v.3q0 .35-.35.35h-.3q-.35 0-.35.35v.3q0 .35.35.35h.3q.35 0 .35.35v.3q0 .35-.35.35h-.3q-.35 0-.35.35v.3q0 .35.35.35h.3.7.3.7.3q.35 0 .35.35v.3q0 .35-.35.35h-.3q-.35 0-.35.35v.3q0 .35-.35.35h-.3q-.35 0-.35-.35v-.3q0-.35-.35-.35h-.3q-.35 0-.35.35v.3q0 .35-.35.35h-.3q-.35 0-.35.35v.3.7.3q0 .35.35.35h.3q.35 0 .35.35v.3.7.3q0 .35-.35.35h-.3q-.35 0-.35-.35v-.3q0-.35-.35-.35h-.3q-.35 0-.35-.35v-.3q0-.35-.35-.35h-.3q-.35 0-.35-.35v-.3q0-.35.35-.35h.3q.35 0 .35-.35v-.3q0-.35-.35-.35h-.3-.7-.3-.7-.3-.7-.3q-.35 0-.35-.35v-.3q0-.35-.35-.35h-.3q-.35 0-.35.35v.3q0 .35-.35.35h-.3q-.35 0-.35.35v.3q0 .35-.35.35h-.3q-.35 0-.35-.35v-.3q0-.35-.35-.35h-.3-.7-.3q-.35 0-.35-.35v-.3-.7-.3q0-.35-.35-.35h-.3q-.35 0-.35.35v.3.7.3q0 .35-.35.35h-.3q-.35 0-.35-.35v-.3q0-.35-.35-.35h-.3q-.35 0-.35-.35v-.3q0-.35.35-.35h.3q.35 0 .35-.35v-.3q0-.35-.35-.35h-.3q-.35 0-.35-.35v-.3-.7-.3-.7-.3q0-.35.35-.35zm9.65 2.35v.3.7.3.7.3q0 .35.35.35h.3.7.3.7.3q.35 0 .35-.35v-.3-.7-.3-.7-.3q0-.35-.35-.35h-.3-.7-.3-.7-.3q-.35 0-.35.35z"/><path d="m20.35 5h.3q.35 0 .35.35v.3q0 .35-.35.35h-.3q-.35 0-.35-.35v-.3q0-.35.35-.35z"/><path d="m20.35 10h.3q.35 0 .35.35v.3q0 .35-.35.35h-.3q-.35 0-.35-.35v-.3q0-.35.35-.35z"/><path d="m20.35 12h.3q.35 0 .35-.35v-.3q0-.35.35-.35h.3q.35 0 .35-.35v-.3q0-.35-.35-.35h-.3q-.35 0-.35-.35v-.3q0-.35.35-.35h.3.7.3q.35 0 .35-.35v-.3q0-.35.35-.35h.3.7.3q.35 0 .35.35v.3q0 .35.35.35h.3q.35 0 .35.35v.3q0 .35-.35.35h-.3q-.35 0-.35.35v.3q0 .35-.35.35h-.3q-.35 0-.35-.35v-.3q0-.35-.35-.35h-.3q-.35 0-.35.35v.3q0 .35.35.35h.3q.35 0 .35.35v.3.7.3q0 .35.35.35h.3q.35 0 .35.35v.3.7.3.7.3q0 .35-.35.35h-.3q-.35 0-.35-.35v-.3-.7-.3q0-.35-.35-.35h-.3q-.35 0-.35.35v.3.7.3q0 .35-.35.35h-.3q-.35 0-.35-.35v-.3q0-.35-.35-.35h-.3q-.35 0-.35-.35v-.3q0-.35.35-.35h.3q.35 0 .35-.35v-.3q0-.35-.35-.35h-.3q-.35 0-.35.35v.3q0 .35-.35.35h-.3q-.35 0-.35-.35v-.3-.7-.3q0-.35.35-.35z"/><path d="m20.35 20h.3q.35 0 .35.35v.3q0 .35-.35.35h-.3q-.35 0-.35-.35v-.3q0-.35.35-.35z"/><path d="m21.35 4h.3.7.3.7.3.7.3.7.3q.35 0 .35.35v.3q0 .35-.35.35h-.3-.7-.3-.7-.3q-.35 0-.35.35v.3q0 .35-.35.35h-.3q-.35 0-.35-.35v-.3q0-.35-.35-.35h-.3q-.35 0-.35-.35v-.3q0-.35.35-.35z"/><path d="m21.35 7h.3q.35 0 .35.35v.3q0 .35-.35.35h-.3q-.35 0-.35-.35v-.3q0-.35.35-.35z"/><path d="m21.35 16h.3q.35 0 .35.35v.3q0 .35-.35.35h-.3q-.35 0-.35-.35v-.3q0-.35.35-.35z"/><path d="m21.35 28h.3q.35 0 .35.35v.3q0 .35-.35.35h-.3q-.35 0-.35-.35v-.3q0-.35.35-.35z"/><path d="m22.35 18h.3q.35 0 .35-.35v-.3-.7-.3q0-.35.35-.35h.3q.35 0 .35.35v.3.7.3.7.3q0 .35-.35.35h-.3-.7-.3q-.35 0-.35-.35v-.3q0-.35.35-.35z"/><path d="m23.35 20h.3q.35 0 .35-.35v-.3q0-.35.35-.35h.3q.35 0 .35-.35v-.3-.7-.3q0-.35.35-.35h.3q.35 0 .35.35v.3.7.3q0 .35.35.35h.3.7.3q.35 0 .35.35v.3q0 .35-.35.35h-.3q-.35 0-.35.35v.3q0 .35.35.35h.3q.35 0 .35-.35v-.3q0-.35.35-.35h.3q.35 0 .35-.35v-.3q0-.35.35-.35h.3q.35 0 .35-.35v-.3q0-.35.35-.35h.3q.35 0 .35.35v.3.7.3.7.3.7.3q0 .35.35.35h.3q.35 0 .35-.35v-.3-.7-.3q0-.35.35-.35h.3.7.3q.35 0 .35-.35v-.3q0-.35-.35-.35h-.3-.7-.3q-.35 0-.35-.35v-.3q0-.35.35-.35h.3q.35 0 .35-.35v-.3q0-.35-.35-.35h-.3q-.35 0-.35.35v.3q0 .35-.35.35h-.3q-.35 0-.35-.35v-.3-.7-.3-.7-.3q0-.35-.35-.35h-.3q-.35 0-.35-.35v-.3-.7-.3-.7-.3q0-.35.35-.35h.3q.35 0 .35.35v.3q0 .35.35.35h.3q.35 0 .35.35v.3q0 .35.35.35h.3q.35 0 .35-.35v-.3-.7-.3q0-.35.35-.35h.3q.35 0 .35.35v.3q0 .35.35.35h.3q.35 0 .35-.35v-.3q0-.35.35-.35h.3.7.3q.35 0 .35.35v.3.7.3.7.3q0 .35-.35.35h-.3q-.35 0-.35.35v.3q0 .35-.35.35h-.3q-.35 0-.35-.35v-.3-.7-.3q0-.35-.35-.35h-.3q-.35 0-.35.35v.3.7.3.7.3.7.3q0 .35.35.35h.3q.35 0 .35.35v.3.7.3.7.3q0 .35-.35.35h-.3q-.35 0-.35.35v.3q0 .35-.35.35h-.3q-.35 0-.35.35v.3.7.3q0 .35-.35.35h-.3q-.35 0-.35-.35v-.3q0-.35-.35-.35h-.3q-.35 0-.35.35v.3q0 .35-.35.35h-.3-.7-.3q-.35 0-.35-.35v-.3q0-.35.35-.35h.3q.35 0 .35-.35v-.3-.7-.3q0-.35-.35-.35h-.3q-.35 0-.35.35v.3q0 .35-.35.35h-.3-.7-.3-.7-.3q-.35 0-.35.35v.3q0 .35-.35.35h-.3-.7-.3q-.35 0-.35-.35v-.3q0-.35.35-.35h.3q.35 0 .35-.35v-.3q0-.35-.35-.35h-.3-.7-.3q-.35 0-.35-.35v-.3q0-.35.35-.35zm8.65-4.65v.3q0 .35.35.35h.3q.35 0 .35-.35v-.3q0-.35-.35-.35h-.3q-.35 0-.35.35z"/><path d="m25.35 12h.3q.35 0 .35.35v.3q0 .35-.35.35h-.3q-.35 0-.35-.35v-.3q0-.35.35-.35z"/><path d="m25.35 24h.3q.35 0 .35.35v.3q0 .35-.35.35h-.3q-.35 0-.35-.35v-.3q0-.35.35-.35z"/><path d="m25.35 29h.3q.35 0 .35.35v.3q0 .35-.35.35h-.3q-.35 0-.35-.35v-.3q0-.35.35-.35z"/><path d="m25.35 36h.3q.35 0 .35.35v.3q0 .35-.35.35h-.3q-.35 0-.35-.35v-.3q0-.35.35-.35z"/><path d="m26.35 5h.3q.35 0 .35-.35v-.3q0-.35.35-.35h.3q.35 0 .35.35v.3.7.3q0 .35.35.35h.3q.35 0 .35.35v.3.7.3.7.3.7.3.7.3q0 .35-.35.35h-.3q-.35 0-.35-.35v-.3-.7-.3-.7-.3q0-.35-.35-.35h-.3q-.35 0-.35-.35v-.3q0-.35-.35-.35h-.3q-.35 0-.35-.35v-.3-.7-.3q0-.35.35-.35z"/><path d="m26.35 8h.3q.35 0 .35.35v.3q0 .35-.35.35h-.3q-.35 0-.35-.35v-.3q0-.35.35-.35z"/><path d="m26.35 10h.3q.35 0 .35.35v.3q0 .35.35.35h.3q.35 0 .35.35v.3.7.3q0 .35.35.35h.3q.35 0 .35.35v.3.7.3q0 .35-.35.35h-.3-.7-.3-.7-.3q-.35 0-.35-.35v-.3q0-.35.35-.35h.3q.35 0 .35-.35v-.3-.7-.3q0-.35-.35-.35h-.3q-.35 0-.35-.35v-.3-.7-.3q0-.35.35-.35z"/><path d="m26.35 16h.3.7.3.7.3.7.3q.35 0 .35.35v.3q0 .35-.35.35h-.3q-.35 0-.35.35v.3.7.3q0 .35-.35.35h-.3q-.35 0-.35-.35v-.3-.7-.3q0-.35-.35-.35h-.3-.7-.3q-.35 0-.35-.35v-.3q0-.35.35-.35z"/><path d="m26.35 23h.3.7.3q.35 0 .35.35v.3q0 .35-.35.35h-.3-.7-.3q-.35 0-.35-.35v-.3q0-.35.35-.35z"/><path d="m26.35 28h.3q.35 0 .35.35v.3q0 .35-.35.35h-.3q-.35 0-.35-.35v-.3q0-.35.35-.35z"/><path d="m26.35 33h.3q.35 0 .35.35v.3q0 .35.35.35h.3q.35 0 .35.35v.3q0 .35-.35.35h-.3q-.35 0-.35.35v.3q0 .35-.35.35h-.3q-.35 0-.35-.35v-.3-.7-.3-.7-.3q0-.35.35-.35z"/><path d="m27.35 36h.3q.35 0 .35.35v.3q0 .35-.35.35h-.3q-.35 0-.35-.35v-.3q0-.35.35-.35z"/><path d="m28.35 35h.3.7.3q.35 0 .35.35v.3.7.3q0 .35-.35.35h-.3q-.35 0-.35-.35v-.3q0-.35-.35-.35h-.3q-.35 0-.35-.35v-.3q0-.35.35-.35z"/><path d="m30.35 4h.3.7.3.7.3.7.3.7.3.7.3.7.3q.35 0 .35.35v.3.7.3.7.3.7.3.7.3.7.3.7.3q0 .35-.35.35h-.3-.7-.3-.7-.3-.7-.3-.7-.3-.7-.3-.7-.3q-.35 0-.35-.35v-.3-.7-.3-.7-.3-.7-.3-.7-.3-.7-.3-.7-.3q0-.35.35-.35zm.65 1.35v.3.7.3.7.3.7.3.7.3q0 .35.35.35h.3.7.3.7.3.7.3.7.3q.35 0 .35-.35v-.3-.7-.3-.7-.3-.7-.3-.7-.3q0-.35-.35-.35h-.3-.7-.3-.7-.3-.7-.3-.7-.3q-.35 0-.35.35z"/><path d="m30.35 30h.3q.35 0 .35.35v.3q0 .35-.35.35h-.3q-.35 0-.35-.35v-.3q0-.35.35-.35z"/><path d="m31.35 24h.3q.35 0 .35.35v.3q0 .35-.35.35h-.3q-.35 0-.35-.35v-.3q0-.35.35-.35z"/><path d="m32.35 6h.3.7.3.7.3q.35 0 .35.35v.3.7.3.7.3q0 .35-.35.35h-.3-.7-.3-.7-.3q-.35 0-.35-.35v-.3-.7-.3-.7-.3q0-.35.35-.35z"/><path d="m33.35 24h.3.7.3.7.3q.35 0 .35.35v.3q0 .35-.35.35h-.3-.7-.3q-.35 0-.35.35v.3q0 .35-.35.35h-.3q-.35 0-.35-.35v-.3-.7-.3q0-.35.35-.35z"/><path d="m33.35 33h.3q.35 0 .35.35v.3q0 .35-.35.35h-.3q-.35 0-.35-.35v-.3q0-.35.35-.35z"/><path d="m34.35 22h.3.7.3q.35 0 .35.35v.3q0 .35-.35.35h-.3-.7-.3q-.35 0-.35-.35v-.3q0-.35.35-.35z"/><path d="m34.35 26h.3.7.3q.35 0 .35-.35v-.3q0-.35.35-.35h.3q.35 0 .35.35v.3.7.3q0 .35-.35.35h-.3q-.35 0-.35.35v.3q0 .35.35.35h.3q.35 0 .35.35v.3q0 .35-.35.35h-.3q-.35 0-.35.35v.3q0 .35-.35.35h-.3q-.35 0-.35-.35v-.3-.7-.3-.7-.3q0-.35-.35-.35h-.3q-.35 0-.35-.35v-.3q0-.35.35-.35z"/><path d="m34.35 34h.3q.35 0 .35.35v.3q0 .35-.35.35h-.3q-.35 0-.35-.35v-.3q0-.35.35-.35z"/><path d="m34.35 36h.3q.35 0 .35.35v.3q0 .35-.35.35h-.3q-.35 0-.35-.35v-.3q0-.35.35-.35z"/><path d="m35.35 17h.3q.35 0 .35.35v.3q0 .35-.35.35h-.3q-.35 0-.35-.35v-.3q0-.35.35-.35z"/><path d="m36.35 21h.3q.35 0 .35.35v.3q0 .35-.35.35h-.3q-.35 0-.35-.35v-.3q0-.35.35-.35z"/><path d="m36.35 23h.3q.35 0 .35.35v.3q0 .35-.35.35h-.3q-.35 0-.35-.35v-.3q0-.35.35-.35z"/><path d="m36.35 32h.3q.35 0 .35.35v.3.7.3q0 .35-.35.35h-.3q-.35 0-.35-.35v-.3-.7-.3q0-.35.35-.35z"/><path d="m36.35 35h.3q.35 0 .35.35v.3q0 .35-.35.35h-.3q-.35 0-.35-.35v-.3q0-.35.35-.35z"/></svg>