<?xml version="1.0" standalone="no"?><!DOCTYPE svg PUBLIC "-//W3C//DTD SVG 1.1//EN" "http://www.w3.org/Graphics/SVG/1.1/DTD/svg11.dtd" [<!ENTITY nbsp "&#160;">]><svg viewBox="0 0 41 41" preserveAspectRatio="none" xmlns="http://www.w3.org/2000/svg" version="1.1" xmlns:xlink="http://www.w3.org/1999/xlink" width="500" height="500"><defs><style type="text/css"><![CDATA[

]]></style></defs>
        
        <path d="M 4.35 4 L 4.65 4 L 5.35 4 L 5.65 4 L 6.35 4 L 6.65 4 L 7.35 4 L 7.65 4 L 8.35 4 L 8.65 4 L 9.35 4 L 9.65 4 L 10.35 4 L 10.65 4 Q 11 4 11 4.35 L 11 4.65 L 11 5.35 L 11 5.65 L 11 6.35 L 11 6.65 L 11 7.35 L 11 7.65 L 11 8.35 L 11 8.65 L 11 9.35 L 11 9.65 L 11 10.35 L 11 10.65 Q 11 11 10.65 11 L 10.35 11 L 9.65 11 L 9.35 11 L 8.65 11 L 8.35 11 L 7.65 11 L 7.35 11 L 6.65 11 L 6.35 11 L 5.65 11 L 5.35 11 L 4.65 11 L 4.35 11 Q 4 11 4 10.65 L 4 10.35 L 4 9.65 L 4 9.35 L 4 8.65 L 4 8.35 L 4 7.65 L 4 7.35 L 4 6.65 L 4 6.35 L 4 5.65 L 4 5.35 L 4 4.65 L 4 4.35 Q 4 4 4.35 4 Z M 5 5.35 L 5 5.65 L 5 6.35 L 5 6.65 L 5 7.35 L 5 7.65 L 5 8.35 L 5 8.65 L 5 9.35 L 5 9.65 Q 5 10 5.35 10 L 5.65 10 L 6.35 10 L 6.65 10 L 7.35 10 L 7.65 10 L 8.35 10 L 8.65 10 L 9.35 10 L 9.65 10 Q 10 10 10 9.65 L 10 9.35 L 10 8.65 L 10 8.35 L 10 7.65 L 10 7.35 L 10 6.65 L 10 6.35 L 10 5.65 L 10 5.35 Q 10 5 9.65 5 L 9.35 5 L 8.65 5 L 8.35 5 L 7.65 5 L 7.35 5 L 6.65 5 L 6.35 5 L 5.65 5 L 5.35 5 Q 5 5 5 5.35 Z" fill="#000000"></path>
<path d="M 4.35 12 L 4.65 12 Q 5 12 5 12.35 L 5 12.65 Q 5 13 4.65 13 L 4.35 13 Q 4 13 4 12.65 L 4 12.35 Q 4 12 4.35 12 Z" fill="#000000"></path>
<path d="M 4.35 16 L 4.65 16 Q 5 16 5 16.35 L 5 16.65 Q 5 17 4.65 17 L 4.35 17 Q 4 17 4 16.65 L 4 16.35 Q 4 16 4.35 16 Z" fill="#000000"></path>
<path d="M 4.35 22 L 4.65 22 Q 5 22 5 22.35 L 5 22.65 Q 5 23 4.65 23 L 4.35 23 Q 4 23 4 22.65 L 4 22.35 Q 4 22 4.35 22 Z" fill="#000000"></path>
<path d="M 4.35 24 L 4.65 24 Q 5 24 5 24.35 L 5 24.65 L 5 25.35 L 5 25.65 Q 5 26 4.65 26 L 4.35 26 Q 4 26 4 25.65 L 4 25.35 L 4 24.65 L 4 24.35 Q 4 24 4.35 24 Z" fill="#000000"></path>
<path d="M 4.35 28 L 4.65 28 Q 5 28 5 28.35 L 5 28.65 Q 5 29 4.65 29 L 4.35 29 Q 4 29 4 28.65 L 4 28.35 Q 4 28 4.35 28 Z" fill="#000000"></path>
<path d="M 4.35 30 L 4.65 30 L 5.35 30 L 5.65 30 L 6.35 30 L 6.65 30 L 7.35 30 L 7.65 30 L 8.35 30 L 8.65 30 L 9.35 30 L 9.65 30 L 10.35 30 L 10.65 30 Q 11 30 11 30.35 L 11 30.65 L 11 31.35 L 11 31.65 L 11 32.35 L 11 32.65 L 11 33.35 L 11 33.65 L 11 34.35 L 11 34.65 L 11 35.35 L 11 35.65 L 11 36.35 L 11 36.65 Q 11 37 10.65 37 L 10.35 37 L 9.65 37 L 9.35 37 L 8.65 37 L 8.35 37 L 7.65 37 L 7.35 37 L 6.65 37 L 6.35 37 L 5.65 37 L 5.35 37 L 4.65 37 L 4.35 37 Q 4 37 4 36.65 L 4 36.35 L 4 35.65 L 4 35.35 L 4 34.65 L 4 34.35 L 4 33.65 L 4 33.35 L 4 32.65 L 4 32.35 L 4 31.65 L 4 31.35 L 4 30.65 L 4 30.35 Q 4 30 4.35 30 Z M 5 31.35 L 5 31.65 L 5 32.35 L 5 32.65 L 5 33.35 L 5 33.65 L 5 34.35 L 5 34.65 L 5 35.35 L 5 35.65 Q 5 36 5.35 36 L 5.65 36 L 6.35 36 L 6.65 36 L 7.35 36 L 7.65 36 L 8.35 36 L 8.65 36 L 9.35 36 L 9.65 36 Q 10 36 10 35.65 L 10 35.35 L 10 34.65 L 10 34.35 L 10 33.65 L 10 33.35 L 10 32.65 L 10 32.35 L 10 31.65 L 10 31.35 Q 10 31 9.65 31 L 9.35 31 L 8.65 31 L 8.35 31 L 7.65 31 L 7.35 31 L 6.65 31 L 6.35 31 L 5.65 31 L 5.35 31 Q 5 31 5 31.35 Z" fill="#000000"></path>
<path d="M 5.35 13 L 5.65 13 Q 6 13 6 13.35 L 6 13.65 Q 6 14 5.65 14 L 5.35 14 Q 5 14 5 13.65 L 5 13.35 Q 5 13 5.35 13 Z" fill="#000000"></path>
<path d="M 5.35 17 L 5.65 17 Q 6 17 6 16.65 L 6 16.35 L 6 15.65 L 6 15.35 L 6 14.65 L 6 14.35 Q 6 14 6.35 14 L 6.65 14 Q 7 14 7 14.35 L 7 14.65 L 7 15.35 L 7 15.65 Q 7 16 7.35 16 L 7.65 16 Q 8 16 8 16.35 L 8 16.65 Q 8 17 8.35 17 L 8.65 17 Q 9 17 9 16.65 L 9 16.35 Q 9 16 8.65 16 L 8.35 16 Q 8 16 8 15.65 L 8 15.35 Q 8 15 8.35 15 L 8.65 15 L 9.35 15 L 9.65 15 Q 10 15 10 15.35 L 10 15.65 Q 10 16 10.35 16 L 10.65 16 Q 11 16 11 16.35 L 11 16.65 Q 11 17 10.65 17 L 10.35 17 Q 10 17 10 17.35 L 10 17.65 Q 10 18 9.65 18 L 9.35 18 Q 9 18 9 18.35 L 9 18.65 Q 9 19 8.65 19 L 8.35 19 Q 8 19 8 18.65 L 8 18.35 Q 8 18 7.65 18 L 7.35 18 Q 7 18 7 18.35 L 7 18.65 Q 7 19 6.65 19 L 6.35 19 Q 6 19 6 18.65 L 6 18.35 Q 6 18 5.65 18 L 5.35 18 Q 5 18 5 17.65 L 5 17.35 Q 5 17 5.35 17 Z" fill="#000000"></path>
<path d="M 5.35 19 L 5.65 19 Q 6 19 6 19.35 L 6 19.65 Q 6 20 5.65 20 L 5.35 20 Q 5 20 5 19.65 L 5 19.35 Q 5 19 5.35 19 Z" fill="#000000"></path>
<path d="M 5.35 23 L 5.65 23 Q 6 23 6 22.65 L 6 22.35 L 6 21.65 L 6 21.35 Q 6 21 6.35 21 L 6.65 21 Q 7 21 7 21.35 L 7 21.65 Q 7 22 7.35 22 L 7.65 22 Q 8 22 8 21.65 L 8 21.35 Q 8 21 8.35 21 L 8.65 21 Q 9 21 9 20.65 L 9 20.35 Q 9 20 9.35 20 L 9.65 20 L 10.35 20 L 10.65 20 Q 11 20 11 20.35 L 11 20.65 Q 11 21 10.65 21 L 10.35 21 Q 10 21 10 21.35 L 10 21.65 Q 10 22 9.65 22 L 9.35 22 Q 9 22 9 22.35 L 9 22.65 Q 9 23 9.35 23 L 9.65 23 Q 10 23 10 23.35 L 10 23.65 Q 10 24 10.35 24 L 10.65 24 L 11.35 24 L 11.65 24 Q 12 24 12 23.65 L 12 23.35 L 12 22.65 L 12 22.35 Q 12 22 11.65 22 L 11.35 22 Q 11 22 11 21.65 L 11 21.35 Q 11 21 11.35 21 L 11.65 21 Q 12 21 12 20.65 L 12 20.35 Q 12 20 11.65 20 L 11.35 20 Q 11 20 11 19.65 L 11 19.35 Q 11 19 11.35 19 L 11.65 19 L 12.35 19 L 12.65 19 L 13.35 19 L 13.65 19 Q 14 19 14 19.35 L 14 19.65 L 14 20.35 L 14 20.65 Q 14 21 14.35 21 L 14.65 21 Q 15 21 15 21.35 L 15 21.65 Q 15 22 14.65 22 L 14.35 22 L 13.65 22 L 13.35 22 Q 13 22 13 22.35 L 13 22.65 Q 13 23 13.35 23 L 13.65 23 Q 14 23 14 23.35 L 14 23.65 Q 14 24 13.65 24 L 13.35 24 Q 13 24 13 24.35 L 13 24.65 Q 13 25 13.35 25 L 13.65 25 L 14.35 25 L 14.65 25 L 15.35 25 L 15.65 25 Q 16 25 16 24.65 L 16 24.35 Q 16 24 16.35 24 L 16.65 24 L 17.35 24 L 17.65 24 Q 18 24 18 23.65 L 18 23.35 Q 18 23 17.65 23 L 17.35 23 L 16.65 23 L 16.35 23 Q 16 23 16 22.65 L 16 22.35 L 16 21.65 L 16 21.35 Q 16 21 16.35 21 L 16.65 21 Q 17 21 17 21.35 L 17 21.65 Q 17 22 17.35 22 L 17.65 22 Q 18 22 18 21.65 L 18 21.35 Q 18 21 18.35 21 L 18.65 21 L 19.35 21 L 19.65 21 Q 20 21 20 21.35 L 20 21.65 Q 20 22 20.35 22 L 20.65 22 Q 21 22 21 22.35 L 21 22.65 Q 21 23 21.35 23 L 21.65 23 L 22.35 23 L 22.65 23 Q 23 23 23 23.35 L 23 23.65 Q 23 24 22.65 24 L 22.35 24 Q 22 24 22 24.35 L 22 24.65 Q 22 25 22.35 25 L 22.65 25 Q 23 25 23 24.65 L 23 24.35 Q 23 24 23.35 24 L 23.65 24 Q 24 24 24 24.35 L 24 24.65 Q 24 25 24.35 25 L 24.65 25 Q 25 25 25 25.35 L 25 25.65 Q 25 26 25.35 26 L 25.65 26 L 26.35 26 L 26.65 26 Q 27 26 27 25.65 L 27 25.35 Q 27 25 27.35 25 L 27.65 25 Q 28 25 28 24.65 L 28 24.35 Q 28 24 28.35 24 L 28.65 24 Q 29 24 29 24.35 L 29 24.65 L 29 25.35 L 29 25.65 L 29 26.35 L 29 26.65 Q 29 27 28.65 27 L 28.35 27 Q 28 27 28 27.35 L 28 27.65 Q 28 28 27.65 28 L 27.35 28 Q 27 28 27 27.65 L 27 27.35 Q 27 27 26.65 27 L 26.35 27 L 25.65 27 L 25.35 27 Q 25 27 25 27.35 L 25 27.65 Q 25 28 24.65 28 L 24.35 28 L 23.65 28 L 23.35 28 L 22.65 28 L 22.35 28 Q 22 28 22 27.65 L 22 27.35 L 22 26.65 L 22 26.35 Q 22 26 21.65 26 L 21.35 26 L 20.65 26 L 20.35 26 Q 20 26 20 25.65 L 20 25.35 Q 20 25 20.35 25 L 20.65 25 Q 21 25 21 24.65 L 21 24.35 Q 21 24 20.65 24 L 20.35 24 Q 20 24 20 24.35 L 20 24.65 Q 20 25 19.65 25 L 19.35 25 L 18.65 25 L 18.35 25 L 17.65 25 L 17.35 25 Q 17 25 17 25.35 L 17 25.65 Q 17 26 16.65 26 L 16.35 26 Q 16 26 16 26.35 L 16 26.65 Q 16 27 16.35 27 L 16.65 27 L 17.35 27 L 17.65 27 Q 18 27 18 27.35 L 18 27.65 Q 18 28 17.65 28 L 17.35 28 L 16.65 28 L 16.35 28 L 15.65 28 L 15.35 28 Q 15 28 15 28.35 L 15 28.65 Q 15 29 14.65 29 L 14.35 29 L 13.65 29 L 13.35 29 Q 13 29 13 28.65 L 13 28.35 Q 13 28 12.65 28 L 12.35 28 L 11.65 28 L 11.35 28 Q 11 28 11 27.65 L 11 27.35 Q 11 27 10.65 27 L 10.35 27 L 9.65 27 L 9.35 27 Q 9 27 9 26.65 L 9 26.35 L 9 25.65 L 9 25.35 Q 9 25 8.65 25 L 8.35 25 L 7.65 25 L 7.35 25 L 6.65 25 L 6.35 25 Q 6 25 6 24.65 L 6 24.35 Q 6 24 5.65 24 L 5.35 24 Q 5 24 5 23.65 L 5 23.35 Q 5 23 5.35 23 Z M 7 23.35 L 7 23.65 Q 7 24 7.35 24 L 7.65 24 Q 8 24 8 23.65 L 8 23.35 Q 8 23 7.65 23 L 7.35 23 Q 7 23 7 23.35 Z M 10 25.35 L 10 25.65 Q 10 26 10.35 26 L 10.65 26 L 11.35 26 L 11.65 26 Q 12 26 12 26.35 L 12 26.65 Q 12 27 12.35 27 L 12.65 27 Q 13 27 13 26.65 L 13 26.35 Q 13 26 12.65 26 L 12.35 26 Q 12 26 12 25.65 L 12 25.35 Q 12 25 11.65 25 L 11.35 25 L 10.65 25 L 10.35 25 Q 10 25 10 25.35 Z M 23 26.35 L 23 26.65 Q 23 27 23.35 27 L 23.65 27 Q 24 27 24 26.65 L 24 26.35 Q 24 26 23.65 26 L 23.35 26 Q 23 26 23 26.35 Z" fill="#000000"></path>
<path d="M 5.35 27 L 5.65 27 Q 6 27 6 27.35 L 6 27.65 Q 6 28 5.65 28 L 5.35 28 Q 5 28 5 27.65 L 5 27.35 Q 5 27 5.35 27 Z" fill="#000000"></path>
<path d="M 6.35 6 L 6.65 6 L 7.35 6 L 7.65 6 L 8.35 6 L 8.65 6 Q 9 6 9 6.35 L 9 6.65 L 9 7.35 L 9 7.65 L 9 8.35 L 9 8.65 Q 9 9 8.65 9 L 8.35 9 L 7.65 9 L 7.35 9 L 6.65 9 L 6.35 9 Q 6 9 6 8.65 L 6 8.35 L 6 7.65 L 6 7.35 L 6 6.65 L 6 6.35 Q 6 6 6.35 6 Z" fill="#000000"></path>
<path d="M 6.35 12 L 6.65 12 L 7.35 12 L 7.65 12 Q 8 12 8 12.35 L 8 12.65 L 8 13.35 L 8 13.65 Q 8 14 7.65 14 L 7.35 14 Q 7 14 7 13.65 L 7 13.35 Q 7 13 6.65 13 L 6.35 13 Q 6 13 6 12.65 L 6 12.35 Q 6 12 6.35 12 Z" fill="#000000"></path>
<path d="M 6.35 26 L 6.65 26 Q 7 26 7 26.35 L 7 26.65 Q 7 27 6.65 27 L 6.35 27 Q 6 27 6 26.65 L 6 26.35 Q 6 26 6.35 26 Z" fill="#000000"></path>
<path d="M 6.35 28 L 6.65 28 L 7.35 28 L 7.65 28 Q 8 28 8 28.35 L 8 28.65 Q 8 29 7.65 29 L 7.35 29 L 6.65 29 L 6.35 29 Q 6 29 6 28.65 L 6 28.35 Q 6 28 6.35 28 Z" fill="#000000"></path>
<path d="M 6.35 32 L 6.65 32 L 7.35 32 L 7.65 32 L 8.35 32 L 8.65 32 Q 9 32 9 32.35 L 9 32.65 L 9 33.35 L 9 33.65 L 9 34.35 L 9 34.65 Q 9 35 8.65 35 L 8.35 35 L 7.65 35 L 7.35 35 L 6.65 35 L 6.35 35 Q 6 35 6 34.65 L 6 34.35 L 6 33.65 L 6 33.35 L 6 32.65 L 6 32.35 Q 6 32 6.35 32 Z" fill="#000000"></path>
<path d="M 7.35 19 L 7.65 19 Q 8 19 8 19.35 L 8 19.65 Q 8 20 7.65 20 L 7.35 20 Q 7 20 7 19.65 L 7 19.35 Q 7 19 7.35 19 Z" fill="#000000"></path>
<path d="M 8.35 27 L 8.65 27 Q 9 27 9 27.35 L 9 27.65 Q 9 28 8.65 28 L 8.35 28 Q 8 28 8 27.65 L 8 27.35 Q 8 27 8.35 27 Z" fill="#000000"></path>
<path d="M 9.35 12 L 9.65 12 L 10.35 12 L 10.65 12 L 11.35 12 L 11.65 12 Q 12 12 12 12.35 L 12 12.65 Q 12 13 12.35 13 L 12.65 13 Q 13 13 13 13.35 L 13 13.65 Q 13 14 12.65 14 L 12.35 14 Q 12 14 12 14.35 L 12 14.65 Q 12 15 11.65 15 L 11.35 15 L 10.65 15 L 10.35 15 Q 10 15 10 14.65 L 10 14.35 Q 10 14 10.35 14 L 10.65 14 Q 11 14 11 13.65 L 11 13.35 Q 11 13 10.65 13 L 10.35 13 Q 10 13 10 13.35 L 10 13.65 Q 10 14 9.65 14 L 9.35 14 Q 9 14 9 13.65 L 9 13.35 L 9 12.65 L 9 12.35 Q 9 12 9.35 12 Z" fill="#000000"></path>
<path d="M 10.35 18 L 10.65 18 Q 11 18 11 18.35 L 11 18.65 Q 11 19 10.65 19 L 10.35 19 Q 10 19 10 18.65 L 10 18.35 Q 10 18 10.35 18 Z" fill="#000000"></path>
<path d="M 10.35 22 L 10.65 22 Q 11 22 11 22.35 L 11 22.65 Q 11 23 10.65 23 L 10.35 23 Q 10 23 10 22.65 L 10 22.35 Q 10 22 10.35 22 Z" fill="#000000"></path>
<path d="M 10.35 28 L 10.65 28 Q 11 28 11 28.35 L 11 28.65 Q 11 29 10.65 29 L 10.35 29 Q 10 29 10 28.65 L 10 28.35 Q 10 28 10.35 28 Z" fill="#000000"></path>
<path d="M 11.35 17 L 11.65 17 Q 12 17 12 17.35 L 12 17.65 Q 12 18 11.65 18 L 11.35 18 Q 11 18 11 17.65 L 11 17.35 Q 11 17 11.35 17 Z" fill="#000000"></path>
<path d="M 12.35 4 L 12.65 4 Q 13 4 13 4.35 L 13 4.65 Q 13 5 13.35 5 L 13.65 5 L 14.35 5 L 14.65 5 Q 15 5 15 4.65 L 15 4.35 Q 15 4 15.35 4 L 15.65 4 Q 16 4 16 4.35 L 16 4.65 L 16 5.35 L 16 5.65 Q 16 6 15.65 6 L 15.35 6 Q 15 6 15 6.35 L 15 6.65 L 15 7.35 L 15 7.65 Q 15 8 14.65 8 L 14.35 8 Q 14 8 14 7.65 L 14 7.35 L 14 6.65 L 14 6.35 Q 14 6 13.65 6 L 13.35 6 L 12.65 6 L 12.35 6 Q 12 6 12 5.65 L 12 5.35 L 12 4.65 L 12 4.35 Q 12 4 12.35 4 Z" fill="#000000"></path>
<path d="M 12.35 7 L 12.65 7 Q 13 7 13 7.35 L 13 7.65 Q 13 8 12.65 8 L 12.35 8 Q 12 8 12 7.65 L 12 7.35 Q 12 7 12.35 7 Z" fill="#000000"></path>
<path d="M 12.35 10 L 12.65 10 Q 13 10 13 10.35 L 13 10.65 L 13 11.35 L 13 11.65 Q 13 12 12.65 12 L 12.35 12 Q 12 12 12 11.65 L 12 11.35 L 12 10.65 L 12 10.35 Q 12 10 12.35 10 Z" fill="#000000"></path>
<path d="M 12.35 16 L 12.65 16 L 13.35 16 L 13.65 16 Q 14 16 14 16.35 L 14 16.65 Q 14 17 13.65 17 L 13.35 17 L 12.65 17 L 12.35 17 Q 12 17 12 16.65 L 12 16.35 Q 12 16 12.35 16 Z" fill="#000000"></path>
<path d="M 12.35 29 L 12.65 29 Q 13 29 13 29.35 L 13 29.65 Q 13 30 13.35 30 L 13.65 30 L 14.35 30 L 14.65 30 Q 15 30 15 29.65 L 15 29.35 Q 15 29 15.35 29 L 15.65 29 L 16.35 29 L 16.65 29 Q 17 29 17 29.35 L 17 29.65 Q 17 30 16.65 30 L 16.35 30 Q 16 30 16 30.35 L 16 30.65 Q 16 31 15.65 31 L 15.35 31 Q 15 31 15 31.35 L 15 31.65 Q 15 32 14.65 32 L 14.35 32 Q 14 32 14 32.35 L 14 32.65 Q 14 33 13.65 33 L 13.35 33 Q 13 33 13 32.65 L 13 32.35 Q 13 32 12.65 32 L 12.35 32 Q 12 32 12 31.65 L 12 31.35 L 12 30.65 L 12 30.35 L 12 29.65 L 12 29.35 Q 12 29 12.35 29 Z" fill="#000000"></path>
<path d="M 12.35 33 L 12.65 33 Q 13 33 13 33.35 L 13 33.65 Q 13 34 13.35 34 L 13.65 34 Q 14 34 14 34.35 L 14 34.65 Q 14 35 13.65 35 L 13.35 35 L 12.65 35 L 12.35 35 Q 12 35 12 34.65 L 12 34.35 L 12 33.65 L 12 33.35 Q 12 33 12.35 33 Z" fill="#000000"></path>
<path d="M 12.35 36 L 12.65 36 Q 13 36 13 36.35 L 13 36.65 Q 13 37 12.65 37 L 12.35 37 Q 12 37 12 36.65 L 12 36.35 Q 12 36 12.35 36 Z" fill="#000000"></path>
<path d="M 13.35 8 L 13.65 8 Q 14 8 14 8.35 L 14 8.65 Q 14 9 14.35 9 L 14.65 9 Q 15 9 15 8.65 L 15 8.35 Q 15 8 15.35 8 L 15.65 8 Q 16 8 16 7.65 L 16 7.35 L 16 6.65 L 16 6.35 Q 16 6 16.35 6 L 16.65 6 Q 17 6 17 6.35 L 17 6.65 L 17 7.35 L 17 7.65 Q 17 8 17.35 8 L 17.65 8 Q 18 8 18 7.65 L 18 7.35 Q 18 7 18.35 7 L 18.65 7 L 19.35 7 L 19.65 7 Q 20 7 20 7.35 L 20 7.65 Q 20 8 19.65 8 L 19.35 8 Q 19 8 19 8.35 L 19 8.65 L 19 9.35 L 19 9.65 L 19 10.35 L 19 10.65 Q 19 11 18.65 11 L 18.35 11 Q 18 11 18 10.65 L 18 10.35 L 18 9.65 L 18 9.35 Q 18 9 17.65 9 L 17.35 9 L 16.65 9 L 16.35 9 Q 16 9 16 9.35 L 16 9.65 Q 16 10 15.65 10 L 15.35 10 Q 15 10 15 10.35 L 15 10.65 Q 15 11 14.65 11 L 14.35 11 Q 14 11 14 10.65 L 14 10.35 Q 14 10 13.65 10 L 13.35 10 Q 13 10 13 9.65 L 13 9.35 L 13 8.65 L 13 8.35 Q 13 8 13.35 8 Z" fill="#000000"></path>
<path d="M 14.35 12 L 14.65 12 Q 15 12 15 12.35 L 15 12.65 L 15 13.35 L 15 13.65 Q 15 14 14.65 14 L 14.35 14 Q 14 14 14 13.65 L 14 13.35 L 14 12.65 L 14 12.35 Q 14 12 14.35 12 Z" fill="#000000"></path>
<path d="M 14.35 17 L 14.65 17 Q 15 17 15 17.35 L 15 17.65 Q 15 18 14.65 18 L 14.35 18 Q 14 18 14 17.65 L 14 17.35 Q 14 17 14.35 17 Z" fill="#000000"></path>
<path d="M 15.35 16 L 15.65 16 Q 16 16 16 15.65 L 16 15.35 L 16 14.65 L 16 14.35 L 16 13.65 L 16 13.35 Q 16 13 16.35 13 L 16.65 13 Q 17 13 17 13.35 L 17 13.65 L 17 14.35 L 17 14.65 Q 17 15 17.35 15 L 17.65 15 Q 18 15 18 14.65 L 18 14.35 Q 18 14 18.35 14 L 18.65 14 Q 19 14 19 14.35 L 19 14.65 Q 19 15 19.35 15 L 19.65 15 L 20.35 15 L 20.65 15 Q 21 15 21 15.35 L 21 15.65 Q 21 16 20.65 16 L 20.35 16 Q 20 16 20 16.35 L 20 16.65 Q 20 17 20.35 17 L 20.65 17 Q 21 17 21 17.35 L 21 17.65 L 21 18.35 L 21 18.65 Q 21 19 20.65 19 L 20.35 19 Q 20 19 20 18.65 L 20 18.35 Q 20 18 19.65 18 L 19.35 18 Q 19 18 19 17.65 L 19 17.35 L 19 16.65 L 19 16.35 Q 19 16 18.65 16 L 18.35 16 L 17.65 16 L 17.35 16 Q 17 16 17 16.35 L 17 16.65 Q 17 17 17.35 17 L 17.65 17 Q 18 17 18 17.35 L 18 17.65 Q 18 18 17.65 18 L 17.35 18 Q 17 18 17 18.35 L 17 18.65 Q 17 19 16.65 19 L 16.35 19 Q 16 19 16 18.65 L 16 18.35 L 16 17.65 L 16 17.35 Q 16 17 15.65 17 L 15.35 17 Q 15 17 15 16.65 L 15 16.35 Q 15 16 15.35 16 Z" fill="#000000"></path>
<path d="M 15.35 19 L 15.65 19 Q 16 19 16 19.35 L 16 19.65 Q 16 20 15.65 20 L 15.35 20 Q 15 20 15 19.65 L 15 19.35 Q 15 19 15.35 19 Z" fill="#000000"></path>
<path d="M 15.35 32 L 15.65 32 L 16.35 32 L 16.65 32 Q 17 32 17 32.35 L 17 32.65 L 17 33.35 L 17 33.65 Q 17 34 16.65 34 L 16.35 34 Q 16 34 16 34.35 L 16 34.65 L 16 35.35 L 16 35.65 Q 16 36 16.35 36 L 16.65 36 Q 17 36 17 36.35 L 17 36.65 Q 17 37 16.65 37 L 16.35 37 L 15.65 37 L 15.35 37 Q 15 37 15 36.65 L 15 36.35 L 15 35.65 L 15 35.35 L 15 34.65 L 15 34.35 L 15 33.65 L 15 33.35 L 15 32.65 L 15 32.35 Q 15 32 15.35 32 Z" fill="#000000"></path>
<path d="M 16.35 10 L 16.65 10 Q 17 10 17 10.35 L 17 10.65 L 17 11.35 L 17 11.65 Q 17 12 16.65 12 L 16.35 12 Q 16 12 16 11.65 L 16 11.35 L 16 10.65 L 16 10.35 Q 16 10 16.35 10 Z" fill="#000000"></path>
<path d="M 17.35 4 L 17.65 4 Q 18 4 18 4.35 L 18 4.65 L 18 5.35 L 18 5.65 Q 18 6 17.65 6 L 17.35 6 Q 17 6 17 5.65 L 17 5.35 L 17 4.65 L 17 4.35 Q 17 4 17.35 4 Z" fill="#000000"></path>
<path d="M 17.35 20 L 17.65 20 Q 18 20 18 20.35 L 18 20.65 Q 18 21 17.65 21 L 17.35 21 Q 17 21 17 20.65 L 17 20.35 Q 17 20 17.35 20 Z" fill="#000000"></path>
<path d="M 17.35 34 L 17.65 34 L 18.35 34 L 18.65 34 Q 19 34 19 33.65 L 19 33.35 Q 19 33 19.35 33 L 19.65 33 Q 20 33 20 33.35 L 20 33.65 Q 20 34 20.35 34 L 20.65 34 L 21.35 34 L 21.65 34 L 22.35 34 L 22.65 34 Q 23 34 23 34.35 L 23 34.65 Q 23 35 23.35 35 L 23.65 35 Q 24 35 24 35.35 L 24 35.65 Q 24 36 23.65 36 L 23.35 36 Q 23 36 23 36.35 L 23 36.65 Q 23 37 22.65 37 L 22.35 37 L 21.65 37 L 21.35 37 Q 21 37 21 36.65 L 21 36.35 Q 21 36 20.65 36 L 20.35 36 L 19.65 36 L 19.35 36 Q 19 36 19 35.65 L 19 35.35 Q 19 35 18.65 35 L 18.35 35 L 17.65 35 L 17.35 35 Q 17 35 17 34.65 L 17 34.35 Q 17 34 17.35 34 Z" fill="#000000"></path>
<path d="M 18.35 12 L 18.65 12 Q 19 12 19 12.35 L 19 12.65 Q 19 13 18.65 13 L 18.35 13 Q 18 13 18 12.65 L 18 12.35 Q 18 12 18.35 12 Z" fill="#000000"></path>
<path d="M 18.35 18 L 18.65 18 Q 19 18 19 18.35 L 19 18.65 Q 19 19 19.35 19 L 19.65 19 Q 20 19 20 19.35 L 20 19.65 Q 20 20 19.65 20 L 19.35 20 L 18.65 20 L 18.35 20 Q 18 20 18 19.65 L 18 19.35 L 18 18.65 L 18 18.35 Q 18 18 18.35 18 Z" fill="#000000"></path>
<path d="M 18.35 26 L 18.65 26 Q 19 26 19 26.35 L 19 26.65 Q 19 27 18.65 27 L 18.35 27 Q 18 27 18 26.65 L 18 26.35 Q 18 26 18.35 26 Z" fill="#000000"></path>
<path d="M 18.35 30 L 18.65 30 Q 19 30 19 30.35 L 19 30.65 Q 19 31 18.65 31 L 18.35 31 Q 18 31 18 30.65 L 18 30.35 Q 18 30 18.35 30 Z" fill="#000000"></path>
<path d="M 19.35 11 L 19.65 11 Q 20 11 20 11.35 L 20 11.65 Q 20 12 19.65 12 L 19.35 12 Q 19 12 19 11.65 L 19 11.35 Q 19 11 19.35 11 Z" fill="#000000"></path>
<path d="M 19.35 27 L 19.65 27 L 20.35 27 L 20.65 27 Q 21 27 21 27.35 L 21 27.65 Q 21 28 20.65 28 L 20.35 28 Q 20 28 20 28.35 L 20 28.65 Q 20 29 20.35 29 L 20.65 29 Q 21 29 21 29.35 L 21 29.65 Q 21 30 21.35 30 L 21.65 30 Q 22 30 22 29.65 L 22 29.35 Q 22 29 22.35 29 L 22.65 29 L 23.35 29 L 23.65 29 Q 24 29 24 29.35 L 24 29.65 L 24 30.35 L 24 30.65 Q 24 31 23.65 31 L 23.35 31 Q 23 31 23 31.35 L 23 31.65 Q 23 32 23.35 32 L 23.65 32 Q 24 32 24 31.65 L 24 31.35 Q 24 31 24.35 31 L 24.65 31 L 25.35 31 L 25.65 31 L 26.35 31 L 26.65 31 Q 27 31 27 30.65 L 27 30.35 L 27 29.65 L 27 29.35 Q 27 29 27.35 29 L 27.65 29 Q 28 29 28 28.65 L 28 28.35 Q 28 28 28.35 28 L 28.65 28 Q 29 28 29 27.65 L 29 27.35 Q 29 27 29.35 27 L 29.65 27 Q 30 27 30 27.35 L 30 27.65 Q 30 28 30.35 28 L 30.65 28 Q 31 28 31 27.65 L 31 27.35 Q 31 27 30.65 27 L 30.35 27 Q 30 27 30 26.65 L 30 26.35 L 30 25.65 L 30 25.35 Q 30 25 30.35 25 L 30.65 25 Q 31 25 31 25.35 L 31 25.65 Q 31 26 31.35 26 L 31.65 26 Q 32 26 32 26.35 L 32 26.65 Q 32 27 32.35 27 L 32.65 27 L 33.35 27 L 33.65 27 Q 34 27 34 27.35 L 34 27.65 Q 34 28 33.65 28 L 33.35 28 Q 33 28 33 28.35 L 33 28.65 Q 33 29 33.35 29 L 33.65 29 Q 34 29 34 29.35 L 34 29.65 Q 34 30 33.65 30 L 33.35 30 Q 33 30 33 30.35 L 33 30.65 Q 33 31 33.35 31 L 33.65 31 L 34.35 31 L 34.65 31 L 35.35 31 L 35.65 31 Q 36 31 36 31.35 L 36 31.65 Q 36 32 35.65 32 L 35.35 32 Q 35 32 35 32.35 L 35 32.65 Q 35 33 34.65 33 L 34.35 33 Q 34 33 34 32.65 L 34 32.35 Q 34 32 33.65 32 L 33.35 32 Q 33 32 33 32.35 L 33 32.65 Q 33 33 32.65 33 L 32.35 33 Q 32 33 32 33.35 L 32 33.65 L 32 34.35 L 32 34.65 Q 32 35 32.35 35 L 32.65 35 Q 33 35 33 35.35 L 33 35.65 L 33 36.35 L 33 36.65 Q 33 37 32.65 37 L 32.35 37 Q 32 37 32 36.65 L 32 36.35 Q 32 36 31.65 36 L 31.35 36 Q 31 36 31 35.65 L 31 35.35 Q 31 35 30.65 35 L 30.35 35 Q 30 35 30 34.65 L 30 34.35 Q 30 34 30.35 34 L 30.65 34 Q 31 34 31 33.65 L 31 33.35 Q 31 33 30.65 33 L 30.35 33 L 29.65 33 L 29.35 33 L 28.65 33 L 28.35 33 L 27.65 33 L 27.35 33 Q 27 33 27 32.65 L 27 32.35 Q 27 32 26.65 32 L 26.35 32 Q 26 32 26 32.35 L 26 32.65 Q 26 33 25.65 33 L 25.35 33 Q 25 33 25 33.35 L 25 33.65 Q 25 34 24.65 34 L 24.35 34 Q 24 34 24 33.65 L 24 33.35 Q 24 33 23.65 33 L 23.35 33 L 22.65 33 L 22.35 33 Q 22 33 22 32.65 L 22 32.35 L 22 31.65 L 22 31.35 Q 22 31 21.65 31 L 21.35 31 Q 21 31 21 31.35 L 21 31.65 L 21 32.35 L 21 32.65 Q 21 33 20.65 33 L 20.35 33 Q 20 33 20 32.65 L 20 32.35 Q 20 32 19.65 32 L 19.35 32 Q 19 32 19 31.65 L 19 31.35 Q 19 31 19.35 31 L 19.65 31 Q 20 31 20 30.65 L 20 30.35 Q 20 30 19.65 30 L 19.35 30 Q 19 30 19 29.65 L 19 29.35 L 19 28.65 L 19 28.35 L 19 27.65 L 19 27.35 Q 19 27 19.35 27 Z M 29 29.35 L 29 29.65 L 29 30.35 L 29 30.65 L 29 31.35 L 29 31.65 Q 29 32 29.35 32 L 29.65 32 L 30.35 32 L 30.65 32 L 31.35 32 L 31.65 32 Q 32 32 32 31.65 L 32 31.35 L 32 30.65 L 32 30.35 L 32 29.65 L 32 29.35 Q 32 29 31.65 29 L 31.35 29 L 30.65 29 L 30.35 29 L 29.65 29 L 29.35 29 Q 29 29 29 29.35 Z" fill="#000000"></path>
<path d="M 20.35 5 L 20.65 5 Q 21 5 21 5.35 L 21 5.65 Q 21 6 20.65 6 L 20.35 6 Q 20 6 20 5.65 L 20 5.35 Q 20 5 20.35 5 Z" fill="#000000"></path>
<path d="M 20.35 10 L 20.65 10 Q 21 10 21 10.35 L 21 10.65 Q 21 11 20.65 11 L 20.35 11 Q 20 11 20 10.65 L 20 10.35 Q 20 10 20.35 10 Z" fill="#000000"></path>
<path d="M 20.35 12 L 20.65 12 Q 21 12 21 11.65 L 21 11.35 Q 21 11 21.35 11 L 21.65 11 Q 22 11 22 10.65 L 22 10.35 Q 22 10 21.65 10 L 21.35 10 Q 21 10 21 9.65 L 21 9.35 Q 21 9 21.35 9 L 21.65 9 L 22.35 9 L 22.65 9 Q 23 9 23 8.65 L 23 8.35 Q 23 8 23.35 8 L 23.65 8 L 24.35 8 L 24.65 8 Q 25 8 25 8.35 L 25 8.65 Q 25 9 25.35 9 L 25.65 9 Q 26 9 26 9.35 L 26 9.65 Q 26 10 25.65 10 L 25.35 10 Q 25 10 25 10.35 L 25 10.65 Q 25 11 24.65 11 L 24.35 11 Q 24 11 24 10.65 L 24 10.35 Q 24 10 23.65 10 L 23.35 10 Q 23 10 23 10.35 L 23 10.65 Q 23 11 23.35 11 L 23.65 11 Q 24 11 24 11.35 L 24 11.65 L 24 12.35 L 24 12.65 Q 24 13 24.35 13 L 24.65 13 Q 25 13 25 13.35 L 25 13.65 L 25 14.35 L 25 14.65 L 25 15.35 L 25 15.65 Q 25 16 24.65 16 L 24.35 16 Q 24 16 24 15.65 L 24 15.35 L 24 14.65 L 24 14.35 Q 24 14 23.65 14 L 23.35 14 Q 23 14 23 14.35 L 23 14.65 L 23 15.35 L 23 15.65 Q 23 16 22.65 16 L 22.35 16 Q 22 16 22 15.65 L 22 15.35 Q 22 15 21.65 15 L 21.35 15 Q 21 15 21 14.65 L 21 14.35 Q 21 14 21.35 14 L 21.65 14 Q 22 14 22 13.65 L 22 13.35 Q 22 13 21.65 13 L 21.35 13 Q 21 13 21 13.35 L 21 13.65 Q 21 14 20.65 14 L 20.35 14 Q 20 14 20 13.65 L 20 13.35 L 20 12.65 L 20 12.35 Q 20 12 20.35 12 Z" fill="#000000"></path>
<path d="M 20.35 20 L 20.65 20 Q 21 20 21 20.35 L 21 20.65 Q 21 21 20.65 21 L 20.35 21 Q 20 21 20 20.65 L 20 20.35 Q 20 20 20.35 20 Z" fill="#000000"></path>
<path d="M 21.35 4 L 21.65 4 L 22.35 4 L 22.65 4 L 23.35 4 L 23.65 4 L 24.35 4 L 24.65 4 L 25.35 4 L 25.65 4 Q 26 4 26 4.35 L 26 4.65 Q 26 5 25.65 5 L 25.35 5 L 24.65 5 L 24.35 5 L 23.65 5 L 23.35 5 Q 23 5 23 5.35 L 23 5.65 Q 23 6 22.65 6 L 22.35 6 Q 22 6 22 5.65 L 22 5.35 Q 22 5 21.65 5 L 21.35 5 Q 21 5 21 4.65 L 21 4.35 Q 21 4 21.35 4 Z" fill="#000000"></path>
<path d="M 21.35 7 L 21.65 7 Q 22 7 22 7.35 L 22 7.65 Q 22 8 21.65 8 L 21.35 8 Q 21 8 21 7.65 L 21 7.35 Q 21 7 21.35 7 Z" fill="#000000"></path>
<path d="M 21.35 16 L 21.65 16 Q 22 16 22 16.35 L 22 16.65 Q 22 17 21.65 17 L 21.35 17 Q 21 17 21 16.65 L 21 16.35 Q 21 16 21.35 16 Z" fill="#000000"></path>
<path d="M 21.35 28 L 21.65 28 Q 22 28 22 28.35 L 22 28.65 Q 22 29 21.65 29 L 21.35 29 Q 21 29 21 28.65 L 21 28.35 Q 21 28 21.35 28 Z" fill="#000000"></path>
<path d="M 22.35 18 L 22.65 18 Q 23 18 23 17.65 L 23 17.35 L 23 16.65 L 23 16.35 Q 23 16 23.35 16 L 23.65 16 Q 24 16 24 16.35 L 24 16.65 L 24 17.35 L 24 17.65 L 24 18.35 L 24 18.65 Q 24 19 23.65 19 L 23.35 19 L 22.65 19 L 22.35 19 Q 22 19 22 18.65 L 22 18.35 Q 22 18 22.35 18 Z" fill="#000000"></path>
<path d="M 23.35 20 L 23.65 20 Q 24 20 24 19.65 L 24 19.35 Q 24 19 24.35 19 L 24.65 19 Q 25 19 25 18.65 L 25 18.35 L 25 17.65 L 25 17.35 Q 25 17 25.35 17 L 25.65 17 Q 26 17 26 17.35 L 26 17.65 L 26 18.35 L 26 18.65 Q 26 19 26.35 19 L 26.65 19 L 27.35 19 L 27.65 19 Q 28 19 28 19.35 L 28 19.65 Q 28 20 27.65 20 L 27.35 20 Q 27 20 27 20.35 L 27 20.65 Q 27 21 27.35 21 L 27.65 21 Q 28 21 28 20.65 L 28 20.35 Q 28 20 28.35 20 L 28.65 20 Q 29 20 29 19.65 L 29 19.35 Q 29 19 29.35 19 L 29.65 19 Q 30 19 30 18.65 L 30 18.35 Q 30 18 30.35 18 L 30.65 18 Q 31 18 31 18.35 L 31 18.65 L 31 19.35 L 31 19.65 L 31 20.35 L 31 20.65 L 31 21.35 L 31 21.65 Q 31 22 31.35 22 L 31.65 22 Q 32 22 32 21.65 L 32 21.35 L 32 20.65 L 32 20.35 Q 32 20 32.35 20 L 32.65 20 L 33.35 20 L 33.65 20 Q 34 20 34 19.65 L 34 19.35 Q 34 19 33.65 19 L 33.35 19 L 32.65 19 L 32.35 19 Q 32 19 32 18.65 L 32 18.35 Q 32 18 32.35 18 L 32.65 18 Q 33 18 33 17.65 L 33 17.35 Q 33 17 32.65 17 L 32.35 17 Q 32 17 32 17.35 L 32 17.65 Q 32 18 31.65 18 L 31.35 18 Q 31 18 31 17.65 L 31 17.35 L 31 16.65 L 31 16.35 L 31 15.65 L 31 15.35 Q 31 15 30.65 15 L 30.35 15 Q 30 15 30 14.65 L 30 14.35 L 30 13.65 L 30 13.35 L 30 12.65 L 30 12.35 Q 30 12 30.35 12 L 30.65 12 Q 31 12 31 12.35 L 31 12.65 Q 31 13 31.35 13 L 31.65 13 Q 32 13 32 13.35 L 32 13.65 Q 32 14 32.35 14 L 32.65 14 Q 33 14 33 13.65 L 33 13.35 L 33 12.65 L 33 12.35 Q 33 12 33.35 12 L 33.65 12 Q 34 12 34 12.35 L 34 12.65 Q 34 13 34.35 13 L 34.65 13 Q 35 13 35 12.65 L 35 12.35 Q 35 12 35.35 12 L 35.65 12 L 36.35 12 L 36.65 12 Q 37 12 37 12.35 L 37 12.65 L 37 13.35 L 37 13.65 L 37 14.35 L 37 14.65 Q 37 15 36.65 15 L 36.35 15 Q 36 15 36 15.35 L 36 15.65 Q 36 16 35.65 16 L 35.35 16 Q 35 16 35 15.65 L 35 15.35 L 35 14.65 L 35 14.35 Q 35 14 34.65 14 L 34.35 14 Q 34 14 34 14.35 L 34 14.65 L 34 15.35 L 34 15.65 L 34 16.35 L 34 16.65 L 34 17.35 L 34 17.65 Q 34 18 34.35 18 L 34.65 18 Q 35 18 35 18.35 L 35 18.65 L 35 19.35 L 35 19.65 L 35 20.35 L 35 20.65 Q 35 21 34.65 21 L 34.35 21 Q 34 21 34 21.35 L 34 21.65 Q 34 22 33.65 22 L 33.35 22 Q 33 22 33 22.35 L 33 22.65 L 33 23.35 L 33 23.65 Q 33 24 32.65 24 L 32.35 24 Q 32 24 32 23.65 L 32 23.35 Q 32 23 31.65 23 L 31.35 23 Q 31 23 31 23.35 L 31 23.65 Q 31 24 30.65 24 L 30.35 24 L 29.65 24 L 29.35 24 Q 29 24 29 23.65 L 29 23.35 Q 29 23 29.35 23 L 29.65 23 Q 30 23 30 22.65 L 30 22.35 L 30 21.65 L 30 21.35 Q 30 21 29.65 21 L 29.35 21 Q 29 21 29 21.35 L 29 21.65 Q 29 22 28.65 22 L 28.35 22 L 27.65 22 L 27.35 22 L 26.65 22 L 26.35 22 Q 26 22 26 22.35 L 26 22.65 Q 26 23 25.65 23 L 25.35 23 L 24.65 23 L 24.35 23 Q 24 23 24 22.65 L 24 22.35 Q 24 22 24.35 22 L 24.65 22 Q 25 22 25 21.65 L 25 21.35 Q 25 21 24.65 21 L 24.35 21 L 23.65 21 L 23.35 21 Q 23 21 23 20.65 L 23 20.35 Q 23 20 23.35 20 Z M 32 15.35 L 32 15.65 Q 32 16 32.35 16 L 32.65 16 Q 33 16 33 15.65 L 33 15.35 Q 33 15 32.65 15 L 32.35 15 Q 32 15 32 15.35 Z" fill="#000000"></path>
<path d="M 25.35 12 L 25.65 12 Q 26 12 26 12.35 L 26 12.65 Q 26 13 25.65 13 L 25.35 13 Q 25 13 25 12.65 L 25 12.35 Q 25 12 25.35 12 Z" fill="#000000"></path>
<path d="M 25.35 24 L 25.65 24 Q 26 24 26 24.35 L 26 24.65 Q 26 25 25.65 25 L 25.35 25 Q 25 25 25 24.65 L 25 24.35 Q 25 24 25.35 24 Z" fill="#000000"></path>
<path d="M 25.35 29 L 25.65 29 Q 26 29 26 29.35 L 26 29.65 Q 26 30 25.65 30 L 25.35 30 Q 25 30 25 29.65 L 25 29.35 Q 25 29 25.35 29 Z" fill="#000000"></path>
<path d="M 25.35 36 L 25.65 36 Q 26 36 26 36.35 L 26 36.65 Q 26 37 25.65 37 L 25.35 37 Q 25 37 25 36.65 L 25 36.35 Q 25 36 25.35 36 Z" fill="#000000"></path>
<path d="M 26.35 5 L 26.65 5 Q 27 5 27 4.65 L 27 4.35 Q 27 4 27.35 4 L 27.65 4 Q 28 4 28 4.35 L 28 4.65 L 28 5.35 L 28 5.65 Q 28 6 28.35 6 L 28.65 6 Q 29 6 29 6.35 L 29 6.65 L 29 7.35 L 29 7.65 L 29 8.35 L 29 8.65 L 29 9.35 L 29 9.65 L 29 10.35 L 29 10.65 Q 29 11 28.65 11 L 28.35 11 Q 28 11 28 10.65 L 28 10.35 L 28 9.65 L 28 9.35 L 28 8.65 L 28 8.35 Q 28 8 27.65 8 L 27.35 8 Q 27 8 27 7.65 L 27 7.35 Q 27 7 26.65 7 L 26.35 7 Q 26 7 26 6.65 L 26 6.35 L 26 5.65 L 26 5.35 Q 26 5 26.35 5 Z" fill="#000000"></path>
<path d="M 26.35 8 L 26.65 8 Q 27 8 27 8.35 L 27 8.65 Q 27 9 26.65 9 L 26.35 9 Q 26 9 26 8.65 L 26 8.35 Q 26 8 26.35 8 Z" fill="#000000"></path>
<path d="M 26.35 10 L 26.65 10 Q 27 10 27 10.35 L 27 10.65 Q 27 11 27.35 11 L 27.65 11 Q 28 11 28 11.35 L 28 11.65 L 28 12.35 L 28 12.65 Q 28 13 28.35 13 L 28.65 13 Q 29 13 29 13.35 L 29 13.65 L 29 14.35 L 29 14.65 Q 29 15 28.65 15 L 28.35 15 L 27.65 15 L 27.35 15 L 26.65 15 L 26.35 15 Q 26 15 26 14.65 L 26 14.35 Q 26 14 26.35 14 L 26.65 14 Q 27 14 27 13.65 L 27 13.35 L 27 12.65 L 27 12.35 Q 27 12 26.65 12 L 26.35 12 Q 26 12 26 11.65 L 26 11.35 L 26 10.65 L 26 10.35 Q 26 10 26.35 10 Z" fill="#000000"></path>
<path d="M 26.35 16 L 26.65 16 L 27.35 16 L 27.65 16 L 28.35 16 L 28.65 16 L 29.35 16 L 29.65 16 Q 30 16 30 16.35 L 30 16.65 Q 30 17 29.65 17 L 29.35 17 Q 29 17 29 17.35 L 29 17.65 L 29 18.35 L 29 18.65 Q 29 19 28.65 19 L 28.35 19 Q 28 19 28 18.65 L 28 18.35 L 28 17.65 L 28 17.35 Q 28 17 27.65 17 L 27.35 17 L 26.65 17 L 26.35 17 Q 26 17 26 16.65 L 26 16.35 Q 26 16 26.35 16 Z" fill="#000000"></path>
<path d="M 26.35 23 L 26.65 23 L 27.35 23 L 27.65 23 Q 28 23 28 23.35 L 28 23.65 Q 28 24 27.65 24 L 27.35 24 L 26.65 24 L 26.35 24 Q 26 24 26 23.65 L 26 23.35 Q 26 23 26.35 23 Z" fill="#000000"></path>
<path d="M 26.35 28 L 26.65 28 Q 27 28 27 28.35 L 27 28.65 Q 27 29 26.65 29 L 26.35 29 Q 26 29 26 28.65 L 26 28.35 Q 26 28 26.35 28 Z" fill="#000000"></path>
<path d="M 26.35 33 L 26.65 33 Q 27 33 27 33.35 L 27 33.65 Q 27 34 27.35 34 L 27.65 34 Q 28 34 28 34.35 L 28 34.65 Q 28 35 27.65 35 L 27.35 35 Q 27 35 27 35.35 L 27 35.65 Q 27 36 26.65 36 L 26.35 36 Q 26 36 26 35.65 L 26 35.35 L 26 34.65 L 26 34.35 L 26 33.65 L 26 33.35 Q 26 33 26.35 33 Z" fill="#000000"></path>
<path d="M 27.35 36 L 27.65 36 Q 28 36 28 36.35 L 28 36.65 Q 28 37 27.65 37 L 27.35 37 Q 27 37 27 36.65 L 27 36.35 Q 27 36 27.35 36 Z" fill="#000000"></path>
<path d="M 28.35 35 L 28.65 35 L 29.35 35 L 29.65 35 Q 30 35 30 35.35 L 30 35.65 L 30 36.35 L 30 36.65 Q 30 37 29.65 37 L 29.35 37 Q 29 37 29 36.65 L 29 36.35 Q 29 36 28.65 36 L 28.35 36 Q 28 36 28 35.65 L 28 35.35 Q 28 35 28.35 35 Z" fill="#000000"></path>
<path d="M 30.35 4 L 30.65 4 L 31.35 4 L 31.65 4 L 32.35 4 L 32.65 4 L 33.35 4 L 33.65 4 L 34.35 4 L 34.65 4 L 35.35 4 L 35.65 4 L 36.35 4 L 36.65 4 Q 37 4 37 4.35 L 37 4.65 L 37 5.35 L 37 5.65 L 37 6.35 L 37 6.65 L 37 7.35 L 37 7.65 L 37 8.35 L 37 8.65 L 37 9.35 L 37 9.65 L 37 10.35 L 37 10.65 Q 37 11 36.65 11 L 36.35 11 L 35.65 11 L 35.35 11 L 34.65 11 L 34.35 11 L 33.65 11 L 33.35 11 L 32.65 11 L 32.35 11 L 31.65 11 L 31.35 11 L 30.65 11 L 30.35 11 Q 30 11 30 10.65 L 30 10.35 L 30 9.65 L 30 9.35 L 30 8.65 L 30 8.35 L 30 7.65 L 30 7.35 L 30 6.65 L 30 6.35 L 30 5.65 L 30 5.35 L 30 4.65 L 30 4.35 Q 30 4 30.35 4 Z M 31 5.35 L 31 5.65 L 31 6.35 L 31 6.65 L 31 7.35 L 31 7.65 L 31 8.35 L 31 8.65 L 31 9.35 L 31 9.65 Q 31 10 31.35 10 L 31.65 10 L 32.35 10 L 32.65 10 L 33.35 10 L 33.65 10 L 34.35 10 L 34.65 10 L 35.35 10 L 35.65 10 Q 36 10 36 9.65 L 36 9.35 L 36 8.65 L 36 8.35 L 36 7.65 L 36 7.35 L 36 6.65 L 36 6.35 L 36 5.65 L 36 5.35 Q 36 5 35.65 5 L 35.35 5 L 34.65 5 L 34.35 5 L 33.65 5 L 33.35 5 L 32.65 5 L 32.35 5 L 31.65 5 L 31.35 5 Q 31 5 31 5.35 Z" fill="#000000"></path>
<path d="M 30.35 30 L 30.65 30 Q 31 30 31 30.35 L 31 30.65 Q 31 31 30.65 31 L 30.35 31 Q 30 31 30 30.65 L 30 30.35 Q 30 30 30.35 30 Z" fill="#000000"></path>
<path d="M 31.35 24 L 31.65 24 Q 32 24 32 24.35 L 32 24.65 Q 32 25 31.65 25 L 31.35 25 Q 31 25 31 24.65 L 31 24.35 Q 31 24 31.35 24 Z" fill="#000000"></path>
<path d="M 32.35 6 L 32.65 6 L 33.35 6 L 33.65 6 L 34.35 6 L 34.65 6 Q 35 6 35 6.35 L 35 6.65 L 35 7.35 L 35 7.65 L 35 8.35 L 35 8.65 Q 35 9 34.65 9 L 34.35 9 L 33.65 9 L 33.35 9 L 32.65 9 L 32.35 9 Q 32 9 32 8.65 L 32 8.35 L 32 7.65 L 32 7.35 L 32 6.65 L 32 6.35 Q 32 6 32.35 6 Z" fill="#000000"></path>
<path d="M 33.35 24 L 33.65 24 L 34.35 24 L 34.65 24 L 35.35 24 L 35.65 24 Q 36 24 36 24.35 L 36 24.65 Q 36 25 35.65 25 L 35.35 25 L 34.65 25 L 34.35 25 Q 34 25 34 25.35 L 34 25.65 Q 34 26 33.65 26 L 33.35 26 Q 33 26 33 25.65 L 33 25.35 L 33 24.65 L 33 24.35 Q 33 24 33.35 24 Z" fill="#000000"></path>
<path d="M 33.35 33 L 33.65 33 Q 34 33 34 33.35 L 34 33.65 Q 34 34 33.65 34 L 33.35 34 Q 33 34 33 33.65 L 33 33.35 Q 33 33 33.35 33 Z" fill="#000000"></path>
<path d="M 34.35 22 L 34.65 22 L 35.35 22 L 35.65 22 Q 36 22 36 22.35 L 36 22.65 Q 36 23 35.65 23 L 35.35 23 L 34.65 23 L 34.35 23 Q 34 23 34 22.65 L 34 22.35 Q 34 22 34.35 22 Z" fill="#000000"></path>
<path d="M 34.35 26 L 34.65 26 L 35.35 26 L 35.65 26 Q 36 26 36 25.65 L 36 25.35 Q 36 25 36.35 25 L 36.65 25 Q 37 25 37 25.35 L 37 25.65 L 37 26.35 L 37 26.65 Q 37 27 36.65 27 L 36.35 27 Q 36 27 36 27.35 L 36 27.65 Q 36 28 36.35 28 L 36.65 28 Q 37 28 37 28.35 L 37 28.65 Q 37 29 36.65 29 L 36.35 29 Q 36 29 36 29.35 L 36 29.65 Q 36 30 35.65 30 L 35.35 30 Q 35 30 35 29.65 L 35 29.35 L 35 28.65 L 35 28.35 L 35 27.65 L 35 27.35 Q 35 27 34.65 27 L 34.35 27 Q 34 27 34 26.65 L 34 26.35 Q 34 26 34.35 26 Z" fill="#000000"></path>
<path d="M 34.35 34 L 34.65 34 Q 35 34 35 34.35 L 35 34.65 Q 35 35 34.65 35 L 34.35 35 Q 34 35 34 34.65 L 34 34.35 Q 34 34 34.35 34 Z" fill="#000000"></path>
<path d="M 34.35 36 L 34.65 36 Q 35 36 35 36.35 L 35 36.65 Q 35 37 34.65 37 L 34.35 37 Q 34 37 34 36.65 L 34 36.35 Q 34 36 34.35 36 Z" fill="#000000"></path>
<path d="M 35.35 17 L 35.65 17 Q 36 17 36 17.35 L 36 17.65 Q 36 18 35.65 18 L 35.35 18 Q 35 18 35 17.65 L 35 17.35 Q 35 17 35.35 17 Z" fill="#000000"></path>
<path d="M 36.35 21 L 36.65 21 Q 37 21 37 21.35 L 37 21.65 Q 37 22 36.65 22 L 36.35 22 Q 36 22 36 21.65 L 36 21.35 Q 36 21 36.35 21 Z" fill="#000000"></path>
<path d="M 36.35 23 L 36.65 23 Q 37 23 37 23.35 L 37 23.65 Q 37 24 36.65 24 L 36.35 24 Q 36 24 36 23.65 L 36 23.35 Q 36 23 36.35 23 Z" fill="#000000"></path>
<path d="M 36.35 32 L 36.65 32 Q 37 32 37 32.35 L 37 32.65 L 37 33.35 L 37 33.65 Q 37 34 36.65 34 L 36.35 34 Q 36 34 36 33.65 L 36 33.35 L 36 32.65 L 36 32.35 Q 36 32 36.35 32 Z" fill="#000000"></path>
<path d="M 36.35 35 L 36.65 35 Q 37 35 37 35.35 L 37 35.65 Q 37 36 36.65 36 L 36.35 36 Q 36 36 36 35.65 L 36 35.35 Q 36 35 36.35 35 Z" fill="#000000"></path>

    </svg>